<svg fill="none" height="120" viewBox="0 0 120 120" width="120" xmlns="http://www.w3.org/2000/svg"><path d="m0 0h120v120h-120z" fill="#1880b6"/><path d="m90.8393 39.7679h-62.6786v39.4642h62.6786z" fill="#ff6673"/><g stroke="#324249" stroke-linecap="round" stroke-linejoin="round" stroke-width="2"><path d="m81.5536 32.8036h-44.1072v53.3928h44.1072z" fill="#daecf2"/><path d="m81.5536 39.7679h-44.1072v39.4642h44.1072z" fill="#ff6673"/><path d="m49.0536 56.0179-11.6072 13.9285v9.2857h11.6072l11.6071-11.6071z" fill="#daecf2"/><path d="m65.3036 62.9821-16.25 16.25h32.5z" fill="#daecf2"/><path d="m88.5178 79.2321h2.3215v-3.0357m-2.3215-36.4285h2.3215v3.0357m-6.9643 36.4285h-2.3214m2.3214-39.4642h-2.3214m9.2857 12.1428v-3.0356m0 12.1428v-3.0358m0 12.1428v-3.0356m-60.3572-27.3214h-2.3214v3.0357m2.3214 36.4285h-2.3214v-3.0357m6.9643-36.4285h2.3214m-2.3214 39.4642h2.3214m-9.2857-12.1428v3.0356m0-12.1428v3.0358m0-12.1428v3.0356"/><path d="m69.9464 56.0179c2.5642 0 4.6429-2.0787 4.6429-4.6429s-2.0787-4.6429-4.6429-4.6429c-2.5641 0-4.6428 2.0787-4.6428 4.6429s2.0787 4.6429 4.6428 4.6429z" fill="#daecf2"/></g></svg>