<svg fill="none" height="120" viewBox="0 0 120 120" width="120" xmlns="http://www.w3.org/2000/svg"><path d="m0 0h120v120h-120z" fill="#1880b6"/><g stroke="#324249" stroke-linecap="round" stroke-linejoin="round" stroke-width="2"><path d="m46.8 38.4c0-4.6392-3.7608-8.4-8.4-8.4s-8.4 3.7608-8.4 8.4 3.7608 8.4 8.4 8.4 8.4-3.7608 8.4-8.4z" fill="#daecf2"/><path d="m68.4 38.4c0-4.6392-3.7608-8.4-8.4-8.4s-8.4 3.7608-8.4 8.4 3.7608 8.4 8.4 8.4 8.4-3.7608 8.4-8.4z" fill="#daecf2"/><path d="m90 38.4c0-4.6392-3.7608-8.4-8.4-8.4s-8.4 3.7608-8.4 8.4 3.7608 8.4 8.4 8.4 8.4-3.7608 8.4-8.4z" fill="#daecf2"/><path d="m46.8 60c0-4.6392-3.7608-8.4-8.4-8.4s-8.4 3.7608-8.4 8.4 3.7608 8.4 8.4 8.4 8.4-3.7608 8.4-8.4z" fill="#daecf2"/><path d="m46.8 81.6c0-4.6392-3.7608-8.4-8.4-8.4s-8.4 3.7608-8.4 8.4 3.7608 8.4 8.4 8.4 8.4-3.7608 8.4-8.4z" fill="#daecf2"/><path d="m68.4 60c0-4.6392-3.7608-8.4-8.4-8.4s-8.4 3.7608-8.4 8.4 3.7608 8.4 8.4 8.4 8.4-3.7608 8.4-8.4z" fill="#ff6673"/><path d="m90 60c0-4.6392-3.7608-8.4-8.4-8.4s-8.4 3.7608-8.4 8.4 3.7608 8.4 8.4 8.4 8.4-3.7608 8.4-8.4z" fill="#daecf2" fill-opacity=".933333"/><path d="m90 81.6c0-4.6392-3.7608-8.4-8.4-8.4s-8.4 3.7608-8.4 8.4 3.7608 8.4 8.4 8.4 8.4-3.7608 8.4-8.4z" fill="#daecf2"/><path d="m68.4 81.6c0-4.6392-3.7608-8.4-8.4-8.4s-8.4 3.7608-8.4 8.4 3.7608 8.4 8.4 8.4 8.4-3.7608 8.4-8.4z" fill="#daecf2"/><path d="m85.2 70.8685-21.4971-8.4685-1.3029 1.3028 8.4685 21.4972 3.9087-10.4228z" fill="#ff6673"/></g></svg>