<?xml version="1.0" encoding="UTF-8" standalone="no"?>
<!-- Created with Inkscape (http://www.inkscape.org/) -->

<svg
   xmlns:dc="http://purl.org/dc/elements/1.1/"
   xmlns:cc="http://creativecommons.org/ns#"
   xmlns:rdf="http://www.w3.org/1999/02/22-rdf-syntax-ns#"
   xmlns:svg="http://www.w3.org/2000/svg"
   xmlns="http://www.w3.org/2000/svg"
   xmlns:sodipodi="http://sodipodi.sourceforge.net/DTD/sodipodi-0.dtd"
   xmlns:inkscape="http://www.inkscape.org/namespaces/inkscape"
   width="15.247056mm"
   height="15.247056mm"
   viewBox="0 0 54.025002 54.025001"
   id="svg5973"
   version="1.1"
   inkscape:version="0.91 r13725"
   sodipodi:docname="crown.svg">
  <defs
     id="defs5975" />
  <sodipodi:namedview
     id="base"
     pagecolor="#ffffff"
     bordercolor="#666666"
     borderopacity="1.0"
     inkscape:pageopacity="0.0"
     inkscape:pageshadow="2"
     inkscape:zoom="0.35"
     inkscape:cx="-542.27321"
     inkscape:cy="-21.558925"
     inkscape:document-units="px"
     inkscape:current-layer="layer1"
     showgrid="false"
     fit-margin-top="0"
     fit-margin-left="0"
     fit-margin-right="0"
     fit-margin-bottom="0"
     inkscape:window-width="1920"
     inkscape:window-height="998"
     inkscape:window-x="0"
     inkscape:window-y="0"
     inkscape:window-maximized="1" />
  <metadata
     id="metadata5978">
    <rdf:RDF>
      <cc:Work
         rdf:about="">
        <dc:format>image/svg+xml</dc:format>
        <dc:type
           rdf:resource="http://purl.org/dc/dcmitype/StillImage" />
        <dc:title></dc:title>
      </cc:Work>
    </rdf:RDF>
  </metadata>
  <g
     inkscape:label="Ebene 1"
     inkscape:groupmode="layer"
     id="layer1"
     transform="translate(-327.27321,-456.77828)">
    <g
       id="g372"
       transform="matrix(1.25,0,0,-1.25,354.28571,510.36578)">
      <path
         d="M 0,0 C 11.742,0 21.26,9.518 21.26,21.26 21.26,33.001 11.742,42.52 0,42.52 -11.741,42.52 -21.26,33.001 -21.26,21.26 -21.26,9.518 -11.741,0 0,0 Z"
         style="fill:none;stroke:#1c2646;stroke-width:0.69999999;stroke-linecap:butt;stroke-linejoin:miter;stroke-miterlimit:4;stroke-dasharray:none;stroke-opacity:1"
         id="path374"
         inkscape:connector-curvature="0" />
    </g>
    <g
       id="g376"
       transform="matrix(1.25,0,0,-1.25,361.43296,482.41528)">
      <path
         d="m 0,0 c 1.234,-2.949 0.327,-6.359 -2.21,-8.305 -2.536,-1.945 -6.065,-1.938 -8.593,0.018 -2.529,1.957 -3.421,5.372 -2.174,8.315 m 11.461,-7.733 5.853,-5.854 M -0.885,2.991 C -0.999,2.499 -1.437,2.151 -1.941,2.151 l -9.108,0 c -0.504,0 -0.941,0.348 -1.055,0.84 l -1.431,6.2 3.791,-3.249 3.249,3.249 3.25,-3.249 3.791,3.249 -1.431,-6.2 z m -12.65,6.2 c 0.598,0 1.083,0.486 1.083,1.084 0,0.599 -0.485,1.082 -1.083,1.082 -0.599,0 -1.084,-0.483 -1.084,-1.082 0,-0.598 0.485,-1.084 1.084,-1.084 z m 7.04,0 c 0.599,0 1.084,0.486 1.084,1.084 0,0.599 -0.485,1.082 -1.084,1.082 -0.598,0 -1.082,-0.483 -1.082,-1.082 0,-0.598 0.484,-1.084 1.082,-1.084 z m 7.041,0 c 0.599,0 1.083,0.486 1.083,1.084 0,0.599 -0.484,1.082 -1.083,1.082 -0.599,0 -1.083,-0.483 -1.083,-1.082 0,-0.598 0.484,-1.084 1.083,-1.084 z m -16.788,-18.413 0,-4.333 m 2.166,2.166 -4.334,0 m 22.747,17.873 0,-3.25 m 1.625,1.625 -3.25,0"
         style="fill:none;stroke:#1c2646;stroke-width:0.69999999;stroke-linecap:round;stroke-linejoin:round;stroke-miterlimit:4;stroke-dasharray:none;stroke-opacity:1"
         id="path378"
         inkscape:connector-curvature="0" />
    </g>
  </g>
</svg>
