<svg class="svg-icon" viewBox="0 0 53.918751 53.9175">
  <g transform="translate(-301.18341,-357.03662)">
    <path
       id="path120"
       style="fill:none;stroke-width:0.875;stroke-linecap:butt;stroke-linejoin:miter;stroke-miterlimit:10;stroke-dasharray:none;stroke-opacity:1"
       d="m 354.66466,383.99537 c 0,14.64625 -11.87375,26.52125 -26.52125,26.52125 -14.64875,0 -26.5225,-11.875 -26.5225,-26.52125 0,-14.6475 11.87375,-26.52125 26.5225,-26.52125 14.6475,0 26.52125,11.87375 26.52125,26.52125 z m -30.34375,-6.135 0,2.33 c 0,0 -4.63625,0.2175 -4.63625,4.74375 l 0,15.27 c 0,0 -0.2725,2.0175 2.345,2.0175 l 12.12375,0 c 2.6175,0 2.34375,-2.0175 2.34375,-2.0175 l 0,-15.27 c 0,-4.52625 -4.635,-4.74375 -4.635,-4.74375 l 0,-2.33 m -3.59625,-0.07 4.62125,0 c 0,0 0.65375,0.0475 0.65375,-0.8175 l 0,-4.58125 0.004,-0.75875 c 0,0 -0.035,-0.89375 -1.9125,-1.20375 -2.61875,-0.4325 -4.42125,-0.4325 -7.04,0 -1.87875,0.31 -1.91125,1.20375 -1.91125,1.20375 l 0.004,0.75875 0,4.58125 c 0,0.89625 0.65375,0.8175 0.65375,0.8175 l 4.62125,0 0.30625,0 z m 1.875,-7.5925 0,-4.18625 c 0,0 0.0975,-1.80375 -2.00875,-1.80375 -2.355,0 -2.1425,1.80375 -2.1425,1.80375 l 0,4.18625 m 3.21,8.055 0,13.49625 c 0,0 1.57375,2.7575 -1.11,2.7575 -2.6175,0 -1.07375,-2.7575 -1.07375,-2.7575 l 0,-13.49625" />
  </g>
</svg>
