<svg
   width="53.750984mm"
   height="53.750984mm"
   viewBox="0 0 190.45624 190.45624">
  <g
     transform="translate(-264.77188,-299.99123)">
    <path
       d="m 453.6825,395.21935 c 0,51.74125 -41.9425,93.6825 -93.6825,93.6825 -51.74,0 -93.6825,-41.94125 -93.6825,-93.6825 0,-51.74 41.9425,-93.6825 93.6825,-93.6825 51.74,0 93.6825,41.9425 93.6825,93.6825"
       style="fill:none;stroke:#9ca7be;stroke-width:3.09124994;stroke-linecap:butt;stroke-linejoin:miter;stroke-miterlimit:10;stroke-dasharray:none;stroke-opacity:1"/>
    <path
       d="m 360.61925,370.05273 16.32375,0 c 0,0 2.31,0.1675 2.31,-2.8875 l 0,-16.1825 0.0125,-2.68 c 0,0 -0.12375,-3.1575 -6.75625,-4.2525 -9.25,-1.5275 -15.61625,-1.5275 -24.8625,0 -6.6375,1.095 -6.75625,4.2525 -6.75625,4.2525 l 0.0138,2.68 0,16.1825 c 0,3.16625 2.31375,2.8875 2.31375,2.8875 l 16.31875,0 1.0825,0 z m -13.935,0.2475 0,8.23 c 0,0 -16.3775,0.7675 -16.3775,16.75625 l 0,53.93875 c 0,0 -0.9625,7.1275 8.28375,7.1275 l 42.825,0 c 9.24625,0 8.27875,-7.1275 8.27875,-7.1275 l 0,-53.93875 c 0,-15.98875 -16.37125,-16.75625 -16.37125,-16.75625 l 0,-8.23"
       style="fill:none;stroke:#9ca7be;stroke-width:3.09124994;stroke-linecap:butt;stroke-linejoin:miter;stroke-miterlimit:10;stroke-dasharray:none;stroke-opacity:1"/>
    <path
       d="m 369.26975,364.70235 -18.165,0 m 18.165,-7.76625 -18.165,0 m 18.165,-7.7275 -18.165,0"
       style="fill:none;stroke:#9ca7be;stroke-width:3.09124994;stroke-linecap:round;stroke-linejoin:miter;stroke-miterlimit:4;stroke-dasharray:none;stroke-opacity:1"/>
    <path
       d="m 382.68525,375.3726 c 1.10375,0 3.99125,0.21625 3.99125,-3.77125 0,-6.45125 -2.98375,-27.8525 -2.98375,-27.8525 0,0 -0.1475,-4.12375 -8.42875,-5.555 -11.535,-1.995 -19.4775,-1.995 -31.01125,0 -8.27875,1.43125 -8.43375,5.555 -8.43375,5.555 0,0 -2.975,21.40125 -2.975,27.8525 0,4.12875 3.6075,3.77125 4.14125,3.77125 l 43.43875,0 2.26125,0 z"
       style="fill:none;stroke:#9ca7be;stroke-width:3.09124994;stroke-linecap:butt;stroke-linejoin:miter;stroke-miterlimit:10;stroke-dasharray:none;stroke-opacity:1"/>
  </g>
</svg>
