<svg
   width="14.927792mm"
   height="14.927439mm"
   viewBox="0 0 52.89375 52.892499">
  <g
     transform="translate(-556.41027,-505.91595)">
    <path
       d="m 608.86652,532.3622 c 0,14.36375 -11.64375,26.00875 -26.00875,26.00875 -14.365,0 -26.01,-11.645 -26.01,-26.00875 0,-14.365 11.645,-26.00875 26.01,-26.00875 14.365,0 26.00875,11.64375 26.00875,26.00875"
       style="fill:none;stroke:#9ba7bf;stroke-width:0.875;stroke-linecap:butt;stroke-linejoin:miter;stroke-miterlimit:10;stroke-dasharray:none;stroke-opacity:1"
/>
    <path
       d="m 579.54164,547.68207 c -1.9225,0 -1.7225,-1.4875 -1.7225,-1.4875 l 0,-11.69 c 0.0937,-2.1225 1.1425,-2.29625 1.1425,-2.29625 0,0 -0.035,-0.85375 0.13875,-1.37625 0.175,-0.5225 0.47125,-0.97625 0.47125,-0.97625 l 0,-1.01625 c 0,-1.10875 0.87375,-1.24875 0.87375,-1.24875 l 0,-5.83625 c 0,-0.61 0.8725,-1.1325 0.8725,-1.1325 l 0.8725,-5.4875 0.8625,0 0.8725,5.4875 c 0,0 0.8725,0.5225 0.8725,1.1325 l 0,5.83625 c 0,0 0.87125,0.14 0.87125,1.24875 l 0,1.01625 c 0,0 0.2975,0.45375 0.47125,0.97625 0.17625,0.5225 0.14125,1.37625 0.14125,1.37625 0,0 1.04625,0.17375 1.14125,2.29625 l 0,11.69 c 0,0 0.20125,1.4875 -1.72125,1.4875 l -6.16,0 z"
       style="fill:none;stroke:#9ba7bf;stroke-width:0.875;stroke-linecap:round;stroke-linejoin:round;stroke-miterlimit:10;stroke-dasharray:none;stroke-opacity:1"
/>
    <path
       d="m 596.09802,544.11332 c 0.61375,-0.0375 1.61875,-0.13875 2.5525,-0.41375 1.48375,-0.43625 1.91875,-1.045 1.91875,-1.045 l -0.435,-8.45375 c 0,0 -0.0888,-0.435 -0.6125,-1.1325 -0.5225,-0.6975 -0.5225,-2.265 -0.60875,-3.31125 -0.0875,-1.04625 -0.4375,-3.39875 -0.8725,-4.9675 -0.4375,-1.56875 -0.52375,-1.7425 -0.52375,-1.7425 0,0 -0.52375,-0.61 -1.74625,-0.61 l -0.09,0 c -1.2225,0 -1.745,0.61 -1.745,0.61 0,0 -0.0888,0.17375 -0.52375,1.7425 -0.43625,1.56875 -0.785,3.92125 -0.87375,4.9675 -0.0862,1.04625 -0.0862,2.61375 -0.60875,3.31125 -0.525,0.6975 -0.61125,1.1325 -0.61125,1.1325 l -0.4375,8.45375 c 0,0 0.4375,0.60875 1.92,1.045 0.92,0.27 1.9075,0.3725 2.52375,0.4125 0.37875,0.0237 0.77375,10e-4 0.77375,10e-4 z"
       style="fill:none;stroke:#9ba7bf;stroke-width:0.875;stroke-linecap:butt;stroke-linejoin:miter;stroke-miterlimit:4;stroke-dasharray:none;stroke-opacity:1"
/>
    <path
       d="m 567.12464,531.06345 c 0,0 0.45375,0.43625 1.48375,0.7675 1.78875,0.57625 3.78625,-0.33125 3.78625,-0.33125 0,0 0.325,0.4325 1.20625,0.40125 0.975,-0.035 1.25625,-0.94125 1.25625,-0.94125 0,0 -0.4275,-0.0888 -0.785,-0.41875 -0.4375,-0.40125 -0.4675,-0.74375 -0.83375,-0.9625 -1.0175,-0.6075 -1.695,-0.8175 -3.48625,-0.8175 l -0.22625,0 c -3.21125,0 -4.15375,1.29125 -4.15375,1.64 0,0.34875 0.07,1.535 0.07,1.535 0,0 -0.4525,0.27875 -0.4525,1.11625 0,0.87625 0.42,5.965 0.52375,6.13875 0.1025,0.175 2.2325,1.22125 3.9425,1.22125 l 0.34875,0 c 1.78,0 3.8375,-1.0125 3.96,-1.22125 0.12375,-0.20875 0.52375,-5.2625 0.52375,-6.13875 0,-0.135 -0.01,-0.25375 -0.0312,-0.36 l -0.41375,-0.75625"
       style="fill:none;stroke:#9ba7bf;stroke-width:0.875;stroke-linecap:round;stroke-linejoin:miter;stroke-miterlimit:4;stroke-dasharray:none;stroke-opacity:1"
/>
  </g>
</svg>
