<svg class="svg-icon" viewBox="0 0 53.51875 53.518749">
   <g transform="translate(-336.04334,-386.34132)">
    <path
       style="fill:none;stroke:#9ba7bf;stroke-width:0.875;stroke-linecap:butt;stroke-linejoin:miter;stroke-miterlimit:10;stroke-dasharray:none;stroke-opacity:1"
       d="m 389.12459,413.10132 c 0,14.53625 -11.785,26.32125 -26.3225,26.32125 -14.53625,0 -26.32125,-11.785 -26.32125,-26.32125 0,-14.5375 11.785,-26.3225 26.32125,-26.3225 14.5375,0 26.3225,11.785 26.3225,26.3225 z m -28.11875,-3.8375 5.82125,0 c 0,0 0.75125,0.0538 0.75125,-0.93875 l 0,-5.25875 0.005,-0.87 c 0,0 -0.04,-1.0325 -2.19625,-1.38375 -1.34,-0.2175 -3.655,-0.2175 -5.295,0 -2.165,0.28875 -2.19375,1.38375 -2.19375,1.38375 l 0.004,0.87 0,5.25875 c 0,1.02875 0.75125,0.93875 0.75125,0.93875 l 2.00125,0 0.35125,0 z m 2.99875,15.61125 c 0,0 1.80875,3.165 -1.275,3.165 -3.00125,0 -1.2325,-3.165 -1.2325,-3.165 l 0,-15.49125 2.5075,0 0,15.49125 z m 0.60375,-24.06625 0,-4.21625 c 0,0 0.0875,-1.8175 -1.80875,-1.8175 -2.12,0 -1.92875,1.8175 -1.92875,1.8175 l 0,4.21625 m 16.335,18.4175 -5.82125,0 c 0,0 -0.7525,-0.055 -0.7525,0.93875 l 0,5.2575 -0.004,0.87125 c 0,0 0.0387,1.0325 2.195,1.3825 1.34125,0.2175 3.65625,0.2175 5.295,0 2.16625,-0.2875 2.19625,-1.3825 2.19625,-1.3825 l -0.005,-0.87125 0,-5.2575 c -5e-5,-1.02875 -0.7513,-0.93875 -0.7513,-0.93875 l -2.00125,0 -0.35125,0 z m -2.77625,-13.7425 2.05875,0 0,13.6225 -2.05875,0 0,-13.6225 z m 0.0562,-0.20375 -0.5575,-4.63 3.155,0 -0.6225,4.56125 m -24.4475,14.0975 -5.8225,0 c 0,0 -0.75125,-0.055 -0.75125,0.93875 l 0,5.2575 -0.004,0.87125 c 0,0 0.0387,1.0325 2.195,1.3825 1.34,0.21875 3.655,0.21875 5.29375,0 2.1675,-0.2875 2.19625,-1.3825 2.19625,-1.3825 l -0.005,-0.87125 0,-5.2575 c 0,-1.02875 -0.75125,-0.93875 -0.75125,-0.93875 l -2,0 -0.35125,0 z m -2.7775,-14.9075 2.05875,0 0,14.7875 -2.05875,0 0,-14.7875 z" />
  </g>
</svg>
