<svg width="25.289934mm"
   height="25.289934mm"
   viewBox="0 0 89.610003 89.610003">
  <g transform="translate(-330.195,-487.5572)">
    <path
       d="m 419.075,532.3622 c 0,24.34125 -19.73375,44.075 -44.075,44.075 -24.34,0 -44.075,-19.73375 -44.075,-44.075 0,-24.34375 19.735,-44.075 44.075,-44.075 24.34125,0 44.075,19.73125 44.075,44.075 z"
       style="fill:none;stroke:#3d4d70;stroke-width:1.46000004;stroke-linecap:butt;stroke-linejoin:miter;stroke-miterlimit:10;stroke-dasharray:none;stroke-opacity:1"/>
    <path
       d="m 371.655,525.43345 11.11375,0 c 0,0 1.435,0.1025 1.435,-1.7925 l 0,-10.0375 0.005,-1.66125 c 0,0 -0.0725,-1.97 -4.18875,-2.64 -2.5575,-0.415 -6.9775,-0.415 -10.10625,0 -4.13625,0.55 -4.1925,2.64 -4.1925,2.64 l 0.01,1.66125 0,10.0375 c 0,1.96375 1.43375,1.7925 1.43375,1.7925 l 3.81875,0 0.67125,0 z"
       style="fill:none;stroke:#3d4d70;stroke-width:1.66499996;stroke-linecap:butt;stroke-linejoin:miter;stroke-miterlimit:10;stroke-dasharray:none;stroke-opacity:1"/>
    <path
       d="m 377.38076,555.2332 c 0,0 3.45,6.0425 -2.4325,6.0425 -5.73125,0 -2.355,-6.0425 -2.355,-6.0425 l 0,-29.57 4.7875,0 0,29.57 z"
       style="fill:none;stroke:#3d4d70;stroke-width:1.66499996;stroke-linecap:butt;stroke-linejoin:miter;stroke-miterlimit:10;stroke-dasharray:none;stroke-opacity:1"/>
    <path
       d="m 356.90288,548.37783 c 0,2.3175 5.525,6.4025 1.145,7.415 -7.59875,1.75125 -5.9325,-5.68875 -5.9325,-5.68875 l 0,-32.05875 4.7875,0 0,30.3325 z"
       style="fill:none;stroke:#3d4d70;stroke-width:1.66499996;stroke-linecap:butt;stroke-linejoin:miter;stroke-miterlimit:10;stroke-dasharray:none;stroke-opacity:1"/>
    <path
       d="m 396.82163,550.06233 -1.7025,5.46 -1.21375,0 -1.87125,-5.41875 0,-32.05875 4.7875,0 0,32.0175 z"
       style="fill:none;stroke:#3d4d70;stroke-width:1.66499996;stroke-linecap:butt;stroke-linejoin:miter;stroke-miterlimit:10;stroke-dasharray:none;stroke-opacity:1"/>
    <path
       d="m 378.53188,509.29458 0,-8.04875 c 0,0 0.1675,-3.47125 -3.45125,-3.47125 -4.0475,0 -3.6825,3.47125 -3.6825,3.47125 l 0,8.04875"
       style="fill:none;stroke:#3d4d70;stroke-width:1.66499996;stroke-linecap:butt;stroke-linejoin:miter;stroke-miterlimit:10;stroke-dasharray:none;stroke-opacity:1"/>
  </g>
</svg>
