<svg
   width="54.049438mm"
   height="54.049435mm"
   viewBox="0 0 191.51376 191.51374">
  <g transform="translate(-329.95741,-282.31962)">
    <path
       d="m 519.92554,378.07649 c 0,52.0325 -42.17875,94.21125 -94.21126,94.21125 -52.0325,0 -94.21125,-42.17875 -94.21125,-94.21125 0,-52.03125 42.17875,-94.21125 94.21125,-94.21125 52.03251,0 94.21126,42.18 94.21126,94.21125 z"
       style="fill:none;stroke:#9ca7be;stroke-width:3.09124994;stroke-linecap:butt;stroke-linejoin:miter;stroke-miterlimit:10;stroke-dasharray:none;stroke-opacity:1"/>
    <path
       d="m 421.61678,366.16112 64.22001,-9.7725 0,-7.7175"
       style="fill:none;stroke:#9ca7be;stroke-width:3.09124994;stroke-linecap:round;stroke-linejoin:round;stroke-miterlimit:4;stroke-dasharray:none;stroke-opacity:1"/>
    <path
       d="m 364.96465,342.46362 0,6.98 56.095,17.01125"
       style="fill:none;stroke:#9ca7be;stroke-width:3.09124994;stroke-linecap:round;stroke-linejoin:round;stroke-miterlimit:4;stroke-dasharray:none;stroke-opacity:1"/>
    <path
       d="m 421.3104,355.38599 -56.26375,-13.165 51.77875,-6.12375 68.92751,11.85625 -64.44251,7.4325 z"
       style="fill:none;stroke:#9ca7be;stroke-width:3.09124994;stroke-linecap:round;stroke-linejoin:round;stroke-miterlimit:4;stroke-dasharray:none;stroke-opacity:1"/>
    <path
       d="m 421.61678,355.70649 0,10.54625 0,59.1675 64.22001,-10.38125 0,-58.25375"
       style="fill:none;stroke:#9ca7be;stroke-width:3.09124994;stroke-linecap:round;stroke-linejoin:round;stroke-miterlimit:4;stroke-dasharray:none;stroke-opacity:1"/>
    <path
       d="m 453.40703,420.22674 0,-35.3675 -22.655,3.05 0,35.9675"
       style="fill:none;stroke:#9ca7be;stroke-width:3.09124994;stroke-linecap:round;stroke-linejoin:round;stroke-miterlimit:4;stroke-dasharray:none;stroke-opacity:1"/>
    <path
       d="m 433.26778,407.00962 5.035,-0.50125 0,5.54125"
       style="fill:none;stroke:#9ca7be;stroke-width:3.09124994;stroke-linecap:round;stroke-linejoin:round;stroke-miterlimit:4;stroke-dasharray:none;stroke-opacity:1"/>
    <path
       d="m 364.96465,349.30262 0,46.34375 56.095,29.85625"
       style="fill:none;stroke:#9ca7be;stroke-width:3.09124994;stroke-linecap:round;stroke-linejoin:round;stroke-miterlimit:4;stroke-dasharray:none;stroke-opacity:1"/>
    <path
       d="m 364.82665,381.35162 56.57875,26.34"
       style="fill:none;stroke:#9ca7be;stroke-width:3.09124994;stroke-linecap:butt;stroke-linejoin:miter;stroke-miterlimit:4;stroke-dasharray:none;stroke-opacity:1"/>
    <path
       d="m 364.83215,368.317 56.565,22.44625"
       style="fill:none;stroke:#9ca7be;stroke-width:3.09124994;stroke-linecap:butt;stroke-linejoin:miter;stroke-miterlimit:4;stroke-dasharray:none;stroke-opacity:1"/>
  </g>
</svg>
