<?xml version="1.0" encoding="UTF-8" standalone="no"?>
<!-- Created with Inkscape (http://www.inkscape.org/) -->

<svg
   xmlns:dc="http://purl.org/dc/elements/1.1/"
   xmlns:cc="http://creativecommons.org/ns#"
   xmlns:rdf="http://www.w3.org/1999/02/22-rdf-syntax-ns#"
   xmlns:svg="http://www.w3.org/2000/svg"
   xmlns="http://www.w3.org/2000/svg"
   xmlns:sodipodi="http://sodipodi.sourceforge.net/DTD/sodipodi-0.dtd"
   xmlns:inkscape="http://www.inkscape.org/namespaces/inkscape"
   width="15.211777mm"
   height="15.211778mm"
   viewBox="0 0 53.899996 53.899999"
   id="svg3557"
   version="1.1"
   inkscape:version="0.91 r13725"
   sodipodi:docname="h_user.svg">
  <defs
     id="defs3559" />
  <sodipodi:namedview
     id="base"
     pagecolor="#ffffff"
     bordercolor="#666666"
     borderopacity="1.0"
     inkscape:pageopacity="0.0"
     inkscape:pageshadow="2"
     inkscape:zoom="0.35"
     inkscape:cx="327.66429"
     inkscape:cy="-427.33571"
     inkscape:document-units="px"
     inkscape:current-layer="layer1"
     showgrid="false"
     fit-margin-top="0"
     fit-margin-left="0"
     fit-margin-right="0"
     fit-margin-bottom="0"
     inkscape:window-width="1920"
     inkscape:window-height="998"
     inkscape:window-x="0"
     inkscape:window-y="0"
     inkscape:window-maximized="1" />
  <metadata
     id="metadata3562">
    <rdf:RDF>
      <cc:Work
         rdf:about="">
        <dc:format>image/svg+xml</dc:format>
        <dc:type
           rdf:resource="http://purl.org/dc/dcmitype/StillImage" />
        <dc:title></dc:title>
      </cc:Work>
    </rdf:RDF>
  </metadata>
  <g
     inkscape:label="Ebene 1"
     inkscape:groupmode="layer"
     id="layer1"
     transform="translate(-47.335714,-51.12649)">
    <path
       d="m 74.285714,104.58899 c 14.6425,0 26.512496,-11.87 26.512496,-26.5125 0,-14.6425 -11.869996,-26.5125 -26.512496,-26.5125 -14.6425,0 -26.5125,11.87 -26.5125,26.5125 0,14.6425 11.87,26.5125 26.5125,26.5125 z"
       style="fill:none;stroke:#9ba7bf;stroke-width:0.875;stroke-linecap:butt;stroke-linejoin:miter;stroke-miterlimit:4;stroke-dasharray:none;stroke-opacity:1"
       id="path68"
       inkscape:connector-curvature="0" />
    <path
       d="m 89.798334,71.18074 0.85375,-0.67625 c 0.5725,-0.45375 0.67,-1.28625 0.21375,-1.86125 l -1.645,-2.07625 c -0.45375,-0.57375 -1.2875,-0.67125 -1.86125,-0.21625 l -0.84875,0.6725 c -1.00875,-0.66875 -2.15,-1.1175 -3.3475,-1.31875 l -0.16,-1.08 c -0.10625,-0.7225 -0.77875,-1.22375 -1.50375,-1.11625 l -2.62125,0.38625 c -0.7225,0.10625 -1.225,0.78 -1.1175,1.505 l 0.15875,1.075 c -1.1175,0.55375 -2.07125,1.31875 -2.82625,2.2325 l -1.00375,-0.3975 c -0.3275,-0.13 -0.6925,-0.12375 -1.015,0.015 -0.3225,0.14 -0.57625,0.4025 -0.705,0.72875 l -0.97625,2.46375 c -0.27,0.68 0.0625,1.45 0.7425,1.72 l 1.015,0.40125 c -0.0775,1.17625 0.08625,2.385 0.525,3.55625 l -0.855,0.67625 c -0.57375,0.455 -0.67,1.2875 -0.21625,1.86125 l 1.64625,2.07625 c 0.455,0.575 1.2875,0.67125 1.8625,0.2175 l 0.8475,-0.6725 c 1.00875,0.67 2.15125,1.11625 3.3475,1.31875 l 0.15875,1.07875 c 0.1075,0.72375 0.78125,1.22375 1.505,1.11625 l 2.62125,-0.38625 c 0.725,-0.10625 1.22375,-0.77875 1.1175,-1.50375 l -0.1575,-1.075 c 1.1175,-0.5525 2.0725,-1.3175 2.825,-2.23125 l 1.005,0.39625 c 0.3275,0.13 0.6925,0.12375 1.01375,-0.015 0.3225,-0.14 0.575,-0.40125 0.70625,-0.72875 l 0.975,-2.4625 c 0.13,-0.3275 0.125,-0.6925 -0.015,-1.015 -0.14,-0.32125 -0.4025,-0.57625 -0.72875,-0.705 l -1.01125,-0.40125 c 0.07625,-1.1775 -0.0875,-2.38625 -0.525,-3.55875 z m -3.70375,2.365 c 0.355,2.40625 -1.31,4.645 -3.71625,5.00125 -2.4075,0.355 -4.645,-1.30875 -5.00125,-3.71625 -0.35375,-2.405 1.3075,-4.645 3.71625,-5.00125 2.40625,-0.355 4.64625,1.31 5.00125,3.71625 z"
       style="fill:none;stroke:#9ba7bf;stroke-width:0.875;stroke-linecap:round;stroke-linejoin:round;stroke-miterlimit:10;stroke-dasharray:none;stroke-opacity:1"
       id="path72"
       inkscape:connector-curvature="0" />
    <path
       d="m 75.478334,87.00411 0.6125,-0.5575 c 0.25625,-0.23 0.27625,-0.62625 0.04375,-0.88125 l -0.84,-0.9275 c -0.1125,-0.1225 -0.26625,-0.19625 -0.4325,-0.20375 -0.16625,-0.0087 -0.32875,0.05 -0.45125,0.16125 l -0.6125,0.5575 c -0.5675,-0.3425 -1.21125,-0.56875 -1.9125,-0.6225 l -0.17375,-0.8 c -0.0725,-0.3375 -0.405,-0.55125 -0.7425,-0.4775 l -1.2225,0.26375 c -0.33625,0.07375 -0.55,0.40625 -0.47875,0.74375 l 0.175,0.80125 c -0.5975,0.3275 -1.105,0.79125 -1.49125,1.3525 l -0.78125,-0.25 c -0.1575,-0.05125 -0.32875,-0.0375 -0.47625,0.03875 -0.14875,0.075 -0.25875,0.20625 -0.31,0.365 l -0.38125,1.19 c -0.05125,0.1575 -0.0375,0.33 0.03875,0.4775 0.07625,0.1475 0.2075,0.25875 0.365,0.30875 l 0.78,0.25125 c -0.01625,0.70375 0.145,1.3675 0.43125,1.96375 l -0.61125,0.55625 c -0.255,0.23125 -0.27375,0.62625 -0.04375,0.8825 l 0.84125,0.92625 c 0.11125,0.1225 0.26625,0.19625 0.4325,0.20375 0.16625,0.0088 0.3275,-0.04875 0.45,-0.16125 l 0.6125,-0.555 c 0.56625,0.3425 1.21,0.56875 1.91375,0.6225 l 0.1725,0.8 c 0.0725,0.33625 0.40625,0.55 0.7425,0.4775 l 1.2225,-0.265 c 0.3375,-0.0725 0.55125,-0.405 0.47875,-0.7425 l -0.17375,-0.80125 c 0.5975,-0.33 1.105,-0.79375 1.49,-1.355 l 0.7825,0.25 c 0.15625,0.05125 0.32875,0.0375 0.47625,-0.03875 0.1475,-0.07625 0.2575,-0.2075 0.30875,-0.365 l 0.3825,-1.19125 c 0.105,-0.3275 -0.07625,-0.68 -0.40375,-0.785 l -0.78125,-0.25125 c 0.0125,-0.70375 -0.14625,-1.36625 -0.4325,-1.9625 z m -2.09625,1.48125 c 0.21875,1.0125 -0.42625,2.01 -1.435,2.22875 -1.0125,0.21875 -2.01125,-0.4225 -2.23,-1.43625 -0.21875,-1.01125 0.42375,-2.01 1.435,-2.22875 1.01125,-0.21875 2.01,0.42375 2.23,1.43625 z"
       style="fill:none;stroke:#9ba7bf;stroke-width:0.875;stroke-linecap:round;stroke-linejoin:round;stroke-miterlimit:10;stroke-dasharray:none;stroke-opacity:1"
       id="path76"
       inkscape:connector-curvature="0" />
    <path
       d="m 68.099084,74.52249 0.75125,-0.6825 c 0.3125,-0.2825 0.33625,-0.76625 0.0525,-1.08 l -1.03,-1.13375 c -0.13625,-0.15125 -0.325,-0.24125 -0.52875,-0.25125 -0.20375,-0.0087 -0.4025,0.0625 -0.55125,0.19875 l -0.75125,0.6825 c -0.69375,-0.42 -1.48125,-0.69625 -2.3425,-0.76125 l -0.21,-0.98 c -0.09125,-0.4125 -0.49625,-0.67625 -0.91125,-0.58625 l -1.495,0.32375 c -0.4125,0.09 -0.675,0.4975 -0.58625,0.91 l 0.2125,0.98125 c -0.73,0.4025 -1.35125,0.97 -1.82375,1.6575 l -0.95875,-0.3075 c -0.1925,-0.0625 -0.4025,-0.045 -0.5825,0.0475 -0.18125,0.0925 -0.3175,0.25375 -0.37875,0.4475 l -0.4675,1.4575 c -0.06375,0.19375 -0.045,0.40375 0.04875,0.585 0.09125,0.18 0.2525,0.315 0.44625,0.37625 l 0.95375,0.3075 c -0.01875,0.8625 0.17875,1.675 0.53,2.405 l -0.75125,0.68125 c -0.31125,0.28375 -0.33375,0.7675 -0.05125,1.08 l 1.02875,1.13375 c 0.13625,0.15 0.32625,0.24125 0.53,0.25 0.2025,0.01125 0.40125,-0.06 0.55125,-0.1975 l 0.74875,-0.67875 c 0.69375,0.42 1.48375,0.69625 2.3425,0.7625 l 0.2125,0.9775 c 0.08875,0.4125 0.4975,0.675 0.91,0.58625 l 1.49625,-0.32375 c 0.41375,-0.09 0.675,-0.4975 0.58625,-0.91 l -0.2125,-0.98125 c 0.73125,-0.405 1.3525,-0.97125 1.825,-1.65875 l 0.95625,0.30625 c 0.19375,0.0625 0.40375,0.04625 0.58375,-0.04875 0.1825,-0.0925 0.31625,-0.2525 0.37875,-0.44625 l 0.4675,-1.4575 c 0.12875,-0.4025 -0.0925,-0.83375 -0.495,-0.9625 l -0.955,-0.30625 c 0.015,-0.8625 -0.18,-1.67375 -0.53,-2.40375 z m -2.5675,1.81375 c 0.26875,1.23875 -0.52,2.46125 -1.7575,2.72875 -1.2375,0.26875 -2.46125,-0.5175 -2.73,-1.7575 -0.2675,-1.23875 0.52,-2.46125 1.75875,-2.73 1.2375,-0.2675 2.46125,0.51875 2.72875,1.75875 z"
       style="fill:none;stroke:#9ba7bf;stroke-width:0.875;stroke-linecap:round;stroke-linejoin:round;stroke-miterlimit:10;stroke-dasharray:none;stroke-opacity:1"
       id="path80"
       inkscape:connector-curvature="0" />
  </g>
</svg>
