<svg viewBox="0 0 53.6675 53.664999"
   >
  <g transform="translate(-293.16625,-348.38685)">
    <path
       style="fill:none;stroke:#9ba7bf;stroke-width:0.875;stroke-linecap:butt;stroke-linejoin:miter;stroke-miterlimit:10;stroke-dasharray:none;stroke-opacity:1"
       d="m -1870.5711,-569.9103 c 4.1488,-6.14 11.1738,-10.1775 19.1413,-10.1775 7.9687,0 14.995,4.0375 19.1425,10.1775 m 7.255,-17.72625 c 0,14.57625 -11.8188,26.39375 -26.3975,26.39375 -14.5775,0 -26.395,-11.8175 -26.395,-26.39375 0,-14.57875 11.8175,-26.39625 26.395,-26.39625 14.5787,0 26.3975,11.8175 26.3975,26.39625 z m -17.795,-5.72625 c 0,4.75 -3.8513,8.6025 -8.6025,8.6025 -4.7488,0 -8.6013,-3.8525 -8.6013,-8.6025 0,-4.75125 3.8525,-8.6025 8.6013,-8.6025 4.7512,0 8.6025,3.85125 8.6025,8.6025 z" />
    <path
       style="fill:none;stroke:#9ba7bf;stroke-width:0.875;stroke-linecap:butt;stroke-linejoin:miter;stroke-miterlimit:10;stroke-dasharray:none;stroke-opacity:1"
       d="m 300.8575,392.94685 c 4.14875,-6.14 11.17375,-10.1775 19.14125,-10.1775 7.96875,0 14.995,4.0375 19.1425,10.1775 m 7.255,-17.72625 c 0,14.57625 -11.81875,26.39375 -26.3975,26.39375 -14.5775,0 -26.395,-11.8175 -26.395,-26.39375 0,-14.57875 11.8175,-26.39625 26.395,-26.39625 14.57875,0 26.3975,11.8175 26.3975,26.39625 z m -17.795,-5.72625 c 0,4.75 -3.85125,8.6025 -8.6025,8.6025 -4.74875,0 -8.60125,-3.8525 -8.60125,-8.6025 0,-4.75125 3.8525,-8.6025 8.60125,-8.6025 4.75125,0 8.6025,3.85125 8.6025,8.6025 z" />
  </g>
</svg>
