<?xml version="1.0" encoding="UTF-8" standalone="no"?>
<!-- Created with Inkscape (http://www.inkscape.org/) -->

<svg
   xmlns:dc="http://purl.org/dc/elements/1.1/"
   xmlns:cc="http://creativecommons.org/ns#"
   xmlns:rdf="http://www.w3.org/1999/02/22-rdf-syntax-ns#"
   xmlns:svg="http://www.w3.org/2000/svg"
   xmlns="http://www.w3.org/2000/svg"
   xmlns:sodipodi="http://sodipodi.sourceforge.net/DTD/sodipodi-0.dtd"
   xmlns:inkscape="http://www.inkscape.org/namespaces/inkscape"
   width="12.314695mm"
   height="13.407769mm"
   viewBox="0 0 43.634747 47.507843"
   id="svg3502"
   version="1.1"
   inkscape:version="0.91 r13725"
   sodipodi:docname="h_zertifikat_icon.svg">
  <defs
     id="defs3504" />
  <sodipodi:namedview
     id="base"
     pagecolor="#ffffff"
     bordercolor="#666666"
     borderopacity="1.0"
     inkscape:pageopacity="0.0"
     inkscape:pageshadow="2"
     inkscape:zoom="0.35"
     inkscape:cx="71.103089"
     inkscape:cy="-110.5318"
     inkscape:document-units="px"
     inkscape:current-layer="layer1"
     showgrid="false"
     fit-margin-top="0"
     fit-margin-left="0"
     fit-margin-right="0"
     fit-margin-bottom="0"
     inkscape:window-width="1920"
     inkscape:window-height="998"
     inkscape:window-x="0"
     inkscape:window-y="0"
     inkscape:window-maximized="1" />
  <metadata
     id="metadata3507">
    <rdf:RDF>
      <cc:Work
         rdf:about="">
        <dc:format>image/svg+xml</dc:format>
        <dc:type
           rdf:resource="http://purl.org/dc/dcmitype/StillImage" />
        <dc:title></dc:title>
      </cc:Work>
    </rdf:RDF>
  </metadata>
  <g
     inkscape:label="Ebene 1"
     inkscape:groupmode="layer"
     id="layer1"
     transform="translate(-303.89691,-374.32256)">
    <path
       d="m 314.6137,412.24444 -9.09,0 c -0.7425,0 -1.11625,-0.95375 -0.5425,-1.42 1.46375,-1.18125 2.40125,-2.9975 2.40125,-5.035 l 0,-6.45 0,-17.38375 c 0,0 -0.3575,-6.82 8.0125,-6.82 l 16.82875,0 c -2.21625,0 -4.005,1.80625 -4.005,4.03375 l 0,5.92375"
       style="fill:none;stroke:#6d769c;stroke-width:1.62625003;stroke-linecap:round;stroke-linejoin:round;stroke-miterlimit:10;stroke-dasharray:none;stroke-opacity:1"
       id="path122"
       inkscape:connector-curvature="0" />
    <path
       d="m 336.33795,378.87644 c 0,2.065 -1.675,3.74 -3.74,3.74 -2.07,0 -3.74625,-1.675 -3.74625,-3.74 0,-2.065 1.67625,-3.74 3.74625,-3.74 2.065,0 3.74,1.675 3.74,3.74 z"
       style="fill:none;stroke:#6d769c;stroke-width:1.62625003;stroke-linecap:round;stroke-linejoin:round;stroke-miterlimit:10;stroke-dasharray:none;stroke-opacity:1"
       id="path126"
       inkscape:connector-curvature="0" />
    <path
       d="m 318.3057,381.98557 c 0.06,-0.0913 0.065,-0.20625 0.0163,-0.3025 -0.0538,-0.0975 -0.15125,-0.1575 -0.255,-0.1575 l -1.3275,0 c -0.0987,0 -0.19,-0.055 -0.24375,-0.14125 l -1.1175,-1.82625 c -0.0537,-0.0875 -0.14625,-0.1425 -0.24375,-0.1425 -0.1025,0 -0.195,0.055 -0.24875,0.1425 l -1.11625,1.82625 c -0.0487,0.0863 -0.1475,0.14125 -0.245,0.14125 l -1.3225,0 c -0.10875,0 -0.205,0.06 -0.25375,0.1575 -0.055,0.0962 -0.0487,0.21125 0.01,0.3025 l 0.75375,1.155 c 0.065,0.0975 0.065,0.2275 0,0.325 l -0.75375,1.15375 c -0.0587,0.0937 -0.065,0.20625 -0.01,0.305 0.0488,0.0975 0.145,0.1575 0.25375,0.1575 l 1.3225,0 c 0.0975,0 0.19625,0.0537 0.245,0.135 l 1.11625,1.8325 c 0.0538,0.0862 0.14625,0.135 0.24875,0.135 0.0975,0 0.19,-0.0488 0.24375,-0.135 l 1.1175,-1.8325 c 0.0537,-0.0813 0.145,-0.135 0.24375,-0.135 l 1.3275,0 c 0.10375,0 0.20125,-0.06 0.255,-0.1575 0.0487,-0.0987 0.0437,-0.21125 -0.0163,-0.305 l -0.75375,-1.15375 c -0.0587,-0.0975 -0.0587,-0.2275 0,-0.325 l 0.75375,-1.155 z"
       style="fill:none;stroke:#6d769c;stroke-width:1.62625003;stroke-linecap:round;stroke-linejoin:round;stroke-miterlimit:10;stroke-dasharray:none;stroke-opacity:1"
       id="path130"
       inkscape:connector-curvature="0" />
    <path
       d="m 321.91595,395.98707 10.97125,0"
       style="fill:none;stroke:#6d769c;stroke-width:1.62625003;stroke-linecap:round;stroke-linejoin:round;stroke-miterlimit:10;stroke-dasharray:none;stroke-opacity:1"
       id="path134"
       inkscape:connector-curvature="0" />
    <path
       d="m 321.91595,406.77682 10.97125,0"
       style="fill:none;stroke:#6d769c;stroke-width:1.62625003;stroke-linecap:round;stroke-linejoin:round;stroke-miterlimit:10;stroke-dasharray:none;stroke-opacity:1"
       id="path138"
       inkscape:connector-curvature="0" />
    <path
       d="m 319.2957,401.60469 16.0875,0"
       style="fill:none;stroke:#6d769c;stroke-width:1.62625003;stroke-linecap:round;stroke-linejoin:round;stroke-miterlimit:10;stroke-dasharray:none;stroke-opacity:1"
       id="path142"
       inkscape:connector-curvature="0" />
    <path
       d="m 340.71058,401.50094 c 0,7.45875 -6.05,13.5025 -13.5025,13.5025 -7.46375,0 -13.5075,-6.04375 -13.5075,-13.5025 0,-7.45875 6.04375,-13.5025 13.5075,-13.5025 7.4525,0 13.5025,6.04375 13.5025,13.5025 z"
       style="fill:none;stroke:#6d769c;stroke-width:1.62625003;stroke-linecap:round;stroke-linejoin:round;stroke-miterlimit:10;stroke-dasharray:none;stroke-opacity:1"
       id="path154"
       inkscape:connector-curvature="0" />
    <path
       d="m 346.71032,421.00907 -9.04625,-9.04625"
       style="fill:none;stroke:#6d769c;stroke-width:1.62625003;stroke-linecap:round;stroke-linejoin:round;stroke-miterlimit:10;stroke-dasharray:none;stroke-opacity:1"
       id="path158"
       inkscape:connector-curvature="0" />
  </g>
</svg>
