<svg
   width="54.406448mm"
   height="54.405392mm"
   viewBox="0 0 192.77875 192.77501">
  <g transform="translate(-380.75348,-441.68899)">
    <path
       d="m 571.98661,538.07711 c 0,52.37751 -42.46375,94.84126 -94.84126,94.84126 -52.3825,0 -94.84625,-42.46375 -94.84625,-94.84126 0,-52.38375 42.46375,-94.8425 94.84625,-94.8425 52.37751,0 94.84126,42.45875 94.84126,94.8425 z"
       style="fill:none;stroke:#9ca7be;stroke-width:3.09124994;stroke-linecap:butt;stroke-linejoin:miter;stroke-miterlimit:10;stroke-dasharray:none;stroke-opacity:1"/>
    <path
       d="m 466.89198,483.16436 51.72126,0 c -6.8025,0 -12.3125,5.51 -12.3125,12.3125 l 0,81.27751 c 0,10.87875 -8.82375,19.7 -19.7025,19.7 l -50.05126,0 c -2.27375,0 -3.4325,-2.90375 -1.66125,-4.32875 4.5025,-3.60875 7.385,-9.15125 7.385,-15.37125 l 0,-19.7025"
       style="fill:none;stroke:#9ca7be;stroke-width:3.09124994;stroke-linecap:round;stroke-linejoin:round;stroke-miterlimit:10;stroke-dasharray:none;stroke-opacity:1"/>
    <path
       d="m 530.92949,495.46723 c 0,6.7975 -5.505,12.30375 -12.30375,12.30375 -6.79375,0 -12.3,-5.50625 -12.3,-12.30375 0,-6.7975 5.50625,-12.305 12.3,-12.305 6.79875,0 12.30375,5.5075 12.30375,12.305 z"
       style="fill:none;stroke:#9ca7be;stroke-width:3.09124994;stroke-linecap:round;stroke-linejoin:round;stroke-miterlimit:10;stroke-dasharray:none;stroke-opacity:1"/>
    <path
       d="m 479.10573,506.69223 c 0.505,-0.755 0.54625,-1.7275 0.12,-2.53125 -0.4275,-0.79875 -1.2575,-1.29625 -2.1675,-1.29625 l -11.27375,0 c -0.84875,0 -1.63375,-0.435 -2.0875,-1.16375 l -9.4975,-15.19375 c -0.44875,-0.72 -1.24375,-1.16 -2.0825,-1.16 -0.8525,0 -1.64375,0.44 -2.09625,1.16 l -9.4975,15.19375 c -0.45375,0.72875 -1.24375,1.16375 -2.0875,1.16375 l -11.27375,0 c -0.90125,0 -1.73625,0.4975 -2.1675,1.29625 -0.425,0.80375 -0.37625,1.77625 0.12,2.53125 l 6.38625,9.57875 c 0.55,0.825 0.55,1.90375 0,2.73375 l -6.38625,9.57875 c -0.49625,0.76 -0.545,1.7275 -0.12,2.53125 0.43125,0.79875 1.26625,1.30125 2.1675,1.30125 l 11.27375,0 c 0.84375,0 1.63375,0.43375 2.0875,1.15375 l 9.4975,15.20001 c 0.4525,0.71875 1.24375,1.1575 2.09625,1.1575 0.83875,0 1.63375,-0.43875 2.0825,-1.1575 l 9.4975,-15.20001 c 0.45375,-0.72 1.23875,-1.15375 2.0875,-1.15375 l 11.27375,0 c 0.91,0 1.74,-0.5025 2.1675,-1.30125 0.42625,-0.80375 0.385,-1.77125 -0.12,-2.53125 l -6.38625,-9.57875 c -0.555,-0.83 -0.555,-1.90875 0,-2.73375 l 6.38625,-9.57875 z"
       style="fill:none;stroke:#9ca7be;stroke-width:3.09124994;stroke-linecap:round;stroke-linejoin:round;stroke-miterlimit:10;stroke-dasharray:none;stroke-opacity:1"/>
    <path
       d="m 461.95185,517.63886 c 0,5.43 -4.40875,9.84 -9.84,9.84 -5.43,0 -9.84,-4.41 -9.84,-9.84 0,-5.43125 4.41,-9.84 9.84,-9.84 5.43125,0 9.84,4.40875 9.84,9.84 z"
       style="fill:none;stroke:#9ca7be;stroke-width:3.09124994;stroke-linecap:round;stroke-linejoin:round;stroke-miterlimit:10;stroke-dasharray:none;stroke-opacity:1"/>
    <path
       d="m 464.4451,557.05174 19.67876,0"
       style="fill:none;stroke:#9ca7be;stroke-width:3.09124994;stroke-linecap:round;stroke-linejoin:round;stroke-miterlimit:10;stroke-dasharray:none;stroke-opacity:1"/>
    <path
       d="m 457.05435,571.83074 34.46126,0"
       style="fill:none;stroke:#9ca7be;stroke-width:3.09124994;stroke-linecap:round;stroke-linejoin:round;stroke-miterlimit:10;stroke-dasharray:none;stroke-opacity:1"/>
  </g>
</svg>
