<?xml version="1.0" encoding="utf-8"?>
<!-- Generator: Adobe Illustrator 27.6.1, SVG Export Plug-In . SVG Version: 6.00 Build 0)  -->
<svg version="1.1" id="Ebene_1" xmlns="http://www.w3.org/2000/svg" xmlns:xlink="http://www.w3.org/1999/xlink" x="0px" y="0px"
	 width="74.7px" height="74.7px" viewBox="0 0 74.7 74.7" style="enable-background:new 0 0 74.7 74.7;" xml:space="preserve">
<style type="text/css">
	.st0{fill:none;stroke:#A1A6B9;stroke-linecap:round;stroke-linejoin:round;stroke-miterlimit:10;}
	.st1{fill:none;stroke:#A1A6B9;stroke-miterlimit:10;}
</style>
<path class="st0" d="M39.1,17.1c0,0-1.7,1.4-2.1,1.6c-0.3,0.3-1.4,0.9-1.3,2.2c0.1,1.3,0.4,1.5,0.6,1.9c0.2,0.3,2,2.5,2.5,3
	c0.4,0.5,1.8,0.5,3,0.5s1.8,0.4,2.6,1.2c0.8,0.8,0.9,1,0.9,1 M26.5,23.2c0,0,2.2-0.4,3.5,0.5c1.4,1,1.7,1.9,1.8,2.9c0,1,0,2.3,0.1,3
	s0.4,1,0.9,1.5 M40.5,49.7l1.2,1.3 M37.7,51.9l1.2,1.3 M35.9,55.2l-1.1-1.3 M58.1,51.2h-3.6c-1,0-1.8-0.8-1.8-1.8V37.7
	c0-1,0.8-1.8,1.8-1.8h3.6 M16.7,35.9h3.6c1,0,1.8,0.8,1.8,1.8v11.7c0,1-0.8,1.8-1.8,1.8h-3.6 M34.7,36.8l-0.7-0.5
	c-0.7-0.5-1.5-0.8-2.3-0.8c-0.5,0-1,0.1-1.4,0.3l-8.3,3.3 M22.1,48.9c0,0,1.8-0.7,3.8,0.7c0.9,0.7,5.2,6.5,5.2,6.5s1.3,1.8,2.9,1.4
	c1.5-0.3,2.2-1.8,1.7-2.5c0,0,1.1,0.7,2.3,0c0.9-0.6,0.6-2,0.6-2s1.2,0.7,2.2-0.1c0.9-0.8,0.6-2,0.6-2s1.8,0.9,2.9-0.6
	c0.6-1,0.5-1.9-0.2-2.9c-0.7-1-5.2-7.2-5.2-7.2 M41.9,39.1l-6.4,2.1c-1,0.3-2.1-0.1-2.6-1.1c-0.5-1-0.1-2.3,1-2.8l6.2-3.1
	c0.6-0.3,1.3-0.5,2-0.5c0.5,0,1,0.1,1.5,0.3l9.2,3.3l-0.2,12.8l-8.6,0.6"/>
<path class="st0" d="M25.3,31.3c-0.2-1-0.4-2-0.4-3c0-6.6,5.4-12,12-12c6.6,0,12,5.4,12,12c0,0.4,0,0.7,0,1.1"/>
<path class="st1" d="M74.2,37.4c0,20.4-16.5,36.9-36.9,36.9C17,74.2,0.5,57.7,0.5,37.4C0.5,17,17,0.5,37.4,0.5
	C57.7,0.5,74.2,17,74.2,37.4z"/>
</svg>
