<?xml version="1.0" encoding="utf-8"?>
<!-- Generator: Adobe Illustrator 24.1.3, SVG Export Plug-In . SVG Version: 6.00 Build 0)  -->
<svg version="1.1" id="Ebene_1" xmlns="http://www.w3.org/2000/svg" xmlns:xlink="http://www.w3.org/1999/xlink" x="0px" y="0px"
	 width="60px" height="60px" viewBox="0 0 60 60" style="enable-background:new 0 0 60 60;" xml:space="preserve">
<style type="text/css">
	.st0{fill:none;stroke:#FFFFFF;stroke-width:2;stroke-miterlimit:10;}
</style>
<g transform="translate(-293.16625,-348.38685)">
	<path class="st0" d="M304,396c4.1-6.1,11.2-10.2,19.1-10.2c8,0,15,4,19.1,10.2 M349.5,378.4c0,14.6-11.8,26.4-26.4,26.4
		s-26.4-11.8-26.4-26.4s11.8-26.4,26.4-26.4C337.8,351.9,349.5,363.8,349.5,378.4z M331.8,372.6c0,4.8-3.9,8.6-8.6,8.6
		s-8.6-3.9-8.6-8.6c0-4.8,3.9-8.6,8.6-8.6C327.9,364,331.8,367.9,331.8,372.6z"/>
</g>
</svg>
