<?xml version="1.0" encoding="utf-8"?>
<!-- Generator: Adobe Illustrator 27.6.1, SVG Export Plug-In . SVG Version: 6.00 Build 0)  -->
<svg version="1.1"
	 id="svg3013" xmlns:dc="http://purl.org/dc/elements/1.1/" xmlns:svg="http://www.w3.org/2000/svg" xmlns:rdf="http://www.w3.org/1999/02/22-rdf-syntax-ns#" xmlns:inkscape="http://www.inkscape.org/namespaces/inkscape" xmlns:cc="http://creativecommons.org/ns#" xmlns:sodipodi="http://sodipodi.sourceforge.net/DTD/sodipodi-0.dtd" inkscape:version="0.48.3.1 r9886" sodipodi:docname="phone_font_awesome.svg"
	 xmlns="http://www.w3.org/2000/svg" xmlns:xlink="http://www.w3.org/1999/xlink" x="0px" y="0px" width="467.7px" height="467.7px"
	 viewBox="0 0 467.7 467.7" style="enable-background:new 0 0 467.7 467.7;" xml:space="preserve">
<style type="text/css">
	.st0{fill:#001E4B;}
</style>
<sodipodi:namedview  bordercolor="#666666" borderopacity="1" gridtolerance="10" guidetolerance="10" id="namedview3019" inkscape:current-layer="svg3013" inkscape:cx="896" inkscape:cy="896" inkscape:pageopacity="0" inkscape:pageshadow="2" inkscape:window-height="480" inkscape:window-maximized="0" inkscape:window-width="640" inkscape:window-x="0" inkscape:window-y="25" inkscape:zoom="0.13169643" objecttolerance="10" pagecolor="#ffffff" showgrid="false">
	</sodipodi:namedview>
<g id="g3015" transform="matrix(1,0,0,-1,159.45763,1293.0169)">
	<path id="path3017" inkscape:connector-curvature="0" class="st0" d="M308.3,923.6c0-6-1.1-13.8-3.3-23.4c-2.2-9.6-4.5-17.2-7-22.8
		c-4.7-11.1-18.2-22.8-40.5-35.2c-20.8-11.3-41.4-16.9-61.8-16.9c-6,0-11.8,0.4-17.4,1.2c-5.6,0.8-12,2.2-19.1,4.2
		s-12.3,3.6-15.8,4.8s-9.6,3.5-18.4,6.8s-14.3,5.3-16.3,6c-21.7,7.8-41.1,16.9-58.1,27.6c-28.3,17.5-57.6,41.4-87.9,71.6
		c-30.2,30.2-54.1,59.5-71.6,87.9c-10.6,17.1-19.8,36.4-27.6,58.1c-0.7,2-2.7,7.4-6,16.3s-5.6,15-6.8,18.4
		c-1.2,3.4-2.8,8.7-4.8,15.8c-2,7.1-3.4,13.5-4.2,19.1c-0.8,5.6-1.2,11.5-1.2,17.4c0,20.4,5.6,41,16.9,61.8
		c12.4,22.4,24.1,35.9,35.2,40.5c5.5,2.4,13.1,4.8,22.8,7c9.6,2.2,17.4,3.3,23.4,3.3c3.1,0,5.4-0.3,7-1c4-1.3,9.9-9.7,17.6-25.2
		c2.4-4.2,5.8-10.2,10-17.9c4.2-7.8,8.1-14.8,11.6-21.1c3.5-6.3,7-12.2,10.3-17.8c0.7-0.9,2.6-3.7,5.8-8.3c3.2-4.7,5.6-8.6,7.1-11.8
		c1.6-3.2,2.3-6.4,2.3-9.5c0-4.4-3.2-10-9.5-16.6s-13.2-12.7-20.6-18.3c-7.4-5.5-14.3-11.4-20.6-17.6s-9.5-11.3-9.5-15.3
		c0-2,0.6-4.5,1.7-7.5c1.1-3,2-5.3,2.8-6.8c0.8-1.6,2.3-4.2,4.7-8c2.3-3.8,3.6-5.9,3.8-6.3c16.8-30.3,36.1-56.4,57.8-78.1
		C43,984.3,69,965,99.3,948.2c0.4-0.2,2.5-1.5,6.3-3.8c3.8-2.3,6.4-3.9,8-4.7c1.6-0.8,3.8-1.7,6.8-2.8c3-1.1,5.5-1.7,7.5-1.7
		c4,0,9.1,3.2,15.3,9.5s12.1,13.2,17.6,20.6c5.5,7.4,11.6,14.3,18.3,20.6c6.6,6.3,12.2,9.5,16.6,9.5c3.1,0,6.3-0.8,9.5-2.3
		c3.2-1.6,7.1-3.9,11.8-7.1c4.7-3.2,7.4-5.1,8.3-5.8c5.5-3.3,11.5-6.8,17.8-10.3c6.3-3.5,13.3-7.4,21.1-11.6
		c7.8-4.2,13.7-7.5,17.9-10c15.5-7.8,23.9-13.6,25.2-17.6C307.9,929.1,308.3,926.7,308.3,923.6z"/>
</g>
</svg>
