<svg fill="none" height="120" viewBox="0 0 120 120" width="120" xmlns="http://www.w3.org/2000/svg"><path d="m0 0h120v120h-120z" fill="#1880b6"/><g stroke="#324249" stroke-linecap="round" stroke-width="2"><path d="m93 35h-65v50.5556h65z" fill="#ff6673" stroke-linejoin="round"/><path d="m48.463 59.0741v-7.2223m2.4074 4.8149h-9.6296v-4.8149l7.2222-7.2222" stroke-linejoin="round"/><path d="m79.7593 59.0741v-7.2223m2.4074 4.8149h-9.6297v-4.8149l7.2223-7.2222" stroke-linejoin="round"/><path d="m44.8519 68.7037h31.2963m-26.4815 7.2222h21.6666"/><path d="m56.8889 48.2407c0-1.9944 1.6167-3.6111 3.6111-3.6111h2.4074c1.9944 0 3.6111 1.6167 3.6111 3.6111v7.2223c0 1.9944-1.6167 3.6111-3.6111 3.6111h-2.4074c-1.9944 0-3.6111-1.6167-3.6111-3.6111z" stroke-linejoin="round"/></g></svg>