<svg fill="none" height="120" viewBox="0 0 120 120" width="120" xmlns="http://www.w3.org/2000/svg" xmlns:xlink="http://www.w3.org/1999/xlink"><clipPath id="a"><path d="m0 0h120v120h-120z"/></clipPath><g clip-path="url(#a)"><path d="m0 0h120v120h-120z" fill="#1880b6"/><path d="m29.9677 29.9677h58.0646v58.0646h-58.0646z" fill="#daecf2"/><path d="m88.0323 89h-58.0646c-.2566 0-.5028-.102-.6843-.2834-.1814-.1815-.2834-.4277-.2834-.6843v-58.0646c0-.2566.102-.5028.2834-.6843.1815-.1814.4277-.2834.6843-.2834h58.0646c.2566 0 .5028.102.6843.2834.1814.1815.2834.4277.2834.6843v58.0646c0 .2566-.102.5028-.2834.6843-.1815.1814-.4277.2834-.6843.2834zm-57.0968-1.9355h56.129v-56.129h-56.129z" fill="#324249"/><path d="m88.0323 29.9677h-58.0646v15.1162h58.0646z" fill="#ff6673"/><path d="m88.0323 46.0516h-58.0646c-.2566 0-.5028-.1019-.6843-.2834-.1814-.1815-.2834-.4277-.2834-.6843v-15.1162c0-.2566.102-.5028.2834-.6843.1815-.1814.4277-.2834.6843-.2834h58.0646c.2566 0 .5028.102.6843.2834.1814.1815.2834.4277.2834.6843v15.1162c0 .2566-.102.5028-.2834.6843-.1815.1815-.4277.2834-.6843.2834zm-57.0968-1.9355h56.129v-13.1806h-56.129z" fill="#324249"/><path d="m38.8419 39.8871c.4283.0115.8503-.1047 1.2123-.3339s.6476-.5609.8204-.9529c.1728-.3921.225-.8267.15-1.2485s-.2739-.8117-.5713-1.1201c-.2975-.3084-.6799-.5213-1.0988-.6115-.4188-.0903-.855-.0538-1.253.1047-.3981.1585-.7399.4319-.982.7854-.2421.3534-.3736.771-.3776 1.1994-.0078.5665.2085 1.1131.6018 1.5209.3933.4079.9318.6438 1.4982.6565z" fill="#daecf2"/><path d="m38.8419 40.8548c-.6178.0019-1.2223-.1793-1.7372-.5207-.5148-.3415-.917-.8279-1.1556-1.3977-.2386-.5699-.303-1.1977-.1851-1.8041.118-.6065.413-1.1644.8478-1.6033.4348-.4388.99-.739 1.5953-.8626s1.2337-.065 1.8058.1683c.572.2334 1.0621.631 1.4083 1.1427s.533 1.1145.5369 1.7323c.0038.4116-.074.82-.2289 1.2014-.1548.3814-.3838.7284-.6735 1.0208s-.6346.5246-1.0145.683c-.38.1584-.7876.24-1.1993.2399zm0-4.3064c-.237-.0019-.4692.0671-.6668.198-.1976.131-.3516.318-.4423.537s-.1139.4601-.0666.6924c.0472.2323.1627.4452.3317.6115.169.1662.3838.2782.6169.3216.233.0434.4737.0162.6912-.0781s.4019-.2513.5296-.4511c.1276-.1997.1928-.433.187-.67-.0075-.309-.135-.6029-.3553-.8196-.2203-.2168-.5163-.3393-.8254-.3417z" fill="#324249"/><path d="m47.4452 39.8871c.4264.0019.8438-.1226 1.1995-.3577s.6338-.5703.7992-.9634c.1654-.393.2106-.8262.13-1.2449-.0806-.4188-.2835-.8042-.583-1.1077-.2994-.3036-.6821-.5116-1.0997-.5978-.4176-.0863-.8514-.0468-1.2466.1132-.3952.1601-.7342.4337-.9741.7863-.2398.3525-.3699.7682-.3737 1.1946-.0039.2845.0489.567.1551.8311.1063.264.2639.5042.4638.7068s.438.3635.7006.4732c.2625.1098.5443.1663.8289.1663z" fill="#daecf2"/><path d="m47.4452 40.8548c-.6178.0019-1.2224-.1793-1.7372-.5207-.5149-.3415-.9171-.8279-1.1557-1.3977-.2386-.5699-.303-1.1977-.1851-1.8041.118-.6065.413-1.1644.8478-1.6033.4349-.4388.99-.739 1.5953-.8626.6054-.1236 1.2337-.065 1.8058.1683.572.2334 1.0621.631 1.4083 1.1427s.5331 1.1145.5369 1.7323c.0038.4116-.0739.82-.2288 1.2014s-.3838.7284-.6736 1.0208c-.2897.2924-.6345.5246-1.0145.683s-.7876.24-1.1992.2399zm0-4.3064c-.2371-.0019-.4693.0671-.6669.198-.1976.131-.3516.318-.4423.537-.0906.219-.1138.4601-.0666.6924s.1627.4452.3317.6115c.169.1662.3838.2782.6169.3216.233.0434.4737.0162.6912-.0781s.4019-.2513.5296-.4511c.1277-.1997.1928-.433.187-.67-.0075-.309-.1349-.6029-.3553-.8196-.2203-.2168-.5163-.3393-.8253-.3417z" fill="#324249"/><path d="m55.3032 65.0387 4.6645-4.6548c.6417-.6417 1.0022-1.5119 1.0022-2.4194 0-.9074-.3605-1.7777-1.0022-2.4193-.6416-.6417-1.5119-1.0022-2.4193-1.0022-.9075 0-1.7777.3605-2.4194 1.0022l-4.6548 4.6548-4.6549-4.6548c-.6416-.6417-1.5119-1.0022-2.4193-1.0022s-1.7777.3605-2.4194 1.0022c-.6416.6416-1.0021 1.5119-1.0021 2.4193 0 .9075.3605 1.7777 1.0021 2.4194l4.6549 4.6548-4.6549 4.6645c-.3139.3177-.5621.6942-.7305 1.1078-.1685.4137-.2538.8565-.2511 1.3031s.0934.8883.2668 1.2999.4262.785.7439 1.0989.6941.5622 1.1078.7306c.4136.1684.8564.2537 1.303.251s.8884-.0933 1.2999-.2667c.4116-.1734.785-.4262 1.0989-.7439l4.6549-4.6549 4.6548 4.6549c.634.6416 1.4969 1.0052 2.3988 1.0106.902.0055 1.7693-.3476 2.4109-.9816.6417-.6339 1.0052-1.4968 1.0106-2.3988.0055-.902-.3476-1.7692-.9816-2.4109z" fill="#ff6673"/><g fill="#324249"><path d="m57.5677 76.4194c-.5719.001-1.1384-.1113-1.6666-.3306-.5282-.2192-1.0077-.5411-1.4108-.9469l-3.9774-3.9677-3.9677 3.9677c-.8162.8175-1.9237 1.2773-3.0789 1.2782-1.1551.0009-2.2633-.4572-3.0808-1.2733-.8175-.8162-1.2772-1.9237-1.2781-3.0789-.0009-1.1551.4571-2.2633 1.2732-3.0808l3.9775-3.9774-3.9775-3.9678c-.8161-.8174-1.2742-1.9256-1.2732-3.0808.0009-1.1552.4606-2.2627 1.2781-3.0788.8175-.8162 1.9257-1.2742 3.0808-1.2733 1.1552.0009 2.2627.4606 3.0789 1.2781l3.9677 3.9677 3.9774-3.9677c.3987-.4279.8795-.771 1.4137-1.0091.5342-.238 1.1108-.366 1.6955-.3763.5848-.0103 1.1656.0973 1.7078.3163.5423.219 1.0349.545 1.4484.9585.4135.4136.7395.9062.9586 1.4484.219.5423.3266 1.1231.3162 1.7078-.0103.5847-.1383 1.1614-.3763 1.6956s-.5812 1.0149-1.009 1.4136l-3.9678 3.9678 3.9678 3.9774c.6082.609 1.0224 1.3846 1.1901 2.2289.1677.8442.0815 1.7192-.2478 2.5145s-.8869 1.4751-1.6023 1.9537c-.7155.4786-1.5567.7344-2.4175.7352zm-7.0548-7.5871c.128.0005.2547.0264.3727.0763.1179.0498.2248.1225.3144.214l4.6548 4.6548c.4623.4391 1.0754.6839 1.7129.6839.6376 0 1.2507-.2448 1.7129-.6839.4527-.4551.7068-1.071.7068-1.7129s-.2541-1.2577-.7068-1.7129l-4.6645-4.5774c-.0897-.0904-.1606-.1977-.2088-.3156-.0481-.1179-.0726-.2441-.0718-.3715.0011-.2539.1018-.4972.2806-.6774l4.6645-4.6549c.225-.2249.4034-.492.5252-.7859.1217-.2939.1844-.6089.1844-.927s-.0627-.6331-.1844-.927c-.1218-.2939-.3002-.5609-.5252-.7859-.2249-.2249-.4919-.4033-.7858-.5251-.2939-.1217-.6089-.1844-.9271-.1844-.3181 0-.6331.0627-.927.1844-.2939.1218-.5609.3002-.7859.5251l-4.6548 4.6065c-.1813.1802-.4266.2814-.6823.2814-.2556 0-.5009-.1012-.6822-.2814l-4.6645-4.6549c-.4595-.4406-1.0715-.6866-1.7081-.6866s-1.2486.246-1.7081.6866c-.4526.4552-.7067 1.071-.7067 1.7129 0 .642.2541 1.2578.7067 1.7129l4.6646 4.6549c.0966.0905.1737.1999.2264.3214s.0799.2526.0799.385c0 .1325-.0272.2635-.0799.385-.0527.1216-.1298.231-.2264.3215l-4.6549 4.6548c-.4527.4552-.7068 1.071-.7068 1.7129 0 .642.2541 1.2578.7068 1.7129.4606.4385 1.0722.683 1.7081.683s1.2474-.2445 1.708-.683l4.6646-4.6548c.0832-.098.1851-.1784.2998-.2366.1146-.0581.2397-.0928.3679-.1021z"/><path d="m77.9194 75.2871h-9.7742c-.2567 0-.5028-.102-.6843-.2835-.1815-.1814-.2835-.4276-.2835-.6842 0-.2567.102-.5029.2835-.6843.1815-.1815.4276-.2835.6843-.2835h9.7742c.2566 0 .5028.102.6843.2835.1815.1814.2834.4276.2834.6843 0 .2566-.1019.5028-.2834.6842-.1815.1815-.4277.2835-.6843.2835z"/><path d="m77.9194 69.3548h-9.7742c-.2567 0-.5028-.1019-.6843-.2834s-.2835-.4276-.2835-.6843.102-.5028.2835-.6843.4276-.2835.6843-.2835h9.7742c.2566 0 .5028.102.6843.2835s.2834.4276.2834.6843-.1019.5028-.2834.6843-.4277.2834-.6843.2834z"/><path d="m77.9194 63.4226h-9.7742c-.2567 0-.5028-.102-.6843-.2835s-.2835-.4276-.2835-.6843c0-.2566.102-.5028.2835-.6843s.4276-.2834.6843-.2834h9.7742c.2566 0 .5028.1019.6843.2834s.2834.4277.2834.6843c0 .2567-.1019.5028-.2834.6843s-.4277.2835-.6843.2835z"/><path d="m77.9194 57.4903h-9.7742c-.2567 0-.5028-.1019-.6843-.2834s-.2835-.4277-.2835-.6843c0-.2567.102-.5028.2835-.6843s.4276-.2835.6843-.2835h9.7742c.2566 0 .5028.102.6843.2835s.2834.4276.2834.6843c0 .2566-.1019.5028-.2834.6843s-.4277.2834-.6843.2834z"/></g></g></svg>