<svg fill="none" height="1168" viewBox="0 0 1309 1168" width="1309" xmlns="http://www.w3.org/2000/svg"><path d="m427.545 943.197c-82.862-54.141-202.096-17.219-289.829-66.537-77.2053-43.409-125.4901-120.968-135.52314-208.557-9.17441-80.126 11.39144-161.236 43.91464-235.042 57.4265-130.314 152.7265-243.11 269.4975-324.608 98.625-68.8344 217.133-116.43203 337.06-107.34044 119.927 9.09154 238.907 84.18204 276.333 198.48244 21.726 66.341 18.48 145.979 68.394 194.783 39.688 38.807 100.268 44.547 150.448 68.271 70.88 33.515 119.45 103.533 143.01 178.328 42.66 135.441 7.58 292.505-88.64 396.933-108.93 118.21-286.107 160.07-437.249 107.39-21.832-7.58-42.952-17.08-63.111-28.39-10.088-5.67-19.897-11.8-29.425-18.38-9.029-6.22-18.266-8.94-27.67-14.12-20.083-11.08-39.075-24.81-58.255-37.35z" fill="#000"/></svg>