<svg fill="none" height="989" viewBox="0 0 1428 989" width="1428" xmlns="http://www.w3.org/2000/svg"><path d="m17.7381 886.935c35.7672 104.403 169.4989 118.065 259.0119 85.372 53.992-19.721 100.22-60.786 151.724-88.1 95.891-50.861 205.769-51.973 311.187-39.867 105.419 12.107 210.504 36.554 316.149 33.683 105.65-2.871 215.21-36.736 289.46-124.637 100-118.395 110.63-328.333 23.5-464.306-44.52-69.48-108.54-117.614-174.11-156.625-66.64-39.6488-145.2-71.7026-213.026-38.1524-43.553 21.5344-75.544 67.1754-117.949 91.6614-72.611 41.929-160.804 14.566-235.306-25.872-74.544-40.458-144.483-93.3375-221.147-127.4371-76.664-34.0997-164.173-47.8985-237.867-8.5256-73.693 39.3729-125.0123 144.2287-96.8569 235.6687 21.6039 70.157 84.5109 127.037 76.1179 200.44-6.334 55.37-50.8007 89.897-82.7275 130.355-62.34902 78.997-83.0745 194.394-48.1604 296.342z" fill="#000"/></svg>