<svg fill="none" height="531" viewBox="0 0 464 531" width="464" xmlns="http://www.w3.org/2000/svg"><g fill="#231f20"><path d="m125.692 322.076c-23.346-10.527-48.591-16.823-74.1457-18.474-9.5623-.62-19.8523-.361-27.7169 5.109-17.44757 12.127-11.2705 39.477-.418 57.745 47.8531 80.612 142.9556 118.639 232.8356 145.242 16.549 4.897 35.019 9.464 50.48 1.79 20.151-9.99 25.988-37.63 18.495-58.834-7.493-21.215-24.724-37.264-41.681-52.075-16.953-14.759-34.777-29.827-44.2-50.262 21.101-13.263 48.983-.207 73.537-4.593 35.05-6.245 53.462-55.269 31.2-83.084-8.819-10.992-21.875-18.062-30.354-29.311-8.484-11.302-9.851-30.499 2.622-37.053 6.399-3.405 14.145-2.218 21.271-.928 16.266 2.89 32.532 5.779 48.798 8.721 19.341 3.457 42.248 5.831 55.81-8.412 12.772-13.366 10.151-36.175-.825-51.089-10.977-14.913-28.12-23.789-44.69-32.046-55.248-27.5052-111.064-53.9271-167.39-79.1618-30.163-13.5204-62.793-27.04099-95.294-21.0032-11.606 2.1674-24.187 8.4633-26.814 19.9711-2.471 10.837 4.934 21.3646 12.664 29.3633 14.48 15.017 31.696 27.4018 50.547 36.3296 9.408 4.438 20.121 8.927 24.254 18.474 6.724 15.533-10.089 32.615-26.948 34.111-16.859 1.497-32.836-6.657-48.885-12.024-16.049-5.366-35.7156-7.327-48.1369 4.129-11.1569 10.321-12.0652 28.227-6.6879 42.419 5.3772 14.242 15.7807 25.854 25.2192 37.774 21.9066 27.609 39.5856 58.623 52.2346 91.547-7.323 5.625-17.308 7.534-26.195 5.109"/><path d="m132.206 310.931c-26.649-11.818-55.5011-19.661-84.7919-20.435-13.6546-.362-28.0575 2.735-37.4496 13.417-7.52913 8.515-10.599597 20.125-9.856489 31.375 1.620389 24.461 15.698189 45.309 30.493189 63.99 15.0893 19.042 33.2077 35.246 52.8226 49.494 39.4312 28.62 85.1732 47.817 131.1072 63.309 11.451 3.865 22.985 7.488 34.565 10.95 12.999 3.886 26.581 7.839 40.287 7.427 26.076-.795 46.28-18.95 50.671-44.541 5.125-29.863-9.774-55.934-30.214-76.576-20.358-20.59-46.507-36.64-59.356-63.526-1.543 5.883-3.086 11.766-4.629 17.649 8.871-5.212 19.011-4.696 28.96-3.87 11.281.929 22.609 2.735 33.941 1.6 19.491-1.961 35.545-12.23 46.3-28.486 9.805-14.862 13.489-33.44 10.47-50.882-3.628-21.004-18.892-32.666-33.749-46.135-6.182-5.573-11.085-11.559-11.678-19.094-.165-2.012-.196-2.27.381-4.18.037-.103.666-1.806.336-1.341 2.007-2.735 6.812-2.323 10.744-1.755 24.569 3.406 48.823 10.579 73.64 12.076 21.065 1.29 44.406-5.213 53.901-25.906 9.485-20.694 3.066-44.483-11.115-61.255-15.079-17.855-37.94-27.505-58.396-37.6196-24.26-11.9723-48.628-23.7383-73.099-35.2978-24.47-11.5595-49.045-22.8606-73.717-34.0072-23.408-10.5274-47.27-21.72571-72.871-25.64764-22.174-3.35431-51.445-3.14795-67.597 15.22334-19.0163 21.6224-1.791 46.8055 15.383 62.6998 8.701 8.0503 18.222 15.3782 28.264 21.6741 9.289 5.883 19.373 9.908 28.878 15.275 5.966 3.406 10.93 7.74 6.699 14.191-5.14 7.792-14.109 9.96-22.913 8.927-11.807-1.393-23.031-6.914-34.152-10.733-10.145-3.561-21.189-5.986-31.9845-5.47-24.2439 1.238-42.0011 17.7-44.3233 41.954-2.3016 24.048 12.2458 44.071 26.5042 61.823 15.0995 18.784 28.5116 38.652 39.6276 60.119 5.496 10.579 10.429 21.417 14.743 32.563 1.977-4.902 3.953-9.753 5.929-14.604-5.015 3.56-10.14 5.264-16.255 3.819-16.142-3.819-23.0312 21.054-6.858 24.873 12.447 2.942 25.601 1.084 36.139-6.399 4.298-3.045 8.086-9.031 5.929-14.553-8.597-22.19-18.98-43.554-31.634-63.68-6.507-10.372-13.592-20.332-21.085-29.982-6.4872-8.36-13.5673-16.307-19.2077-25.287-7.3795-11.765-15.1563-35.142 2.0022-42.883 17.4575-7.895 39.2355 5.367 55.5625 10.424 21.447 6.606 45.624 5.625 60.744-13.107 6.982-8.618 10.796-19.92 7.684-30.963-3.044-10.786-11.394-18.4747-20.946-23.7384-8.979-4.9541-18.402-8.8242-27.144-14.2427-8.881-5.5217-17.128-11.8176-24.75-18.9391-5.439-5.1089-16.498-14.0363-15.497-22.6028.774-6.6054 9.784-9.3921 15.187-10.6822 22.32-5.3153 46.197 2.1159 66.896 10.1662 23.232 9.0308 45.794 20.0741 68.412 30.4982 23.413 10.837 46.733 21.8291 69.955 33.0788 21.969 10.579 44.463 20.693 65.714 32.717 15.012 8.515 31.567 20.797 32.041 39.736.454 18.113-15.347 22.809-30.751 22.139-22.458-.929-45.015-7.225-67.127-10.992-12.375-2.116-25.194-2.684-35.293 6.089-7.116 6.193-10.439 15.74-10.408 25.028.067 22.294 16.286 35.143 31.535 48.612 6.327 5.625 11.214 11.043 13.34 17.855 1.889 6.038 2.214 12.54 1.326 17.804-2.27 13.52-9.485 25.493-20.987 31.84-6.1 3.354-14.249 4.077-22.294 3.767-10.966-.413-21.829-2.425-32.81-2.425-11.105 0-21.932 2.219-31.546 7.947-6.363 3.715-7.653 11.301-4.629 17.649 10.316 21.571 28.527 37.413 46.217 52.843 15.745 13.778 34.018 29.363 39.602 50.418 3.751 14.15.665 33.95-14.228 40.401-9.934 4.304-21.71 1.688-31.706-.908-10.367-2.694-20.605-5.986-30.808-9.227-76.519-24.311-162.1727-60.403-203.5752-133.889-4.7115-8.36-7.9884-17.752-7.8852-27.35.0878-7.689 4.0923-13.314 13.2779-14.604 12.478-1.806 26.7829 1.032 38.9771 3.56 14.0726 2.942 27.9544 7.225 41.1034 13.108 6.363 2.787 13.861 1.806 17.654-4.644 3.21-5.522 1.77-14.811-4.629-17.649z"/></g></svg>