<svg fill="none" height="894" viewBox="0 0 985 894" width="985" xmlns="http://www.w3.org/2000/svg"><path d="m484.532 650.943c-16.333 136.649-131.695 209.825-213.742 218.132-72.107 7.278-132.077-28.176-163.045-99.958-38.4764-89.225-47.2182-180.047-31.3084-267.725z" fill="#231f20"/><path d="m484.532 650.943c-16.333 136.649-131.695 209.825-213.742 218.132-72.107 7.278-132.077-28.176-163.045-99.958-38.4764-89.225-47.2182-180.047-31.3084-267.725z" stroke="#231f20" stroke-linecap="round" stroke-linejoin="round" stroke-miterlimit="10" stroke-width="46.4443"/><path d="m526.379 249.719c-5.471 20.435-12.613 40.51-20.637 60.119-4.99 12.179-11.678 24.203-19.951 34.369-11.285 13.934-23.666 27.454-37.609 38.601-26.52 21.261-56.688 32.149-91.789 30.343-49.107-2.477-93.761-20.332-138.998-36.433-30.921-10.992-61.28-23.841-87.831-43.451-16.477-12.179-19.651-13.469-32.5989-24.357-7.3433-6.141-32.9392-34.008-38.4919-41.852-18.3403-25.854-25.3947-39.529-30.6326-65.899-2.9415-14.811-5.1759-30.705-2.9156-45.412 4.6083-29.931 20.0845-52.998 40.2052-77.9234 18.0771-22.3965 37.5738-40.355 62.4828-53.8238z" fill="#231f20"/><path d="m526.379 249.719c-5.471 20.435-12.613 40.51-20.637 60.119-4.99 12.179-11.678 24.203-19.951 34.369-11.285 13.934-23.666 27.454-37.609 38.601-26.52 21.261-56.688 32.149-91.789 30.343-49.107-2.477-93.761-20.332-138.998-36.433-30.921-10.992-61.28-23.841-87.831-43.451-16.477-12.179-19.651-13.469-32.5989-24.357-7.3433-6.141-32.9392-34.008-38.4919-41.852-18.3403-25.854-25.3947-39.529-30.6326-65.899-2.9415-14.811-5.1759-30.705-2.9156-45.412 4.6083-29.931 20.0845-52.998 40.2052-77.9234 18.0771-22.3965 37.5738-40.355 62.4828-53.8238z" stroke="#231f20" stroke-linecap="round" stroke-linejoin="round" stroke-miterlimit="10" stroke-width="46.4443"/><g fill="#231f20"><path d="m949.864 614.248c-2.183 6.193-6.977 11.045-11.627 15.637-14.459 14.397-28.914 28.743-43.368 43.143-28.832 28.64-58.443 57.847-95.252 75.084-36.81 17.235-82.878 20.487-116.534-2.322-16.746-11.353-29.084-28.022-39.927-45.104-23.32-36.689-41.48-77.354-47.621-120.444-6.146-43.04.434-88.71 23.336-125.709 9.428-15.224 21.488-28.796 35.458-40.046z"/><path d="m917.046 580.506c-.434 1.237-.971 2.425-1.6 3.559 1.424-2.63 2.853-5.21 4.278-7.79-6.043 10.165-16.163 18.164-24.481 26.473-9.64 9.547-19.275 19.144-28.915 28.744-16.823 16.719-33.749 33.388-52.373 48.095 2.146-1.704 4.298-3.407 6.45-5.11-22.087 17.237-46.387 31.273-73.887 37.568 2.678-.566 5.356-1.135 8.029-1.753-16.673 3.559-33.677 4.333-50.5 1.29 2.91.566 5.821 1.082 8.731 1.651-9.211-1.859-17.968-4.8-26.359-9.083 2.993 1.6 5.981 3.148 8.969 4.696-4.923-2.632-9.377-5.728-13.897-8.978-6.652-4.8 7.952 7.636 2.188 1.806-2.023-2.064-4.129-3.975-6.095-6.09-.98-1.084-1.946-2.116-2.895-3.251-3.21-3.768-1.925-2.117 3.855 4.85-1.28-1.754-2.678-3.405-3.979-5.16-3.024-4.077-5.893-8.257-8.664-12.539-3.298-5.058-6.405-10.218-9.537-15.328-4.902-8.102 6.807 12.282 2.271 3.975-1.466-2.685-2.957-5.368-4.387-8.101-5.176-9.807-9.913-19.818-14.103-30.086-.434-1.032-.862-2.117-1.285-3.201-1.941-4.953-1.125-2.787 2.451 6.45-.96-2.889-2.069-5.727-3.029-8.618-1.682-5.055-3.231-10.165-4.614-15.273-.789-2.943-1.527-5.885-2.214-8.878-.17-.722-.335-1.496-.505-2.217-1.048-4.903-.666-2.994 1.14 5.726-.82-5.573-1.93-11.095-2.585-16.666-.64-5.421-.97-10.839-1.295-16.308-.496-8.204-.093 10.424.025 2.736.047-2.944.062-5.832.181-8.723.454-10.887 1.822-21.724 4.005-32.408-.687 3.304-1.373 6.605-2.06 9.91 3.53-16.309 9.083-31.945 16.968-46.653-1.429 2.581-2.854 5.161-4.283 7.794 10.145-18.373 23.583-34.317 39.823-47.58-10.728.207-21.452.413-32.18.568 33.316 22.5 66.632 45.05 99.943 67.551 53.065 35.865 106.13 71.731 159.195 107.596 12.132 8.204 24.265 16.409 36.402 24.615 7.049 4.747 17.355 8.515 25.725 4.542 8.179-3.871 12.272-14.4 12.793-22.809 1.496-24.049-10.946-52.226-31.237-65.952-33.316-22.5-66.632-44.998-99.948-67.552-53.065-35.865-106.125-71.729-159.19-107.595-12.137-8.205-24.27-16.41-36.402-24.563-5.284-3.922-11.188-5.987-17.7-6.348-5.878.103-10.703 2.374-14.481 6.864-40.669 33.13-62.209 84.064-66.58 135.565-4.975 58.624 10.811 118.02 36.892 170.193 25.323 50.623 61.198 110.279 119.543 126.276 49.163 13.468 99.679-1.29 140.117-30.549 23.294-16.874 44.132-36.537 64.5-56.765 10.997-10.89 21.979-21.83 32.966-32.769 11.461-11.353 23.263-21.519 29.461-36.898 4.02-9.96 2.141-23.946-.687-33.801-3.421-11.921-10.646-25.958-19.764-34.628-6.771-6.45-16.344-14.654-26.427-13.725-9.268.824-15.244 5.935-18.763 14.655z"/></g></svg>