<svg fill="none" height="1047" viewBox="0 0 1306 1047" width="1306" xmlns="http://www.w3.org/2000/svg"><path d="m533.761 75.2286c-23.214-45.5297-39.52-70.15683-90.453-74.367174-50.933-4.210346-100.418 23.155474-134.982 60.800074-34.563 37.6446-56.714 84.7595-77.972 131.2385-21.259 46.48-42.612 93.834-76 132.522-33.928 39.321-78.8582 67.968-112.6928 107.368-33.83463 39.401-55.4497 97.139-31.5156 143.232 21.637 41.676 73.79 59.26 120.6504 56.09 46.86-3.169 90.767-22.653 135.283-37.608 44.517-14.956 93.409-25.483 137.953-10.622 71.676 23.912 106.499 102.037 145.689 166.636 78.921 129.013 201.131 225.77 344.807 272.992 116.882 37.94 260.032 34.85 345.382-53.538 74.27-76.896 83.11-202.792 36.34-298.918-46.76-96.125-140.47-163.576-241.76-197.731-78.571-26.491-163.361-35.491-237.322-72.962-126.647-64.157-198.924-198.648-263.407-325.1324z" fill="#000"/></svg>