<svg fill="none" height="754" viewBox="0 0 779 754" width="779" xmlns="http://www.w3.org/2000/svg"><path d="m5.07301 98.7474c5.59179-31.778 29.19289-58.339 57.49549-73.8336 28.3026-15.48679 60.9245-21.19569 93.1085-23.57767 89.937-6.63049 181.585 11.52727 262.197 51.95847 25.132 12.6049 49.303 27.3653 75.716 37.0104 56.347 20.571 120.309 16.947 174.009 43.68 70.85 35.277 108.454 117.943 110.547 197.064 2.258 85.611-31.082 170.089-84.134 237.331-53.044 67.234-124.816 118.099-202.125 154.954-32.098 15.291-66.078 28.505-101.605 29.864-40.087 1.531-79.019-12.074-116.818-25.483-64.868-23.023-133.118-48.366-176.4778-101.816-21.3597-26.342-35.2454-58.011-45.2654-90.406-17.2439-55.746-23.6402-114.179-29.7084-172.213-9.645-92.218-32.00444-174.431-16.93939-264.5326" fill="#231f20"/></svg>