<svg fill="none" height="1246" viewBox="0 0 1344 1246" width="1344" xmlns="http://www.w3.org/2000/svg"><path d="m1032.75 31.183c12.44-6.5598 25.34-12.24 38.58-16.9987 74.41-26.2698 193.2-19.7597 245.34 54.8807 35.73 51.159 29.48 117.862 19.12 176.995-34.78 199.504-98.95 392.749-190.4 573.435-26.63 52.44-57.82 105.979-109.27 134.179-66.075 36.2-149.188 22.669-226.205 24.964-123.928 3.691-243.309 52.642-330.956 135.722-34.489 32.69-64.395 70.58-103.257 98.04s-90.297 43.48-137.055 26.1c-57.797-21.48-89.009-84.28-113.986-140.96-61.016-138.433-123.18545-282.018-123.897757-429.982-1.021527-211.898 142.185757-411.057 343.920757-463.039 56.117-14.458 114.8-18.155 173.041-21.714 57.456-3.115 114.709-9.254 171.52-18.393 87.578-14.668 174.713-36.764 251.745-79.3421 31.035-17.1672 60.36-37.5839 91.76-53.8869z" fill="#000"/></svg>