<svg fill="none" height="279" viewBox="0 0 444 279" width="444" xmlns="http://www.w3.org/2000/svg"><g fill="#231f20"><path d="m25.695 222.192c-14.8748-24.004-29.07676-49.768-21.64743-77.017 4.43571-16.265 16.70643-29.514 30.95993-38.518 12.6215-7.9729 27.6636-13.1522 42.4418-11.0438 16.5454 2.3595 30.7667 13.6128 40.4587 27.2258 9.696 13.616 15.516 29.54 21.226 45.246-7.832-17.306-15.828-35.377-15.258-54.362.914-30.4255 26.969-57.9732 57.272-60.851 9.544-.9077 19.461.4346 27.921 4.9508 23.801 12.7084 28.401 43.9482 39.789 68.4122-6.425-19.256-12.035-39.8152-7.648-59.6342 4.342-19.6163 18.345-36.226 35.489-46.6972 17.147-10.47126 37.217-15.3158 57.214-17.24396 11.333-1.09122 23.031-1.25214 33.805 2.42065 13.829 4.70932 24.853 15.28361 34.105 26.58531 14.952 18.2676 26.55 39.2711 34.043 61.6557 4.372 13.0557 7.359 27.1097 4.401 40.5557-5.814 26.427-31.987 42.535-56.145 54.722-63.336 31.958-129.566 58.179-197.615 78.236-17.105 5.045-34.639 9.738-52.462 9.203-29.328-.878-47.0515-.965-72.6035-15.38-10.5517-5.952-29.3633-28.455-35.7465-38.466z"/><path d="m27.433 221.176c-9.6118-15.544-19.42004-31.958-22.51988-50.248-2.94856-17.395 1.92183-34.494 13.56158-47.721 11.2277-12.757 27.3932-22.716 44.2863-25.4296 17.6044-2.8294 33.9792 4.7576 46.079 17.2726 14.289 14.778 21.461 34.617 28.353 53.567 1.226-.515 2.453-1.033 3.676-1.548-8.006-17.711-16.61-36.783-14.775-56.715 1.394-15.171 9.28-29.3215 20.424-39.5191 11.952-10.9412 27.94-17.2793 44.232-16.0754 16.97 1.2521 29.369 11.5495 37.281 26.0348 8.048 14.7267 12.091 31.2467 19.089 46.4527.949 2.067 4.394.605 3.679-1.552-4.767-14.359-9.184-29.2244-9.139-44.4919.042-13.5518 4.23-26.3568 12.033-37.4074 16.033-22.7 42.973-33.6476 69.603-37.80009 14.505-2.26291 30.393-3.76944 44.496 1.23602 12.512 4.44217 22.532 13.90587 30.956 23.86857 18.001 21.2869 32.373 47.5985 38.647 74.8758 3.161 13.758 2.874 28.008-4.069 40.581-5.678 10.285-14.575 18.429-24.1 25.111-10.12 7.105-21.145 12.741-32.193 18.236-13.291 6.608-26.704 12.966-40.233 19.069-27.593 12.444-55.666 23.81-84.134 34.082-27.895 10.062-56.316 19.97-85.177 26.885-14.862 3.56-29.225 4.281-44.428 3.743-11.961-.418-23.9743-1.126-35.5819-4.252-10.703-2.887-22.1623-7.4-30.7183-14.617-7.9604-6.718-14.9327-14.74-21.4253-22.855-2.7844-3.476-5.485-7.04-7.9025-10.783-1.4002-2.17-4.8831-.155-3.4732 2.031 5.5462 8.595 12.2931 16.558 19.2461 24.039 7.6933 8.27 15.483 14.727 25.7354 19.565 11.0088 5.195 22.6132 8.289 34.6937 9.647 13.887 1.561 28.662 2.453 42.584 1.194 15.679-1.413 30.869-5.881 45.889-10.384 15.422-4.619 30.75-9.56 45.97-14.81 30.129-10.391 59.834-22.015 89.026-34.801 14.518-6.357 28.906-13.007 43.157-19.947 12.412-6.046 24.953-12.055 36.557-19.575 21.248-13.767 38.434-33.48 36.471-60.291-1.075-14.678-6.306-29.0024-12.203-42.3674-5.981-13.5486-13.513-26.4147-22.388-38.2701-7.893-10.5388-16.758-20.7944-27.928-27.97267-12.563-8.07636-26.994-9.956212-41.662-9.009831-27.931 1.805821-57.185 9.466951-78.057 29.083201-9.029 8.4884-16.268 19.0336-20.157 30.8504-4.648 14.1183-3.734 29.2602-.579 43.5914 1.716 7.806 4.088 15.441 6.602 23.018 1.226-.518 2.453-1.033 3.679-1.551-13.066-28.3914-19.027-69.1916-56.579-74.1391-32.875-4.3327-64.965 21.1614-71.094 53.1991-4.336 22.665 5.34 44.625 14.472 64.824.931 2.057 4.455.592 3.676-1.552-6.643-18.277-13.516-37.14-26.401-52.079-11.276-13.072-27.1812-22.6423-44.85-22.33-18.1967.3219-35.9073 9.695-49.0085 21.898-13.12039 12.223-21.235387 28.72-20.7943913 46.855.5472213 22.443 12.4638913 42.754 23.9426913 61.315 1.3584 2.198 4.8413.177 3.4732-2.031z"/></g></svg>