<svg fill="none" height="593" viewBox="0 0 533 593" width="533" xmlns="http://www.w3.org/2000/svg"><path d="m60.003 240.681c3.7291-52.042 23.0802-103.347 57.063-142.9106 33.983-39.5633 82.863-66.7069 134.71-71.5746 23.974-2.2504 48.856.0134 71.491-8.2352 9.562-3.4827 18.399-8.74957 27.963-12.22154 29.201-10.60344 61.833-3.42638 90.819 7.68604 37.069 14.1987 75.548 40.185 80.656 79.6251 2.144 16.4948-2.004 33.0668-4.099 49.5608-9.023 71.031 19.865 142.45 13.021 213.725-2.221 19.538-6.101 38.852-11.598 57.732-18.217 66.905-50.902 138.616-115.548 163.418-73.225 28.09-155.381-15.79-232.871-3.908-45.32 6.949-94.2471 32.174-133.7113 8.854-34.64736-20.471-41.20196-68.047-36.5941-108.114 9.2961-80.825 53.7724-152.434 58.6696-233.642" fill="#000"/></svg>