<svg fill="none" height="502" viewBox="0 0 399 502" width="399" xmlns="http://www.w3.org/2000/svg"><g fill="#231f20"><path d="m133.543 166.805c18.795-13.159 12.871-40.2 19.744-62.029 5.698-18.1132 17.752-33.4396 29.57-48.3018 6.745-8.5148 13.753-17.2362 23.274-22.3967 14.748-8.0503 33.3-6.0894 48.544.9288 15.249 7.0183 27.887 18.5779 40.257 29.8794 23.496 21.5708 47.657 44.0703 60.269 73.3303 10.368 24.099 12.076 50.934 12.937 77.149 1.672 50.573.537 102.435-17.137 149.912-17.68 47.424-54.701 90.205-103.757 102.745-22.66 5.78-46.501 4.903-69.728 2.167-24.972-2.889-50.526-8.256-71.055-22.809-27.4381-19.403-41.8049-51.915-54.9022-82.877-10.2281-24.151-20.5901-48.87-22.6388-74.982-2.0487-26.164 5.6247-54.546 25.9931-71.06 16.9109-13.727 62.0339-37.568 78.6299-51.656z"/><path d="m154.072 187.286c26.21-23.016 16.953-54.443 30.566-82.774 6.383-13.2627 17.834-30.6016 29.342-39.9421 17.53-14.2944 36.588 0 51.043 12.3852 24.77 21.2611 53.606 45.7219 65.331 77.0969 13.371 35.762 10.517 80.968 8.732 118.433-3.174 66.519-28.667 152.905-103.829 168.49-32.284 6.657-78.305 2.89-107.126-14.14-29.5543-17.442-43.2038-55.939-55.3257-86.283-11.7865-29.415-27.9802-74.363.5004-99.907 23.6556-21.21 55.7593-33.336 80.7663-53.359 29.178-23.325-12.137-64.145-41.051-41.026-28.8216 23.016-67.5921 34.885-90.773 64.712-28.74383 37.001-26.20995 86.439-11.6574 128.651 14.408 41.697 32.836 90.773 66.3998 121.013 35.9426 32.408 88.5486 41.439 135.6066 40.716 102.26-1.651 165.688-89.379 180.029-183.351 7.596-49.747 8.643-104.294-.057-154.041-8.556-48.972-38.678-84.1668-74.172-116.8843-37.666-34.6783-92.026-69.1502-139.498-29.0533-19.315 16.3587-37.429 41.645-47.863 64.5059-4.768 10.4242-7.54 20.6417-9.144 31.9427-1.523 10.734-.264 24.203-8.871 31.789-28.13 24.667 13.066 65.59 41.051 41.026z"/></g></svg>