<svg fill="none" height="1302" viewBox="0 0 1303 1302" width="1303" xmlns="http://www.w3.org/2000/svg"><path d="m1119.22 132.316c29.48 29.058 75.3 8.007 109.4 30.447 34.1 22.441 57.3 63.153 60.14 105.56 5 74.93-48.87 140.993-48.73 216.003.1 54.235 28.22 103.784 45 155.341 38.3 117.63 14.03 254.846-61.35 346.888-75.39 92.045-199.01 135.385-312.519 109.565-37.75-8.58-76.311-24.26-113.599-15.16-51.353 12.52-81.62 66.38-116.898 107.81-70.715 83.04-181.095 125.12-286.425 109.18-112.239-16.99-213-96.97-272.983-200.96-59.9825-103.991-81.5202-229.503-73.533-350.066 3.5256-53.193 12.4465-107.31.5001-159.438-8.4013-36.659-26.6759-69.996-38.26609-105.714-11.59018-35.717-15.70959-77.44 3.14169-108.674 27.7331-45.949 89.4803-48.069 140.6733-40.01 51.192 8.059 108.276 20.057 150.236-11.119 66.355-49.303 53.193-176.63 125.639-215.133 66.236-35.2012 144.598 34.47 218.482 25.218 74.842-9.387 119.941-94.5628 190.36-122.2627 49.359-19.41728 106.206-7.81074 153.745 18.2851 47.536 26.0959 87.606 65.4218 126.986 104.2396z" fill="#000"/></svg>