<svg enable-background="new 0 0 309.1 414.2" viewBox="0 0 309.1 414.2" xmlns="http://www.w3.org/2000/svg"><path d="m97.3 93.9s-37.9-8-55.8-11.1-28-18.9-30-40.2 16.6-47.3 51.9-41.9 112.2 23.4 144.1 32.5 56.8 11.2 67.2 34.2.7 47.9-20.9 57.2-38.2 16.2-38.2 16.2 15.4.9 42 3.8c26.6 3 43.1 11.5 47.3 35.1 3.8 21.3 0 43.7-56 56.9 0 0 16.1 4.3 37.2 12.7s28 35.6 19.3 54.9c-7.7 17-19.5 25-71.5 29.5 0 0 39.4 11.3 38.9 42.9-.4 27.6-21.8 44.7-74.8 34.8-51.7-9.6-140.9-27.7-158-34s-31.1-19.9-30.7-43.9 22.6-38.5 57.2-53.5c0 0-14.4-1.7-35.3-5.9s-28.4-21.6-30.8-39.6 8-34.9 29.8-42.6c0 0-16.7-6.1-22.4-32.9s17.9-41.8 33.8-46.9c15.8-5.2 55.7-18.2 55.7-18.2z"/></svg>