<svg fill="none" height="1087" viewBox="0 0 1332 1087" width="1332" xmlns="http://www.w3.org/2000/svg"><path d="m197.384 620.306c-29.506-54.883-67.465-104.781-112.4845-147.862-44.7926-43.246-88.78983-99.251-83.52207-163.243 4.95026-60.098 51.50437-105.625 95.38857-144.021 93.318-81.6474 198.9-163.59596 319.884-164.824554 92.252-.924896 179.148 46.134354 254.095 103.179554 74.947 57.045 142.401 125.195 221.08 176.271 92.437 60.003 198.185 94.975 288.125 159.099 89.95 64.124 165.72 171.746 149.6 285.389-9.21 64.964-46.74 121.071-85.57 172.279-44.41 58.575-93.52 115.707-156.6 149.977-72.75 39.52-157.927 45.1-239.342 37.45-273.8-25.73-514.976-210.218-650.654-463.694z" fill="#000"/></svg>