<svg fill="none" height="1789" viewBox="0 0 1018 1789" width="1018" xmlns="http://www.w3.org/2000/svg"><path d="m137.776 583.142c38.332-137.492-37.517-294.23 40.889-413.5 37.161-56.523 93.566-98.616 155.117-126.6803 144.671-65.9713 322.151-54.2486 456.899 30.1819 134.747 84.4304 222.699 239.0124 226.439 397.9844 5.21 221.193-139.875 424.145-139.908 645.402 0 92.99 25.8 184.02 33.785 276.67 7.984 92.65-5.469 194.37-70.27 261.08-53.064 54.62-130.698 76.12-204.689 94.13-104.306 25.38-211.378 48.37-318.214 37.85-106.835-10.52-214.968-59.74-271.908-150.74-66.5179-106.32-50.76406-244.37-13.9588-364.25 36.8054-119.88 92.6248-236.2 100.2448-361.38 6.648-109.174-23.802-221.387 5.574-326.748z" fill="#000"/></svg>