<svg fill="none" height="1742" viewBox="0 0 1390 1742" width="1390" xmlns="http://www.w3.org/2000/svg"><path d="m509.596 1717.66c-102.238 43.3-134.505 23.91-230.796-31.36-96.291-55.26-167.309-148.26-210.4672-250.54-43.1581-102.29-60.32545-213.81-66.68652-324.66-3.49804-60.94-3.10614-125.21 26.29172-178.702 32.4183-58.992 95.024-95.107 158.199-118.346 63.174-23.238 130.038-36.719 190.744-65.8 60.706-29.08 116.87-78.329 131.503-144.032 17.048-76.549-25.182-152.895-33.559-230.871-4.557-42.441 1.041-85.358 16.333-125.21 15.292-39.853 39.84-75.498 71.619-103.997 31.778-28.499 69.877-49.034 111.153-59.9118s84.547-11.7864 126.243-2.651c57.427 12.5841 111.835 44.0418 170.54 41.0568 62.677-3.189 115.647-44.5963 168.807-77.9256 53.17-33.3294 120.51-60.2204 177.04-32.9844 35.89 17.2997 59.7 54.2213 68.42 93.111 8.71 38.89 3.98 79.646-5.4 118.381-22.29 91.404-69.47 174.844-136.31 241.055-28.47 28.106-62.53 57.079-66 96.938-4.81 55.217 49.8 94.367 81.17 140.07 16.13 23.509 26.56 50.451 30.47 78.69 3.91 28.24 1.19 57.003-7.95 84.009-9.13 27.007-24.43 51.515-44.68 71.585-20.24 20.069-44.89 35.147-71.97 44.041-61.24 20.102-134.82 9.11-184.384 50.304-46.689 38.8-51.86 106.85-61.554 166.76-36.797 227.45-196.613 431.14-408.776 520.99z" fill="#000"/></svg>