<svg fill="none" height="120" viewBox="0 0 120 120" width="120" xmlns="http://www.w3.org/2000/svg"><path d="m0 0h120v120h-120z" fill="#1880b6"/><g stroke="#324249" stroke-linecap="round" stroke-linejoin="round" stroke-width="2"><path d="m46.2823 44.4099h45.7177v31.3078h-45.7177z" fill="#ff6673"/><path d="m46.2823 30h45.7177v7.2568h-45.7177z" fill="#daecf2"/><path d="m72.0957 57.3684-18.6603 18.3493h38.5646v-5.3907l-13.1659-12.9586c-1.866-1.866-4.8724-1.866-6.7384 0z" fill="#daecf2"/><path d="m57.1675 58.9234c2.0039 0 3.6284-1.6244 3.6284-3.6283 0-2.004-1.6245-3.6284-3.6284-3.6284s-3.6284 1.6244-3.6284 3.6284c0 2.0039 1.6245 3.6283 3.6284 3.6283z" fill="#daecf2"/><path d="m46.2823 90.1276h7.2568"/><path d="m60.6922 90.1276h31.3078"/><path d="m46.2823 82.9745h21.6667"/><path d="m75.2057 82.9745h16.7943"/><path d="m29.488 63.6922h7.2568"/><path d="m27 44.4099h12.0255v12.0255h-12.0255z" fill="#daecf2"/></g></svg>