<svg fill="none" height="120" viewBox="0 0 120 120" width="120" xmlns="http://www.w3.org/2000/svg" xmlns:xlink="http://www.w3.org/1999/xlink"><clipPath id="a"><path d="m0 0h120v120h-120z"/></clipPath><g clip-path="url(#a)"><path d="m0 0h120v120h-120z" fill="#1880b6"/><path d="m88.6087 45.3809v46.6138h-36.6316v-35.5358l12.7165-11.078z" fill="#daecf2"/><path d="m88.6087 93h-36.6316c-.2667 0-.5223-.1059-.7109-.2944-.1885-.1886-.2944-.4442-.2944-.7109v-35.5258c0-.1452.0314-.2887.0922-.4206.0607-.1318.1493-.249.2596-.3434l12.7166-11.0578c.1821-.1557.4138-.2413.6534-.2413h23.9151c.2666 0 .5223.1059.7108.2944.1885.1886.2944.4443.2944.7109v46.5836c0 .2667-.1059.5223-.2944.7109-.1885.1885-.4442.2944-.7108.2944zm-35.6264-2.0105h34.6211v-44.5732h-22.5278l-12.0631 10.5251z" fill="#324249"/><path d="m64.6936 45.3809v11.078h-12.7165z" fill="#daecf2"/><path d="m64.6935 57.4742h-12.7165c-.2055 0-.4061-.063-.5747-.1804-.1686-.1175-.2972-.2838-.3684-.4766s-.0816-.4028-.0298-.6016c.0518-.1989.1633-.3771.3195-.5107l12.7165-11.0578c.146-.1255.325-.2065.5157-.2332s.385.0019.5599.0824c.1745.0807.3222.2098.4256.372.1033.1621.158.3505.1575.5428v11.0578c0 .2666-.1059.5223-.2944.7108-.1886.1886-.4443.2945-.7109.2945zm-10.0526-2.0105h9.0474v-7.8813z" fill="#324249"/><path d="m78.0333 37.1177v46.6138h-36.6316v-35.5359l12.7166-11.0779z" fill="#daecf2"/><path d="m78.0333 84.7368h-36.6316c-.2666 0-.5223-.1059-.7108-.2945-.1885-.1885-.2944-.4442-.2944-.7108v-35.5359c-.0065-.1438.0179-.2873.0717-.4208.0537-.1336.1356-.254.2399-.3532l12.7567-11.0579c.1807-.1593.4126-.2485.6535-.2513h23.915c.2667 0 .5223.1059.7109.2945.1885.1885.2944.4442.2944.7108v46.6138c0 .2666-.1059.5223-.2944.7108-.1886.1886-.4442.2945-.7109.2945zm-35.6263-2.0105h34.6211v-44.6033h-22.5278l-12.0631 10.525z" fill="#324249"/><path d="m54.1183 37.1177v11.0779h-12.7166z" fill="#daecf2"/><path d="m54.1182 49.2009h-12.7165c-.2113.0114-.4208-.0443-.5987-.1589-.1779-.1147-.315-.2826-.3919-.4798-.0768-.1972-.0895-.4136-.0362-.6184s.1699-.3875.3332-.5222l12.7567-11.0579c.1454-.1243.3233-.2046.5127-.2314s.3826.001.5568.0802c.1741.0792.3221.2064.4265.3667.1043.1604.1608.3472.1627.5385v11.0578c.0027.1337-.0214.2666-.0707.3909s-.1229.2375-.2165.333c-.0937.0955-.2054.1713-.3287.2231s-.2556.0784-.3894.0784zm-10.0526-2.0105h9.0474v-7.8109z" fill="#324249"/><path d="m67.639 28.9852v46.6138h-36.6316v-35.5359l12.7165-11.0779z" fill="#ff6673"/><path d="m67.639 76.5741h-36.6316c-.2666 0-.5223-.1059-.7109-.2945-.1885-.1885-.2944-.4442-.2944-.7108v-35.5057c.0002-.1427.0308-.2838.0897-.4138s.1449-.2459.2521-.3401l12.7165-11.0579c.1833-.1616.4191-.2509.6635-.2513h23.9151c.2666 0 .5223.1059.7108.2944.1885.1886.2944.4442.2944.7109v46.5635c0 .2666-.1059.5223-.2944.7108-.1885.1886-.4442.2945-.7108.2945zm-35.6264-2.0105h34.6211v-44.5732h-22.5379l-12.0631 10.5351z" fill="#324249"/><path d="m43.7239 28.9852v11.0779h-12.7165z" fill="#ff6673"/><g fill="#324249"><path d="m43.7239 41.0684h-12.7165c-.2054.0006-.4061-.0616-.575-.1785-.169-.1168-.2981-.2826-.37-.475-.0707-.1911-.0816-.3992-.0313-.5967.0502-.1974.1593-.375.3128-.5091l12.7165-11.0578c.1451-.1275.3239-.2105.515-.239s.3863-.0014.5624.0781c.176.0796.3254.2082.4303.3704s.1608.3513.161.5445v11.0578c0 .2666-.1059.5223-.2944.7108s-.4442.2945-.7108.2945zm-10.0526-2.0106h9.0473v-7.8611z"/><path d="m59.7175 60.8418h-19.4015c-.2666 0-.5223-.1059-.7108-.2944-.1885-.1886-.2944-.4443-.2944-.7109s.1059-.5223.2944-.7108.4442-.2944.7108-.2944h19.4015c.2666 0 .5223.1059.7109.2944.1885.1885.2944.4442.2944.7108s-.1059.5223-.2944.7109c-.1886.1885-.4443.2944-.7109.2944z"/><path d="m59.7175 67.2955h-19.4015c-.2666 0-.5223-.1059-.7108-.2944s-.2944-.4442-.2944-.7108.1059-.5223.2944-.7108c.1885-.1886.4442-.2945.7108-.2945h19.4015c.2666 0 .5223.1059.7109.2945.1885.1885.2944.4442.2944.7108s-.1059.5223-.2944.7108c-.1886.1885-.4443.2944-.7109.2944z"/></g></g></svg>