<svg enable-background="new 0 0 120 120" viewBox="0 0 120 120" xmlns="http://www.w3.org/2000/svg" xmlns:xlink="http://www.w3.org/1999/xlink"><clipPath id="a"><path d="m22.7 22.7h74.5v74.5h-74.5z"/></clipPath><path d="m0 0h120v120h-120z" fill="#1880b6"/><g clip-path="url(#a)"><path d="m85.3 60c0 14-11.3 25.3-25.3 25.3s-25.3-11.3-25.3-25.3 11.3-25.3 25.3-25.3 25.3 11.3 25.3 25.3z" fill="#daecf2"/><path d="m48 60h9.3l-2.7 17.3 17.4-17.3h-9.3l2.7-17.3z" fill="#ff6673"/><g fill="#324249"><path d="m60 22.7c-2.7 0-5.2.3-7.8.8-.7.2-1.2.9-1 1.6s.9 1.2 1.6 1c2.3-.5 4.7-.7 7.2-.7s4.9.3 7.2.7c.7.2 1.4-.3 1.6-1s-.3-1.4-1-1.6c-2.6-.5-5.1-.8-7.8-.8z"/><path d="m96.5 52.3c-.2-.7-.9-1.2-1.6-1s-1.2.9-1 1.6c.5 2.3.7 4.7.7 7.2s-.3 4.9-.7 7.2c-.2.7.3 1.4 1 1.6s1.4-.3 1.6-1c.5-2.5.8-5.1.8-7.8s-.3-5.3-.8-7.8z"/><path d="m25.1 51.2c.7.2 1.2.9 1 1.6-.5 2.3-.7 4.7-.7 7.2s.3 4.9.7 7.2c.2.7-.3 1.4-1 1.6s-1.4-.3-1.6-1c-.5-2.5-.8-5.1-.8-7.8s.3-5.2.8-7.8c.2-.7.9-1.1 1.6-1z"/><path d="m52.8 93.9c-.7-.2-1.4.3-1.6 1s.3 1.4 1 1.6c2.5.5 5.1.8 7.8.8s5.2-.3 7.8-.8c.7-.2 1.2-.9 1-1.6s-.9-1.2-1.6-1c-2.3.5-4.7.7-7.2.7s-4.9-.2-7.2-.7z"/><path d="m45.1 31.7c4.4-2.3 9.5-3.7 14.9-3.7s10.4 1.3 14.9 3.7c.7.3.9 1.1.6 1.8s-1.1.9-1.8.6c-4.1-2.1-8.7-3.3-13.6-3.3s-9.5 1.2-13.6 3.3c-.7.3-1.5.1-1.8-.6-.5-.6-.2-1.4.4-1.8z"/><path d="m88.3 45.2c-.3-.7-1.1-.9-1.8-.6s-.9 1.1-.6 1.8c2.1 4.1 3.3 8.7 3.3 13.6s-1.2 9.5-3.3 13.6c-.3.7-.1 1.5.6 1.8s1.5.1 1.8-.6c2.3-4.4 3.7-9.5 3.7-14.9s-1.4-10.3-3.7-14.7z"/><path d="m34.1 46.4c.3-.7.1-1.5-.6-1.8s-1.5-.1-1.8.6c-2.3 4.4-3.7 9.5-3.7 14.9s1.3 10.4 3.7 14.9c.3.7 1.1.9 1.8.6s.9-1.1.6-1.8c-2.1-4.1-3.3-8.7-3.3-13.6s1.1-9.7 3.3-13.8z"/><path d="m46.4 85.9c-.7-.3-1.5-.1-1.8.6s-.1 1.5.6 1.8c4.4 2.3 9.4 3.7 14.8 3.7s10.4-1.3 14.9-3.7c.7-.3.9-1.1.6-1.8s-1.1-.9-1.8-.6c-4.1 2.1-8.7 3.3-13.6 3.3s-9.6-1.1-13.7-3.3z"/><path clip-rule="evenodd" d="m66.6 42.9c.1-.6-.2-1.1-.7-1.4s-1.1-.2-1.5.2l-17.3 17.4c-.4.4-.5 1-.3 1.5s.7.8 1.2.8h7.8l-2.4 15.8c-.1.6.2 1.1.7 1.4s1.1.2 1.5-.2l17.3-17.3c.4-.4.5-1 .3-1.5-.2-.6-.7-.9-1.2-.9h-7.8zm-9.3 15.8h-6.1l12.2-12.2-2 13.3c-.1.4.1.8.3 1.1.3.3.6.5 1 .5h6.1l-12.2 12.1 2-13.3c.1-.4-.1-.8-.3-1.1s-.6-.4-1-.4z" fill-rule="evenodd"/><path clip-rule="evenodd" d="m60 33.4c-14.7 0-26.6 11.9-26.6 26.6s11.9 26.6 26.6 26.6 26.6-11.9 26.6-26.6-11.9-26.6-26.6-26.6zm-24 26.6c0-13.2 10.7-24 24-24s24 10.7 24 24-10.8 24-24 24-24-10.8-24-24z" fill-rule="evenodd"/></g></g></svg>