<?xml version="1.0" encoding="UTF-8"?>
<svg id="Ebene_1" data-name="Ebene 1" xmlns="http://www.w3.org/2000/svg" version="1.1" viewBox="0 0 869 414.9">
  <defs>
    <style>
      .cls-1 {
        fill: #1c2646;
      }

      .cls-1, .cls-2 {
        stroke-width: 0px;
      }

      .cls-3 {
        isolation: isolate;
      }

      .cls-4 {
        fill: none;
        stroke: #a7947e;
        stroke-linecap: round;
        stroke-linejoin: round;
        stroke-width: 3px;
      }

      .cls-2 {
        fill: #fff;
      }
    </style>
  </defs>
  <path class="cls-1" d="M0,151.5c0,77.3,62,139.5,139,139.5h225l75,75.2,68-75.2h362v-151.5C869,62.2,807,0,730,0H0v151.5Z"/>
  <g class="cls-3">
    <path class="cls-2" d="M71.2,110.8h30.5v4.6h-37.9v-3.1l30-40.6h-29.6v-4.6h37v3.1l-30.1,40.6Z"/>
    <path class="cls-2" d="M113.3,112.6c-2.3-2.2-3.5-5.7-3.5-10.4v-22.3h5.5v22c0,3.2.8,5.6,2.3,7,1.5,1.4,3.7,2.2,6.4,2.2s4.1-.4,6.1-1.2c2-.8,3.8-2,5.2-3.6v-26.4h5.5v35.4h-4.5l-.4-3.9h-.3c-1.7,1.5-3.6,2.6-5.8,3.3-2.2.8-4.4,1.2-6.8,1.2-4.1,0-7.3-1.1-9.7-3.3Z"/>
    <path class="cls-2" d="M153.9,80h4.5l.4,4.6h.4c1.4-1.5,3.1-2.8,5.2-3.7,2.1-.9,4.3-1.3,6.5-1.3s2.4.1,3.6.3v5c-1.1-.2-2.3-.3-3.8-.3s-4,.4-6.1,1.2c-2.1.8-3.8,2-5.2,3.6v25.9h-5.5v-35.4Z"/>
    <path class="cls-2" d="M229,115.4l-13.8-15.8h-7.4v15.8h-5.5v-52.7h5.5v32.3h7.4l12.9-15h6.1l-14.6,17.2,15.7,18.2h-6.2Z"/>
    <path class="cls-2" d="M242.1,71.5c-.6-.6-1-1.4-1-2.4s.3-1.9,1-2.4c.7-.6,1.6-.9,2.8-.9s2.1.3,2.8.9c.6.6,1,1.4,1,2.4s-.3,1.8-1,2.4c-.6.6-1.6.8-2.8.8s-2.1-.3-2.8-.8ZM242.2,115.4v-35.4h5.5v35.4h-5.5Z"/>
    <path class="cls-2" d="M260.7,80h4.5l.4,4h.4c1.7-1.5,3.7-2.6,5.9-3.4,2.2-.8,4.5-1.2,6.9-1.2,4.1,0,7.4,1.1,9.7,3.4,2.3,2.2,3.5,5.7,3.5,10.5v22.1h-5.5v-21.9c0-3.3-.8-5.6-2.3-7.1-1.5-1.4-3.7-2.2-6.6-2.2s-4.1.4-6.2,1.2-3.8,2-5.3,3.6v26.4h-5.5v-35.4Z"/>
    <path class="cls-2" d="M310.2,114.1c-2.4-1.2-4.2-3.2-5.6-5.8-1.4-2.6-2-5.9-2-9.9,0-6.2,1.7-11,5-14.2,3.3-3.2,8.2-4.8,14.6-4.8s5,.2,7.6.7v-17.4h5.5v52.7h-4.6l-.4-4.1h-.4c-1.4,1.5-3,2.6-5,3.4-2,.8-4.1,1.2-6.5,1.2s-5.9-.6-8.3-1.9ZM325.2,110.2c1.8-.8,3.3-2,4.6-3.6v-21.9c-2.3-.6-4.8-.9-7.5-.9-4.8,0-8.4,1.2-10.7,3.5-2.3,2.3-3.5,5.9-3.5,10.7,0,8.9,3.8,13.4,11.5,13.4s3.9-.4,5.6-1.1Z"/>
    <path class="cls-2" d="M377.7,99.4h-25.9c.2,4.3,1.4,7.4,3.6,9.4,2.3,1.9,5.7,2.9,10.3,2.9s6.3-.5,10.1-1.6v4.3c-3.7,1-7.3,1.6-10.8,1.6-6.2,0-10.8-1.5-14-4.5s-4.7-7.6-4.7-13.8.6-7.3,1.9-10c1.3-2.7,3.1-4.8,5.5-6.2,2.4-1.4,5.3-2.1,8.6-2.1,5,0,8.8,1.6,11.4,4.7,2.7,3.2,4,7.7,4,13.7v1.6ZM354.6,86.4c-1.8,2.1-2.7,5.2-2.8,9.5h20.7c-.1-4.3-1-7.4-2.7-9.5-1.7-2-4.2-3.1-7.5-3.1s-5.9,1-7.7,3.1Z"/>
    <path class="cls-2" d="M388.2,80h4.5l.4,4.6h.4c1.4-1.5,3.1-2.8,5.2-3.7,2.1-.9,4.3-1.3,6.5-1.3s2.4.1,3.6.3v5c-1.1-.2-2.3-.3-3.8-.3s-4,.4-6.1,1.2c-2.1.8-3.8,2-5.2,3.6v25.9h-5.5v-35.4Z"/>
    <path class="cls-2" d="M422,129.9c-2.2-.3-4.2-.8-6.1-1.4v-4.5c4.2,1.3,8.2,2,12,2s5.5-.4,7.4-1.2c1.9-.8,3.3-2,4.2-3.7.9-1.7,1.3-4,1.3-6.8v-2.9h-.3c-1.4,1.4-3.1,2.5-5.1,3.3-2,.8-4.1,1.2-6.5,1.2s-5.6-.6-7.9-1.8c-2.3-1.2-4.1-3.1-5.5-5.7-1.3-2.6-2-5.9-2-9.8,0-6.2,1.7-11,5-14.2,3.3-3.2,8.3-4.8,14.8-4.8s8.8.6,12.8,1.8v32.1c0,4-.7,7.2-2,9.7-1.3,2.5-3.3,4.3-6,5.5s-6,1.8-10.2,1.8-4-.2-6.2-.5ZM436.1,110.1c1.8-.7,3.4-1.8,4.7-3.3v-22c-2.3-.6-5-.9-7.9-.9-4.6,0-8,1.2-10.4,3.5-2.3,2.3-3.5,5.8-3.5,10.6s1,8,3,10.1,4.8,3.1,8.3,3.1,3.9-.4,5.7-1.1Z"/>
    <path class="cls-2" d="M488.7,99.4h-25.9c.2,4.3,1.4,7.4,3.6,9.4,2.3,1.9,5.7,2.9,10.3,2.9s6.3-.5,10.1-1.6v4.3c-3.7,1-7.3,1.6-10.8,1.6-6.2,0-10.8-1.5-14-4.5s-4.7-7.6-4.7-13.8.6-7.3,1.9-10,3.1-4.8,5.5-6.2c2.4-1.4,5.3-2.1,8.6-2.1,5,0,8.8,1.6,11.4,4.7,2.7,3.2,4,7.7,4,13.7v1.6ZM465.6,86.4c-1.8,2.1-2.7,5.2-2.8,9.5h20.7c-.1-4.3-1-7.4-2.7-9.5-1.7-2-4.2-3.1-7.5-3.1s-5.9,1-7.7,3.1Z"/>
    <path class="cls-2" d="M497.7,114.5v-4.2c2,.6,3.9,1,5.8,1.2,1.9.2,3.8.4,5.8.4,3.5,0,6-.5,7.6-1.5,1.6-1,2.3-2.5,2.3-4.5s-.2-1.9-.6-2.6c-.4-.7-1-1.3-1.9-1.7-.9-.5-2.1-.8-3.7-1.1l-6-1c-3.5-.6-6.1-1.7-7.7-3.3-1.6-1.6-2.4-3.7-2.4-6.4s1.3-5.7,3.9-7.6c2.6-1.9,6.5-2.8,11.8-2.8s6.7.4,9.8,1.3v4.2c-3.1-.9-6.4-1.3-9.8-1.3s-6.4.5-8,1.6c-1.6,1.1-2.4,2.5-2.4,4.4s.4,2.6,1.3,3.5c.9.9,2.4,1.6,4.6,2l6,1c3.6.6,6.1,1.6,7.8,3.1,1.6,1.5,2.4,3.6,2.4,6.4s-1.3,5.8-3.9,7.7c-2.6,1.8-6.4,2.8-11.5,2.8s-8.2-.5-11.5-1.5Z"/>
    <path class="cls-2" d="M534.7,71.5c-.7-.6-1-1.4-1-2.4s.3-1.9,1-2.4c.6-.6,1.6-.9,2.8-.9s2.1.3,2.8.9c.6.6,1,1.4,1,2.4s-.3,1.8-1,2.4c-.7.6-1.6.8-2.8.8s-2.1-.3-2.8-.8ZM534.7,115.4v-35.4h5.5v35.4h-5.5Z"/>
    <path class="cls-2" d="M555.8,111.4c-3-3.1-4.5-7.6-4.5-13.7s1.6-10.6,4.8-13.7c3.2-3.1,7.9-4.6,14-4.6s6,.4,8.6,1.1v4.5c-1.4-.4-2.8-.6-4.1-.8-1.3-.2-2.7-.3-4.1-.3-4.6,0-8,1.1-10.3,3.3-2.2,2.2-3.4,5.6-3.4,10.3s1.1,8.3,3.2,10.5c2.1,2.2,5.2,3.4,9.4,3.4s2.8-.1,4.3-.4c1.5-.3,3.1-.7,5-1.3v4.5c-3.1,1.1-6.4,1.7-9.8,1.7-5.7,0-10.1-1.5-13.1-4.6Z"/>
    <path class="cls-2" d="M588.1,62.7h5.5v21.3h.3c1.7-1.5,3.6-2.6,5.7-3.4,2.2-.8,4.4-1.1,6.8-1.1,4,0,7.2,1.1,9.5,3.3,2.3,2.2,3.5,5.7,3.5,10.4v22.3h-5.5v-22c0-3.2-.8-5.6-2.3-7-1.5-1.4-3.7-2.1-6.6-2.1s-4.2.4-6.2,1.2c-2,.8-3.8,2-5.3,3.6v26.3h-5.5v-52.7Z"/>
    <path class="cls-2" d="M661.4,99.4h-25.9c.2,4.3,1.4,7.4,3.6,9.4,2.3,1.9,5.7,2.9,10.3,2.9s6.3-.5,10.1-1.6v4.3c-3.7,1-7.3,1.6-10.8,1.6-6.2,0-10.8-1.5-14-4.5s-4.7-7.6-4.7-13.8.6-7.3,1.9-10,3.1-4.8,5.5-6.2c2.4-1.4,5.3-2.1,8.6-2.1,5,0,8.8,1.6,11.4,4.7,2.7,3.2,4,7.7,4,13.7v1.6ZM638.3,86.4c-1.8,2.1-2.7,5.2-2.8,9.5h20.7c-.1-4.3-1-7.4-2.7-9.5-1.7-2-4.2-3.1-7.5-3.1s-5.9,1-7.7,3.1Z"/>
    <path class="cls-2" d="M671.8,80h4.5l.4,4.6h.4c1.4-1.5,3.1-2.8,5.2-3.7,2.1-.9,4.3-1.3,6.5-1.3s2.4.1,3.6.3v5c-1.1-.2-2.3-.3-3.8-.3s-4,.4-6.1,1.2-3.8,2-5.2,3.6v25.9h-5.5v-35.4Z"/>
    <path class="cls-2" d="M722.7,110.7v4.5c-2.2.5-4.2.7-6.2.7-4.2,0-7.3-1-9.5-3.1s-3.3-5.2-3.3-9.4v-19h-7.3v-4.5h7.3l.9-12.9h4.5v12.9h13v4.5h-13v18c0,3.2.7,5.4,2.1,6.8,1.4,1.4,3.6,2.1,6.5,2.1s3-.2,5-.7Z"/>
    <path class="cls-2" d="M759.7,99.4h-25.9c.2,4.3,1.4,7.4,3.6,9.4,2.3,1.9,5.7,2.9,10.3,2.9s6.3-.5,10.1-1.6v4.3c-3.7,1-7.3,1.6-10.8,1.6-6.2,0-10.8-1.5-14-4.5s-4.7-7.6-4.7-13.8.6-7.3,1.9-10,3.1-4.8,5.5-6.2c2.4-1.4,5.3-2.1,8.6-2.1,5,0,8.8,1.6,11.4,4.7,2.7,3.2,4,7.7,4,13.7v1.6ZM736.6,86.4c-1.8,2.1-2.7,5.2-2.8,9.5h20.7c-.1-4.3-1-7.4-2.7-9.5-1.7-2-4.2-3.1-7.5-3.1s-5.9,1-7.7,3.1Z"/>
    <path class="cls-2" d="M770.1,80h4.5l.4,4h.4c1.7-1.5,3.7-2.6,5.9-3.4,2.2-.8,4.5-1.2,6.9-1.2,4.1,0,7.4,1.1,9.7,3.4s3.5,5.7,3.5,10.5v22.1h-5.5v-21.9c0-3.3-.8-5.6-2.3-7.1-1.5-1.4-3.7-2.2-6.6-2.2s-4.1.4-6.2,1.2-3.8,2-5.3,3.6v26.4h-5.5v-35.4Z"/>
  </g>
  <g class="cls-3">
    <path class="cls-2" d="M159.2,158.3c2.5-.5,4.8-.8,7-1.1,2.2-.2,4.6-.3,7-.3,6.9,0,12.1,1.3,15.6,4,3.5,2.7,5.2,6.8,5.2,12.4s-1.8,9.6-5.3,12.4c-3.5,2.8-9,4.2-16.4,4.2s-4.7-.1-7.6-.4v16.2h-5.6v-47.4ZM181.8,184.2c2.4-.9,4.1-2.2,5.2-4,1.1-1.8,1.6-4.1,1.6-6.9,0-4.2-1.2-7.2-3.7-9.2-2.5-2-6.2-2.9-11.3-2.9s-6.1.2-8.9.8v23.1c2.5.3,5,.5,7.7.5,3.9,0,7-.4,9.4-1.3Z"/>
    <path class="cls-2" d="M204.7,161.7c-.6-.6-1-1.4-1-2.4s.3-1.9,1-2.4c.7-.6,1.6-.9,2.8-.9s2.1.3,2.8.9c.6.6,1,1.4,1,2.4s-.3,1.8-1,2.4c-.6.6-1.6.8-2.8.8s-2.1-.3-2.8-.8ZM204.7,205.7v-35.4h5.5v35.4h-5.5Z"/>
    <path class="cls-2" d="M223.3,170.3h4.6l.4,4.1h.3c1.4-1.5,3-2.6,5-3.5,2-.8,4.1-1.2,6.5-1.2s5.8.6,8.2,1.8c2.4,1.2,4.2,3.1,5.6,5.7,1.4,2.6,2.1,6,2.1,10,0,6.3-1.7,11-5,14.2-3.3,3.2-8.2,4.8-14.6,4.8s-4.8-.2-7.7-.7v14.4h-5.5v-49.7ZM247,198.4c2.3-2.3,3.5-5.9,3.5-10.7,0-8.9-3.8-13.4-11.5-13.4s-3.9.4-5.6,1.1c-1.8.8-3.3,2-4.6,3.6v21.9c1,.3,2.2.5,3.5.7,1.3.2,2.6.2,4,.2,4.8,0,8.4-1.2,10.7-3.5Z"/>
    <path class="cls-2" d="M296.6,189.7h-25.9c.2,4.3,1.4,7.4,3.6,9.4,2.3,1.9,5.7,2.9,10.3,2.9s6.3-.5,10.1-1.6v4.3c-3.7,1-7.3,1.6-10.8,1.6-6.2,0-10.8-1.5-14-4.5s-4.7-7.6-4.7-13.8.6-7.3,1.9-10c1.3-2.7,3.1-4.8,5.5-6.2,2.4-1.4,5.3-2.1,8.6-2.1,5,0,8.8,1.6,11.4,4.7,2.7,3.2,4,7.7,4,13.7v1.6ZM273.5,176.7c-1.8,2.1-2.7,5.2-2.8,9.5h20.7c-.1-4.3-1-7.4-2.7-9.5-1.7-2-4.2-3.1-7.5-3.1s-5.9,1-7.7,3.1Z"/>
    <path class="cls-2" d="M328.2,201v4.5c-2.2.5-4.2.7-6.2.7-4.2,0-7.3-1-9.5-3.1s-3.3-5.2-3.3-9.4v-19h-7.3v-4.5h7.3l.9-12.9h4.6v12.9h13v4.5h-13v18c0,3.2.7,5.4,2.1,6.8,1.4,1.4,3.6,2.1,6.5,2.1s3-.2,5-.7Z"/>
    <path class="cls-2" d="M355.4,201v4.5c-2.2.5-4.2.7-6.2.7-4.2,0-7.3-1-9.5-3.1s-3.3-5.2-3.3-9.4v-19h-7.3v-4.5h7.3l.9-12.9h4.6v12.9h13v4.5h-13v18c0,3.2.7,5.4,2.1,6.8,1.4,1.4,3.6,2.1,6.5,2.1s3-.2,5-.7Z"/>
    <path class="cls-2" d="M392.4,189.7h-25.9c.2,4.3,1.4,7.4,3.6,9.4,2.3,1.9,5.7,2.9,10.3,2.9s6.3-.5,10.1-1.6v4.3c-3.7,1-7.3,1.6-10.8,1.6-6.2,0-10.8-1.5-14-4.5s-4.7-7.6-4.7-13.8.6-7.3,1.9-10c1.3-2.7,3.1-4.8,5.5-6.2,2.4-1.4,5.3-2.1,8.6-2.1,5,0,8.8,1.6,11.4,4.7,2.7,3.2,4,7.7,4,13.7v1.6ZM369.2,176.7c-1.8,2.1-2.7,5.2-2.8,9.5h20.7c-.1-4.3-1-7.4-2.7-9.5-1.7-2-4.2-3.1-7.5-3.1s-5.9,1-7.7,3.1Z"/>
    <path class="cls-2" d="M402.8,170.3h4.5l.4,4h.4c1.7-1.5,3.7-2.6,5.9-3.4,2.2-.8,4.5-1.2,6.9-1.2,4.1,0,7.4,1.1,9.7,3.4,2.3,2.2,3.5,5.7,3.5,10.5v22.1h-5.5v-21.9c0-3.3-.8-5.6-2.3-7.1-1.5-1.4-3.7-2.2-6.6-2.2s-4.1.4-6.2,1.2-3.8,2-5.3,3.6v26.4h-5.5v-35.4Z"/>
    <path class="cls-2" d="M453.1,220.2c-2.2-.3-4.2-.8-6.1-1.4v-4.5c4.2,1.3,8.2,2,12,2s5.5-.4,7.4-1.2,3.3-2,4.2-3.7c.9-1.7,1.3-4,1.3-6.8v-2.9h-.3c-1.4,1.4-3.1,2.5-5.1,3.3-2,.8-4.1,1.2-6.5,1.2s-5.6-.6-7.9-1.8c-2.3-1.2-4.1-3.1-5.5-5.7-1.3-2.6-2-5.9-2-9.8,0-6.2,1.7-11,5-14.2,3.3-3.2,8.3-4.8,14.8-4.8s8.8.6,12.8,1.8v32.1c0,4-.7,7.2-2,9.7-1.3,2.5-3.3,4.3-6,5.5s-6,1.8-10.2,1.8-4-.2-6.2-.5ZM467.2,200.4c1.8-.7,3.4-1.8,4.7-3.3v-22c-2.3-.6-5-.9-7.9-.9-4.6,0-8,1.2-10.4,3.5-2.3,2.3-3.5,5.8-3.5,10.6s1,8,3,10.1c2,2.1,4.8,3.1,8.3,3.1s3.9-.4,5.7-1.1Z"/>
    <path class="cls-2" d="M510.8,171c2.2.8,3.9,2.2,5,4.1,1.1,1.9,1.7,4.5,1.7,7.8v22.7h-4.6l-.4-4h-.4c-1.3,1.4-3,2.5-5.1,3.4-2.1.8-4.3,1.2-6.6,1.2s-4.7-.4-6.5-1.2c-1.8-.8-3.1-1.9-4.1-3.4-.9-1.5-1.4-3.2-1.4-5.1,0-3.1,1.1-5.4,3.3-7.1s5.8-2.8,10.7-3.2l9.6-1v-2.5c0-2.2-.4-4-1.1-5.2-.8-1.2-1.9-2.1-3.4-2.6-1.5-.5-3.4-.8-5.8-.8s-3.4.1-5.3.4c-1.9.3-3.7.7-5.5,1.3v-4.3c1.6-.6,3.5-1,5.5-1.3,2-.3,4-.5,5.9-.5,3.4,0,6.2.4,8.4,1.2ZM507.2,201.1c1.8-.7,3.4-1.8,4.8-3.2v-9.2l-9.2,1c-3.1.4-5.4,1.1-6.7,2.1-1.4,1-2,2.5-2,4.3s.6,3.4,1.9,4.5c1.3,1.1,3.2,1.6,5.7,1.6s3.8-.4,5.6-1.1Z"/>
    <path class="cls-2" d="M530,170.3h4.5l.4,4.6h.4c1.4-1.5,3.1-2.8,5.2-3.7,2.1-.9,4.3-1.3,6.5-1.3s2.4.1,3.6.3v5c-1.1-.2-2.3-.3-3.8-.3s-4,.4-6.1,1.2-3.8,2-5.2,3.6v25.9h-5.5v-35.4Z"/>
    <path class="cls-2" d="M558.5,170.3h4.5l.4,4h.4c1.7-1.5,3.7-2.6,5.9-3.4,2.2-.8,4.5-1.2,6.9-1.2,4.1,0,7.4,1.1,9.7,3.4s3.5,5.7,3.5,10.5v22.1h-5.5v-21.9c0-3.3-.8-5.6-2.3-7.1-1.5-1.4-3.7-2.2-6.6-2.2s-4.1.4-6.2,1.2-3.8,2-5.3,3.6v26.4h-5.5v-35.4Z"/>
    <path class="cls-2" d="M602.4,161.7c-.7-.6-1-1.4-1-2.4s.3-1.9,1-2.4c.6-.6,1.6-.9,2.8-.9s2.1.3,2.8.9c.6.6,1,1.4,1,2.4s-.3,1.8-1,2.4c-.7.6-1.6.8-2.8.8s-2.1-.3-2.8-.8ZM602.4,205.7v-35.4h5.5v35.4h-5.5Z"/>
    <path class="cls-2" d="M642.3,201v4.5c-2.2.5-4.2.7-6.2.7-4.2,0-7.3-1-9.5-3.1s-3.3-5.2-3.3-9.4v-19h-7.3v-4.5h7.3l.9-12.9h4.5v12.9h13v4.5h-13v18c0,3.2.7,5.4,2.1,6.8,1.4,1.4,3.6,2.1,6.5,2.1s3-.2,5-.7Z"/>
    <path class="cls-2" d="M653.4,202.9c-2.3-2.2-3.5-5.7-3.5-10.4v-22.3h5.5v22c0,3.2.8,5.6,2.3,7s3.7,2.2,6.4,2.2,4.1-.4,6.1-1.2c2-.8,3.8-2,5.2-3.6v-26.4h5.5v35.4h-4.6l-.4-3.9h-.3c-1.7,1.5-3.6,2.6-5.8,3.3-2.2.8-4.4,1.2-6.8,1.2-4.1,0-7.3-1.1-9.7-3.3Z"/>
    <path class="cls-2" d="M694,170.3h4.5l.4,4.6h.4c1.4-1.5,3.1-2.8,5.2-3.7,2.1-.9,4.3-1.3,6.5-1.3s2.4.1,3.6.3v5c-1.1-.2-2.3-.3-3.8-.3s-4,.4-6.1,1.2-3.8,2-5.2,3.6v25.9h-5.5v-35.4Z"/>
  </g>
  <polyline class="cls-4" points="500 346.1 437 413.4 375 346.1"/>
</svg>