<?xml version="1.0" encoding="UTF-8"?>
<svg id="Ebene_1" data-name="Ebene 1" xmlns="http://www.w3.org/2000/svg" version="1.1" viewBox="0 0 869 414.9">
  <defs>
    <style>
      .cls-1 {
        fill: #1c2646;
      }

      .cls-1, .cls-2 {
        stroke-width: 0px;
      }

      .cls-3 {
        isolation: isolate;
      }

      .cls-4 {
        fill: none;
        stroke: #a7947e;
        stroke-linecap: round;
        stroke-linejoin: round;
        stroke-width: 3px;
      }

      .cls-2 {
        fill: #fff;
      }
    </style>
  </defs>
  <path class="cls-1" d="M0,151.5c0,77.3,62,139.5,139,139.5h225l75,75.2,68-75.2h362v-151.5C869,62.2,807,0,730,0H0v151.5Z"/>
  <g class="cls-3">
    <path class="cls-2" d="M118.8,115.4v-43.6h-17.9v-4.6h41.4v4.6h-17.9v43.6h-5.6Z"/>
    <path class="cls-2" d="M149.7,62.7h5.5v21.3h.3c1.7-1.5,3.6-2.6,5.7-3.4,2.2-.8,4.4-1.1,6.8-1.1,4,0,7.2,1.1,9.5,3.3,2.3,2.2,3.5,5.7,3.5,10.4v22.3h-5.5v-22c0-3.2-.8-5.6-2.3-7-1.5-1.4-3.7-2.1-6.6-2.1s-4.2.4-6.2,1.2c-2,.8-3.8,2-5.3,3.6v26.3h-5.5v-52.7Z"/>
    <path class="cls-2" d="M222.9,99.4h-25.9c.2,4.3,1.4,7.4,3.6,9.4,2.3,1.9,5.7,2.9,10.3,2.9s6.3-.5,10.1-1.6v4.3c-3.7,1-7.3,1.6-10.8,1.6-6.2,0-10.8-1.5-14-4.5s-4.7-7.6-4.7-13.8.6-7.3,1.9-10c1.3-2.7,3.1-4.8,5.5-6.2,2.4-1.4,5.3-2.1,8.6-2.1,5,0,8.8,1.6,11.4,4.7,2.7,3.2,4,7.7,4,13.7v1.6ZM199.8,86.4c-1.8,2.1-2.7,5.2-2.8,9.5h20.7c-.1-4.3-1-7.4-2.7-9.5-1.7-2-4.2-3.1-7.5-3.1s-5.9,1-7.7,3.1Z"/>
    <path class="cls-2" d="M257.9,110.1c-4.3-4-6.5-10.2-6.5-18.7s1-10.2,3-13.9c2-3.7,4.9-6.5,8.6-8.3s8.2-2.7,13.5-2.7,4.3.1,6.2.4c1.9.3,3.9.7,5.9,1.2v4.8c-3.8-1.1-7.7-1.6-11.8-1.6-6.4,0-11.3,1.6-14.6,4.8-3.3,3.2-4.9,8.3-4.9,15.1s1.6,12.2,4.9,15.3c3.3,3.1,8,4.7,14.2,4.7s4.2-.2,6.2-.5c1.9-.3,4-.8,6.1-1.5v4.8c-3.8,1.3-8,2-12.6,2-7.8,0-13.9-2-18.2-5.9Z"/>
    <path class="cls-2" d="M298.7,62.7h5.5v21.3h.3c1.7-1.5,3.6-2.6,5.7-3.4,2.2-.8,4.4-1.1,6.8-1.1,4,0,7.2,1.1,9.5,3.3,2.3,2.2,3.5,5.7,3.5,10.4v22.3h-5.5v-22c0-3.2-.8-5.6-2.3-7-1.5-1.4-3.7-2.1-6.6-2.1s-4.2.4-6.2,1.2c-2,.8-3.8,2-5.3,3.6v26.3h-5.5v-52.7Z"/>
    <path class="cls-2" d="M342.5,71.5c-.6-.6-1-1.4-1-2.4s.3-1.9,1-2.4c.7-.6,1.6-.9,2.8-.9s2.1.3,2.8.9c.6.6,1,1.4,1,2.4s-.3,1.8-1,2.4c-.6.6-1.6.8-2.8.8s-2.1-.3-2.8-.8ZM342.6,115.4v-35.4h5.5v35.4h-5.5Z"/>
    <path class="cls-2" d="M361.2,115.4v-52.7h5.5v52.7h-5.5Z"/>
    <path class="cls-2" d="M385.3,114.1c-2.4-1.2-4.2-3.2-5.6-5.8-1.4-2.6-2-5.9-2-9.9,0-6.2,1.7-11,5-14.2,3.3-3.2,8.2-4.8,14.6-4.8s5,.2,7.6.7v-17.4h5.5v52.7h-4.6l-.4-4.1h-.4c-1.4,1.5-3,2.6-5,3.4-2,.8-4.1,1.2-6.5,1.2s-5.9-.6-8.3-1.9ZM400.3,110.2c1.8-.8,3.3-2,4.6-3.6v-21.9c-2.3-.6-4.8-.9-7.5-.9-4.8,0-8.4,1.2-10.7,3.5-2.3,2.3-3.5,5.9-3.5,10.7,0,8.9,3.8,13.4,11.5,13.4s3.9-.4,5.6-1.1Z"/>
    <path class="cls-2" d="M423.3,99.3v-4.6h20.7v4.6h-20.7Z"/>
    <path class="cls-2" d="M489.8,115.4l-16.2-19.9c-.5,0-1.3,0-2.3,0-2.3,0-5-.1-8.2-.4v20.3h-5.5v-47.2c5-1,9.8-1.6,14.5-1.6s8.5.5,11.5,1.5c3,1,5.2,2.5,6.7,4.6,1.5,2.1,2.2,4.8,2.2,8.2s-1.1,6.8-3.3,9.1c-2.2,2.3-5.5,3.9-9.8,4.7l16.8,20.6h-6.4ZM463.1,90.8c1.6.2,3,.3,4.2.3,1.2,0,2.6,0,4.2,0,5.5,0,9.5-.8,12-2.5,2.5-1.7,3.8-4.2,3.8-7.7s-.5-4.5-1.5-6c-1-1.5-2.6-2.5-4.8-3.2-2.1-.7-5-1-8.5-1s-3.5,0-4.9.2c-1.4.1-2.9.4-4.4.6v19Z"/>
    <path class="cls-2" d="M533.1,99.4h-25.9c.2,4.3,1.4,7.4,3.6,9.4,2.3,1.9,5.7,2.9,10.3,2.9s6.3-.5,10.1-1.6v4.3c-3.7,1-7.3,1.6-10.8,1.6-6.2,0-10.8-1.5-14-4.5s-4.7-7.6-4.7-13.8.6-7.3,1.9-10,3.1-4.8,5.5-6.2c2.4-1.4,5.3-2.1,8.6-2.1,5,0,8.8,1.6,11.4,4.7,2.7,3.2,4,7.7,4,13.7v1.6ZM510,86.4c-1.8,2.1-2.7,5.2-2.8,9.5h20.7c-.1-4.3-1-7.4-2.7-9.5-1.7-2-4.2-3.1-7.5-3.1s-5.9,1-7.7,3.1Z"/>
    <path class="cls-2" d="M542.1,114.5v-4.2c2,.6,3.9,1,5.8,1.2,1.9.2,3.8.4,5.8.4,3.5,0,6-.5,7.6-1.5,1.6-1,2.3-2.5,2.3-4.5s-.2-1.9-.6-2.6c-.4-.7-1-1.3-1.9-1.7-.9-.5-2.1-.8-3.7-1.1l-6-1c-3.5-.6-6.1-1.7-7.7-3.3-1.6-1.6-2.4-3.7-2.4-6.4s1.3-5.7,3.9-7.6c2.6-1.9,6.5-2.8,11.8-2.8s6.7.4,9.8,1.3v4.2c-3.1-.9-6.4-1.3-9.8-1.3s-6.4.5-8,1.6c-1.6,1.1-2.4,2.5-2.4,4.4s.4,2.6,1.3,3.5c.9.9,2.4,1.6,4.6,2l6,1c3.6.6,6.1,1.6,7.8,3.1,1.6,1.5,2.4,3.6,2.4,6.4s-1.3,5.8-3.9,7.7c-2.6,1.8-6.4,2.8-11.5,2.8s-8.2-.5-11.5-1.5Z"/>
    <path class="cls-2" d="M579.1,71.5c-.7-.6-1-1.4-1-2.4s.3-1.9,1-2.4c.6-.6,1.6-.9,2.8-.9s2.1.3,2.8.9c.6.6,1,1.4,1,2.4s-.3,1.8-1,2.4c-.7.6-1.6.8-2.8.8s-2.1-.3-2.8-.8ZM579.1,115.4v-35.4h5.5v35.4h-5.5Z"/>
    <path class="cls-2" d="M596.3,114.5v-4.2c2,.6,3.9,1,5.8,1.2,1.9.2,3.8.4,5.8.4,3.5,0,6-.5,7.6-1.5,1.6-1,2.3-2.5,2.3-4.5s-.2-1.9-.6-2.6c-.4-.7-1-1.3-1.9-1.7-.9-.5-2.1-.8-3.7-1.1l-6-1c-3.5-.6-6.1-1.7-7.7-3.3-1.6-1.6-2.4-3.7-2.4-6.4s1.3-5.7,3.9-7.6c2.6-1.9,6.5-2.8,11.8-2.8s6.7.4,9.8,1.3v4.2c-3.1-.9-6.4-1.3-9.8-1.3s-6.4.5-8,1.6c-1.6,1.1-2.4,2.5-2.4,4.4s.4,2.6,1.3,3.5c.9.9,2.4,1.6,4.6,2l6,1c3.6.6,6.1,1.6,7.8,3.1,1.6,1.5,2.4,3.6,2.4,6.4s-1.3,5.8-3.9,7.7c-2.6,1.8-6.4,2.8-11.5,2.8s-8.2-.5-11.5-1.5Z"/>
    <path class="cls-2" d="M654.2,110.7v4.5c-2.2.5-4.2.7-6.2.7-4.2,0-7.3-1-9.5-3.1s-3.3-5.2-3.3-9.4v-19h-7.3v-4.5h7.3l.9-12.9h4.5v12.9h13v4.5h-13v18c0,3.2.7,5.4,2.1,6.8,1.4,1.4,3.6,2.1,6.5,2.1s3-.2,5-.7Z"/>
    <path class="cls-2" d="M682.6,80.7c2.2.8,3.9,2.2,5,4.1,1.1,1.9,1.7,4.5,1.7,7.8v22.7h-4.6l-.4-4h-.4c-1.3,1.4-3,2.5-5.1,3.4-2.1.8-4.3,1.2-6.6,1.2s-4.7-.4-6.5-1.2c-1.8-.8-3.1-1.9-4.1-3.4-.9-1.5-1.4-3.2-1.4-5.1,0-3.1,1.1-5.4,3.3-7.1s5.8-2.8,10.7-3.2l9.6-1v-2.5c0-2.2-.4-4-1.1-5.2-.8-1.2-1.9-2.1-3.4-2.6-1.5-.5-3.4-.8-5.8-.8s-3.4.1-5.3.4c-1.9.3-3.7.7-5.5,1.3v-4.3c1.6-.6,3.5-1,5.5-1.3,2-.3,4-.5,5.9-.5,3.4,0,6.2.4,8.4,1.2ZM679.1,110.8c1.8-.7,3.4-1.8,4.8-3.2v-9.2l-9.2,1c-3.1.4-5.4,1.1-6.7,2.1-1.4,1-2,2.5-2,4.3s.6,3.4,1.9,4.5c1.3,1.1,3.2,1.6,5.7,1.6s3.8-.4,5.6-1.1Z"/>
    <path class="cls-2" d="M701.9,80h4.5l.4,4h.4c1.7-1.5,3.7-2.6,5.9-3.4,2.2-.8,4.5-1.2,6.9-1.2,4.1,0,7.4,1.1,9.7,3.4s3.5,5.7,3.5,10.5v22.1h-5.5v-21.9c0-3.3-.8-5.6-2.3-7.1-1.5-1.4-3.7-2.2-6.6-2.2s-4.1.4-6.2,1.2-3.8,2-5.3,3.6v26.4h-5.5v-35.4Z"/>
    <path class="cls-2" d="M767.1,110.7v4.5c-2.2.5-4.2.7-6.2.7-4.2,0-7.3-1-9.5-3.1s-3.3-5.2-3.3-9.4v-19h-7.3v-4.5h7.3l.9-12.9h4.5v12.9h13v4.5h-13v18c0,3.2.7,5.4,2.1,6.8,1.4,1.4,3.6,2.1,6.5,2.1s3-.2,5-.7Z"/>
  </g>
  <g class="cls-3">
    <path class="cls-2" d="M319.1,158.3c2.5-.5,4.8-.8,7-1.1,2.2-.2,4.6-.3,7-.3,6.9,0,12.1,1.3,15.6,4,3.5,2.7,5.2,6.8,5.2,12.4s-1.8,9.6-5.3,12.4c-3.5,2.8-9,4.2-16.4,4.2s-4.7-.1-7.6-.4v16.2h-5.6v-47.4ZM341.6,184.2c2.4-.9,4.1-2.2,5.2-4,1.1-1.8,1.6-4.1,1.6-6.9,0-4.2-1.2-7.2-3.7-9.2-2.5-2-6.2-2.9-11.3-2.9s-6.1.2-8.9.8v23.1c2.5.3,5,.5,7.7.5,3.9,0,7-.4,9.4-1.3Z"/>
    <path class="cls-2" d="M364.6,161.7c-.6-.6-1-1.4-1-2.4s.3-1.9,1-2.4c.7-.6,1.6-.9,2.8-.9s2.1.3,2.8.9c.6.6,1,1.4,1,2.4s-.3,1.8-1,2.4c-.6.6-1.6.8-2.8.8s-2.1-.3-2.8-.8ZM364.6,205.7v-35.4h5.5v35.4h-5.5Z"/>
    <path class="cls-2" d="M383.2,170.3h4.6l.4,4.1h.3c1.4-1.5,3-2.6,5-3.5,2-.8,4.1-1.2,6.5-1.2s5.8.6,8.2,1.8c2.4,1.2,4.2,3.1,5.6,5.7,1.4,2.6,2.1,6,2.1,10,0,6.3-1.7,11-5,14.2-3.3,3.2-8.2,4.8-14.6,4.8s-4.8-.2-7.7-.7v14.4h-5.5v-49.7ZM406.9,198.4c2.3-2.3,3.5-5.9,3.5-10.7,0-8.9-3.8-13.4-11.5-13.4s-3.9.4-5.6,1.1c-1.8.8-3.3,2-4.6,3.6v21.9c1,.3,2.2.5,3.5.7,1.3.2,2.6.2,4,.2,4.8,0,8.4-1.2,10.7-3.5Z"/>
    <path class="cls-2" d="M456.5,189.7h-25.9c.2,4.3,1.4,7.4,3.6,9.4,2.3,1.9,5.7,2.9,10.3,2.9s6.3-.5,10.1-1.6v4.3c-3.7,1-7.3,1.6-10.8,1.6-6.2,0-10.8-1.5-14-4.5s-4.7-7.6-4.7-13.8.6-7.3,1.9-10c1.3-2.7,3.1-4.8,5.5-6.2,2.4-1.4,5.3-2.1,8.6-2.1,5,0,8.8,1.6,11.4,4.7,2.7,3.2,4,7.7,4,13.7v1.6ZM433.4,176.7c-1.8,2.1-2.7,5.2-2.8,9.5h20.7c-.1-4.3-1-7.4-2.7-9.5-1.7-2-4.2-3.1-7.5-3.1s-5.9,1-7.7,3.1Z"/>
    <path class="cls-2" d="M488.1,201v4.5c-2.2.5-4.2.7-6.2.7-4.2,0-7.3-1-9.5-3.1s-3.3-5.2-3.3-9.4v-19h-7.3v-4.5h7.3l.9-12.9h4.5v12.9h13v4.5h-13v18c0,3.2.7,5.4,2.1,6.8,1.4,1.4,3.6,2.1,6.5,2.1s3-.2,5-.7Z"/>
    <path class="cls-2" d="M515.3,201v4.5c-2.2.5-4.2.7-6.2.7-4.2,0-7.3-1-9.5-3.1s-3.3-5.2-3.3-9.4v-19h-7.3v-4.5h7.3l.9-12.9h4.5v12.9h13v4.5h-13v18c0,3.2.7,5.4,2.1,6.8,1.4,1.4,3.6,2.1,6.5,2.1s3-.2,5-.7Z"/>
    <path class="cls-2" d="M552.2,189.7h-25.9c.2,4.3,1.4,7.4,3.6,9.4,2.3,1.9,5.7,2.9,10.3,2.9s6.3-.5,10.1-1.6v4.3c-3.7,1-7.3,1.6-10.8,1.6-6.2,0-10.8-1.5-14-4.5s-4.7-7.6-4.7-13.8.6-7.3,1.9-10,3.1-4.8,5.5-6.2c2.4-1.4,5.3-2.1,8.6-2.1,5,0,8.8,1.6,11.4,4.7,2.7,3.2,4,7.7,4,13.7v1.6ZM529.1,176.7c-1.8,2.1-2.7,5.2-2.8,9.5h20.7c-.1-4.3-1-7.4-2.7-9.5-1.7-2-4.2-3.1-7.5-3.1s-5.9,1-7.7,3.1Z"/>
  </g>
  <polyline class="cls-4" points="500 346.1 437 413.4 375 346.1"/>
</svg>