<?xml version="1.0" encoding="UTF-8"?>
<svg id="Ebene_1" data-name="Ebene 1" xmlns="http://www.w3.org/2000/svg" version="1.1" viewBox="0 0 86.8 41.3">
  <path d="M0,15.1c0,7.7,6.2,13.9,13.9,13.9h22.5s7.5,7.5,7.5,7.5l6.8-7.5h36.2s0-15.1,0-15.1c0-7.7-6.2-13.9-13.9-13.9H0v15.1Z" style="fill: #1c2646; stroke-width: 0px;"/>
  <text transform="translate(24.9 11.5)" style="fill: #fff; font-family: EncodeSansExpanded-Regular, &apos;Encode Sans Expanded&apos;; font-size: 6.5px;"><tspan x="0" y="0" style="letter-spacing: 0em;">Z</tspan><tspan x="4.2" y="0" style="letter-spacing: 0em;">ur</tspan><tspan x="11.2" y="0" style="letter-spacing: 0em;"> </tspan><tspan x="13.1" y="0" style="letter-spacing: 0em;">K</tspan><tspan x="17.7" y="0" style="letter-spacing: 0em;">i</tspan><tspan x="19.4" y="0" style="letter-spacing: 0em;">nd</tspan><tspan x="28" y="0" style="letter-spacing: 0em;">e</tspan><tspan x="31.8" y="0">r-</tspan></text>
  <text transform="translate(42.8 11.5)" style="fill: #fff; font-family: EncodeSansExpanded-Regular, &apos;Encode Sans Expanded&apos;; font-size: 6.5px;"><tspan x="0" y="0"> </tspan></text>
  <text transform="translate(11.3 20.5)" style="fill: #fff; font-family: EncodeSansExpanded-Regular, &apos;Encode Sans Expanded&apos;; font-size: 6.5px;"><tspan x="0" y="0" style="letter-spacing: 0em;">S</tspan><tspan x="4" y="0" style="letter-spacing: 0em;">i</tspan><tspan x="5.7" y="0" style="letter-spacing: 0em;">c</tspan><tspan x="9.1" y="0" style="letter-spacing: 0em;">h</tspan><tspan x="13.4" y="0" style="letter-spacing: 0em;">e</tspan><tspan x="17.3" y="0" style="letter-spacing: 0em;">r</tspan><tspan x="20.1" y="0" style="letter-spacing: 0em;">h</tspan><tspan x="24.3" y="0" style="letter-spacing: 0em;">ei</tspan><tspan x="30" y="0" style="letter-spacing: 0em;">t</tspan><tspan x="32.7" y="0" style="letter-spacing: 0em;">s</tspan><tspan x="36.2" y="0" style="letter-spacing: 0em;">-P</tspan><tspan x="43.9" y="0" style="letter-spacing: 0em;">i</tspan><tspan x="45.7" y="0" style="letter-spacing: 0em;">p</tspan><tspan x="50" y="0" style="letter-spacing: 0em;">e</tspan><tspan x="53.8" y="0" style="letter-spacing: 0em;">t</tspan><tspan x="56.4" y="0" style="letter-spacing: 0em;">t</tspan><tspan x="59.2" y="0">e </tspan></text>
  <polyline points="50 34.5 43.7 41.2 37.5 34.5" style="fill: none; stroke: #a7947e; stroke-linecap: round; stroke-linejoin: round; stroke-width: .3px;"/>
</svg>