<?xml version="1.0" encoding="utf-8"?>
<!-- Generator: Adobe Illustrator 24.1.3, SVG Export Plug-In . SVG Version: 6.00 Build 0)  -->
<svg version="1.1" id="Ebene_1" xmlns="http://www.w3.org/2000/svg" xmlns:xlink="http://www.w3.org/1999/xlink" x="0px" y="0px"
	 width="114.6px" height="158px" viewBox="0 0 114.6 158" style="enable-background:new 0 0 114.6 158;" xml:space="preserve">
<style type="text/css">
	.st0{fill:#252228;}
</style>
<g>
	<path class="st0" d="M0,0v45.2v91.4C0,148.4,9.6,158,21.4,158h93.2V0L0,0z M99.4,143H86.1H28.7c-7.3,0-13.3-6-13.3-13.3V65.8h70.7
		c7.3,0,13.3,6,13.3,13.3V143z"/>
	<path class="st0" d="M86.1,68.5H65.9v18.9h5.9c10.7,0,19.4,8.7,19.4,19.4s-8.6,19.4-19.6,19.4h-5.7v14.3h30.9V79.2
		C96.8,73.3,92,68.5,86.1,68.5z"/>
	<path class="st0" d="M38.8,81.1c0,3.8,3.1,6.9,7,6.9s7-3.1,7-7v-1.5h0.1v-11h-14L38.8,81.1L38.8,81.1z"/>
	<path class="st0" d="M45.8,99.8c-3.8,0-7,3.1-7,6.9v13.1H25.9V68.5H18v61.3c0,5.9,4.8,10.7,10.7,10.7h24.1v-30.6v-3.1
		C52.8,102.9,49.7,99.8,45.8,99.8z"/>
	<path class="st0" d="M78.2,106.7c0-3.6-2.9-6.6-6.6-6.6H66v13.2h5.5C75.3,113.3,78.2,110.4,78.2,106.7z"/>
</g>
</svg>
