<?xml version="1.0" encoding="utf-8"?>
<!-- Generator: Adobe Illustrator 24.1.3, SVG Export Plug-In . SVG Version: 6.00 Build 0)  -->
<svg version="1.1" id="Ebene_1" xmlns="http://www.w3.org/2000/svg" xmlns:xlink="http://www.w3.org/1999/xlink" x="0px" y="0px"
	 width="382px" height="158px" viewBox="0 0 382 158" style="enable-background:new 0 0 382 158;" xml:space="preserve">
<style type="text/css">
	.st0{fill:#17254C;}
</style>
<g>
	<path class="st0" d="M0,0.1l0,45.2v91.4c0,11.8,9.6,21.4,21.4,21.4l93.2,0l0-158L0,0.1z M99.4,143.1H86.1H28.7
		c-7.3,0-13.3-6-13.3-13.3l0-63.9l70.7,0c7.3,0,13.3,6,13.3,13.3L99.4,143.1z"/>
	<path class="st0" d="M86.1,68.6H65.9v18.9h5.9c10.7,0,19.4,8.7,19.4,19.4c0,10.7-8.6,19.4-19.6,19.4h-5.7v14.3h30.9l0-61.3
		C96.8,73.4,92,68.6,86.1,68.6z"/>
	<path class="st0" d="M38.8,81.2c0,3.8,3.1,6.9,7,6.9c3.9,0,7-3.1,7-7v-1.5h0.1V68.6h-14V81.2z"/>
	<path class="st0" d="M45.8,99.9c-3.8,0-7,3.1-7,6.9v13.1H25.9V68.6l-7.9,0l0,61.3c0,5.9,4.8,10.7,10.7,10.7h24.1V110v-3.1
		C52.8,103,49.7,99.9,45.8,99.9z"/>
	<path class="st0" d="M78.2,106.8c0-3.6-2.9-6.6-6.6-6.6H66v13.2h5.5C75.3,113.4,78.2,110.5,78.2,106.8z"/>
</g>
<path class="st0" d="M347.8,79l0,33.6h15.8V87.5h3.7v25.1H382V79H347.8z M175.5,78.9l0,33.6h34.3v-7.9H191V86.9h3.7v14.2h15V78.9
	H175.5z M290.6,78.9l0,33.6h34.3v-7.9h-18.9V86.9h3.7v14.2h15V78.9H290.6z M233.1,78.9l0,33.6h15.8V87.4h3.7v25.1h14.8V78.9H233.1z
	 M214.5,78.8l0,33.8h14.2V78.8H214.5z M329.7,78.8l0,33.8h14.2V78.8H329.7z M136.7,66l0,46.6h14.7V87h3.3v25.5h16V79.1h-16.3V66
	H136.7z M271.7,112.6H287V65.9h-15.2V112.6z M214.4,74.4h14.1v-8.5h-14.1V74.4z M329.7,74.4h14.1v-8.5h-14.1V74.4z"/>
<rect x="252" y="136" class="st0" width="6.2" height="1.5"/>
<path class="st0" d="M142.3,136.4h-4.1v-6.9h4.3c2.9,0,4.6,1.3,4.6,3.4v0C147.1,135,145.2,136.4,142.3,136.4 M142.6,128.2h-5.8v14.9
	h1.4v-5.5h4.1c3.1,0,6.2-1.5,6.2-4.8v0C148.5,130,146.2,128.2,142.6,128.2"/>
<polygon class="st0" points="155.9,128.2 154.4,128.2 154.4,143.1 165,143.1 165,141.8 155.9,141.8 "/>
<path class="st0" d="M180.7,137.8h-7.8l3.9-8L180.7,137.8z M177.5,128.1h-1.3l-7.4,15h1.5l2-4.1h9.1l1.9,4l0,0.1h1.6L177.5,128.1
	L177.5,128.1z"/>
<path class="st0" d="M195.9,135c-3.7-0.7-4.4-1.6-4.4-3.1v0c0-1.5,1.5-2.6,3.7-2.6c1.8,0,3.2,0.5,4.6,1.6l0.1,0.1l0.9-1.1l-0.1-0.1
	c-1.7-1.3-3.3-1.8-5.4-1.8c-2.9,0-5.2,1.7-5.2,4v0c0,2.3,1.6,3.5,5.4,4.2c3.6,0.7,4.3,1.6,4.3,3v0c0,1.6-1.6,2.8-3.8,2.8
	c-2.2,0-3.7-0.6-5.5-2.1l-0.1-0.1l-0.9,1l0.1,0.1c2,1.6,3.9,2.4,6.4,2.4c3.1,0,5.3-1.7,5.3-4.1v0C201.2,136.9,199.6,135.7,195.9,135
	"/>
<polygon class="st0" points="206.5,129.5 211.9,129.5 211.9,143.1 213.3,143.1 213.3,129.5 218.8,129.5 218.8,128.2 206.5,128.2 "/>
<rect x="225.4" y="128.2" class="st0" width="1.4" height="14.9"/>
<polygon class="st0" points="247.5,128.5 247.8,128.2 245.8,128.2 236,137.6 236,128.2 234.6,128.2 234.6,143.1 236,143.1 
	236,139.3 239.8,135.8 246.1,143.1 246.1,143.1 248,143.1 240.8,134.8 "/>
<polygon class="st0" points="261.9,129.5 267.3,129.5 267.3,143.1 268.7,143.1 268.7,129.5 274.2,129.5 274.2,128.2 261.9,128.2 "/>
<polygon class="st0" points="282.1,136.2 291,136.2 291,135 282.1,135 282.1,129.5 292,129.5 292,128.2 280.7,128.2 280.7,143.1 
	292.2,143.1 292.2,141.8 282.1,141.8 "/>
<path class="st0" d="M311,139.9c-1.7,1.6-3.3,2.2-5.3,2.2c-3.6,0-6.5-2.8-6.5-6.4v0c0-3.6,2.8-6.4,6.4-6.4c2.5,0,4,1.1,5.2,2.1
	l0.1,0.1l1-1l-0.1-0.1c-1.7-1.4-3.3-2.4-6.2-2.4c-4.5,0-7.9,3.4-7.9,7.7v0c0,4.4,3.4,7.7,7.9,7.7c3.1,0,4.9-1.3,6.3-2.6l0.1-0.1
	L311,139.9L311,139.9z"/>
<polygon class="st0" points="329.3,135 319.6,135 319.6,128.2 318.2,128.2 318.2,143.1 319.6,143.1 319.6,136.3 329.3,136.3 
	329.3,143.1 330.8,143.1 330.8,128.2 329.3,128.2 "/>
<polygon class="st0" points="350.2,140.7 339.7,128.3 339.7,128.2 338.4,128.2 338.4,143.1 339.8,143.1 339.8,130.4 350.5,143.1 
	350.6,143.1 351.6,143.1 351.6,128.2 350.2,128.2 "/>
<rect x="359.4" y="128.2" class="st0" width="1.4" height="14.9"/>
<polygon class="st0" points="379.7,128.2 370,137.6 370,128.2 368.5,128.2 368.5,143.1 370,143.1 370,139.3 373.7,135.8 
	380.1,143.1 380.1,143.1 382,143.1 374.7,134.8 381.5,128.5 381.7,128.2 "/>
</svg>
