<?xml version="1.0" encoding="utf-8"?>
<!-- Generator: Adobe Illustrator 24.1.3, SVG Export Plug-In . SVG Version: 6.00 Build 0)  -->
<svg version="1.1" id="Ebene_2" xmlns="http://www.w3.org/2000/svg" xmlns:xlink="http://www.w3.org/1999/xlink" x="0px" y="0px"
	 width="176px" height="22px" viewBox="0 0 176 22" style="enable-background:new 0 0 176 22;" xml:space="preserve">
<style type="text/css">
	.st0{fill:#DDE3EB;}
	.st1{fill:#9AA6BC;}
	.st2{fill:#E6E6E6;}
	.st3{fill:none;stroke:#FFFFFF;stroke-width:3;stroke-miterlimit:10;}
</style>
<path class="st0" d="M98,0c-5.5,0-10,4.5-10,10c0,5.5,4.5,10,10,10s10-4.5,10-10C108,4.5,103.5,0,98,0z M98,16c-3.3,0-6-2.7-6-6
	s2.7-6,6-6s6,2.7,6,6S101.3,16,98,16z"/>
<path class="st0" d="M10,0C4.5,0,0,4.5,0,10c0,5.5,4.5,10,10,10s10-4.5,10-10C20,4.5,15.5,0,10,0z M10,16c-3.3,0-6-2.7-6-6
	s2.7-6,6-6s6,2.7,6,6S13.3,16,10,16z"/>
<path class="st1" d="M120,0c-5.5,0-10,4.5-10,10c0,5.5,4.5,10,10,10s10-4.5,10-10C130,4.5,125.5,0,120,0z M120,16c-3.3,0-6-2.7-6-6
	s2.7-6,6-6s6,2.7,6,6S123.3,16,120,16z"/>
<circle class="st1" cx="120" cy="10" r="4"/>
<path class="st2" d="M142,0c-5.5,0-10,4.5-10,10c0,5.5,4.5,10,10,10s10-4.5,10-10C152,4.5,147.5,0,142,0z M142,16c-3.3,0-6-2.7-6-6
	s2.7-6,6-6s6,2.7,6,6S145.3,16,142,16z"/>
<g>
	<path class="st2" d="M164,0c-5.5,0-10,4.5-10,10c0,5.5,4.5,10,10,10s10-4.5,10-10C174,4.5,169.5,0,164,0z M164,16c-3.3,0-6-2.7-6-6
		s2.7-6,6-6s6,2.7,6,6S167.3,16,164,16z"/>
	<circle class="st2" cx="164" cy="10" r="3"/>
</g>
<path class="st1" d="M36.2,19.8h-8.5c-3.1,0-5.7-2.6-5.7-5.7V5.7C22,2.6,24.6,0,27.7,0h8.5c3.1,0,5.7,2.6,5.7,5.7v8.5
	C41.8,17.3,39.3,19.8,36.2,19.8z"/>
<g>
	<path class="st2" d="M58.2,19.8h-8.5c-3.1,0-5.7-2.6-5.7-5.7V5.7C44,2.6,46.6,0,49.7,0h8.5c3.1,0,5.7,2.6,5.7,5.7v8.5
		C63.8,17.3,61.3,19.8,58.2,19.8z"/>
</g>
<g>
	<path class="st2" d="M80.2,19.8h-8.5c-3.1,0-5.7-2.6-5.7-5.7V5.7C66,2.6,68.6,0,71.7,0h8.5c3.1,0,5.7,2.6,5.7,5.7v8.5
		C85.8,17.3,83.3,19.8,80.2,19.8z"/>
</g>
<polyline class="st3" points="36.5,7.5 31,13 27,9 "/>
</svg>
