<?xml version="1.0" encoding="utf-8"?>
<!-- Generator: Adobe Illustrator 24.2.0, SVG Export Plug-In . SVG Version: 6.00 Build 0)  -->
<svg version="1.1" id="Ebene_1" xmlns="http://www.w3.org/2000/svg" xmlns:xlink="http://www.w3.org/1999/xlink" x="0px" y="0px"
	 width="120px" height="120px" viewBox="0 0 120 120" style="enable-background:new 0 0 120 120;" xml:space="preserve">
<style type="text/css">
	.st0{fill:none;stroke:#FFFFFF;stroke-width:2;}
</style>
<g>
	<path class="st0" d="M60,118.4c32.3,0,58.5-26.2,58.5-58.4c0-32.3-26.2-58.4-58.5-58.4S1.5,27.7,1.5,60
		C1.5,92.3,27.7,118.4,60,118.4z"/>
	<path class="st0" d="M60.7,26.1c-0.4-1.2-1.1-1.2-1.5,0l-7.1,20.5c-0.4,1.2-1.7,2.1-3,2.2l-21.3,0.6c-1.2,0-1.4,0.7-0.5,1.4
		L44.3,64c1,0.8,1.5,2.3,1.1,3.5l-6.1,20.9c-0.3,1.2,0.2,1.6,1.2,0.9l17.6-12.3c1-0.7,2.7-0.7,3.7,0l17.6,12.3
		c1,0.7,1.6,0.3,1.2-0.9l-6.1-20.9c-0.3-1.2,0.2-2.8,1.1-3.5l16.9-13.2c1-0.8,0.8-1.4-0.5-1.4l-21.3-0.6c-1.2,0-2.6-1-3-2.2
		L60.7,26.1z"/>
</g>
</svg>
