<?xml version="1.0" encoding="UTF-8"?>
<svg id="Ebene_1" data-name="Ebene 1" xmlns="http://www.w3.org/2000/svg" version="1.1" viewBox="0 0 227 153">
  <text transform="translate(7.2 113) scale(1 1)" style="fill: #1c2646; font-family: Gotham-Medium, Gotham; font-size: 5.4px; font-weight: 500;"><tspan x="0" y="0" style="letter-spacing: 0em;">K</tspan><tspan x="4.2" y="0" style="letter-spacing: 0em;">IND</tspan><tspan x="15.3" y="0" style="letter-spacing: 0em;">ER</tspan><tspan x="23.4" y="0" style="letter-spacing: 0em;">SI</tspan><tspan x="29.2" y="0" style="letter-spacing: 0em;">C</tspan><tspan x="33.5" y="0" style="letter-spacing: 0em;">HE</tspan><tspan x="41.8" y="0">R</tspan></text>
  <text transform="translate(7.2 130.4) scale(1 1)" style="fill: #1c2646; font-family: Gotham-Medium, Gotham; font-size: 5.4px; font-weight: 500;"><tspan x="0" y="0" style="letter-spacing: 0em;">E</tspan><tspan x="3.9" y="0" style="letter-spacing: 0em;">R</tspan><tspan x="8.1" y="0" style="letter-spacing: 0em;">S</tspan><tspan x="11.8" y="0" style="letter-spacing: 0em;">T</tspan><tspan x="15.4" y="0" style="letter-spacing: 0em;">ÖFF</tspan><tspan x="28" y="0" style="letter-spacing: 0em;">NU</tspan><tspan x="37" y="0" style="letter-spacing: 0em;">NG</tspan><tspan x="46.1" y="0" style="letter-spacing: 0em;">S</tspan><tspan x="49.8" y="0" style="letter-spacing: 0em;">K</tspan><tspan x="54" y="0" style="letter-spacing: 0em;">E</tspan><tspan x="57.9" y="0" style="letter-spacing: 0em;">N</tspan><tspan x="62.5" y="0" style="letter-spacing: 0em;">N</tspan><tspan x="67.1" y="0" style="letter-spacing: 0em;">U</tspan><tspan x="71.4" y="0" style="letter-spacing: 0em;">N</tspan><tspan x="76" y="0">G</tspan></text>
  <text transform="translate(7.2 147.8) scale(1 1)" style="fill: #1c2646; font-family: Gotham-Medium, Gotham; font-size: 5.4px; font-weight: 500;"><tspan x="0" y="0" style="letter-spacing: 0em;">Z</tspan><tspan x="4.1" y="0" style="letter-spacing: 0em;">E</tspan><tspan x="8" y="0" style="letter-spacing: 0em;">RT</tspan><tspan x="16" y="0" style="letter-spacing: 0em;">I</tspan><tspan x="18" y="0" style="letter-spacing: 0em;">FIZ</tspan><tspan x="28" y="0" style="letter-spacing: 0em;">IE</tspan><tspan x="33.9" y="0" style="letter-spacing: 0em;">R</tspan><tspan x="38.1" y="0">T</tspan></text>
  <g>
    <path d="M2.3,105.4v5.5c0,3.1,2.5,5.6,5.5,5.6h86.2v-5.6c0-3.1-2.5-5.5-5.5-5.5H2.3Z" style="fill: none; stroke: #fff; stroke-width: .8px;"/>
    <path d="M2.3,122.4v5.5c0,3.1,2.5,5.6,5.5,5.6h86.2v-5.6c0-3.1-2.5-5.5-5.5-5.5H2.3Z" style="fill: none; stroke: #fff; stroke-width: .8px;"/>
    <path d="M2.3,140.2v5.5c0,3.1,2.5,5.6,5.5,5.6h86.2v-5.6c0-3.1-2.5-5.5-5.5-5.5H2.3Z" style="fill: none; stroke: #fff; stroke-width: .8px;"/>
  </g>
  <polyline points="93.7 110.9 171.9 110.9 171.9 76" style="fill: none; stroke: #fff; stroke-width: .8px;"/>
  <line x1="93.7" y1="145.9" x2="140.9" y2="145.9" style="fill: none; stroke: #fff; stroke-width: .8px;"/>
  <polyline points="93.7 128.3 223.2 128.3 223.2 64.9" style="fill: none; stroke: #fff; stroke-linecap: round; stroke-linejoin: round; stroke-width: .8px;"/>
  <g>
    <path d="M171.9,77.5c.8,0,1.4-.6,1.4-1.4s-.6-1.4-1.4-1.4-1.4.6-1.4,1.4.6,1.4,1.4,1.4" style="fill: #fff; stroke-width: 0px;"/>
    <circle cx="171.9" cy="76" r="1.4" style="fill: none; stroke: #fff; stroke-width: .5px;"/>
    <path d="M223.4,66.3c.8,0,1.4-.6,1.4-1.4s-.6-1.4-1.4-1.4-1.4.6-1.4,1.4.6,1.4,1.4,1.4" style="fill: #fff; stroke-width: 0px;"/>
    <circle cx="223.4" cy="64.9" r="1.4" style="fill: none; stroke: #fff; stroke-width: .5px;"/>
    <path d="M140.9,147.4c.8,0,1.4-.6,1.4-1.4s-.6-1.4-1.4-1.4-1.4.6-1.4,1.4.6,1.4,1.4,1.4" style="fill: #fff; stroke-width: 0px;"/>
    <circle cx="140.9" cy="145.9" r="1.4" style="fill: none; stroke: #fff; stroke-width: .5px;"/>
  </g>
  <path d="M94.4,46.6c0,24.8-20.1,44.9-44.9,44.9S4.6,71.4,4.6,46.6,24.7,1.7,49.5,1.7s44.9,20.1,44.9,44.9Z" style="fill: none; stroke: #fff; stroke-miterlimit: 10; stroke-width: .8px;"/>
  <path d="M51,44.7v14s2.1,3.8-1.5,3.8-1.6-3.8-1.6-3.8v-14" style="fill: none; stroke: #fff; stroke-linecap: round; stroke-miterlimit: 10; stroke-width: .8px;"/>
  <path d="M52.5,21.7v-6.4s.1-3.7-3-3.7-3.2,3.7-3.2,3.7v6.4" style="fill: none; stroke: #fff; stroke-miterlimit: 10; stroke-width: .8px;"/>
  <path d="M56.1,46.6s-3.7.3-6.6.3-6.6-.4-6.6-.4v6.4s-6.5.3-6.5,7.3v17.6s.2,2.4,3.6,3.1c3.4.6,6.1.7,9.9.7s5.9.1,9.1-.7c3.5-.9,3.6-3.1,3.6-3.1v-17.6c0-6.9-6.4-7.3-6.4-7.3v-6.3Z" style="fill: none; stroke: #fff; stroke-linecap: round; stroke-linejoin: round; stroke-width: .8px;"/>
  <path d="M39.7,23.6s0-1.5,3.5-2c4.7-.7,7.7-.7,12.5,0,3.4.5,3.5,2,3.5,2v10.8s0,1.5-3.5,2c-4.7.7-7.7.7-12.5,0-3.4-.5-3.5-2-3.5-2v-10.8Z" style="fill: none; stroke: #fff; stroke-miterlimit: 10; stroke-width: .8px;"/>
  <path d="M26.1,31.3l3.5,4.7M33.3,31.3l-3.5,4.7M29.8,22.7v11.6" style="fill: none; stroke: #fff; stroke-linecap: round; stroke-width: .8px;"/>
  <path d="M63.1,41.6c-2.1.3-3.3.4-6.5.6-5,.3-11.4.5-16.7-.9" style="fill: none; stroke: #fff; stroke-linecap: round; stroke-miterlimit: 10; stroke-width: .8px;"/>
  <path d="M59.8,45.4l4.7-3.5M59.8,38.2l4.7,3.5" style="fill: none; stroke: #fff; stroke-linecap: round; stroke-width: .8px;"/>
  <path d="M51,39.9v-2.4M47.9,39.9v-2.4" style="fill: none; stroke: #fff; stroke-linecap: round; stroke-miterlimit: 10; stroke-width: .8px;"/>
</svg>