<?xml version="1.0" encoding="UTF-8"?>
<svg id="Ebene_1" data-name="Ebene 1" xmlns="http://www.w3.org/2000/svg" version="1.1" viewBox="0 0 460 140">
  <defs>
    <style>
      .cls-1, .cls-2, .cls-3, .cls-4 {
        fill: none;
        stroke: #fff;
      }

      .cls-1, .cls-2, .cls-4 {
        stroke-width: 1.9px;
      }

      .cls-2, .cls-3, .cls-4 {
        stroke-linecap: round;
      }

      .cls-3 {
        stroke-width: 1.9px;
      }

      .cls-3, .cls-4 {
        stroke-linejoin: round;
      }
    </style>
  </defs>
  <path class="cls-2" d="M59.5,44.8v34.4M51.1,44.8v34.4M67.7,44.8v34.4M76.9,44.8v34.4M84.7,44.8v34.4M92.2,46.8v29.6"/>
  <path class="cls-4" d="M43.7,82.5s4.2,2,8,2.8c4.5,1,9-.4,11.9,0,5.4.6-6.1,6,1.1,5.4,4.1-.4,4.4-1.9,5.8-4.5,1.5-2.7,4.1-3.1,6.9-3.5,1-.1,2.2-.2.8,2.3-.7,1.1-.8,2.1-.8,2.1,0,0,8.7,1,13.8-.6,4.5-1.4,7.7-3.1,7.7-3.1l-.2-36s0-4.1-1.9-5.7c-2.6-2.1-6.1-1.9-6.1-1.9h-36.3s-5-.5-7.3,2.3c-2.6,3.1-2,6-2,6l-1.2,34.3ZM43.5,86.7s2.3,1.2,6.1,2.1c4.5,1,5.7-.2,8.6-.2s-4.6,4.5,1.9,5.1c4.1.4,10.6-.2,11.8-3.7.8-2.3,2.6-3.2,2.6-3.2,0,0-.6,1-.3,2.1.4,1.6,3.4,2.1,6.4,2,1.8,0,7,.3,10.4-.7,3.4-1,7.6-2.6,7.6-2.6v6s0,4.5-1.5,5.7c-2.8,2.2-6.7,1.5-6.7,1.5h-40s-2.2.1-4.4-1.3c-2.1-1.4-2.4-4.8-2.4-4.8v-8.2Z"/>
  <path class="cls-1" d="M372.3,52.7c4.1-.9,6.3-6.4,5-12.4-1.3-5.9-5.7-10-9.7-9.1-4.1.9-6.3,6.4-5,12.4,1.3,5.9,5.7,10,9.7,9.1ZM357.9,34.5l9.1-3.1M362.4,55.4l10.1-2.8M383,60.8v3.9c0,1.3,6.4,2.8,14.1,2.8s13.8-1.5,13.8-2.8v-3.2M373.1,66.4c0,3.1,13,5.4,24.4,5.4s22.4-3,22.4-6.2M397.5,63.9c8.5,0,15-1.9,15-4.3s-6.5-4.3-15-4.3-15.4,1.9-15.4,4.3,6.9,4.3,15.4,4.3ZM382.5,60.8s-8.7,2.5-9.4,5.6c0,0-.1,4.1-.1,5.4v24.7c0,3.6,10.6,7.9,23.8,7.9M412.3,60.8s6.6,1.2,7.9,5.3c.2.7.4,4.4.4,5.7v24.7c0,3.6-10.6,7.9-23.8,7.9M374.7,60.7c6.4-1.9,9.8-11.9,6.9-21.4-2.9-9.5-11.9-14.9-17.4-13-6.3,2.1-9.2,11.2-6.2,20.7,2.9,9.5,10.4,15.7,16.8,13.7ZM364,57.4s2.2,3.1,7.3,5c2.9,1.1,8-.5,8-.5M384.9,57.2c2.6-4.5,4.1-11.1,2-19.3-2.4-9.6-11.3-17.4-21.5-14.8-.6.2-4.4-2.7-4.4-2.7l-4.9,2.4v5c-6.4,5.4-7.6,13.1-4.9,21.9,3.5,11.4,17.6,16.2,27.1,12.6M396.8,108c13.1,0,23.8-4.3,23.8-7.9v9.2c0,3.6-10.6,7.9-23.7,7.9h0c-13.1,0-23.8-4.3-23.8-7.9v-9.2c0,3.6,10.6,7.9,23.8,7.9M397.7,61.2c2.2,0,3.9-.5,3.9-1.1s-1.7-1.1-3.9-1.1-4.1.5-4.1,1.1,1.8,1.1,4.1,1.1ZM393.6,60.1v3.5M401.6,60.1v3.5"/>
  <path class="cls-3" d="M137.3,70c0,36.3-29.4,65.7-65.7,65.7S5.9,106.3,5.9,70,35.3,4.3,71.6,4.3s65.7,29.4,65.7,65.7"/>
  <path class="cls-3" d="M454.1,69.6c0,36.3-29.4,65.8-65.8,65.8s-65.8-29.5-65.8-65.8S352,3.8,388.3,3.8s65.8,29.5,65.8,65.8"/>
  <path class="cls-3" d="M296.1,70.4c0,36.4-29.5,65.8-65.8,65.8s-65.8-29.5-65.8-65.8S194,4.6,230.3,4.6s65.8,29.5,65.8,65.8M235.7,38.7v-11.6s.3-5.2-5.3-5.2-5.6,5.2-5.6,5.2v11.6M234,107.4s5.3,9-3.7,9-3.6-9-3.6-9v-44.2h7.3v44.2ZM225.3,63.2h16.7s2.1.2,2.1-2.7v-17.6s-.1-3-6.3-4c-3.8-.6-10.5-.6-15.2,0-6.2.8-6.3,4-6.3,4v2.5s0,15.1,0,15.1c0,2.9,2.1,2.7,2.1,2.7h6.7Z"/>
</svg>