<?xml version="1.0" encoding="UTF-8"?>
<svg id="Ebene_1" data-name="Ebene 1" xmlns="http://www.w3.org/2000/svg" version="1.1" viewBox="0 0 120 37">
  <defs>
    <style>
      .cls-1 {
        fill: #fff;
        stroke-width: 0px;
      }
    </style>
  </defs>
  <g>
    <path class="cls-1" d="M28.9,0h1.3l2.6,5.9h-1.4l-.6-1.3h-2.6l-.6,1.3h-1.4L28.9,0ZM30.4,3.5l-.8-1.9-.8,1.9h1.6Z"/>
    <path class="cls-1" d="M37.5.1h1.5l1.6,2.5,1.6-2.5h1.5v5.9h-1.4v-3.8l-1.7,2.5h0l-1.7-2.5v3.8h-1.3V.1Z"/>
    <path class="cls-1" d="M45.7.1h4.7v1.2h-3.3v1.2h2.9v1.2h-2.9v1.2h3.4v1.2h-4.7V.1Z"/>
    <path class="cls-1" d="M52.1.1h1.5l1.6,2.5,1.6-2.5h1.5v5.9h-1.4v-3.8l-1.7,2.5h0l-1.7-2.5v3.8h-1.3V.1Z"/>
    <path class="cls-1" d="M60.3.1h2.9c.7,0,1.3.2,1.6.5.3.3.4.6.4,1h0c0,.7-.4,1.1-.8,1.3.7.3,1.2.7,1.2,1.4h0c0,1.1-.9,1.6-2.3,1.6h-2.9V.1ZM63.9,1.8c0-.4-.3-.6-.9-.6h-1.3v1.2h1.3c.6,0,1-.2,1-.6h0ZM63.2,3.6h-1.6v1.3h1.6c.6,0,1-.2,1-.6h0c0-.4-.3-.7-1-.7Z"/>
    <path class="cls-1" d="M67.2.1h4.7v1.2h-3.3v1.2h2.9v1.2h-2.9v1.2h3.4v1.2h-4.7V.1Z"/>
    <path class="cls-1" d="M73.7.1h2.8c.8,0,1.4.2,1.8.6.3.3.5.8.5,1.3h0c0,1-.5,1.6-1.3,1.8l1.5,2.1h-1.6l-1.3-1.9h-1.1v1.9h-1.4V.1ZM76.4,3c.7,0,1-.3,1-.8h0c0-.6-.4-.9-1.1-.9h-1.4v1.7h1.4Z"/>
    <path class="cls-1" d="M83.5,3.1h0c0-1.7,1.4-3.1,3.3-3.1s3.3,1.4,3.3,3h0c0,1.7-1.4,3.1-3.3,3.1s-3.3-1.4-3.3-3ZM88.6,3.1h0c0-1-.8-1.9-1.9-1.9s-1.9.8-1.9,1.8h0c0,1,.8,1.9,1.9,1.9s1.9-.8,1.9-1.8Z"/>
    <path class="cls-1" d="M91.8.1h4.7v1.2h-3.3v1.3h2.9v1.2h-2.9v2.3h-1.4V.1Z"/>
  </g>
  <g>
    <path class="cls-1" d="M59.9,25.5h0l-6-8.8c-.3-.5-1.2-.8-2.1-.8s-1.8.3-2.1.8l-5,7.4h-3v-7c0-.7-1-1.2-2.2-1.2s-2.2.5-2.2,1.2v.9c-1-1.2-3.1-2.1-5.5-2.1h-3.9c-1.2,0-2.2.5-2.2,1.2v7.7c-.4-.4-1.2-.7-2-.7h-3.1v-7c0-.7-1-1.2-2.2-1.2s-2.2.5-2.2,1.2v7.8l-5.6-8.2h0c-.3-.5-1.2-.8-2.1-.8s-1.8.3-2.1.8L.1,25.5c0,.1-.1.3-.1.4,0,.7,1,1.2,2.2,1.2s1.8-.3,2.1-.8l.7-1.2h6.4l.7,1.2c.3.5,1.2.8,2.1.8s1.6-.3,2-.6c.4.4,1.1.6,2,.6h5.3c.9,0,1.7-.3,2.1-.9.3.5,1.1.9,2.1.9s2.2-.5,2.2-1.2v-2.3h1.7c2.4,0,4.5-.9,5.5-2.1v4.4c0,.7,1,1.2,2.2,1.2h6.4c1,0,1.8-.3,2.1-.8l.7-1.2h6.4l.7,1.2c.3.5,1.2.8,2.1.8s2.2-.5,2.2-1.2,0-.3-.1-.4M6.6,22.4l1.7-2.9h0,0l1.7,2.9h-3.3ZM31.6,20.6h-1.7v-1.8h1.7c.9,0,1.7.4,1.7.9s-.8.9-1.7.9M50.1,22.4l1.7-2.9,1.7,2.9h-3.3Z"/>
    <path class="cls-1" d="M86.4,18.4c0,0,0,.1,0,.1,0,1.9,0,3.7,0,5.6,0,.2.1.3.3.3,1.7,0,3.4,0,5.1,0,.4,0,.6-.2.6-.6,0-1.6,0-3.2,0-4.8,0-.4-.1-.5-.6-.6-.8,0-1.5,0-2.3,0h-3.1ZM83.8,26.8v-10.8c0,0,.1,0,.2,0,2.9,0,5.8,0,8.7,0,1.5,0,2,.6,2,2,0,2.1,0,4.3,0,6.4,0,.2,0,.5,0,.7,0,1-.9,1.7-1.8,1.7-3,0-6,0-9,0,0,0,0,0-.1,0"/>
    <path class="cls-1" d="M105.3,20.1v2.5h-6.3c0,.5,0,.9,0,1.4,0,.3.2.4.4.4.7,0,1.5,0,2.2,0h5.8v2.5c-.1,0-.2,0-.3,0-2.6,0-5.2,0-7.8,0-.3,0-.7,0-1-.1-1-.3-1.7-1.1-1.7-2.2,0-2.3,0-4.5,0-6.8,0-.9.5-1.4,1.3-1.6.5-.1,1.1-.2,1.6-.2,2.6,0,5.1,0,7.7,0s.2,0,.3,0v2.4h-7.8c-.6,0-.6,0-.6.6v1.1h6.4Z"/>
    <path class="cls-1" d="M73.6,18.4v8.4h-2.5v-10.8h.6c2.7,0,5.3,0,8,0,1.7,0,2.3,1,2.4,2.3,0,2.8,0,5.6,0,8.5,0,0,0,0,0,.1h-2.5c0-.1,0-.3,0-.4,0-2.4,0-4.9,0-7.3,0-.6,0-.7-.7-.7-1.7,0-3.3,0-5,0-.1,0-.2,0-.3,0"/>
    <path class="cls-1" d="M120,26.8h-2.5c0-.1,0-.3,0-.4,0-2.4,0-4.9,0-7.3,0-.6-.1-.7-.7-.7-1.7,0-3.4,0-5,0h-.3v8.4h-2.5v-10.8h.6c2.7,0,5.5,0,8.2,0,1.3,0,2.2.8,2.2,2.2,0,2.8,0,5.7,0,8.5,0,0,0,0,0,.2"/>
    <path class="cls-1" d="M69.4,24.4v2.5h-6.7v-2.5c.6,0,1.2,0,1.8,0,.2,0,.3,0,.3-.3,0-1.8,0-3.6,0-5.4,0,0,0-.1,0-.2h-2.1v-2.4h6.7v2.4h-2c0,.1,0,.2,0,.4,0,1.7,0,3.5,0,5.2,0,.3,0,.4.4.4.6,0,1.1,0,1.7,0"/>
    <path class="cls-1" d="M38.9,31.9h4.2c1.4,0,2,.6,2,1.8s-.5,1.7-2,1.7h-2.2v1.6h-2v-5.1ZM40.9,34.1h1.3c.5,0,.7-.2.7-.5s-.2-.5-.7-.5h-1.3v1.1Z"/>
    <polygon class="cls-1" points="50 34.9 47.7 34.9 47.7 37 45.7 37 45.7 31.9 47.7 31.9 47.7 33.7 50 33.7 50 31.9 52 31.9 52 37 50 37 50 34.9"/>
    <path class="cls-1" d="M54.7,31.9h2.5l2.2,5.1h-2.2l-.2-.6h-2.1l-.2.6h-2.2l2.2-5.1ZM55.9,33.4h0l-.6,1.7h1.2l-.6-1.7Z"/>
    <path class="cls-1" d="M59.8,31.9h4.3c.6,0,.9,0,1.2.2.4.2.7.7.7,1.2s-.2,1-.8,1.2h0c.3.1.5.4.6.8v1.1c.1.2.2.4.3.6h-2.2c0-.2,0-.4-.1-1,0-.4-.2-.6-.5-.6h-1.4v1.6h-2v-5.1ZM61.9,34.1h1.4c.4,0,.6-.2.6-.5s-.3-.5-.6-.5h-1.4v1Z"/>
    <polygon class="cls-1" points="66.9 31.9 69.7 31.9 70.6 34.8 70.6 34.8 71.4 31.9 74.3 31.9 74.3 37 72.4 37 72.4 33.3 72.4 33.3 71.3 37 69.8 37 68.7 33.3 68.7 33.3 68.7 37 66.9 37 66.9 31.9"/>
    <path class="cls-1" d="M76.9,31.9h2.5l2.2,5.1h-2.2l-.2-.6h-2.1l-.2.6h-2.2l2.2-5.1ZM78.2,33.4h0l-.6,1.7h1.2l-.6-1.7Z"/>
  </g>
</svg>