<?xml version="1.0" encoding="UTF-8"?>
<svg id="Ebene_1" data-name="Ebene 1" xmlns="http://www.w3.org/2000/svg" xmlns:xlink="http://www.w3.org/1999/xlink" version="1.1" viewBox="-20 -20 151.5 127.7" width="290">
  <defs>
    <linearGradient id="Neues_Verlaufsfeld_1" data-name="Neues Verlaufsfeld 1" x1="46.1" y1="78.4" x2="69.4" y2="-6.1" gradientUnits="userSpaceOnUse">
      <stop offset="0" stop-color="#fff"/>
      <stop offset=".4" stop-color="#fbfbfb"/>
      <stop offset=".8" stop-color="#f1f1f1"/>
      <stop offset="1" stop-color="#e6e6e6"/>
    </linearGradient>
    <linearGradient id="Unbenannter_Verlauf_13" data-name="Unbenannter Verlauf 13" x1="-367.1" y1="2166.6" x2="-366.1" y2="2166.6" gradientTransform="translate(279105.1 30328.6) rotate(-74.2) scale(127.7 -127.7)" gradientUnits="userSpaceOnUse">
      <stop offset="0" stop-color="#e6e6e6"/>
      <stop offset=".2" stop-color="#f1f1f1"/>
      <stop offset=".6" stop-color="#fbfbfb"/>
      <stop offset="1" stop-color="#fff"/>
    </linearGradient>
  </defs>
  <path d="M.5.5v51.8c0,10,8.6,18.1,19.2,18.1h70.2l21.1,16.3-1-68.1c0-10-8.6-18.1-19.2-18.1H.5Z" style="fill: url(#Neues_Verlaufsfeld_1);filter: drop-shadow(0px 0px 12px rgb(0 0 0 / .1))"/>
  <path d="M.5,52.3h.5c0,9.7,8.3,17.6,18.7,17.6h70.3l20.5,15.7-1-67c0-9.7-8.3-17.6-18.7-17.6H1v51.3H0V0h90.8c10.8,0,19.7,8.3,19.7,18.6l1,69.1-21.8-16.8H19.7C8.8,70.9,0,62.6,0,52.3h.5Z" style="fill: url(#Unbenannter_Verlauf_13); stroke-width: 0px;"/>
  <text transform="translate(15.6 22.5)" style="fill: #252228; font-family: 'Encode Sans Expanded', sans-serif; font-size: 8px; letter-spacing: 0.065em;">„The quality</text>
  <text transform="translate(15.6 36.5)" style="fill: #252228; font-family: 'Encode Sans Expanded', sans-serif; font-size: 8px; letter-spacing: 0.065em;">of the products</text>
  <text transform="translate(15.6 50.5)" style="fill: #252228; font-family: 'Encode Sans Expanded', sans-serif; font-size: 8px; letter-spacing: 0.065em;">is good.“</text>
</svg>