<?xml version="1.0" encoding="UTF-8"?>
<svg id="Ebene_1" data-name="Ebene 1" xmlns="http://www.w3.org/2000/svg" xmlns:xlink="http://www.w3.org/1999/xlink" version="1.1" viewBox="0 0 212.9 150.5">
  <defs>
    <linearGradient id="Neues_Verlaufsfeld_1" data-name="Neues Verlaufsfeld 1" x1="89.2" y1="137.4" x2="130.7" y2="-13.4" gradientUnits="userSpaceOnUse">
      <stop offset="0" stop-color="#fff"/>
      <stop offset=".4" stop-color="#fbfbfb"/>
      <stop offset=".8" stop-color="#f1f1f1"/>
      <stop offset="1" stop-color="#e6e6e6"/>
    </linearGradient>
    <linearGradient id="Unbenannter_Verlauf_13" data-name="Unbenannter Verlauf 13" x1="-316.6" y1="2196.2" x2="-315.6" y2="2196.2" gradientTransform="translate(472997.8 59889.2) rotate(-74.6) scale(214.8 -214.8)" gradientUnits="userSpaceOnUse">
      <stop offset="0" stop-color="#e6e6e6"/>
      <stop offset=".2" stop-color="#f1f1f1"/>
      <stop offset=".6" stop-color="#fbfbfb"/>
      <stop offset="1" stop-color="#fff"/>
    </linearGradient>
  </defs>
  <path d="M1,1v88.7c0,17.1,14.1,30.9,31.5,30.9h144.6l34.8,27.8-1.7-116.5c0-17.1-14.1-30.9-31.5-30.9H1Z" style="fill: url(#Neues_Verlaufsfeld_1);"/>
  <path d="M1,89.7h1c0,16.5,13.7,29.9,30.5,29.9h144.9l33.4,26.7-1.6-114.4h0c0-16.5-13.7-29.9-30.5-29.9H2v87.7H0V0h178.7c17.9,0,32.5,14.3,32.5,31.9h-1,1s1.7,118.6,1.7,118.6l-36.2-28.9H32.5C14.6,121.6,0,107.3,0,89.7h1Z" style="fill: url(#Unbenannter_Verlauf_13); stroke-width: 0px;"/>
  <text transform="translate(19.3 25.5)" style="fill: #252228; font-family: EncodeSansExpanded-Regular, &apos;Encode Sans Expanded&apos;; font-size: 8px;"><tspan x="0" y="0" style="letter-spacing: 0em;">„D</tspan><tspan x="10.5" y="0" style="letter-spacing: 0em;">er Su</tspan><tspan x="31.9" y="0" style="letter-spacing: 0em;">p</tspan><tspan x="37.3" y="0" style="letter-spacing: 0em;">p</tspan><tspan x="42.7" y="0" style="letter-spacing: 0em;">o</tspan><tspan x="48" y="0" style="letter-spacing: 0em;">r</tspan><tspan x="51.7" y="0" style="letter-spacing: 0em;">t</tspan><tspan x="55.4" y="0" xml:space="preserve" style="letter-spacing: 0em;"> an </tspan><tspan x="70.6" y="0" style="letter-spacing: 0em;">d</tspan><tspan x="76" y="0" style="letter-spacing: 0em;">er </tspan><tspan x="86.9" y="0" style="letter-spacing: 0em;">A</tspan><tspan x="93.3" y="0" style="letter-spacing: 0em;">nl</tspan><tspan x="101" y="0" style="letter-spacing: 0em;">ag</tspan><tspan x="111.3" y="0" style="letter-spacing: 0em;">e </tspan><tspan x="118.7" y="0" style="letter-spacing: 0em;">v</tspan><tspan x="123.7" y="0" style="letter-spacing: 0em;">or O</tspan><tspan x="141.9" y="0" style="letter-spacing: 0em;">r</tspan><tspan x="145.5" y="0" style="letter-spacing: 0em;">t</tspan><tspan x="149.2" y="0" style="letter-spacing: 0em;"> </tspan><tspan x="151.7" y="0" style="letter-spacing: 0em;">b</tspan><tspan x="157.1" y="0" style="letter-spacing: 0em;">e</tspan><tspan x="162" y="0">i</tspan></text>
  <text transform="translate(183.6 25.5)" style="fill: #252228; font-family: EncodeSansExpanded-Regular, &apos;Encode Sans Expanded&apos;; font-size: 8px;"><tspan x="0" y="0"> </tspan></text>
  <text transform="translate(19.3 39.5)" style="fill: #252228; font-family: EncodeSansExpanded-Regular, &apos;Encode Sans Expanded&apos;; font-size: 8px;"><tspan x="0" y="0" style="letter-spacing: 0em;">de</tspan><tspan x="10.3" y="0" style="letter-spacing: 0em;">r Um</tspan><tspan x="30.8" y="0" style="letter-spacing: 0em;">st</tspan><tspan x="38.7" y="0" style="letter-spacing: 0em;">e</tspan><tspan x="43.6" y="0" style="letter-spacing: 0em;">l</tspan><tspan x="46" y="0" style="letter-spacing: 0em;">lun</tspan><tspan x="59.1" y="0" style="letter-spacing: 0em;">g</tspan><tspan x="64.5" y="0" xml:space="preserve" style="letter-spacing: 0em;"> a</tspan><tspan x="71.9" y="0" style="letter-spacing: 0em;">u</tspan><tspan x="77.3" y="0" style="letter-spacing: 0em;">f He</tspan><tspan x="94.9" y="0" style="letter-spacing: 0em;">i</tspan><tspan x="97.3" y="0" style="letter-spacing: 0em;">nl</tspan><tspan x="105" y="0" style="letter-spacing: 0em;">e</tspan><tspan x="109.9" y="0" style="letter-spacing: 0em;">in </tspan><tspan x="120.1" y="0" style="letter-spacing: 0em;">P</tspan><tspan x="125.8" y="0" style="letter-spacing: 0em;">r</tspan><tspan x="129.2" y="0" style="letter-spacing: 0em;">o</tspan><tspan x="134.6" y="0" style="letter-spacing: 0em;">d</tspan><tspan x="140" y="0" style="letter-spacing: 0em;">u</tspan><tspan x="145.4" y="0" style="letter-spacing: 0em;">k</tspan><tspan x="150.3" y="0" style="letter-spacing: 0em;">t</tspan><tspan x="153.9" y="0" style="letter-spacing: 0em;">e</tspan></text>
  <text transform="translate(178 39.5)" style="fill: #252228; font-family: EncodeSansExpanded-Regular, &apos;Encode Sans Expanded&apos;; font-size: 8px;"><tspan x="0" y="0"> </tspan></text>
  <text transform="translate(19.3 53.5)" style="fill: #252228; font-family: EncodeSansExpanded-Regular, &apos;Encode Sans Expanded&apos;; font-size: 8px;"><tspan x="0" y="0" style="letter-spacing: 0em;">w</tspan><tspan x="7.6" y="0" style="letter-spacing: 0em;">ar </tspan><tspan x="18.5" y="0" style="letter-spacing: 0em;">s</tspan><tspan x="22.9" y="0" style="letter-spacing: 0em;">c</tspan><tspan x="27.2" y="0" style="letter-spacing: 0em;">hnel</tspan><tspan x="45.3" y="0" style="letter-spacing: 0em;">l</tspan><tspan x="47.6" y="0" xml:space="preserve" style="letter-spacing: 0em;"> un</tspan><tspan x="60.9" y="0" style="letter-spacing: 0em;">d</tspan><tspan x="66.3" y="0" xml:space="preserve" style="letter-spacing: 0em;"> un</tspan><tspan x="79.6" y="0" style="letter-spacing: 0em;">k</tspan><tspan x="84.5" y="0" style="letter-spacing: 0em;">o</tspan><tspan x="89.8" y="0" style="letter-spacing: 0em;">m</tspan><tspan x="97.6" y="0" style="letter-spacing: 0em;">p</tspan><tspan x="103" y="0" style="letter-spacing: 0em;">li</tspan><tspan x="107.6" y="0" style="letter-spacing: 0em;">z</tspan><tspan x="112.1" y="0" style="letter-spacing: 0em;">ie</tspan><tspan x="119.3" y="0" style="letter-spacing: 0em;">r</tspan><tspan x="123" y="0" style="letter-spacing: 0em;">t</tspan><tspan x="126.7" y="0">. </tspan></text>
  <text transform="translate(19.3 67.5)" style="fill: #252228; font-family: EncodeSansExpanded-Regular, &apos;Encode Sans Expanded&apos;; font-size: 8px;"><tspan x="0" y="0" style="letter-spacing: 0em;">W</tspan><tspan x="9.8" y="0" style="letter-spacing: 0em;">i</tspan><tspan x="12.1" y="0" style="letter-spacing: 0em;">r ha</tspan><tspan x="28.4" y="0" style="letter-spacing: 0em;">b</tspan><tspan x="33.9" y="0" style="letter-spacing: 0em;">en un</tspan><tspan x="57.5" y="0" style="letter-spacing: 0em;">s</tspan><tspan x="61.9" y="0" style="letter-spacing: 0em;"> </tspan><tspan x="64.4" y="0" style="letter-spacing: 0em;">b</tspan><tspan x="69.8" y="0" style="letter-spacing: 0em;">e</tspan><tspan x="74.7" y="0" style="letter-spacing: 0em;">i </tspan><tspan x="79.5" y="0" style="letter-spacing: 0em;">d</tspan><tspan x="84.9" y="0" style="letter-spacing: 0em;">er Um</tspan><tspan x="110.3" y="0" style="letter-spacing: 0em;">st</tspan><tspan x="118.2" y="0" style="letter-spacing: 0em;">el</tspan><tspan x="125.4" y="0" style="letter-spacing: 0em;">l</tspan><tspan x="127.8" y="0" style="letter-spacing: 0em;">un</tspan><tspan x="138.6" y="0" style="letter-spacing: 0em;">g</tspan><tspan x="144" y="0" style="letter-spacing: 0em;"> </tspan><tspan x="146.5" y="0" style="letter-spacing: 0em;">s</tspan><tspan x="150.9" y="0" style="letter-spacing: 0em;">eh</tspan><tspan x="161.2" y="0">r </tspan></text>
  <text transform="translate(186.7 67.5)" style="fill: #252228; font-family: EncodeSansExpanded-Regular, &apos;Encode Sans Expanded&apos;; font-size: 8px;"><tspan x="0" y="0"> </tspan></text>
  <text transform="translate(19.3 81.5)" style="fill: #252228; font-family: EncodeSansExpanded-Regular, &apos;Encode Sans Expanded&apos;; font-size: 8px;"><tspan x="0" y="0" style="letter-spacing: 0em;">g</tspan><tspan x="5.4" y="0" style="letter-spacing: 0em;">u</tspan><tspan x="10.8" y="0" style="letter-spacing: 0em;">t</tspan><tspan x="14.5" y="0" style="letter-spacing: 0em;"> </tspan><tspan x="17" y="0" style="letter-spacing: 0em;">b</tspan><tspan x="22.4" y="0" style="letter-spacing: 0em;">e</tspan><tspan x="27.3" y="0" style="letter-spacing: 0em;">t</tspan><tspan x="30.9" y="0" style="letter-spacing: 0em;">r</tspan><tspan x="34.3" y="0" style="letter-spacing: 0em;">e</tspan><tspan x="39.3" y="0" style="letter-spacing: 0em;">u</tspan><tspan x="44.7" y="0" style="letter-spacing: 0em;">t</tspan><tspan x="48.3" y="0" style="letter-spacing: 0em;"> </tspan><tspan x="50.8" y="0" style="letter-spacing: 0em;">g</tspan><tspan x="56.2" y="0" style="letter-spacing: 0em;">e</tspan><tspan x="61.1" y="0" style="letter-spacing: 0em;">f</tspan><tspan x="64.6" y="0" style="letter-spacing: 0em;">ühl</tspan><tspan x="77.7" y="0" style="letter-spacing: 0em;">t</tspan><tspan x="81.5" y="0" style="letter-spacing: 0em;">.</tspan><tspan x="83.8" y="0" xml:space="preserve" style="letter-spacing: 0em;"> Heinle</tspan><tspan x="112.9" y="0" style="letter-spacing: 0em;">i</tspan><tspan x="115.2" y="0" style="letter-spacing: 0em;">n </tspan><tspan x="123.1" y="0" style="letter-spacing: 0em;">v</tspan><tspan x="128.1" y="0" style="letter-spacing: 0em;">e</tspan><tspan x="133.1" y="0" style="letter-spacing: 0em;">r</tspan><tspan x="136.7" y="0" style="letter-spacing: 0em;">f</tspan><tspan x="140.2" y="0" style="letter-spacing: 0em;">ü</tspan><tspan x="145.6" y="0" style="letter-spacing: 0em;">g</tspan><tspan x="151" y="0" style="letter-spacing: 0em;">t</tspan><tspan x="154.7" y="0" xml:space="preserve" style="letter-spacing: 0em;"> ü</tspan><tspan x="162.5" y="0" style="letter-spacing: 0em;">b</tspan><tspan x="168" y="0" style="letter-spacing: 0em;">e</tspan><tspan x="172.9" y="0" style="letter-spacing: 0em;">r</tspan></text>
  <text transform="translate(195.7 81.5)" style="fill: #252228; font-family: EncodeSansExpanded-Regular, &apos;Encode Sans Expanded&apos;; font-size: 8px;"><tspan x="0" y="0"> </tspan></text>
  <text transform="translate(19.3 95.5)" style="fill: #252228; font-family: EncodeSansExpanded-Regular, &apos;Encode Sans Expanded&apos;; font-size: 8px;"><tspan x="0" y="0" style="letter-spacing: 0em;">e</tspan><tspan x="4.9" y="0" style="letter-spacing: 0em;">i</tspan><tspan x="7.2" y="0" style="letter-spacing: 0em;">n </tspan><tspan x="15.1" y="0" style="letter-spacing: 0em;">p</tspan><tspan x="20.5" y="0" style="letter-spacing: 0em;">ro</tspan><tspan x="29.1" y="0" style="letter-spacing: 0em;">f</tspan><tspan x="32.6" y="0" style="letter-spacing: 0em;">e</tspan><tspan x="37.5" y="0" style="letter-spacing: 0em;">ss</tspan><tspan x="46.3" y="0" style="letter-spacing: 0em;">i</tspan><tspan x="48.6" y="0" style="letter-spacing: 0em;">o</tspan><tspan x="54" y="0" style="letter-spacing: 0em;">nel</tspan><tspan x="66.6" y="0" style="letter-spacing: 0em;">l</tspan><tspan x="68.9" y="0" style="letter-spacing: 0em;">e</tspan><tspan x="73.9" y="0" style="letter-spacing: 0em;">s</tspan><tspan x="78.3" y="0" style="letter-spacing: 0em;"> </tspan><tspan x="80.7" y="0" style="letter-spacing: 0em;">P</tspan><tspan x="86.5" y="0" style="letter-spacing: 0em;">r</tspan><tspan x="89.9" y="0" style="letter-spacing: 0em;">oje</tspan><tspan x="102.4" y="0" style="letter-spacing: 0em;">k</tspan><tspan x="107.3" y="0" style="letter-spacing: 0em;">t</tspan><tspan x="111" y="0" style="letter-spacing: 0em;">mana</tspan><tspan x="134" y="0" style="letter-spacing: 0em;">ge</tspan><tspan x="144.3" y="0" style="letter-spacing: 0em;">men</tspan><tspan x="162.5" y="0" style="letter-spacing: 0em;">t</tspan><tspan x="166.2" y="0" style="letter-spacing: 0em;">.</tspan><tspan x="168.1" y="0">“</tspan></text>
</svg>