<svg id="Ebene_1" data-name="Ebene 1" xmlns="http://www.w3.org/2000/svg" xmlns:xlink="http://www.w3.org/1999/xlink" version="1.1" viewBox="-20 -20 161.4 150.6" width="300">
  <defs>
    <linearGradient id="Neues_Verlaufsfeld_1" data-name="Neues Verlaufsfeld 1" x1="49.2" y1="96.9" x2="77.4" y2="-5.6" gradientUnits="userSpaceOnUse">
      <stop offset="0" stop-color="#fff"/>
      <stop offset=".4" stop-color="#fbfbfb"/>
      <stop offset=".8" stop-color="#f1f1f1"/>
      <stop offset="1" stop-color="#e6e6e6"/>
    </linearGradient>
    <linearGradient id="Unbenannter_Verlauf_13" data-name="Unbenannter Verlauf 13" x1="-361.3" y1="2177.3" x2="-360.3" y2="2177.3" gradientTransform="translate(351663.4 36325.3) rotate(-74.7) scale(160.2 -160.2)" gradientUnits="userSpaceOnUse">
      <stop offset="0" stop-color="#e6e6e6"/>
      <stop offset=".2" stop-color="#f1f1f1"/>
      <stop offset=".6" stop-color="#fbfbfb"/>
      <stop offset="1" stop-color="#fff"/>
    </linearGradient>
  </defs>
  <path d="M.5.5v65.6c0,12.6,10.4,22.9,23.3,22.9h71.4l25.7,20.6-1.2-86.2c0-12.6-10.4-22.9-23.3-22.9H.5Z" style="fill: url(#Neues_Verlaufsfeld_1);filter: drop-shadow(0px 0px 12px rgb(0 0 0 / .1))"/>
  <path d="M.5,66.1h.5c0,12.4,10.2,22.4,22.8,22.4h71.5l25.1,20-1.2-85.1h0c0-12.4-10.2-22.4-22.8-22.4H1v65.1H0V0h96.4c13.2,0,23.8,10.5,23.8,23.4h-.5.5s1.2,87.3,1.2,87.3l-26.4-21.1H23.8C10.7,89.5,0,79,0,66.1h.5Z" style="fill: url(#Unbenannter_Verlauf_13); stroke-width: 0px;"/>
  <text transform="translate(20.6 26.1)" style="fill: #252228; font-family: 'Encode Sans Expanded', sans-serif; font-size: 8px; letter-spacing: 0.065em">„The support was</text>
  <text transform="translate(20.6 40.1)" style="fill: #252228; font-family: 'Encode Sans Expanded', sans-serif; font-size: 8px; letter-spacing: 0.065em">solution-oriented </text>  
  <text transform="translate(20.6 54.1)" style="fill: #252228; font-family: 'Encode Sans Expanded', sans-serif; font-size: 8px; letter-spacing: 0.065em">and fast at </text>
  <text transform="translate(20.6 68.1)" style="fill: #252228; font-family: 'Encode Sans Expanded', sans-serif; font-size: 8px; letter-spacing: 0.065em">all times.“</text>
</svg>