<svg id="muster-prech-02" data-name="Ebene 1" xmlns="http://www.w3.org/2000/svg" xmlns:xlink="http://www.w3.org/1999/xlink" version="1.1" viewBox="-20 -20 262.9 190.5" width="550" height="">
  <defs>
    <linearGradient id="Neues_Verlaufsfeld_1" data-name="Neues Verlaufsfeld 1" x1="89.2" y1="137.4" x2="130.7" y2="-13.4" gradientUnits="userSpaceOnUse">
      <stop offset="0" stop-color="#fff"/>
      <stop offset=".4" stop-color="#fbfbfb"/>
      <stop offset=".8" stop-color="#f1f1f1"/>
      <stop offset="1" stop-color="#e6e6e6"/>
    </linearGradient>
    <linearGradient id="Unbenannter_Verlauf_13" data-name="Unbenannter Verlauf 13" x1="-316.6" y1="2196.2" x2="-315.6" y2="2196.2" gradientTransform="translate(472997.8 59889.2) rotate(-74.6) scale(214.8 -214.8)" gradientUnits="userSpaceOnUse">
      <stop offset="0" stop-color="#e6e6e6"/>
      <stop offset=".2" stop-color="#f1f1f1"/>
      <stop offset=".6" stop-color="#fbfbfb"/>
      <stop offset="1" stop-color="#fff"/>
    </linearGradient>
  </defs>
  <path d="M1,1v88.7c0,17.1,14.1,30.9,31.5,30.9h144.6l34.8,27.8-1.7-116.5c0-17.1-14.1-30.9-31.5-30.9H1Z" style="fill: url(#Neues_Verlaufsfeld_1); stroke-width: 0px;filter: drop-shadow(0px 0px 12px rgb(0 0 0 / .1))"/>
  <path d="M1,89.7h1c0,16.5,13.7,29.9,30.5,29.9h144.9l33.4,26.7-1.6-114.4h0c0-16.5-13.7-29.9-30.5-29.9H2v87.7H0V0h178.7c17.9,0,32.5,14.3,32.5,31.9h-1,1s1.7,118.6,1.7,118.6l-36.2-28.9H32.5C14.6,121.6,0,107.3,0,89.7h1Z" style="fill: url(#Unbenannter_Verlauf_13); stroke-width: 0px;"/>
  <text transform="translate(19.3 25.5)" style="fill: #252228; font-family: 'Encode Sans Expanded', sans-serif; font-size: 7.5px; letter-spacing: 0.065em;">„On-site support at the plant during</text>
  <text transform="translate(19.3 39.5)" style="fill: #252228; font-family: 'Encode Sans Expanded', sans-serif; font-size: 7.5px; letter-spacing: 0.065em;">the changeover to Heinlein products</text>
  <text transform="translate(19.3 53.5)" style="fill: #252228; font-family: 'Encode Sans Expanded', sans-serif; font-size: 7.5px; letter-spacing: 0.065em;">was fast and straightforward. We felt</text>
  <text transform="translate(19.3 67.5)" style="fill: #252228; font-family: 'Encode Sans Expanded', sans-serif; font-size: 7.5px; letter-spacing: 0.065em;">very well looked after during the</text>
  <text transform="translate(19.3 81.5)" style="fill: #252228; font-family: 'Encode Sans Expanded', sans-serif; font-size: 7.5px; letter-spacing: 0.065em;">changeover. Heinlein has professional </text>
  <text transform="translate(19.3 95.5)" style="fill: #252228; font-family: 'Encode Sans Expanded', sans-serif; font-size: 7.5px; letter-spacing: 0.065em;">project management.“</text>
</svg>