<?xml version="1.0" encoding="UTF-8"?>
<svg id="Ebene_1" data-name="Ebene 1" xmlns="http://www.w3.org/2000/svg" xmlns:xlink="http://www.w3.org/1999/xlink" version="1.1" viewBox="0 0 121.4 110.6">
  <defs>
    <linearGradient id="Neues_Verlaufsfeld_1" data-name="Neues Verlaufsfeld 1" x1="49.2" y1="96.9" x2="77.4" y2="-5.6" gradientUnits="userSpaceOnUse">
      <stop offset="0" stop-color="#fff"/>
      <stop offset=".4" stop-color="#fbfbfb"/>
      <stop offset=".8" stop-color="#f1f1f1"/>
      <stop offset="1" stop-color="#e6e6e6"/>
    </linearGradient>
    <linearGradient id="Unbenannter_Verlauf_13" data-name="Unbenannter Verlauf 13" x1="-361.3" y1="2177.3" x2="-360.3" y2="2177.3" gradientTransform="translate(351663.4 36325.3) rotate(-74.7) scale(160.2 -160.2)" gradientUnits="userSpaceOnUse">
      <stop offset="0" stop-color="#e6e6e6"/>
      <stop offset=".2" stop-color="#f1f1f1"/>
      <stop offset=".6" stop-color="#fbfbfb"/>
      <stop offset="1" stop-color="#fff"/>
    </linearGradient>
  </defs>
  <path d="M.5.5v65.6c0,12.6,10.4,22.9,23.3,22.9h71.4l25.7,20.6-1.2-86.2c0-12.6-10.4-22.9-23.3-22.9H.5Z" style="fill: url(#Neues_Verlaufsfeld_1);"/>
  <path d="M.5,66.1h.5c0,12.4,10.2,22.4,22.8,22.4h71.5l25.1,20-1.2-85.1h0c0-12.4-10.2-22.4-22.8-22.4H1v65.1H0V0h96.4c13.2,0,23.8,10.5,23.8,23.4h-.5.5s1.2,87.3,1.2,87.3l-26.4-21.1H23.8C10.7,89.5,0,79,0,66.1h.5Z" style="fill: url(#Unbenannter_Verlauf_13); stroke-width: 0px;"/>
  <text transform="translate(20.6 26.1)" style="fill: #252228; font-family: EncodeSansExpanded-Regular, &apos;Encode Sans Expanded&apos;; font-size: 8px;"><tspan x="0" y="0" style="letter-spacing: 0em;">„D</tspan><tspan x="10.5" y="0" style="letter-spacing: 0em;">er Su</tspan><tspan x="31.9" y="0" style="letter-spacing: 0em;">p</tspan><tspan x="37.3" y="0" style="letter-spacing: 0em;">p</tspan><tspan x="42.7" y="0" style="letter-spacing: 0em;">o</tspan><tspan x="48" y="0" style="letter-spacing: 0em;">r</tspan><tspan x="51.7" y="0" style="letter-spacing: 0em;">t</tspan><tspan x="55.4" y="0" style="letter-spacing: 0em;"> </tspan><tspan x="57.8" y="0" style="letter-spacing: 0em;">w</tspan><tspan x="65.4" y="0" style="letter-spacing: 0em;">a</tspan><tspan x="70.3" y="0">r </tspan></text>
  <text transform="translate(97 26.1)" style="fill: #252228; font-family: EncodeSansExpanded-Regular, &apos;Encode Sans Expanded&apos;; font-size: 8px;"><tspan x="0" y="0"> </tspan></text>
  <text transform="translate(20.6 40.1)" style="fill: #252228; font-family: EncodeSansExpanded-Regular, &apos;Encode Sans Expanded&apos;; font-size: 8px;"><tspan x="0" y="0" style="letter-spacing: 0em;">zu je</tspan><tspan x="19.6" y="0" style="letter-spacing: 0em;">de</tspan><tspan x="29.9" y="0" style="letter-spacing: 0em;">r</tspan><tspan x="33.4" y="0" style="letter-spacing: 0em;">z</tspan><tspan x="37.7" y="0" style="letter-spacing: 0em;">e</tspan><tspan x="42.7" y="0" style="letter-spacing: 0em;">i</tspan><tspan x="45" y="0">t </tspan></text>
  <text transform="translate(71.7 40.1)" style="fill: #252228; font-family: EncodeSansExpanded-Regular, &apos;Encode Sans Expanded&apos;; font-size: 8px;"><tspan x="0" y="0"> </tspan></text>
  <text transform="translate(20.6 54.1)" style="fill: #252228; font-family: EncodeSansExpanded-Regular, &apos;Encode Sans Expanded&apos;; font-size: 8px;"><tspan x="0" y="0" style="letter-spacing: 0em;">l</tspan><tspan x="2.3" y="0" style="letter-spacing: 0em;">ös</tspan><tspan x="12" y="0" style="letter-spacing: 0em;">un</tspan><tspan x="22.9" y="0" style="letter-spacing: 0em;">gs</tspan><tspan x="32.7" y="0" style="letter-spacing: 0em;">o</tspan><tspan x="38" y="0" style="letter-spacing: 0em;">r</tspan><tspan x="41.6" y="0" style="letter-spacing: 0em;">ien</tspan><tspan x="54.2" y="0" style="letter-spacing: 0em;">t</tspan><tspan x="57.9" y="0" style="letter-spacing: 0em;">ie</tspan><tspan x="65.1" y="0" style="letter-spacing: 0em;">r</tspan><tspan x="68.8" y="0">t </tspan></text>
  <text transform="translate(95.6 54.1)" style="fill: #252228; font-family: EncodeSansExpanded-Regular, &apos;Encode Sans Expanded&apos;; font-size: 8px;"><tspan x="0" y="0"> </tspan></text>
  <text transform="translate(20.6 68.1)" style="fill: #252228; font-family: EncodeSansExpanded-Regular, &apos;Encode Sans Expanded&apos;; font-size: 8px;"><tspan x="0" y="0" style="letter-spacing: 0em;">un</tspan><tspan x="10.8" y="0" style="letter-spacing: 0em;">d</tspan><tspan x="16.2" y="0" style="letter-spacing: 0em;"> </tspan><tspan x="18.7" y="0" style="letter-spacing: 0em;">s</tspan><tspan x="23.1" y="0" style="letter-spacing: 0em;">c</tspan><tspan x="27.4" y="0" style="letter-spacing: 0em;">hn</tspan><tspan x="38.3" y="0" style="letter-spacing: 0em;">e</tspan><tspan x="43.2" y="0" style="letter-spacing: 0em;">ll</tspan><tspan x="47.8" y="0" style="letter-spacing: 0em;">.</tspan><tspan x="49.7" y="0" style="letter-spacing: 0em;">“</tspan></text>
</svg>