<?xml version="1.0" encoding="UTF-8"?>
<svg id="Ebene_1" data-name="Ebene 1" xmlns="http://www.w3.org/2000/svg" xmlns:xlink="http://www.w3.org/1999/xlink" version="1.1" viewBox="0 0 190.8 150.5">
  <defs>
    <linearGradient id="Neues_Verlaufsfeld_1" data-name="Neues Verlaufsfeld 1" x1="78.9" y1="134.6" x2="118.9" y2="-10.6" gradientUnits="userSpaceOnUse">
      <stop offset="0" stop-color="#fff"/>
      <stop offset=".4" stop-color="#fbfbfb"/>
      <stop offset=".8" stop-color="#f1f1f1"/>
      <stop offset="1" stop-color="#e6e6e6"/>
    </linearGradient>
    <linearGradient id="Unbenannter_Verlauf_13" data-name="Unbenannter Verlauf 13" x1="-326.8" y1="2195.9" x2="-325.8" y2="2195.9" gradientTransform="translate(473501.8 57755.2) rotate(-74.6) scale(214.8 -214.8)" gradientUnits="userSpaceOnUse">
      <stop offset="0" stop-color="#e6e6e6"/>
      <stop offset=".2" stop-color="#f1f1f1"/>
      <stop offset=".6" stop-color="#fbfbfb"/>
      <stop offset="1" stop-color="#fff"/>
    </linearGradient>
  </defs>
  <path d="M1,1v88.7c0,17.1,14.1,30.9,31.5,30.9h122.5l34.8,27.8-1.7-116.5c0-17.1-14.1-30.9-31.5-30.9H1Z" style="fill: url(#Neues_Verlaufsfeld_1);"/>
  <path d="M1,89.7h1c0,16.5,13.7,29.9,30.5,29.9h122.8l33.4,26.7-1.6-114.4h0c0-16.5-13.7-29.9-30.5-29.9H2v87.7H0V0h156.6c17.9,0,32.5,14.3,32.5,31.9h-1,1s1.7,118.6,1.7,118.6l-36.2-28.9H32.5C14.6,121.6,0,107.3,0,89.7h1Z" style="fill: url(#Unbenannter_Verlauf_13); stroke-width: 0px;"/>
  <text transform="translate(19.3 26.9)" style="fill: #252228; font-family: EncodeSansExpanded-Regular, &apos;Encode Sans Expanded&apos;; font-size: 8px;"><tspan x="0" y="0" style="letter-spacing: 0em;">„</tspan><tspan x="3.9" y="0" style="letter-spacing: 0em;">Heinlein </tspan><tspan x="40.7" y="0" style="letter-spacing: 0em;">v</tspan><tspan x="45.7" y="0" style="letter-spacing: 0em;">e</tspan><tspan x="50.7" y="0" style="letter-spacing: 0em;">r</tspan><tspan x="54.3" y="0" style="letter-spacing: 0em;">f</tspan><tspan x="57.8" y="0" style="letter-spacing: 0em;">ü</tspan><tspan x="63.2" y="0" style="letter-spacing: 0em;">g</tspan><tspan x="68.6" y="0" style="letter-spacing: 0em;">t</tspan><tspan x="72.3" y="0" xml:space="preserve" style="letter-spacing: 0em;"> ü</tspan><tspan x="80.1" y="0" style="letter-spacing: 0em;">b</tspan><tspan x="85.6" y="0" style="letter-spacing: 0em;">e</tspan><tspan x="90.5" y="0" style="letter-spacing: 0em;">r </tspan><tspan x="96.5" y="0" style="letter-spacing: 0em;">e</tspan><tspan x="101.4" y="0" style="letter-spacing: 0em;">i</tspan><tspan x="103.7" y="0" style="letter-spacing: 0em;">g</tspan><tspan x="109.2" y="0" style="letter-spacing: 0em;">en</tspan><tspan x="119.5" y="0">e </tspan></text>
  <text transform="translate(146.3 26.9)" style="fill: #252228; font-family: EncodeSansExpanded-Regular, &apos;Encode Sans Expanded&apos;; font-size: 8px;"><tspan x="0" y="0"> </tspan></text>
  <text transform="translate(19.3 40.9)" style="fill: #252228; font-family: EncodeSansExpanded-Regular, &apos;Encode Sans Expanded&apos;; font-size: 8px;"><tspan x="0" y="0" style="letter-spacing: 0em;">E</tspan><tspan x="5.6" y="0" style="letter-spacing: 0em;">n</tspan><tspan x="11" y="0" style="letter-spacing: 0em;">t</tspan><tspan x="14.4" y="0" style="letter-spacing: 0em;">wi</tspan><tspan x="24.6" y="0" style="letter-spacing: 0em;">c</tspan><tspan x="28.9" y="0" style="letter-spacing: 0em;">k</tspan><tspan x="33.8" y="0" style="letter-spacing: 0em;">le</tspan><tspan x="41" y="0">r</tspan><tspan x="44.3" y="0" style="letter-spacing: 0em;">,</tspan><tspan x="46.6" y="0" style="letter-spacing: 0em;"> </tspan><tspan x="49.1" y="0" style="letter-spacing: 0em;">K</tspan><tspan x="54.8" y="0" style="letter-spacing: 0em;">on</tspan><tspan x="65.5" y="0" style="letter-spacing: 0em;">s</tspan><tspan x="69.9" y="0" style="letter-spacing: 0em;">t</tspan><tspan x="73.5" y="0" style="letter-spacing: 0em;">ru</tspan><tspan x="82.5" y="0" style="letter-spacing: 0em;">k</tspan><tspan x="87.4" y="0" style="letter-spacing: 0em;">t</tspan><tspan x="91" y="0" style="letter-spacing: 0em;">e</tspan><tspan x="95.9" y="0" style="letter-spacing: 0em;">u</tspan><tspan x="101.3" y="0" style="letter-spacing: 0em;">r</tspan><tspan x="104.7" y="0" style="letter-spacing: 0em;">e un</tspan><tspan x="122.9" y="0" style="letter-spacing: 0em;">d</tspan><tspan x="128.3" y="0" style="letter-spacing: 0em;"> </tspan><tspan x="130.7" y="0" style="letter-spacing: 0em;">e</tspan><tspan x="135.7" y="0" style="letter-spacing: 0em;">in</tspan><tspan x="143.4" y="0" style="letter-spacing: 0em;">e</tspan><tspan x="148.3" y="0">n </tspan></text>
  <text transform="translate(175.7 40.9)" style="fill: #252228; font-family: EncodeSansExpanded-Regular, &apos;Encode Sans Expanded&apos;; font-size: 8px;"><tspan x="0" y="0"> </tspan></text>
  <text transform="translate(19.3 54.9)" style="fill: #252228; font-family: EncodeSansExpanded-Regular, &apos;Encode Sans Expanded&apos;; font-size: 8px;"><tspan x="0" y="0" style="letter-spacing: 0em;">e</tspan><tspan x="4.9" y="0" style="letter-spacing: 0em;">i</tspan><tspan x="7.2" y="0" style="letter-spacing: 0em;">g</tspan><tspan x="12.7" y="0" style="letter-spacing: 0em;">enen </tspan><tspan x="35.8" y="0" style="letter-spacing: 0em;">F</tspan><tspan x="40.9" y="0" style="letter-spacing: 0em;">ormen</tspan><tspan x="67.9" y="0" style="letter-spacing: 0em;">-</tspan><tspan x="72" y="0" xml:space="preserve" style="letter-spacing: 0em;"> un</tspan><tspan x="85.3" y="0" style="letter-spacing: 0em;">d</tspan><tspan x="90.7" y="0" style="letter-spacing: 0em;"> </tspan><tspan x="93.2" y="0" style="letter-spacing: 0em;">M</tspan><tspan x="101.2" y="0" style="letter-spacing: 0em;">a</tspan><tspan x="106.1" y="0" style="letter-spacing: 0em;">s</tspan><tspan x="110.5" y="0" style="letter-spacing: 0em;">c</tspan><tspan x="114.8" y="0" style="letter-spacing: 0em;">h</tspan><tspan x="120.3" y="0" style="letter-spacing: 0em;">i</tspan><tspan x="122.6" y="0" style="letter-spacing: 0em;">nen</tspan><tspan x="138.4" y="0" style="letter-spacing: 0em;">b</tspan><tspan x="143.8" y="0" style="letter-spacing: 0em;">au</tspan><tspan x="154.1" y="0">. </tspan></text>
  <text transform="translate(178.3 54.9)" style="fill: #252228; font-family: EncodeSansExpanded-Regular, &apos;Encode Sans Expanded&apos;; font-size: 8px;"><tspan x="0" y="0"> </tspan></text>
  <text transform="translate(19.3 68.9)" style="fill: #252228; font-family: EncodeSansExpanded-Regular, &apos;Encode Sans Expanded&apos;; font-size: 8px;"><tspan x="0" y="0" style="letter-spacing: 0em;">B</tspan><tspan x="5.8" y="0" style="letter-spacing: 0em;">e</tspan><tspan x="10.7" y="0" style="letter-spacing: 0em;">i </tspan><tspan x="15.5" y="0" style="letter-spacing: 0em;">d</tspan><tspan x="20.9" y="0" style="letter-spacing: 0em;">er Um</tspan><tspan x="46.2" y="0" style="letter-spacing: 0em;">s</tspan><tspan x="50.7" y="0" style="letter-spacing: 0em;">e</tspan><tspan x="55.6" y="0" style="letter-spacing: 0em;">tz</tspan><tspan x="63.7" y="0" style="letter-spacing: 0em;">un</tspan><tspan x="74.5" y="0" style="letter-spacing: 0em;">g</tspan><tspan x="79.9" y="0" style="letter-spacing: 0em;"> </tspan><tspan x="82.4" y="0" style="letter-spacing: 0em;">v</tspan><tspan x="87.4" y="0" style="letter-spacing: 0em;">o</tspan><tspan x="92.7" y="0" style="letter-spacing: 0em;">n neue</tspan><tspan x="121.3" y="0">n </tspan></text>
  <text transform="translate(148.6 68.9)" style="fill: #252228; font-family: EncodeSansExpanded-Regular, &apos;Encode Sans Expanded&apos;; font-size: 8px;"><tspan x="0" y="0"> </tspan></text>
  <text transform="translate(19.3 82.9)" style="fill: #252228; font-family: EncodeSansExpanded-Regular, &apos;Encode Sans Expanded&apos;; font-size: 8px;"><tspan x="0" y="0" style="letter-spacing: 0em;">P</tspan><tspan x="5.7" y="0" style="letter-spacing: 0em;">r</tspan><tspan x="9.3" y="0" style="letter-spacing: 0em;">i</tspan><tspan x="11.6" y="0" style="letter-spacing: 0em;">mär</tspan><tspan x="27.8" y="0" style="letter-spacing: 0em;">p</tspan><tspan x="33.2" y="0" style="letter-spacing: 0em;">a</tspan><tspan x="38.1" y="0" style="letter-spacing: 0em;">c</tspan><tspan x="42.5" y="0" style="letter-spacing: 0em;">km</tspan><tspan x="55.2" y="0" style="letter-spacing: 0em;">i</tspan><tspan x="57.5" y="0" style="letter-spacing: 0em;">t</tspan><tspan x="60.9" y="0" style="letter-spacing: 0em;">t</tspan><tspan x="64.5" y="0" style="letter-spacing: 0em;">e</tspan><tspan x="69.4" y="0" style="letter-spacing: 0em;">l</tspan><tspan x="71.7" y="0" style="letter-spacing: 0em;">n </tspan><tspan x="79.6" y="0" style="letter-spacing: 0em;">s</tspan><tspan x="84" y="0" style="letter-spacing: 0em;">in</tspan><tspan x="91.8" y="0" style="letter-spacing: 0em;">d</tspan><tspan x="97.2" y="0" style="letter-spacing: 0em;"> </tspan><tspan x="99.6" y="0" style="letter-spacing: 0em;">s</tspan><tspan x="104.1" y="0" style="letter-spacing: 0em;">ie </tspan><tspan x="113.8" y="0" style="letter-spacing: 0em;">d</tspan><tspan x="119.2" y="0" style="letter-spacing: 0em;">ah</tspan><tspan x="129.5" y="0" style="letter-spacing: 0em;">e</tspan><tspan x="134.4" y="0">r </tspan></text>
  <text transform="translate(159.8 82.9)" style="fill: #252228; font-family: EncodeSansExpanded-Regular, &apos;Encode Sans Expanded&apos;; font-size: 8px;"><tspan x="0" y="0"> </tspan></text>
  <text transform="translate(19.3 96.9)" style="fill: #252228; font-family: EncodeSansExpanded-Regular, &apos;Encode Sans Expanded&apos;; font-size: 8px;"><tspan x="0" y="0" style="letter-spacing: 0em;">un</tspan><tspan x="10.8" y="0" style="letter-spacing: 0em;">s</tspan><tspan x="15.2" y="0" style="letter-spacing: 0em;">c</tspan><tspan x="19.5" y="0" style="letter-spacing: 0em;">h</tspan><tspan x="25" y="0" style="letter-spacing: 0em;">l</tspan><tspan x="27.3" y="0" style="letter-spacing: 0em;">agba</tspan><tspan x="47.9" y="0">r</tspan><tspan x="51.2" y="0" style="letter-spacing: 0em;">.</tspan><tspan x="53.1" y="0">“</tspan></text>
</svg>