<?xml version="1.0" encoding="UTF-8"?>
<svg id="Ebene_1" data-name="Ebene 1" xmlns="http://www.w3.org/2000/svg" version="1.1" viewBox="0 0 600 394">
  <defs>
    <style>
      .cls-1, .cls-2, .cls-3, .cls-4 {
        stroke-width: 2.1px;
      }

      .cls-1, .cls-2, .cls-3, .cls-4, .cls-5 {
        fill: none;
        stroke: #fff;
      }

      .cls-1, .cls-3, .cls-4 {
        stroke-linecap: round;
      }

      .cls-3 {
        stroke-miterlimit: 10;
      }

      .cls-4 {
        stroke-linejoin: round;
      }

      .cls-5 {
        stroke-width: 1.3px;
      }

      .cls-6 {
        fill: #fff;
      }

      .cls-6, .cls-7 {
        stroke-width: 0px;
      }

      .cls-7 {
        fill: #001e4b;
      }
    </style>
  </defs>
  <g>
    <path class="cls-7" d="M17,281.5h7.2v2.1h-5.2v2.1h4.7v2.1h-4.7v2.1h5.2v2.1h-7.5v-10.1l.3-.3Z"/>
    <path class="cls-7" d="M27.1,281.5h4.4c1.3,0,2.1.3,2.8,1,.5.5.8,1.3.8,2.3h0c0,1.6-.8,2.6-2.1,3.1l2.3,3.6h-2.6l-2.1-3.1h-1.6v3.1h-2.1s0-10.1,0-10.1ZM31.5,286.5c1,0,1.6-.5,1.6-1.3h0c0-1-.5-1.6-1.6-1.6h-2.1v2.9h2.1Z"/>
    <path class="cls-7" d="M37.4,290.1l1.3-1.6c.8.8,1.8,1.3,2.8,1.3s1.3-.3,1.3-1h0c0-.5-.3-.8-2.1-1.3-2.1-.5-3.1-1-3.1-3.1h0c0-1.8,1.3-3.1,3.4-3.1s2.6.5,3.6,1.3l-1,1.6c-.8-.5-1.8-1-2.6-1s-1.3.3-1.3.8h0c0,.8.5.8,2.1,1.3,2.1.5,3.1,1.3,3.1,3.1h0c0,2.1-1.6,3.1-3.6,3.1s-2.8-.5-4.1-1.6l.3.3Z"/>
    <path class="cls-7" d="M49.8,283.6h-2.8v-2.1h8v2.1h-2.8v8h-2.1v-8h-.3Z"/>
    <path class="cls-7" d="M56.5,286.7h0c0-2.9,2.1-5.2,5.2-5.2s5.2,2.3,5.2,5.2h0c0,2.9-2.1,5.2-5.2,5.2s-5.2-2.3-5.2-5.2ZM64.6,286.7h0c0-1.8-1.3-3.1-2.8-3.1s-2.8,1.3-2.8,3.1h0c0,1.8,1.3,3.1,2.8,3.1s2.8-1.3,2.8-3.1ZM59.1,279h2.1v1.8h-2.1v-1.8ZM62.2,279h2.1v1.8h-2.1v-1.8Z"/>
    <path class="cls-7" d="M69.5,281.5h7.5v2.1h-5.2v2.1h4.7v2.1h-4.7v3.9h-2.1v-10.1h-.3Z"/>
    <path class="cls-7" d="M79.6,281.5h7.5v2.1h-5.2v2.1h4.7v2.1h-4.7v3.9h-2.1v-10.1h-.3Z"/>
    <path class="cls-7" d="M89.4,281.5h2.1l4.7,6.2v-6.2h2.1v10.1h-1.8l-4.7-6.5v6.5h-2.1v-10.1h-.3Z"/>
    <path class="cls-7" d="M101,287.3v-5.7h2.1v5.7c0,1.6.8,2.6,2.1,2.6s2.1-.8,2.1-2.3v-5.7h2.1v5.7c0,3.1-1.6,4.4-4.1,4.4s-4.1-1.6-4.1-4.4v-.3Z"/>
    <path class="cls-7" d="M112.6,281.5h2.1l4.7,6.2v-6.2h2.1v10.1h-1.8l-4.7-6.5v6.5h-2.1v-10.1h-.3Z"/>
    <path class="cls-7" d="M124,286.7h0c0-2.9,2.1-5.2,5.2-5.2s2.8.5,3.9,1.3l-1.3,1.6c-.8-.5-1.3-1-2.6-1s-2.8,1.3-2.8,3.1h0c0,1.8,1.3,3.1,2.8,3.1s1.6,0,2.1-.5v-1.6h-2.1v-1.8h4.1v4.4c-1,.8-2.3,1.6-4.1,1.6-3.1,0-5.2-2.1-5.2-5.2v.3Z"/>
    <path class="cls-7" d="M135.4,290.1l1.3-1.6c.8.8,1.8,1.3,2.8,1.3s1.3-.3,1.3-1h0c0-.5-.3-.8-2.1-1.3-2.1-.5-3.1-1-3.1-3.1h0c0-1.8,1.3-3.1,3.4-3.1s2.6.5,3.6,1.3l-1,1.6c-.8-.5-1.8-1-2.6-1s-1.3.3-1.3.8h0c0,.8.5.8,2.1,1.3,2.1.5,3.1,1.3,3.1,3.1h0c0,2.1-1.6,3.1-3.6,3.1s-2.8-.5-4.1-1.6l.3.3Z"/>
    <path class="cls-7" d="M145.7,281.5h2.1v4.4l3.9-4.4h2.6l-3.9,4.1,4.1,5.7h-2.6l-3.1-4.1-1,1.3v3.1h-2.1s0-10.1,0-10.1Z"/>
    <path class="cls-7" d="M156.9,281.5h7.2v2.1h-5.2v2.1h4.7v2.1h-4.7v2.1h5.2v2.1h-7.5v-10.1l.3-.3Z"/>
    <path class="cls-7" d="M166.9,281.5h2.1l4.7,6.2v-6.2h2.1v10.1h-1.8l-4.7-6.5v6.5h-2.1v-10.1h-.3Z"/>
    <path class="cls-7" d="M178.6,281.5h2.1l4.7,6.2v-6.2h2.1v10.1h-1.8l-4.7-6.5v6.5h-2.1v-10.1h-.3Z"/>
    <path class="cls-7" d="M190.2,287.3v-5.7h2.1v5.7c0,1.6.8,2.6,2.1,2.6s2.1-.8,2.1-2.3v-5.7h2.1v5.7c0,3.1-1.6,4.4-4.1,4.4s-4.1-1.6-4.1-4.4v-.3Z"/>
    <path class="cls-7" d="M201.8,281.5h2.1l4.7,6.2v-6.2h2.1v10.1h-1.8l-4.7-6.5v6.5h-2.1v-10.1h-.3Z"/>
    <path class="cls-7" d="M213.2,286.7h0c0-2.9,2.1-5.2,5.2-5.2s2.8.5,3.9,1.3l-1.3,1.6c-.8-.5-1.3-1-2.6-1s-2.8,1.3-2.8,3.1h0c0,1.8,1.3,3.1,2.8,3.1s1.6,0,2.1-.5v-1.6h-2.1v-1.8h4.1v4.4c-1,.8-2.3,1.6-4.1,1.6-3.1,0-5.2-2.1-5.2-5.2v.3Z"/>
  </g>
  <g>
    <path class="cls-7" d="M17,326.9h2.1v4.4l3.9-4.4h2.6l-3.9,4.1,4.1,5.7h-2.6l-3.1-4.1-1,1.3v3.1h-2.1s0-10.1,0-10.1Z"/>
    <path class="cls-7" d="M28.1,326.9h7.2v2.1h-5.2v2.1h4.7v2.1h-4.7v2.1h5.2v2.1h-7.5v-10.1l.3-.3Z"/>
    <path class="cls-7" d="M38.2,326.9h2.1v10.1h-2.1v-10.1Z"/>
    <path class="cls-7" d="M43.6,326.9h2.1l4.7,6.2v-6.2h2.1v10.1h-1.8l-4.7-6.5v6.5h-2.1v-10.1h-.3Z"/>
    <path class="cls-7" d="M63.8,326.7h2.1l4.1,10.1h-2.3l-.8-2.3h-4.1l-.8,2.3h-2.1l4.1-10.1h-.3ZM66.1,332.6l-1.3-3.1-1.3,3.1h2.6Z"/>
    <path class="cls-7" d="M71.8,332.6v-5.7h2.1v5.7c0,1.6.8,2.6,2.1,2.6s2.1-.8,2.1-2.3v-5.7h2.1v5.7c0,3.1-1.6,4.4-4.1,4.4s-4.1-1.6-4.1-4.4v-.3Z"/>
    <path class="cls-7" d="M83.2,326.9h7.5v2.1h-5.2v2.1h4.7v2.1h-4.7v3.9h-2.1v-10.1h-.3Z"/>
    <path class="cls-7" d="M92.5,335.5l1.3-1.6c.8.8,1.8,1.3,2.8,1.3s1.3-.3,1.3-1h0c0-.5-.3-.8-2.1-1.3-2.1-.5-3.1-1-3.1-3.1h0c0-1.8,1.3-3.1,3.4-3.1s2.6.5,3.6,1.3l-1,1.6c-.8-.5-1.8-1-2.6-1s-1.3.3-1.3.8h0c0,.8.5.8,2.1,1.3,2.1.5,3.1,1.3,3.1,3.1h0c0,2.1-1.6,3.1-3.6,3.1s-2.8-.5-4.1-1.6l.3.3Z"/>
    <path class="cls-7" d="M102.3,331.9h0c0-2.9,2.1-5.2,5.2-5.2s2.8.5,3.9,1.6l-1.3,1.6c-.8-.8-1.6-1-2.6-1-1.6,0-2.8,1.3-2.8,3.1h0c0,1.8,1,3.1,2.8,3.1s1.8-.5,2.6-1.3l1.3,1.3c-1,1-2.1,1.8-3.9,1.8-2.8,0-4.9-2.3-4.9-5.2l-.3.3Z"/>
    <path class="cls-7" d="M113.9,326.9h2.1v3.9h3.9v-3.9h2.1v10.1h-2.1v-3.9h-3.9v3.9h-2.1v-10.1Z"/>
    <path class="cls-7" d="M125.3,326.9h4.4c1.3,0,2.1.3,2.8,1,.5.5.8,1.3.8,2.3h0c0,1.6-.8,2.6-2.1,3.1l2.3,3.6h-2.6l-2.1-3.1h-1.6v3.1h-2.1s0-10.1,0-10.1ZM129.7,331.6c1,0,1.6-.5,1.6-1.3h0c0-1-.5-1.6-1.6-1.6h-2.1v2.9h2.1Z"/>
    <path class="cls-7" d="M139.5,326.7h2.1l4.1,10.1h-2.3l-.8-2.3h-4.1l-.8,2.3h-2.1l4.1-10.1h-.3ZM141.9,332.6l-1.3-3.1-1.3,3.1h2.6Z"/>
    <path class="cls-7" d="M147.5,332.6v-5.7h2.1v5.7c0,1.6.8,2.6,2.1,2.6s2.1-.8,2.1-2.3v-5.7h2.1v5.7c0,3.1-1.6,4.4-4.1,4.4s-4.1-1.6-4.1-4.4v-.3Z"/>
    <path class="cls-7" d="M158.9,326.9h4.4c1,0,2.1.3,2.6.8.5.5.8,1,.8,1.8h0c0,1-.5,1.8-1.3,2.1,1,.5,1.8,1,1.8,2.3h0c0,1.8-1.6,2.9-3.6,2.9h-4.7v-10.1.3ZM164.6,329.8c0-.8-.5-1-1.3-1h-2.1v2.1h2.1c1,0,1.6-.3,1.6-1h-.3ZM163.6,332.6h-2.6v2.1h2.6c1,0,1.6-.3,1.6-1h0c0-.8-.5-1-1.6-1Z"/>
    <path class="cls-7" d="M169.8,326.9h7.2v2.1h-5.2v2.1h4.7v2.1h-4.7v2.1h5.2v2.1h-7.5v-10.1l.3-.3Z"/>
    <path class="cls-7" d="M179.9,326.9h2.1l4.7,6.2v-6.2h2.1v10.1h-1.8l-4.7-6.5v6.5h-2.1v-10.1h-.3Z"/>
    <path class="cls-7" d="M196.7,326.9h2.1l4.7,6.2v-6.2h2.1v10.1h-1.8l-4.7-6.5v6.5h-2.1v-10.1h-.3Z"/>
    <path class="cls-7" d="M208,331.9h0c0-2.9,2.1-5.2,5.2-5.2s5.2,2.3,5.2,5.2h0c0,2.9-2.1,5.2-5.2,5.2s-5.2-2.3-5.2-5.2ZM216.3,331.9h0c0-1.8-1.3-3.1-2.8-3.1s-2.8,1.3-2.8,3.1h0c0,1.8,1.3,3.1,2.8,3.1s2.8-1.3,2.8-3.1ZM210.6,324.1h2.1v1.8h-2.1v-1.8ZM213.7,324.1h2.1v1.8h-2.1v-1.8Z"/>
    <path class="cls-7" d="M223,329h-2.8v-2.1h8v2.1h-2.8v8h-2.1v-8h-.3Z"/>
    <path class="cls-7" d="M230.8,326.9h2.1v10.1h-2.1v-10.1Z"/>
    <path class="cls-7" d="M235.7,331.9h0c0-2.9,2.1-5.2,5.2-5.2s2.8.5,3.9,1.3l-1.3,1.6c-.8-.5-1.3-1-2.6-1s-2.8,1.3-2.8,3.1h0c0,1.8,1.3,3.1,2.8,3.1s1.6,0,2.1-.5v-1.6h-2.1v-1.8h4.1v4.4c-1,.8-2.3,1.6-4.1,1.6-3.1,0-5.2-2.1-5.2-5.2v.3Z"/>
  </g>
  <g>
    <path class="cls-7" d="M17.3,372.1h2.1v10.1h-2.1v-10.1Z"/>
    <path class="cls-7" d="M22.4,372.1h2.1l4.7,6.2v-6.2h2.1v10.1h-1.8l-4.7-6.5v6.5h-2.1v-10.1h-.3Z"/>
    <path class="cls-7" d="M36.6,374.1h-2.8v-2.1h8v2.1h-2.8v8h-2.1v-8h-.3Z"/>
    <path class="cls-7" d="M44.1,372.1h7.2v2.1h-5.2v2.1h4.7v2.1h-4.7v2.1h5.2v2.1h-7.5v-10.1l.3-.3Z"/>
    <path class="cls-7" d="M54,377h0c0-2.9,2.1-5.2,5.2-5.2s2.8.5,3.9,1.3l-1.3,1.6c-.8-.5-1.3-1-2.6-1s-2.8,1.3-2.8,3.1h0c0,1.8,1.3,3.1,2.8,3.1s1.6,0,2.1-.5v-1.6h-2.1v-1.8h4.1v4.4c-1,.8-2.3,1.6-4.1,1.6-3.1,0-5.2-2.1-5.2-5.2v.3Z"/>
    <path class="cls-7" d="M66.1,372.1h4.4c1.3,0,2.1.3,2.8,1,.5.5.8,1.3.8,2.3h0c0,1.6-.8,2.6-2.1,3.1l2.3,3.6h-2.6l-2.1-3.1h-1.6v3.1h-2.1v-10.1h0ZM70.3,377c1,0,1.6-.5,1.6-1.3h0c0-1-.5-1.6-1.6-1.6h-2.1v2.9h2.1Z"/>
    <path class="cls-7" d="M77,372.1h2.1v10.1h-2.1v-10.1Z"/>
    <path class="cls-7" d="M82.4,372.1h7.2v2.1h-5.2v2.1h4.7v2.1h-4.7v2.1h5.2v2.1h-7.5v-10.1l.3-.3Z"/>
    <path class="cls-7" d="M92.5,372.1h4.4c1.3,0,2.1.3,2.8,1,.5.5.8,1.3.8,2.3h0c0,1.6-.8,2.6-2.1,3.1l2.3,3.6h-2.6l-2.1-3.1h-1.6v3.1h-2.1v-10.1h0ZM96.9,377c1,0,1.6-.5,1.6-1.3h0c0-1-.5-1.6-1.6-1.6h-2.1v2.9h2.1Z"/>
    <path class="cls-7" d="M105.7,374.1h-2.8v-2.1h8v2.1h-2.8v8h-2.1v-8h-.3Z"/>
    <path class="cls-7" d="M113.2,372.1h7.2v2.1h-5.2v2.1h4.7v2.1h-4.7v2.1h5.2v2.1h-7.5v-10.1l.3-.3Z"/>
    <path class="cls-7" d="M130.5,374.1h-2.8v-2.1h8v2.1h-2.8v8h-2.1v-8h-.3Z"/>
    <path class="cls-7" d="M138.2,372.1h4.4c1.3,0,2.1.3,2.8,1,.5.5.8,1.3.8,2.3h0c0,1.6-.8,2.6-2.1,3.1l2.3,3.6h-2.6l-2.1-3.1h-1.6v3.1h-2.1v-10.1h0ZM142.4,377c1,0,1.6-.5,1.6-1.3h0c0-1-.5-1.6-1.6-1.6h-2.1v2.9h2.1Z"/>
    <path class="cls-7" d="M148.6,377h0c0-2.9,2.1-5.2,5.2-5.2s5.2,2.3,5.2,5.2h0c0,2.9-2.1,5.2-5.2,5.2s-5.2-2.3-5.2-5.2ZM156.6,377h0c0-1.8-1.3-3.1-2.8-3.1s-2.8,1.3-2.8,3.1h0c0,1.8,1.3,3.1,2.8,3.1s2.8-1.3,2.8-3.1Z"/>
    <path class="cls-7" d="M161.5,372.1h3.9c2.3,0,3.6,1.3,3.6,3.4h0c0,2.3-1.8,3.6-3.9,3.6h-1.6v3.1h-2.1v-10.1ZM165.4,377c1,0,1.8-.8,1.8-1.6h0c0-1-.8-1.6-1.8-1.6h-1.6v3.1h1.8-.3Z"/>
    <path class="cls-7" d="M171.8,372.1h7.5v2.1h-5.2v2.1h4.7v2.1h-4.7v3.9h-2.1v-10.1h-.3Z"/>
    <path class="cls-7" d="M181.7,372.1h7.5v2.1h-5.2v2.1h4.7v2.1h-4.7v3.9h-2.1v-10.1h-.3Z"/>
    <path class="cls-7" d="M191.5,377.8v-5.7h2.1v5.7c0,1.6.8,2.6,2.1,2.6s2.1-.8,2.1-2.3v-5.7h2.1v5.7c0,3.1-1.6,4.4-4.1,4.4s-4.1-1.6-4.1-4.4v-.3Z"/>
    <path class="cls-7" d="M202.9,372.1h2.1l4.7,6.2v-6.2h2.1v10.1h-1.8l-4.7-6.5v6.5h-2.1v-10.1h-.3Z"/>
    <path class="cls-7" d="M214.8,372.1h2.1v4.4l3.9-4.4h2.6l-3.9,4.1,4.1,5.7h-2.6l-3.1-4.1-1,1.3v3.1h-2.1v-10.1Z"/>
    <path class="cls-7" d="M227.7,374.1h-2.8v-2.1h8v2.1h-2.8v8h-2.1v-8h-.3Z"/>
    <path class="cls-7" d="M235.4,372.1h2.1v10.1h-2.1v-10.1Z"/>
    <path class="cls-7" d="M240.3,377h0c0-2.9,2.1-5.2,5.2-5.2s5.2,2.3,5.2,5.2h0c0,2.9-2.1,5.2-5.2,5.2s-5.2-2.3-5.2-5.2ZM248.6,377h0c0-1.8-1.3-3.1-2.8-3.1s-2.8,1.3-2.8,3.1h0c0,1.8,1.3,3.1,2.8,3.1s2.8-1.3,2.8-3.1Z"/>
    <path class="cls-7" d="M253.5,372.1h2.1l4.7,6.2v-6.2h2.1v10.1h-1.8l-4.7-6.5v6.5h-2.1v-10.1h-.3Z"/>
  </g>
  <g>
    <path class="cls-2" d="M3,272.2v14.3c0,8,6.5,14.5,14.2,14.5h261.4v-14.5c0-8-6.5-14.3-14.5-14.3H3Z"/>
    <path class="cls-2" d="M3,316.6v14.3c0,8,6.5,14.5,14.2,14.5h261.4v-14.5c0-8-6.5-14.3-14.5-14.3H3Z"/>
    <path class="cls-2" d="M3,362.5v14.3c0,8,6.5,14.5,14.2,14.5h261.4v-14.5c0-8-6.5-14.3-14.5-14.3H3Z"/>
  </g>
  <polyline class="cls-2" points="279.9 286.7 441.5 286.7 441.5 134"/>
  <line class="cls-4" x1="279.9" y1="331.9" x2="379.9" y2="332.1"/>
  <polyline class="cls-4" points="279.9 377 593.7 377.5 593.7 78.7"/>
  <g>
    <path class="cls-6" d="M441.5,137.1c2.1,0,3.6-1.6,3.6-3.6s-1.6-3.6-3.6-3.6-3.6,1.6-3.6,3.6,1.6,3.6,3.6,3.6"/>
    <ellipse class="cls-5" cx="441.5" cy="133.2" rx="3.6" ry="3.6"/>
    <path class="cls-6" d="M379.9,336.3c2.1,0,3.6-1.6,3.6-3.6s-1.6-3.6-3.6-3.6-3.6,1.6-3.6,3.6,1.6,3.6,3.6,3.6"/>
    <ellipse class="cls-5" cx="379.9" cy="332.6" rx="3.6" ry="3.6"/>
    <path class="cls-6" d="M593.7,79.5c2.1,0,3.6-1.6,3.6-3.6s-1.6-3.6-3.6-3.6-3.6,1.6-3.6,3.6,1.6,3.6,3.6,3.6"/>
    <ellipse class="cls-5" cx="593.7" cy="75.9" rx="3.6" ry="3.6"/>
    <ellipse class="cls-3" cx="125.6" cy="119.5" rx="116.3" ry="116.7"/>
  </g>
  <path class="cls-1" d="M175.5,123.3v44.6M164.9,126.5v43.8M153.5,128.3v43.3M140.3,128.3v43.3M116.5,125.2v42.3M128.7,126.7v43.6"/>
  <path class="cls-2" d="M153,103.4v6M139.5,103.4v6M146.5,105.2c3.9,0,6.7-.8,6.7-1.8s-2.8-1.8-6.7-1.8-7,.8-7,1.8,3.1,1.8,7,1.8ZM145,184.8c22.2,0,40.6-7.3,40.3-13.5v15.8c0,6.2-18.1,13.5-40.3,13.5h0c-22.2,0-40.6-7.3-40.3-13.5v-15.8c0,6.2,18.1,13.5,40.3,13.5M124.5,98.2c4.4-7.8,7-18.9,3.4-32.9-4.1-16.3-19.1-29.6-36.4-25.2-1,.3-7.5-4.7-7.5-4.7l-8.5,4.1v8.6c-10.9,9.1-12.9,22.3-8.5,37.3,5.9,19.5,30,27.5,46.3,21.3M89.1,98.7s3.6,5.2,12.4,8.6c4.9,1.8,13.7-.8,13.7-.8M107.2,104.4c10.9-3.4,16.8-20.2,11.6-36.6-4.9-16.1-20.2-25.4-29.7-22-10.6,3.6-15.5,19.2-10.6,35.3,4.9,16.1,17.6,26.7,28.4,23.3h.3ZM171.3,104.4s11.1,2.1,13.4,8.8c.5,1.3.5,7.5.5,9.6v42.3c0,6.2-18.1,13.5-40.3,13.5M120.7,104.4s-15,4.1-16,9.6v51.4c0,6.2,18.1,13.5,40.3,13.5M146,109.6c14.5,0,25.6-3.4,25.6-7.3s-11.1-7.3-25.6-7.3-26.4,3.4-26.4,7.3,11.6,7.3,26.4,7.3ZM104.6,114c0,5.4,22,9.3,41.4,9.3s38-5.2,38-10.6M121.4,104.4v6.7c0,2.1,10.9,4.7,23.8,4.7s23.5-2.6,23.5-4.7v-5.4M87.6,95.6l16-4.9M78.8,59.5l15.5-5.2M88.6,81.8l12.1-2.9M86.8,67.8l10.1-2.6M101,79c2.6-.5,3.9-4.1,3.1-8s-3.6-6.7-6.2-6c-.5,0-.8.3-1,.5-1.8,1.3-2.6,4.4-1.8,7.5.8,3.9,3.6,6.7,6.2,6h-.3ZM103.1,90.7c7-1.6,10.6-10.9,8.5-21-2.3-10.1-9.6-17.1-16.5-15.6s-10.6,10.9-8.5,21c2.3,10.1,9.6,17.1,16.5,15.6Z"/>
</svg>