<?xml version="1.0" encoding="UTF-8"?>
<svg id="Ebene_1" data-name="Ebene 1" xmlns="http://www.w3.org/2000/svg" version="1.1" viewBox="0 0 40.7 40.7">
  <g>
    <path d="M12.1,24.9h0c-.7-1.5-.2-3.3,1.4-4,1-.5,1.7-.4,2.4-.2l-.3,1c-.6-.2-1.2-.2-1.8,0-1,.5-1.3,1.7-.9,2.7h0c.5,1,1.6,1.5,2.6,1.1.6-.3.9-.8,1.2-1.4l.9.3c-.3.8-.7,1.5-1.7,1.9-1.5.7-3.2,0-4-1.4Z" style="fill: #adb7c9; stroke-width: 0px;"/>
    <path d="M16.6,19.5l2.4-1.1c.6-.3,1.2-.3,1.6-.2.3.1.6.3.8.7h0c.3.6.1,1.2-.2,1.5.7,0,1.3,0,1.7.8h0c.4,1,0,1.8-1.3,2.4l-2.4,1.2-2.5-5.2ZM19.8,20.7c.6-.3.9-.7.7-1.2h0c-.2-.4-.6-.5-1.2-.2l-1.3.6.7,1.4,1.3-.6ZM21.1,22.8c.6-.3.9-.7.7-1.2h0c-.2-.5-.7-.6-1.4-.2l-1.5.7.7,1.4,1.5-.7Z" style="fill: #adb7c9; stroke-width: 0px;"/>
    <path d="M22,16.9l2-.9c1.7-.8,3.3-.2,4,1.3h0c.7,1.5.1,3.2-1.5,4l-2,.9-2.5-5.2ZM26.1,20.4c1.1-.5,1.5-1.6,1-2.6h0c-.5-1-1.6-1.5-2.7-.9l-1,.5,1.7,3.6,1-.5Z" style="fill: #adb7c9; stroke-width: 0px;"/>
  </g>
  <path d="M25.6,31.3c6-2.9,8.6-10.1,5.7-16.1-2.9-6-10.1-8.6-16.1-5.7-6,2.9-8.6,10.1-5.7,16.1,2.9,6,10.1,8.6,16.1,5.7Z" style="fill: none; stroke: #adb7c9; stroke-width: .8px;"/>
  <path d="M14.2,33.2h.2c0,.1,0,3.9,0,3.9h-.3c0-.1,0-1.2,0-1.2l-1.9-.9-.8.7h-.2c0-.1,3-2.5,3-2.5ZM14.2,35.7v-2.2s-1.7,1.4-1.7,1.4l1.7.8Z" style="fill: #adb7c9; stroke-width: 0px;"/>
  <path d="M16.6,34.2l1.3.2c.8.1,1.2.6,1.1,1.3h0c-.1.7-.8,1-1.6.8l-.9-.2-.2,1.2h-.3s.6-3.4.6-3.4ZM17.5,36.3c.7.1,1.2-.1,1.2-.6h0c0-.5-.3-.9-.9-1l-1-.2-.3,1.6,1,.2Z" style="fill: #adb7c9; stroke-width: 0px;"/>
  <path d="M19.9,34.7h1.3c.8-.1,1.3.3,1.4.9h0c0,.7-.6,1.1-1.3,1.2h-1s0,1.3,0,1.3h-.3s-.2-3.4-.2-3.4ZM21.3,36.5c.7,0,1.1-.4,1.1-.9h0c0-.5-.5-.8-1.1-.8h-1s0,1.7,0,1.7h1Z" style="fill: #adb7c9; stroke-width: 0px;"/>
  <path d="M23.2,34.4l1.4-.4c.4-.1.8-.1,1.1,0,.2.1.4.3.4.5h0c.2.6-.2,1-.7,1.2l1.5,1h-.3c0,0-1.5-.9-1.5-.9l-1.1.3.4,1.3h-.3c0,0-1-3.2-1-3.2ZM25.2,35.7c.6-.2.9-.6.8-1h0c-.1-.4-.6-.6-1.2-.4l-1.2.4.4,1.5,1.2-.3Z" style="fill: #adb7c9; stroke-width: 0px;"/>
  <path d="M27.4,34.8h0c-.5-.8-.3-1.9.6-2.5.9-.6,2-.3,2.4.5h0c.5.8.3,1.9-.6,2.5-.9.6-2,.3-2.4-.5ZM30.2,33h0c-.4-.7-1.4-1-2.1-.5-.7.5-.9,1.4-.5,2.1h0c.4.7,1.4,1,2.1.5s.9-1.4.5-2.1Z" style="fill: #adb7c9; stroke-width: 0px;"/>
  <path d="M29.7,31.2l.2-.2,3.2,1.1-1.4-3.1.2-.2,1.5,3.5-.2.2-3.6-1.1Z" style="fill: #adb7c9; stroke-width: 0px;"/>
  <path d="M32.4,28.2l1.2-2.2h.2c0,.1-1.1,2.1-1.1,2.1l1.2.6,1-1.8h.2c0,.1-1,1.9-1,1.9l1.2.6,1.1-2h.2c0,.1-1.2,2.4-1.2,2.4l-3-1.6Z" style="fill: #adb7c9; stroke-width: 0px;"/>
  <path d="M33.9,25.2l.3-1.2c.3-1.1,1.2-1.7,2.1-1.4h0c.9.2,1.5,1.2,1.2,2.2l-.3,1.2-3.3-.8ZM37.2,24.8c.2-1-.2-1.7-1-1.9h0c-.8-.2-1.6.3-1.8,1.2l-.2.9,2.8.7.2-.9Z" style="fill: #adb7c9; stroke-width: 0px;"/>
  <path d="M28.9,38.4c10-4.7,14.2-16.6,9.4-26.6C33.7,1.8,21.7-2.4,11.8,2.3,1.8,7.1-2.4,19,2.3,28.9c4.7,10,16.7,14.2,26.6,9.4Z" style="fill: none; stroke: #adb7c9; stroke-width: .8px;"/>
</svg>