<?xml version="1.0" encoding="utf-8"?>
<!-- Generator: Adobe Illustrator 25.2.0, SVG Export Plug-In . SVG Version: 6.00 Build 0)  -->
<svg version="1.1" id="Ebene_1" xmlns="http://www.w3.org/2000/svg" xmlns:xlink="http://www.w3.org/1999/xlink" x="0px" y="0px"
	 width="484px" height="52px" viewBox="0 0 484 52" style="enable-background:new 0 0 484 52;" xml:space="preserve">
<style type="text/css">
	.st0{enable-background:new    ;}
	.st1{fill:#8E9BAF;}
	.st2{fill:#13234B;}
	.st3{fill:none;stroke:#A1ABBC;stroke-width:1.4317;}
	.st4{fill:none;stroke:#9FAABA;stroke-width:1.4317;}
	.st5{fill:none;stroke:#2E3860;stroke-width:1.4317;}
	.st6{fill:none;stroke:#9CA8B9;stroke-width:1.4317;}
	.st7{fill:none;stroke:#9BA6B7;stroke-width:1.4317;}
	.st8{fill:none;stroke:#293357;stroke-width:1.4317;}
	.st9{fill:none;stroke:#9EA5BC;stroke-width:1.4317;}
</style>
<g class="st0">
	<path class="st1" d="M10.4,49C9.4,47.9,9,46.1,9,43.8c0-2.4,0.5-4.1,1.4-5.2c0.9-1.1,2.2-1.7,3.9-1.7s2.9,0.6,3.9,1.7
		c0.9,1.1,1.4,2.9,1.4,5.2c0,2.4-0.5,4.1-1.4,5.2c-0.9,1.1-2.2,1.7-3.8,1.7S11.3,50.1,10.4,49z M16.2,48.8c0.5-0.3,1-0.9,1.2-1.7
		s0.4-1.9,0.4-3.3c0-1.4-0.1-2.5-0.4-3.3c-0.3-0.8-0.7-1.4-1.2-1.8c-0.5-0.3-1.2-0.5-2-0.5s-1.4,0.2-2,0.5c-0.5,0.3-1,0.9-1.2,1.7
		s-0.4,1.9-0.4,3.3c0,1.4,0.1,2.5,0.4,3.3s0.7,1.4,1.2,1.8c0.5,0.3,1.2,0.5,2,0.5S15.6,49.2,16.2,48.8z"/>
</g>
<g class="st0">
	<path class="st2" d="M91.3,37h1v13.5h-1.6V38.9l-4.2,2.9v-1.6L91.3,37z"/>
</g>
<g class="st0">
	<path class="st2" d="M170.8,49.2v1.3h-8.9v-0.8l4.4-5c0.8-0.9,1.3-1.6,1.6-2.2c0.3-0.6,0.5-1.2,0.5-1.8c0-0.9-0.3-1.5-0.8-1.9
		c-0.5-0.4-1.3-0.6-2.4-0.6c-1.2,0-2.4,0.2-3.4,0.6v-1.3c0.5-0.2,1-0.3,1.6-0.4c0.6-0.1,1.2-0.1,1.9-0.1c1.5,0,2.7,0.3,3.5,0.9
		c0.8,0.6,1.2,1.5,1.2,2.8c0,0.5-0.1,1-0.2,1.5s-0.4,1-0.7,1.5c-0.3,0.5-0.8,1.1-1.4,1.8l-3.4,3.9H170.8z"/>
</g>
<g class="st0">
	<path class="st2" d="M246.7,44.6c0.5,0.6,0.8,1.3,0.8,2.2c0,1.2-0.4,2.2-1.3,2.9s-2.2,1-4,1c-0.6,0-1.3,0-1.9-0.1
		c-0.6-0.1-1.2-0.2-1.8-0.4v-1.2c0.6,0.2,1.2,0.3,1.8,0.4c0.6,0.1,1.2,0.2,1.8,0.2c2.6,0,3.9-0.9,3.9-2.8c0-1.7-1.2-2.5-3.5-2.5
		h-2.1V43h1.1c2.6,0,3.9-0.9,3.9-2.6c0-0.7-0.3-1.3-0.8-1.7s-1.4-0.6-2.4-0.6c-1.2,0-2.3,0.2-3.4,0.5v-1.2c0.5-0.2,1.1-0.3,1.7-0.4
		c0.6-0.1,1.2-0.1,1.8-0.1c1,0,1.8,0.1,2.5,0.4c0.7,0.3,1.2,0.7,1.6,1.2s0.5,1.1,0.5,1.9c0,0.8-0.2,1.4-0.7,2
		c-0.4,0.5-1.1,0.9-1.9,1.2C245.4,43.7,246.2,44.1,246.7,44.6z"/>
</g>
<g class="st0">
	<path class="st2" d="M324.1,46v1.3H322v3.2h-1.4v-3.2H313v-0.8l5.9-9.4h1.6l-5.6,9h5.8l0.2-4.5h1.3V46H324.1z"/>
</g>
<g class="st0">
	<path class="st2" d="M396.7,43.3c0.9,0.3,1.5,0.7,1.9,1.3c0.4,0.5,0.6,1.2,0.6,2.1c0,1.3-0.5,2.3-1.3,3c-0.9,0.7-2.2,1-4,1
		c-0.6,0-1.2-0.1-1.9-0.2c-0.6-0.1-1.2-0.2-1.8-0.4v-1.2c0.6,0.2,1.2,0.3,1.8,0.4c0.6,0.1,1.2,0.2,1.8,0.2c1.3,0,2.3-0.2,2.9-0.7
		s1-1.2,1-2.1c0-0.6-0.2-1.1-0.5-1.4c-0.3-0.4-0.8-0.7-1.5-0.9s-1.7-0.4-3-0.4l-2-0.1l0.5-6.8h7.4v1.2h-6l-0.3,4.4l0.8,0
		C394.6,42.8,395.8,43,396.7,43.3z"/>
</g>
<g class="st0">
	<path class="st2" d="M474.7,43.8c0.8,0.7,1.2,1.7,1.2,3c0,0.8-0.2,1.6-0.6,2.1c-0.4,0.6-0.9,1-1.6,1.4c-0.7,0.3-1.5,0.5-2.4,0.5
		c-1.7,0-3-0.5-3.9-1.6s-1.4-2.7-1.4-4.9c0-2.4,0.5-4.2,1.6-5.5s2.6-1.9,4.7-1.9c1.1,0,2.1,0.1,2.9,0.4v1.2
		c-0.4-0.2-0.8-0.3-1.3-0.3c-0.5-0.1-1-0.1-1.4-0.1c-1.6,0-2.8,0.5-3.6,1.4c-0.8,0.9-1.2,2.3-1.2,4.2c0.5-0.3,1-0.5,1.7-0.7
		c0.6-0.2,1.3-0.3,1.9-0.3C472.8,42.8,473.9,43.1,474.7,43.8z M473.7,48.8c0.6-0.5,0.8-1.1,0.8-2.1c0-0.9-0.3-1.6-0.9-2.1
		s-1.5-0.7-2.6-0.7c-0.6,0-1.2,0.1-1.8,0.2c-0.6,0.2-1.1,0.4-1.6,0.7c0.1,1.6,0.4,2.8,1,3.5c0.6,0.7,1.5,1.1,2.7,1.1
		C472.4,49.5,473.1,49.3,473.7,48.8z"/>
</g>
<line class="st3" x1="229.3" y1="3.8" x2="229.3" y2="10.2"/>
<line class="st4" x1="216.7" y1="3.8" x2="216.7" y2="10.2"/>
<line class="st5" x1="204" y1="3.1" x2="204" y2="10.9"/>
<line class="st6" x1="191.3" y1="3.8" x2="191.3" y2="10.2"/>
<line class="st7" x1="178.7" y1="3.8" x2="178.7" y2="10.2"/>
<line class="st8" x1="166" y1="0.5" x2="166" y2="12.9"/>
<line class="st8" x1="242" y1="0.5" x2="242" y2="12.9"/>
<line class="st3" x1="153.3" y1="3.8" x2="153.3" y2="10.2"/>
<line class="st4" x1="140.7" y1="3.8" x2="140.7" y2="10.2"/>
<line class="st5" x1="128" y1="3.1" x2="128" y2="10.9"/>
<line class="st6" x1="115.3" y1="3.8" x2="115.3" y2="10.2"/>
<line class="st7" x1="102.7" y1="3.8" x2="102.7" y2="10.2"/>
<line class="st8" x1="90" y1="0.5" x2="90" y2="12.9"/>
<line class="st9" x1="14" y1="0.5" x2="14" y2="12.9"/>
<line class="st3" x1="305.3" y1="3.8" x2="305.3" y2="10.2"/>
<line class="st4" x1="292.7" y1="3.8" x2="292.7" y2="10.2"/>
<line class="st5" x1="280" y1="3.1" x2="280" y2="10.9"/>
<line class="st6" x1="267.3" y1="3.8" x2="267.3" y2="10.2"/>
<line class="st7" x1="254.7" y1="3.8" x2="254.7" y2="10.2"/>
<line class="st8" x1="318" y1="0.5" x2="318" y2="12.9"/>
<line class="st3" x1="381.3" y1="3.8" x2="381.3" y2="10.2"/>
<line class="st4" x1="368.7" y1="3.8" x2="368.7" y2="10.2"/>
<line class="st5" x1="356" y1="3.1" x2="356" y2="10.9"/>
<line class="st6" x1="343.3" y1="3.8" x2="343.3" y2="10.2"/>
<line class="st7" x1="330.7" y1="3.8" x2="330.7" y2="10.2"/>
<line class="st8" x1="394" y1="0.5" x2="394" y2="12.9"/>
<line class="st3" x1="457.3" y1="3.8" x2="457.3" y2="10.2"/>
<line class="st4" x1="444.7" y1="3.8" x2="444.7" y2="10.2"/>
<line class="st5" x1="432" y1="3.1" x2="432" y2="10.9"/>
<line class="st6" x1="419.3" y1="3.8" x2="419.3" y2="10.2"/>
<line class="st7" x1="406.7" y1="3.8" x2="406.7" y2="10.2"/>
<line class="st8" x1="470" y1="0.5" x2="470" y2="12.9"/>
</svg>
