<?xml version="1.0" encoding="UTF-8"?>
<svg id="Ebene_1" data-name="Ebene 1" xmlns="http://www.w3.org/2000/svg" version="1.1" viewBox="0 0 220 340">
  <defs>
    <style>
      .cls-1 {
        fill: #1c284e;
      }

      .cls-1, .cls-2 {
        stroke-width: 0px;
      }

      .cls-2 {
        fill: #fff;
      }
    </style>
  </defs>
  <path id="SVGID" class="cls-1" d="M83.2,1.1c-15.6,0-28.2,12.6-28.2,28.2v110.8h83c15.6,0,28.2-12.6,28.2-28.2V1.1h-83Z"/>
  <path class="cls-2" d="M115.9,51.9c1.1,0,2.1,0,3.2,0,.7,0,.7,0,1,.7.5,1.5,1.1,2.9,1.3,4.5.2,1,.3,2.1.4,3.1,0,.4,0,.4-.4.4-.8,0-1.7,0-2.5,0-2,0-3.9,0-5.9,0-.1,0-.3,0-.4,0-.3,0-.4,0-.4-.4,0-1.4,0-2.8,0-4.2,0-1.3,0-2.6.1-3.9,0-.2.1-.3.3-.3,1.1,0,2.2,0,3.3,0h0Z"/>
  <g>
    <path class="cls-1" d="M54.2,149.3h3.1l1.1,6,1.6-6h3.1l1.6,5.9,1.1-5.9h3.1l-2.3,10.6h-3.2l-1.9-6.7-1.9,6.7h-3.2l-2.4-10.6Z"/>
    <path class="cls-1" d="M69.7,154.6c0-1.7.5-3.1,1.5-4.1,1-1,2.3-1.5,4-1.5s3.1.5,4.1,1.4,1.4,2.3,1.4,4-.2,2.3-.6,3.1c-.4.8-1,1.4-1.8,1.9s-1.8.7-3,.7-2.2-.2-3-.6c-.8-.4-1.4-1-1.9-1.8-.5-.8-.7-1.9-.7-3.1ZM73,154.6c0,1.1.2,1.8.6,2.3s.9.7,1.6.7,1.3-.2,1.6-.7.6-1.3.6-2.5-.2-1.7-.6-2.2-1-.7-1.6-.7-1.2.2-1.6.7c-.4.5-.6,1.2-.6,2.3Z"/>
    <path class="cls-1" d="M82.8,159.9v-10.6h5.5c1,0,1.8,0,2.3.3s1,.5,1.3,1c.3.5.5,1,.5,1.7s-.1,1.1-.4,1.5c-.3.4-.6.8-1,1-.3.2-.7.3-1.2.4.4.1.7.3.9.4.1,0,.3.3.5.6.2.3.4.5.5.7l1.6,3.1h-3.7l-1.8-3.2c-.2-.4-.4-.7-.6-.8-.2-.2-.5-.2-.8-.2h-.3v4.3h-3.3ZM86.1,153.6h1.4c.1,0,.4,0,.9-.1.2,0,.4-.2.5-.3s.2-.4.2-.6c0-.3-.1-.6-.3-.8-.2-.2-.6-.3-1.2-.3h-1.4v2.2Z"/>
    <path class="cls-1" d="M94.6,149.3h3.3v8h5.1v2.6h-8.4v-10.6Z"/>
    <path class="cls-1" d="M104.8,149.3h4.9c1,0,1.7.1,2.3.4.6.3,1.1.6,1.5,1.1s.7,1.1.8,1.7.3,1.3.3,2.1c0,1.1-.1,2-.4,2.6-.3.6-.6,1.2-1.1,1.6-.5.4-1,.7-1.5.8-.7.2-1.4.3-2,.3h-4.9v-10.6ZM108.1,151.7v5.8h.8c.7,0,1.2,0,1.5-.2.3-.2.5-.4.7-.8.2-.4.2-1,.2-1.8s-.2-1.9-.6-2.3c-.4-.4-1-.6-1.8-.6h-.8Z"/>
    <path class="cls-1" d="M122.3,156.4l3.1-.2c0,.5.2.9.4,1.2.3.4.8.6,1.4.6s.8-.1,1.1-.3c.3-.2.4-.5.4-.8s-.1-.5-.4-.7c-.2-.2-.8-.4-1.7-.6-1.4-.3-2.5-.8-3.1-1.3-.6-.5-.9-1.2-.9-2.1s.2-1.1.5-1.5.8-.9,1.4-1.1c.6-.3,1.5-.4,2.6-.4s2.4.3,3.1.8c.7.5,1.1,1.3,1.3,2.4l-3.1.2c0-.5-.3-.8-.5-1s-.6-.3-1.1-.3-.7,0-.9.2c-.2.2-.3.4-.3.6s0,.3.2.5c.2.1.5.3,1.1.4,1.4.3,2.5.6,3.1.9s1.1.7,1.4,1.2c.3.5.4,1,.4,1.6s-.2,1.3-.6,1.9c-.4.6-.9,1-1.6,1.3-.7.3-1.5.4-2.6.4-1.8,0-3.1-.3-3.8-1-.7-.7-1.1-1.6-1.2-2.7Z"/>
    <path class="cls-1" d="M133.1,149.3h10v2.6h-3.4v8h-3.3v-8h-3.3v-2.6Z"/>
    <path class="cls-1" d="M150.4,158.1h-3.7l-.5,1.8h-3.4l4-10.6h3.6l4,10.6h-3.4l-.5-1.8ZM149.7,155.8l-1.2-3.8-1.2,3.8h2.3Z"/>
    <path class="cls-1" d="M155.7,159.9v-10.6h5.5c1,0,1.8,0,2.3.3s1,.5,1.3,1c.3.5.5,1,.5,1.7s-.1,1.1-.4,1.5c-.3.4-.6.8-1,1-.3.2-.7.3-1.2.4.4.1.7.3.9.4.1,0,.3.3.5.6.2.3.4.5.5.7l1.6,3.1h-3.7l-1.8-3.2c-.2-.4-.4-.7-.6-.8-.2-.2-.5-.2-.8-.2h-.3v4.3h-3.3ZM159,153.6h1.4c.1,0,.4,0,.9-.1.2,0,.4-.2.5-.3s.2-.4.2-.6c0-.3-.1-.6-.3-.8-.2-.2-.6-.3-1.2-.3h-1.4v2.2Z"/>
  </g>
  <g>
    <path class="cls-1" d="M54.2,167.1h3.1l1.1,6,1.6-6h3.1l1.6,5.9,1.1-5.9h3.1l-2.3,10.6h-3.2l-1.9-6.7-1.9,6.7h-3.2l-2.4-10.6Z"/>
    <path class="cls-1" d="M70.3,167.1h3.3v10.6h-3.3v-10.6Z"/>
    <path class="cls-1" d="M76,167.1h3.1l4,5.9v-5.9h3.1v10.6h-3.1l-4-5.8v5.8h-3.1v-10.6Z"/>
    <path class="cls-1" d="M88.3,167.1h3.1l4,5.9v-5.9h3.1v10.6h-3.1l-4-5.8v5.8h-3.1v-10.6Z"/>
    <path class="cls-1" d="M100.7,167.1h8.8v2.3h-5.5v1.7h5.1v2.2h-5.1v2.1h5.7v2.4h-9v-10.6Z"/>
    <path class="cls-1" d="M111.5,177.7v-10.6h5.5c1,0,1.8,0,2.3.3s1,.5,1.3,1c.3.5.5,1,.5,1.7s-.1,1.1-.4,1.5c-.3.4-.6.8-1,1-.3.2-.7.3-1.2.4.4.1.7.3.9.4.1,0,.3.3.5.6.2.3.4.5.5.7l1.6,3.1h-3.7l-1.8-3.2c-.2-.4-.4-.7-.6-.8-.2-.2-.5-.2-.8-.2h-.3v4.3h-3.3ZM114.8,171.4h1.4c.1,0,.4,0,.9-.1.2,0,.4-.2.5-.3s.2-.4.2-.6c0-.3-.1-.6-.3-.8-.2-.2-.6-.3-1.2-.3h-1.4v2.2Z"/>
    <path class="cls-1" d="M135.8,177.7h-8.9c.1-.9.4-1.7.9-2.5.5-.8,1.5-1.7,2.9-2.7.9-.6,1.4-1.1,1.7-1.5.2-.3.4-.7.4-.9s-.1-.6-.4-.8c-.2-.2-.5-.3-.9-.3s-.7.1-.9.4c-.2.2-.4.7-.5,1.3l-3-.2c.1-.8.3-1.5.6-1.9.3-.5.7-.8,1.3-1.1.6-.2,1.3-.4,2.3-.4s1.8.1,2.4.4,1,.6,1.4,1.1c.3.5.5,1,.5,1.7s-.2,1.3-.6,1.9c-.4.6-1.1,1.2-2.1,1.9-.6.4-1,.7-1.2.9-.2.2-.4.4-.7.6h4.6v2.4Z"/>
    <path class="cls-1" d="M137,172.4c0-2,.4-3.4,1.1-4.2.7-.8,1.8-1.2,3.3-1.2s1.3,0,1.8.3c.5.2.8.4,1.1.7.3.3.5.6.7.9.2.3.3.7.4,1.1.2.8.3,1.6.3,2.5,0,1.9-.3,3.3-1,4.2-.7.9-1.8,1.3-3.4,1.3s-1.6-.1-2.2-.4c-.6-.3-1-.7-1.4-1.3-.3-.4-.5-.9-.6-1.6-.1-.7-.2-1.4-.2-2.3ZM140,172.4c0,1.4.1,2.3.4,2.8.2.5.6.7,1,.7s.6-.1.8-.3c.2-.2.4-.5.5-1,.1-.5.2-1.2.2-2.1,0-1.4-.1-2.4-.4-2.8-.2-.5-.6-.7-1.1-.7s-.8.2-1.1.7c-.2.5-.3,1.4-.3,2.8Z"/>
    <path class="cls-1" d="M155.6,177.7h-8.9c.1-.9.4-1.7.9-2.5.5-.8,1.5-1.7,2.9-2.7.9-.6,1.4-1.1,1.7-1.5.2-.3.4-.7.4-.9s-.1-.6-.4-.8c-.2-.2-.5-.3-.9-.3s-.7.1-.9.4c-.2.2-.4.7-.5,1.3l-3-.2c.1-.8.3-1.5.6-1.9.3-.5.7-.8,1.3-1.1.6-.2,1.3-.4,2.3-.4s1.8.1,2.4.4,1,.6,1.4,1.1c.3.5.5,1,.5,1.7s-.2,1.3-.6,1.9c-.4.6-1.1,1.2-2.1,1.9-.6.4-1,.7-1.2.9-.2.2-.4.4-.7.6h4.6v2.4Z"/>
    <path class="cls-1" d="M163.5,166.9v10.8h-3v-7.1c-.5.4-1,.7-1.4.9-.5.2-1,.4-1.7.7v-2.4c1-.3,1.8-.7,2.3-1.2.6-.5,1-1,1.3-1.7h2.4Z"/>
  </g>
  <path class="cls-2" d="M67.7,58.9c0-1.5,0-2.7.2-4,.1-1.6.3-3.1.5-4.6.1-.9.3-1.8.5-2.7.3-1.2.5-2.3.9-3.5.2-.9.6-1.8.9-2.6.5-1.4,1.1-2.7,1.7-4,.9-1.9,2-3.8,3.2-5.6,1.2-1.8,2.5-3.5,3.9-5,1.1-1.2,2.2-2.2,3.3-3.3.7-.7,1.5-1.4,2.3-2,1.4-1.1,2.9-2.2,4.4-3.2,1.6-1.1,3.2-2.1,4.9-3,1.7-.9,3.4-1.7,5.1-2.5,1.1-.5,2.1-.9,3.2-1.4.9-.4,1.8-.7,2.7-1,1-.3,1.3-.2,1.9.6.6.8.9,1.7,1.1,2.7.2,1,.4,1.9.6,2.9.2.7.3,1.4.5,2.2,0,.3,0,.4-.3.5-1.6.6-3.3,1.1-4.9,1.8-2,.9-4,1.8-5.9,2.8-1.6.8-3,1.8-4.5,2.8-1.6,1-3.1,2.3-4.5,3.6-.5.5-1,1-1.6,1.5-1.5,1.5-2.9,3.2-4.1,5-.8,1.2-1.5,2.5-2.2,3.8-.6,1.1-1.1,2.2-1.5,3.4-.5,1.3-.9,2.6-1.3,3.9-.4,1.6-.7,3.3-1,5-.2,1-.2,1.9-.3,2.9,0,1.4-.2,2.8-.2,4.2,0,1.1,0,2.3.2,3.4.3,2.1.6,4.2,1.3,6.2.5,1.5,1,2.9,1.7,4.4.6,1.4,1.4,2.8,2.2,4.1,1.3,2.1,2.8,4.1,4.6,5.9,1.4,1.4,2.9,2.8,4.6,4,1.4,1,2.9,1.9,4.5,2.8,1.9,1,4,1.8,6.1,2.4,1.2.3,2.4.6,3.6.8.8.1,1.6.2,2.3.3,1.5,0,3.1.2,4.6.1,1.1,0,2.2-.2,3.3-.3.9-.1,1.9-.3,2.8-.5.7-.1,1.4-.3,2.2-.6,1-.3,2.1-.7,3.1-1.1.9-.3,1.8-.8,2.6-1.2,1-.5,1.9-1,2.8-1.5,1.4-.8,2.8-1.8,4-2.9,1-.9,2.1-1.9,3-2.9.9-.9,1.7-1.9,2.4-3,.7-1,1.4-2,2-3.1.5-.8.9-1.6,1.3-2.4.5-1.2,1.1-2.4,1.5-3.7.5-1.4.8-2.9,1.2-4.4.4-1.6.5-3.2.7-4.8.1-1.3,0-2.6,0-3.8,0-1.2-.1-2.5-.4-3.7-.3-1.7-.6-3.3-1.1-4.9-.3-1.2-.8-2.4-1.3-3.5-.6-1.3-1.2-2.5-1.9-3.7-.6-1-1.2-1.9-1.9-2.8-1.6-2.2-3.5-4.1-5.6-5.8-.8-.6-1.5-1.2-2.3-1.7-1.1-.7-2.2-1.4-3.3-1.9-1.1-.6-2.3-1.1-3.5-1.5-1.6-.6-3.2-1.1-4.9-1.5-1.8-.5-3.6-.8-5.4-.9-.8,0-1.7-.2-2.5-.2-.3,0-.3-.1-.3-.3,0-1.6,0-3.3,0-4.9,0-1,0-1.9,0-2.9,0-.5.2-.9.3-1.3,0-.3.3-.3.5-.3.7,0,1.4,0,2.2.2,1.2.1,2.3.3,3.5.5,1.8.3,3.5.7,5.3,1.1,1.3.3,2.5.7,3.7,1.2,2.2.8,4.3,1.8,6.3,3,2.4,1.4,4.7,3.1,6.7,5,1.2,1.2,2.5,2.3,3.7,3.6,1.4,1.5,2.7,3.1,3.9,4.8.5.7.9,1.3,1.4,2,.7,1.1,1.3,2.1,1.9,3.3.6,1.2,1.2,2.4,1.7,3.7.5,1.3.9,2.6,1.3,3.9.2.8.4,1.6.6,2.4.2.9.3,1.8.5,2.7.1.9.3,1.8.3,2.7,0,2,.1,4,0,6.1,0,1.7-.2,3.3-.5,5-.2,1.4-.6,2.8-.9,4.3-.2.9-.5,1.8-.8,2.7-.5,1.2-.9,2.5-1.5,3.7-.7,1.4-1.4,2.7-2.2,4-.8,1.3-1.8,2.7-2.8,3.9-1.1,1.4-2.3,2.7-3.5,4-.7.8-1.5,1.5-2.3,2.2-.9.9-1.9,1.7-2.9,2.5-1.2.9-2.4,1.8-3.7,2.6-.9.6-1.8,1.2-2.8,1.7-1.1.6-2.2,1.1-3.3,1.6-.9.4-1.9.8-2.9,1.1-1,.4-2.1.6-3.1.9-.8.2-1.6.4-2.3.6-.6.1-1.2.3-1.7.3-1.3.2-2.6.4-3.9.5-1.7,0-3.4.1-5.2,0-1.5,0-3.1-.3-4.6-.5-1.3-.2-2.5-.5-3.7-.7-1.9-.4-3.7-1-5.4-1.7-2.2-.8-4.2-1.8-6.2-3-2.3-1.3-4.4-2.8-6.3-4.6-1.3-1.2-2.5-2.5-3.6-3.8-.8-.9-1.6-1.9-2.3-2.8-1.2-1.7-2.4-3.4-3.4-5.2-.4-.7-.8-1.5-1.2-2.2-.7-1.6-1.4-3.1-2-4.7-.5-1.3-.9-2.7-1.3-4.1-.3-1.1-.5-2.3-.7-3.5-.2-1.1-.4-2.2-.5-3.4-.1-1.6-.2-3.3-.3-4.7ZM82.2,34.8c-.2,0-.3,0-.4-.1-.6-.2-1.2-.3-1.9-.5-1.2-.3-2.3-.7-3.5-1-.2,0-.4,0-.5.2-.2.3-.4.7-.5,1,0,.1,0,.3.1.4.8.7,1.6,1.4,2.4,2.1,0,0,.1.2.2.3,0,0,0,0,0,0-.1,0-.2,0-.3,0-.4,0-.8-.2-1.3-.3-.6-.2-1.3-.3-1.9-.5,0,0-.3,0-.3.2-.2.3-.3.6-.4.9-.3.5-.3.5.2.8.8.7,1.7,1.3,2.5,2,.6.5,1.1.9,1.7,1.4.2.1.3.1.4,0,.2-.3.3-.6.5-.9.1-.2,0-.4-.1-.5-.5-.4-1.1-.8-1.6-1.2-.3-.2-.5-.4-.8-.6h0c0,0,.2,0,.3,0,.9.2,1.8.4,2.7.6.3,0,.4,0,.5-.3.1-.3.3-.6.5-.9,0-.1,0-.3,0-.4-.7-.6-1.4-1.2-2.1-1.8,0,0-.2-.2-.2-.3.2,0,.3,0,.4,0,.8.3,1.7.5,2.5.8.2,0,.3.1.4,0,.2-.4.4-.8.7-1.3ZM150.1,61.4s0,0,0-.1c.2,0,.3-.2.5-.3.9-.5,1.7-1.1,2.6-1.6.1,0,.2-.3.2-.4,0-.3,0-.6,0-.9,0-.4,0-.4-.4-.4-1.2,0-2.5,0-3.7,0-.5,0-1.1,0-1.6,0-.4,0-.4,0-.4.4,0,.3,0,.6,0,.9,0,.2,0,.3.3.3.9,0,1.8,0,2.7,0,0,0,.2,0,.3,0,0,0,0,0,0,0-.2.1-.4.3-.7.4-.8.5-1.6,1-2.4,1.5-.1,0-.3.3-.3.4,0,.4,0,.7,0,1.1,0,.2,0,.3.3.3,1.1,0,2.2,0,3.3,0,.7,0,1.5,0,2.2,0,.2,0,.3-.1.3-.3,0-.3,0-.7,0-1,0-.3-.1-.4-.4-.4-.8,0-1.7,0-2.5,0-.1,0-.2,0-.4,0ZM74.5,54.9c.7,0,1.2-.3,1.4-1.1.3-1.2.4-2.5.5-3.7,0,0-.1-.2-.2-.2-.4,0-.7-.1-1.1-.2-1.5-.2-3-.3-4.5-.5-.2,0-.3,0-.3.3,0,.4-.1.8-.1,1.2,0,0,.1.3.2.3.6,0,1.1.2,1.7.2.2,0,.3.1.5.2,0,.2-.1.4-.2.5,0,0-.2.1-.3.2-.7.2-1.3.5-2,.7-.1,0-.2.2-.2.3,0,.5-.1,1-.2,1.6,0,0,.2.2.2.2.4-.1.8-.3,1.2-.4.5-.2,1-.3,1.2-.8.1-.2.2,0,.3,0,0,.2.1.3.2.5.4.6.9.7,1.6.8ZM85.8,94.2c0,0,.1-.1.1-.2.2-.9.7-1.7.5-2.7,0,0,0-.2,0-.3,0,0,.2,0,.3,0,.1,0,.2,0,.3,0,.6,0,1-.1,1.4-.5.7-.6.7-1.8,0-2.4-.8-.7-1.6-1.4-2.4-2.2-.3-.2-.4-.2-.6,0-.5.6-1,1.2-1.5,1.7-.7.8-1.4,1.5-2.1,2.3,0,0,0,.3,0,.4.3.3.6.6,1,.9,0,0,.2,0,.3,0,.4-.5.9-1,1.3-1.5.2-.2.4-.2.5,0,0,.2.1.5,0,.7-.2.6-.4,1.3-.5,1.9,0,.1,0,.3,0,.4.4.4.8.8,1.3,1.2ZM110.7,101s0,0,0,0c0-.2,0-.5,0-.7,0-.2,0-.3.3-.3.4,0,.5.3.7.5.3.5.5,1.1.8,1.7,0,.1.2.3.4.3.5,0,.9,0,1.4,0,.3,0,.3-.1.2-.4-.2-.4-.4-.9-.6-1.3-.2-.4-.4-.8-.8-1-.2,0,0-.2,0-.2.8-.3,1.2-1,1.1-1.9,0-.7-.6-1.4-1.2-1.4-1.2,0-2.4,0-3.7-.1-.2,0-.3,0-.3.3,0,1.6,0,3.2,0,4.7,0,.3,0,.5,0,.8,0,.3,0,.3.3.3.4,0,.8,0,1.2,0,.2,0,.3,0,.3-.3,0-.4,0-.8,0-1.2ZM140.3,85.3c-.1,0-.2,0-.3-.1-.4-.3-.8-.6-1.2-1-.2-.2-.4-.2-.5,0-.2.3-.4.6-.6.8-.2.2-.2.4,0,.6.5.4,1,.7,1.4,1.1,1,.8,1.9,1.5,2.9,2.3.2.1.3,0,.4,0,.2-.3.4-.5.6-.8q.3-.4-.1-.7c-.5-.3-.9-.7-.9-1.3,0,0,0-.1,0-.2,0-.1,0-.3,0-.4,0,0,.2,0,.4,0,.4,0,.8.2,1.3.3.3,0,.6.1,1,.1.1,0,.3,0,.3-.2.3-.4.6-.7.9-1.1.2-.3.2-.4-.2-.5-.6,0-1.2-.2-1.7-.2-.5,0-1.1-.2-1.6-.2-.5,0-.6-.2-.7-.6-.1-.8-.2-1.5-.4-2.3,0,0,0-.1-.1-.2-.4.5-.7,1-1.1,1.4-.1.2-.3.4-.2.7.2.7.4,1.4.5,2.2,0,0,0,.2,0,.3ZM72.9,68.5c.8,0,1.6-.1,2.3-.5.7-.4,1.2-1.1,1.1-2,0-1-.2-1.9-.4-2.9,0-.2-.2-.3-.4-.3-.6,0-1.1.1-1.7.2-1.2.2-2.4.4-3.6.6-.3,0-.4.1-.3.4.1.9.2,1.8.4,2.6,0,.4.4.9.7,1.2.5.6,1.2.8,1.9.7ZM107,98.4c0-.6,0-1.1-.5-1.7-.7-.9-1.6-1.2-2.7-1.2-1.1,0-1.9.5-2.4,1.4-.4.8-.6,1.7-.4,2.7.1.8.5,1.4,1.2,1.8.5.2,1,.4,1.5.5,1.1.2,2.1-.3,2.7-1.2.4-.7.6-1.4.6-2.3ZM71.4,44.9c-.1.8.3,1.6,1,2.1.8.6,1.8.9,2.9.8.7,0,1.3-.3,1.7-.9.6-.8.9-1.6.8-2.6,0-.7-.4-1.4-1-1.8-.8-.6-1.7-.8-2.7-.8-.6,0-1.2.2-1.6.6-.6.7-1,1.5-1,2.6ZM148.7,75c.9,0,1.7-.3,2.2-1.1.6-.8.8-1.7.7-2.6,0-.4-.2-.9-.3-1.3,0,0,0-.2-.1-.2-.7-.2-1.4-.4-2.1-.6,0,0-.3,0-.3.2-.2.7-.5,1.4-.7,2.1,0,0,0,.2.1.3.2.1.5.2.7.3,0,0,.3,0,.3-.2,0-.1.1-.3.2-.5,0-.2,0-.4.3-.3.2,0,.4.1.5.4,0,.2,0,.3,0,.5,0,.9-.5,1.5-1.4,1.4-.5,0-1-.2-1.5-.4-.5-.2-.7-.6-.7-1.1,0-.5.1-1,.7-1.2.1,0,.3-.2.4-.3,0-.2.1-.5.1-.7,0-.8,0-.8-.8-.6-.6.1-1,.5-1.3,1.1-.2.4-.4.9-.5,1.4-.1.6-.2,1.2.1,1.7.7,1.4,1.9,1.8,3.3,1.9ZM152.9,52.7c0-1.1-.4-2.2-1.3-3.1-.1-.1-.3-.2-.4-.2-.7,0-1.3.2-2,.3-.2,0-.3.1-.3.4.1.6.2,1.2.3,1.9,0,.5,0,.5.6.4.8,0,.7,0,.6-.9,0-.1,0-.3.1-.4.2-.1.4-.1.5,0,.1.1.2.3.3.4.4.7.3,1.5-.4,1.9-.7.4-1.5.5-2.2.3-.9-.2-1.2-1.4-.5-2,0,0,.1-.2.1-.3-.1-.4-.3-.9-.5-1.3,0-.2-.2-.2-.4,0,0,0-.1.1-.2.1-.6.4-.9.9-.8,1.6,0,.6.1,1.3.3,1.9.3.8.8,1.3,1.7,1.6.9.3,1.7.2,2.5-.1,1.2-.4,1.9-1.2,1.9-2.7ZM75.9,72.7s0,0,0,0c0-.3,0-.7,0-1,0-.1,0-.3.2-.3.2,0,.4,0,.5.1.4.4.4,1,0,1.3-.2.1-.2.2-.1.4.1.3.3.6.4,1,0,.3.2.3.5.2.5-.4.9-.9.9-1.5,0-.9-.3-1.7-.9-2.4-.6-.7-1.9-.7-2.4,0-.3.4-.5.9-.5,1.4,0,.5,0,1.1,0,1.6,0,.3-.2.5-.4.5-.2,0-.5,0-.6-.2-.4-.4-.5-1.1.1-1.5.3-.2.3-.4.2-.6-.1-.3-.2-.5-.3-.8-.1-.3-.2-.4-.5-.2,0,0-.2.1-.2.2-.7.5-1,1.2-.8,2.1,0,.4.2.8.4,1.2.3.8.8,1.3,1.7,1.5.9.1,2-.4,2.1-1.4,0-.4,0-.8.1-1.3ZM82.5,81.9c-.2,0-.2,0-.3,0-.3.1-.7.2-1,.3-1.5.4-3,.9-4.5,1.3-.3,0-.3.2-.1.4.2.2.4.5.5.7.2.4.4.4.8.2.4-.2.6-.2.9.2.2.3.5.6.7.9.2.3.2.4,0,.7,0,0-.1.2-.2.3-.2.2-.2.4,0,.6.2.2.4.5.6.8.2.4.3.4.5,0,.5-.7.9-1.3,1.4-2,.6-.9,1.2-1.8,1.9-2.7.1-.2.1-.4,0-.6-.2-.3-.5-.7-.7-1,0-.1-.2-.2-.3-.2ZM143.5,76.5c0,0-.2.1-.2.2-.2.4-.4.8-.6,1.2,0,.1,0,.4,0,.5.3.4.7.8,1.1,1.2,1,1,1.9,2.1,2.9,3.1.2.2.3.2.5,0,.1-.3.3-.6.4-.8.2-.4.2-.5-.2-.8-.1-.1-.2-.2-.3-.4,0,0,0-.2,0-.3.2-.4.5-.8.7-1.2.1-.3.3-.3.6-.3,0,0,.2,0,.3,0,.3.1.5,0,.6-.2.2-.3.3-.7.5-1,.2-.3.2-.3-.2-.4-.7,0-1.4-.2-2.1-.3-1.3-.2-2.6-.3-3.9-.5ZM130.7,97.1c.1,0,.2-.2.4-.3.3-.2.7-.3,1-.5.4-.3.5-.3.9.2.2.2.4.3.6.2.3-.1.5-.3.8-.5.5-.3.5-.3,0-.7-.5-.5-1.1-1-1.6-1.4-.9-.8-1.8-1.5-2.6-2.2-.2-.2-.3-.1-.5,0-.4.2-.8.4-1.2.7-.1,0-.2.2-.2.3,0,.6.2,1.3.3,1.9.2,1.3.5,2.6.7,3.9,0,.3.2.3.4.2.1,0,.3-.2.4-.2.2-.1.4-.2.6-.4,0,0,0-.2,0-.3,0-.2,0-.4-.2-.7ZM137.7,87.7c0,0-.2-.1-.3-.2-.7-.2-1.3-.5-2-.1-.5.2-.9.5-1.3,1-.7.8-1,1.7-.6,2.7.3.7.7,1.3,1.3,1.7.4.3.8.6,1.3.7.7.2,1.5,0,2.1-.4.2-.1.3-.2.5-.4,1-.8,1.2-1.9.7-3.1,0-.2-.2-.2-.4,0-.2.1-.5.3-.8.4-.4.1-.4.2-.2.6.2.4,0,1-.3,1.3-.4.3-.8.4-1.2.2-.6-.4-1.1-.9-1.4-1.6-.2-.4-.2-.8.2-1.2.3-.3.8-.4,1.2-.2.2,0,.3,0,.4,0,.3-.3.5-.7.8-1.1ZM125.7,93.9c-.2,0-.4,0-.5,0-1,.3-2,.7-3,1.1,0,0-.2.2-.1.3.2.5.4,1,.6,1.6.2.6.5,1.3.7,1.9.2.6.4,1.2.7,1.8,0,.1.2.2.3.2.4-.1.8-.3,1.3-.5,0,0,.1-.2.1-.2-.2-.5-.4-1.1-.6-1.6-.1-.3,0-.4.2-.5.3,0,.6-.2.9-.3.4-.2.8-.4,1.1-.9.4-.8.2-1.5-.2-2.1-.3-.5-.7-.8-1.3-.7ZM100.6,94.9c-.1,0-.2-.2-.3-.3-1.2-.4-2.3-.9-3.5-1.3-.2,0-.4,0-.4.2-.4,1-.8,2.1-1.1,3.1-.2.6-.5,1.3-.7,1.9-.1.3-.1.4.2.5.3.1.7.3,1,.4.2,0,.3,0,.4-.2.2-.6.4-1.1.6-1.7.1-.4.1-.4.5-.3.3.1.7.2,1,.4.8.3.8.3,1.1-.5,0-.3,0-.4-.2-.5-.5-.2-1-.3-1.5-.5-.2,0-.3-.2-.2-.4,0-.2.2-.5.3-.7,0,0,.2-.1.3,0,.2,0,.4.2.6.2.5.2.9.3,1.4.5,0,0,.3,0,.3,0,.1-.3.2-.6.4-.9ZM81.3,79.8c0,0,0-.1,0-.2-.2-.3-.3-.7-.5-1-.5-1.1-1.1-2.2-1.6-3.3-.1-.2-.2-.3-.5-.2-.3.1-.5.3-.8.4-.2,0-.2.2-.1.3.2.4.4.7.6,1.1.1.2.1.4-.1.5-1.2.6-2.4,1.2-3.6,1.8-.2,0-.3.2-.2.4.2.4.4.7.6,1.1,0,.2.2.2.4.1,1.2-.6,2.4-1.2,3.7-1.8.2,0,.3,0,.4.1.2.4.4.8.6,1.2,0,0,.2.1.2.1.3-.1.7-.3,1-.5,0,0,.1-.1.2-.2ZM69.7,59.1s0,0,0,0c0,.7,0,1.3,0,2,0,.3.1.4.3.3.2,0,.5,0,.7,0,.4,0,.4-.1.4-.4,0-.7,0-1.4,0-2.1,0-.2,0-.4.3-.4,1.4,0,2.7,0,4.1,0,.3,0,.3-.1.3-.3,0-.4,0-.8,0-1.1,0-.2,0-.3-.2-.3-.2,0-.4,0-.7,0-1.7,0-3.3,0-5,0-.2,0-.3,0-.3.3,0,.7,0,1.3,0,2ZM152.5,67.6c0,0,.2-.2.2-.3,0-.4.1-.8.2-1.2,0-.2,0-.3-.3-.3-.6-.1-1.2-.2-1.9-.3-1.2-.2-2.4-.4-3.6-.6-.2,0-.3,0-.3.2,0,.4-.1.8-.2,1.2,0,.2,0,.4.3.4.7,0,1.3.2,2,.3,1.2.2,2.3.4,3.6.6Z"/>
  <path class="cls-2" d="M88.5,120.2c.1-.5.3-1,.4-1.4.3-1,.6-2,.8-3,.3-1.1.6-2.3.9-3.4.1-.4.2-.8.3-1.1,0,0,.2-.2.3-.2,1.5,0,2.9,0,4.4,0,0,0,.3.1.3.2.5,1.9,1.1,3.8,1.6,5.8.2.7.4,1.5.6,2.2,0,.3.1.6.2.9,0,0,0,0,0,0,0,0,0-.1,0-.2.1-.8.3-1.6.4-2.4.3-1.7.6-3.4.9-5.2,0-.4.1-.7.2-1.1,0,0,.2-.2.3-.2,1.3,0,2.5,0,3.8,0,.1,0,.2,0,.4,0,.4,0,.4,0,.4.4-.2.8-.4,1.6-.5,2.4-.3,1.4-.6,2.8-.9,4.2-.2.9-.4,1.7-.6,2.6-.2.9-.4,1.8-.6,2.6-.2.9-.4,1.8-.6,2.6-.1.5-.2,1-.3,1.6,0,.2-.2.3-.4.3-1.5,0-2.9,0-4.4,0-.2,0-.4,0-.5-.3-.2-.7-.4-1.4-.6-2.1-.2-.8-.5-1.7-.7-2.5-.4-1.3-.8-2.7-1.1-4,0-.3-.2-.7-.3-1,0-.1,0-.2-.2-.3,0,.3-.2.6-.3.8-.2.7-.4,1.5-.6,2.2-.4,1.4-.7,2.8-1.1,4.1-.3.9-.5,1.8-.8,2.8,0,.2-.2.3-.4.3-1.5,0-3,0-4.5,0-.3,0-.4-.1-.4-.4-.3-1.4-.6-2.9-.9-4.3-.2-1-.4-2-.7-3-.1-.6-.3-1.2-.4-1.8-.2-.8-.3-1.6-.5-2.4-.2-.7-.3-1.5-.5-2.2-.2-.8-.4-1.5-.5-2.3,0-.3.2-.3.3-.3.6,0,1.2,0,1.7,0,.8,0,1.6,0,2.5,0,.3,0,.4,0,.4.4.2,1,.4,2,.6,3,.2,1.2.5,2.4.7,3.6.1.6.2,1.3.3,1.9,0,0,0,.1.1.2Z"/>
  <path class="cls-2" d="M131.8,110.7c1.4,0,2.7.2,4,.7,1.3.6,2.4,1.4,3.2,2.7.7,1.2,1.1,2.5,1.2,3.8.2,1.6,0,3.1-.3,4.6-.4,1.4-1.1,2.6-2.2,3.5-1.2,1-2.5,1.5-4,1.7-1.4.2-2.9.2-4.3,0-.8-.1-1.6-.4-2.4-.8-.9-.5-1.7-1.2-2.3-2.1-.5-.7-.9-1.4-1.1-2.2-.2-.6-.4-1.2-.4-1.8,0-1-.1-2,0-3,.2-1.9.9-3.7,2.3-5,1-.9,2.1-1.6,3.5-1.9,1-.2,2-.3,3-.3ZM128.2,119.2c0,.5,0,.8,0,1.2,0,.8.2,1.7.7,2.4.6.9,1.5,1.3,2.6,1.3,1.1,0,2.1-.2,2.8-1.2.4-.6.6-1.2.7-1.9.1-1.4.2-2.8-.2-4.1-.2-.7-.6-1.3-1.2-1.7-.9-.6-2-.7-3-.4-.9.2-1.5.8-1.8,1.6-.4.9-.6,1.9-.5,2.8Z"/>
  <path class="cls-2" d="M106.8,119.3c0-2.7,0-5.3,0-8,0-.2,0-.3.3-.3,2.7,0,5.4,0,8,0,1,0,1.9,0,2.8.4,1.1.4,2,1.1,2.5,2.1.1.3.2.5.3.8.4,1.4.4,2.8-.2,4.1-.6,1.5-1.8,2.4-3.4,2.8-1.4.4-2.8.2-4.2.3-1.1,0-.9-.2-.9.9,0,1.6,0,3.3,0,4.9,0,.2-.1.3-.3.3-1.6,0-3.1,0-4.7,0-.2,0-.3-.1-.3-.3,0-2.7,0-5.4,0-8ZM113,114.4h0c-.3,0-.5,0-.8,0,0,0-.2.1-.2.2,0,1.1,0,2.1,0,3.2,0,.1.2.3.3.3.7,0,1.4,0,2.1-.1,1.1-.2,1.6-.9,1.5-1.9,0-.7-.7-1.5-1.4-1.6-.5,0-1,0-1.4,0Z"/>
  <path class="cls-2" d="M106.5,61.5c1.5,0,2.9,0,4.4,0,.3,0,.3.1.3.4,0,1.7,0,3.4,0,5,0,1,0,2,0,3,0,.3-.2.3-.4.3-.8,0-1.5,0-2.3,0-1.6,0-3.1,0-4.7,0-.3,0-.4,0-.5-.4-.4-1.5-.9-2.9-1.3-4.4-.3-1.2-.3-2.4-.3-3.6,0-.2.1-.4.4-.3,1.5,0,2.9,0,4.4,0,0,0,0,0,0,0Z"/>
  <path class="cls-2" d="M117,61.5c1.5,0,2.9,0,4.4,0,.3,0,.4.1.4.4,0,1.4-.2,2.9-.6,4.3-.3,1.3-.7,2.5-1.2,3.8,0,.2-.2.3-.4.3-2,0-4.1,0-6.1,0-.3,0-.7,0-1,0-.3,0-.4,0-.4-.4,0-.5,0-1,0-1.4,0-1.4,0-2.8,0-4.2,0-.8,0-1.5,0-2.3,0-.2.1-.3.3-.3,1.5,0,2.9,0,4.4,0,0,0,0,0,0,0Z"/>
  <path class="cls-2" d="M111.3,56.3c0,1.3,0,2.5,0,3.8,0,.5,0,.5-.5.5-1.8,0-3.5,0-5.3,0-1.2,0-2.4,0-3.6,0,0,0-.2-.2-.2-.3,0-.9.1-1.8.3-2.8.1-.9.3-1.8.6-2.7.3-1,.7-1.9,1.1-2.8,0,0,.2-.2.3-.2,2.3,0,4.6,0,7,0,.3,0,.3.2.3.4,0,1.3,0,2.7,0,4,0,0,0,0,0,0Z"/>
  <path class="cls-2" d="M125.1,51.9c.9,0,1.7,0,2.6,0,.3,0,.5,0,.7.4.4,1,.8,1.9,1.2,2.9.3,1,.5,2,.7,3,0,.3.1.7.2,1,0,.7,0,.9-.8,1.1-1.2.4-2.4.3-3.6.3-1,0-2,0-3,0-.3,0-.3-.1-.3-.3,0-.4,0-.8,0-1.2-.2-1.8-.5-3.7-1.2-5.4-.2-.4-.4-.9-.6-1.3-.1-.2,0-.3.2-.3,1.4,0,2.7,0,4.1-.1,0,0,0,0,0,0Z"/>
  <path class="cls-2" d="M99.7,45.7c-.2.2-.2.4-.4.4-.9.7-1.7,1.5-2.5,2.5-.7.8-1.3,1.7-1.9,2.6-.8,1.3-1.4,2.7-1.9,4.1,0,0-.1.2-.2.2,0,0-.2,0-.2-.1-.6-.6-1.1-1.3-1.7-1.9-1.5-1.6-3.1-3-4.8-4.4-.4-.3-.8-.6-1.2-.9,0,0-.1-.2-.2-.3,0,0,.1-.1.2-.1,1.1-.3,2.1-.8,3.2-1,1.1-.3,2.2-.4,3.4-.5,1-.1,2.1-.2,3.1-.3,1,0,2-.2,3.1-.3.5,0,1,0,1.4-.1,0,0,.2,0,.4.1Z"/>
  <path class="cls-2" d="M118.9,42.6c-.1,0-.2,0-.3,0-.5-.1-1-.3-1.6-.4-1.2-.2-2.4-.4-3.6-.6-1-.1-1.9-.2-2.9-.1-.9,0-1.8.2-2.6.4-.1,0-.3,0-.3,0,0,0,0-.2,0-.3.2-.9.9-1.6,1.4-2.4.6-.8,1.2-1.7,1.7-2.5.8-1.4,1.5-2.9,2.2-4.4.2-.4.3-.7.5-1.1,0,0,.1-.2.2-.2,0,0,.2,0,.2.2,1.1,1.6,2,3.3,2.8,5.1.4,1,.8,2,1.2,3.1.4,1,.7,2,1.1,2.9,0,0,0,.1.1.3Z"/>
  <path class="cls-2" d="M99,51.9c1.1,0,2.2,0,3.4,0,.2,0,.3.1.3.3,0,.2-.2.4-.2.7-.3,1.1-.8,2.2-1,3.3-.2,1.1-.3,2.2-.4,3.2,0,.3,0,.6,0,.9,0,.2,0,.3-.3.3-1.4,0-2.8,0-4.3,0-.3,0-.4-.1-.5-.3-.5-1.2-1.1-2.3-1.9-3.3-.2-.3-.2-.5-.1-.9.3-.9.6-1.8,1-2.7.2-.4.4-.9.7-1.3,0-.1.3-.2.5-.2,1,0,2.1,0,3.1,0,0,0,0,0,0,0Z"/>
  <path class="cls-2" d="M98.4,61.5c.7,0,1.3,0,2,0,.3,0,.4.1.4.4.1,1.1.2,2.1.3,3.2.3,1.6.7,3.1,1.3,4.6,0,0,0,0,0,0,.2.4.1.5-.3.5-1.5,0-3,0-4.6,0-.5,0-1,0-1.5,0-.5.1-.9,0-1.1-.5-.2-.5-.5-1.1-.6-1.7,0-.7,0-1.5,0-2.2.2-1.5.7-2.8,1.4-4.1.1-.2.3-.3.5-.3.6,0,1.3,0,1.9,0,0,0,0,0,0,0Z"/>
  <path class="cls-2" d="M99.7,51c-1,0-2.1,0-3.1,0,0,0-.2,0-.3,0,0,0,0-.2,0-.3.6-1.1,1.6-2,2.4-2.9.6-.6,1.1-1.1,1.7-1.7.6-.6,1.5-.8,2.3-.9.8,0,1.7,0,2.5-.4.5-.2,1-.7,1-1.2,0-.5,0-.5.6-.6.8-.1,1.7-.3,2.5-.5.1,0,.3,0,.4,0,0,.1-.1.3-.2.4-1.3,1-2.5,2.2-3.5,3.5-.8,1-1.5,2.1-2.2,3.1-.2.3-.4.7-.6,1.1-.1.2-.3.3-.5.3-1,0-2.1,0-3.1,0,0,0,0,0,0,0Z"/>
  <path class="cls-2" d="M93.9,69.1c.1.2.3.5.4.7.8,1.5,1.8,3,2.9,4.3.5.6,1.2,1.2,1.8,1.7.2.2.2.3,0,.4-.9.5-1.8,1.1-2.7,1.6-1,.7-2,1.3-3,2-.2.1-.3.3-.5.4,0,0-.2,0-.3,0,0,0,0-.2,0-.2,0-.8,0-1.7,0-2.5,0-1.1.2-2.3.3-3.4.2-1.2.4-2.5.6-3.7,0-.4.2-.9.3-1.3,0,0,0,0,0,0Z"/>
  <path class="cls-2" d="M123,71.6c.1.6.3,1.2.5,1.9.1.5.2.9.3,1.4,0,.4-.1.7-.4,1-1.2,1.1-2.6,1.8-4.1,2.4-.9.4-1.8.6-2.7.1-.3-.1-.5-.3-.7-.5,0,0,0-.3,0-.3.4-.5.9-1,1.3-1.5.9-1,1.7-2.1,2.4-3.2.3-.5.5-1,.7-1.4.1-.2.2-.3.5-.3.7,0,1.3,0,2,0,.3,0,.5,0,.3.5Z"/>
  <path class="cls-2" d="M111.3,47.5c0,1.1,0,2.2,0,3.2,0,.2,0,.3-.3.3-1.9,0-3.8,0-5.7,0-.2,0-.5,0-.7,0-.3,0-.3-.1-.2-.3.6-1.2,1.3-2.4,2.2-3.4.6-.7,1.2-1.3,1.8-1.9.8-.7,1.6-1.4,2.4-2.2,0,0,.2-.1.3-.2,0,.1.1.2.1.4,0,1.3.1,2.7.2,4,0,0,0,0,0,0Z"/>
  <path class="cls-2" d="M112.2,47.2c0-1.1,0-2.3,0-3.4,0-.1,0-.3,0-.4,0,0,0-.2,0-.2,0,0,.2,0,.2,0,1.2.9,2.4,1.9,3.4,3,1.1,1.2,2,2.4,2.8,3.8.1.2.3.5.4.7.2.3.1.4-.2.4-.5,0-1,0-1.5,0-1.6,0-3.2,0-4.8,0-.2,0-.4,0-.4-.3,0-1.2,0-2.3,0-3.5,0,0,0,0,0,0Z"/>
  <path class="cls-2" d="M128.9,51.7c.6,0,1.2.1,1.7.2,2,.3,4.1.6,6.1.6.2,0,.4,0,.7,0,0,0,.2,0,.3.1,0,0,0,.2,0,.3-.6.9-1.2,1.6-2.1,2.1-.3.2-.5.6-.8.9-.8,1.1-1.8,1.9-2.9,2.7,0,0-.1,0-.2.1-.4.3-.4.3-.5-.2-.4-2.2-.9-4.4-2.1-6.4,0-.1-.1-.2-.2-.4Z"/>
  <path class="cls-2" d="M119.5,71.1c-.5.9-1,1.7-1.5,2.5-.8,1.2-1.7,2.4-2.9,3.3-.2.2-.4.2-.6,0-.6-.3-1.2-.7-1.8-1-.3-.1-.4-.2-.4-.6,0-1.3,0-2.7,0-4,0-.3,0-.4.4-.4,2.2,0,4.4,0,6.6,0,0,0,.2,0,.4,0Z"/>
  <path class="cls-2" d="M125.7,50.9c-.2,0-.3,0-.5,0-1.6,0-3.1,0-4.7,0-.1,0-.3-.1-.3-.2-.9-2-2.2-3.7-3.8-5.3-.6-.6-1.2-1.2-1.8-1.8-.3-.3-.7-.6-1-.9,0,0,0-.1-.2-.3.3,0,.6,0,.8,0,1.1.2,2.3.5,3.4.8.5.1,1,.4,1.6.6.1,0,.3.2.3.3.4,1.5.9,3.1,1.3,4.6,0,0,0,.1,0,.2,0,.5.1.6.7.7,1.1.3,2.2.6,3.3.8.2,0,.4,0,.6.1.1,0,.2,0,.3.1,0,0,0,0,0,.1Z"/>
  <path class="cls-2" d="M100.3,71.1c.8,0,1.7,0,2.5,0,.1,0,.3,0,.4.2.4.6.7,1.2,1,1.8,0,0,0,0,0,0,.3.5.3.6-.3.8-1.1.5-2.2,1-3.3,1.5-.3.1-.5,0-.7,0-1.3-.9-2.2-2-3.1-3.2-.2-.2-.3-.5-.5-.7-.2-.2-.2-.3.1-.4.5,0,1,0,1.6-.1.8,0,1.5,0,2.3,0,0,0,0,0,0,0Z"/>
  <path class="cls-2" d="M118.8,79.3c.2,0,.4-.2.5-.2,1.4-.6,2.8-1.3,4-2.2,0,0,0,0,0,0,.4-.3.5-.3.6.2.2.7.4,1.5.6,2.2.3.9.6,1.7.8,2.5,0,.1.1.2.1.3,0,0,0,.2,0,.2,0,0-.2,0-.2,0-.7-.3-1.5-.6-2.2-.9-1.4-.6-2.8-1.1-4.1-1.9,0,0,0,0-.2-.2Z"/>
  <path class="cls-2" d="M125.4,61.5c.7,0,1.5,0,2.2,0,.1,0,.3,0,.4.1,0,.1-.1.2-.3.3-1.2.9-2.3,1.7-3.5,2.6-.4.3-.8.6-1.2.9-.5.3-.6.6-.4,1.2,0,.2,0,.4.1.6,0,.9.2,1.8.3,2.7,0,.2,0,.3-.3.3-.5,0-.9,0-1.4,0-.3,0-.3-.1-.2-.4.2-.6.5-1.1.7-1.7.3-1.1.6-2.2.8-3.3.2-1,.2-2,.3-3,0-.3.1-.4.4-.4.7,0,1.5,0,2.2,0Z"/>
  <path class="cls-2" d="M104.1,71.1c.2,0,.4,0,.6,0,2.1,0,4.1,0,6.2,0,.3,0,.4,0,.4.4,0,1,0,1.9,0,2.9,0,0,0,0,0,0,0,.2,0,.3,0,.5-.2,0-.4,0-.5-.1-.9-.7-1.8-1.4-2.7-2.1-.2-.2-.4-.2-.6,0-.5.2-1.1.4-1.6.7-.2,0-.3,0-.4-.1-.4-.7-.8-1.3-1.2-2,0,0,0,0,0,0Z"/>
  <path class="cls-2" d="M73.7,52.3c0-1.1.1-.9,1-.7.3,0,.4.2.4.5,0,.2,0,.3,0,.5-.1.5-.3.6-.7.6-.4,0-.6-.3-.6-.6,0,0,0-.2,0-.2Z"/>
  <path class="cls-2" d="M87.3,89.1c0,.4-.3.7-.7.6-.4,0-.7-.4-1-.7,0,0,0-.3,0-.4.1-.2.3-.4.5-.5,0,0,.2-.1.2,0,.3.3.6.6.9.9,0,0,0,.2,0,.2Z"/>
  <path class="cls-2" d="M111.3,99q-.6,0-.5-.6c0-.1,0-.2,0-.3,0-.4,0-.5.5-.4.3,0,.5,0,.8,0,.3,0,.4.2.4.5,0,.3,0,.5-.4.6-.2,0-.5,0-.7.1Z"/>
  <path class="cls-2" d="M75,65.3c0,.7-.2,1.1-.9,1.2-.5.1-.9.2-1.4.2-.5,0-.9-.3-1-.8-.2-.8-.2-.8.6-.9.7-.1,1.5-.2,2.2-.3.5,0,.5,0,.5.4,0,0,0,.1,0,.2Z"/>
  <path class="cls-2" d="M105.4,98.3c-.2.5-.3,1.1-.5,1.6-.2.5-.9.6-1.5.4-.5-.2-.7-.7-.7-1.1,0-.5,0-.9.2-1.4.3-.9.8-1.1,1.7-.8.2,0,.4.5.6.7,0,.1,0,.3,0,.5,0,0,0,0,0,0Z"/>
  <path class="cls-2" d="M75.1,46.1c-.6,0-1.2-.2-1.8-.5-.4-.2-.6-.7-.4-1.3.1-.4.5-.8.9-.8.8,0,1.5.2,2.2.6.3.2.4.8.3,1.2-.1.4-.5.8-1,.8,0,0-.2,0-.2,0Z"/>
  <path class="cls-2" d="M81.9,83.7c-.2.2-.3.3-.5.5-.2.3-.4.6-.7.9-.1.2-.3.2-.4,0-.1-.2-.3-.4-.4-.6-.1-.2-.1-.3.1-.4.5-.2,1-.4,1.4-.5,0,0,.2,0,.3,0,0,0,0,0,0,.1Z"/>
  <path class="cls-2" d="M144.4,78.1c.1,0,.2,0,.3,0,.5.1,1.1.2,1.6.3.2,0,.3.2.2.3-.1.2-.2.4-.4.7-.1.2-.2.2-.4,0-.4-.4-.9-.8-1.3-1.3,0,0,0,0,0-.1Z"/>
  <path class="cls-2" d="M129.9,93.5c.4.3.7.7,1.1,1,0,0,.2.2.2.2.2.2.2.4,0,.5-.2,0-.3.2-.5.3-.2.1-.3,0-.4-.2-.1-.5-.3-1-.4-1.5,0,0,0-.2,0-.3,0,0,0,0,0,0Z"/>
  <path class="cls-2" d="M125.6,96.3c0,.1-.3.3-.4.5,0,0,0,0,0,0q-.6.3-.9-.4s0,0,0,0c0-.2-.4-.5-.1-.7.3-.2.6-.2,1-.2.3,0,.5.3.5.8Z"/>
  <g>
    <path class="cls-1" d="M175.9,316.5c-.2,0-.3.1-.5.2-3.3,1.8-6.8,3.4-10.3,4.6-3,1.1-6.1,1.9-9.3,2.5-2.2.4-4.4.7-6.7.9-1.1,0-2.2.1-3.3.2-1.3,0-2.6,0-3.9,0-1.5,0-2.9-.1-4.4-.2-3.5-.3-6.9-.9-10.4-1.7-2.5-.6-5-1.4-7.5-2.2-.1,0-.2,0-.4-.2.3-1,.5-2,.8-3.1,8.1,3,16.4,4.4,25,4.2,8.6-.2,16.9-2,24.8-5.5-.2-.5-.4-1-.5-1.5-.6-1.7-1-3.4-1.1-5.2-.2-3.1.3-6.1,1.6-9,1.1-2.4,2.7-4.4,4.6-6.2.8-.8,1.8-1.4,2.6-2.1.1-.1.3-.2.5-.3.2.4.3.7.4,1.1.6,1.7,1.1,3.5,1.2,5.3,0,.9.1,1.7,0,2.6,0,2-.5,3.9-1.2,5.7-1.1,2.9-2.7,5.5-4.8,7.7,0,0,0,0,0,.2,2.4-1.2,4.6-2.5,6.7-4,2.1-1.5,4.2-3.1,6.1-4.9,0-.1-.2-.3-.3-.4-1.4-1.9-2.4-3.9-3-6.2-.5-1.8-.7-3.6-.6-5.4.2-3.1,1.2-5.9,2.8-8.5.4-.7.9-1.3,1.3-1.9,0-.1.2-.2.3-.4,2.2,2.7,3.7,5.7,4.2,9.1.5,3.4,0,6.7-1.1,9.9,3.6-3.9,6.6-8.3,8.9-13.1,2.2-4.5,3.7-9.2,4.6-14.1-4.3-1.9-7.6-4.8-9.2-9.2-.9-2.3-1.2-4.7-.9-7.3,5.7,2.2,9.1,6.2,10.8,12,.7-6.4.2-12.6-1.2-18.9-.1,0-.2,0-.3.1,0,0-.2,0-.3.1-.2-.6-.3-1.1-.4-1.7-.2-.9-.3-1.9-.3-2.8,0-.3,0-.6-.2-.9-.5-1.5-1.1-3-1.7-4.4,0-.3-.2-.4-.5-.4-3-.3-5.8-1.2-8.1-3.2-1.8-1.5-3.2-3.4-4.1-5.5-.3-.6-.5-1.3-.8-2,.2,0,.2,0,.3,0,1.9.1,3.7.5,5.5,1.3,1.4.7,2.7,1.6,3.9,2.7.1.1.2.3.5.3,0,0,.1,0,.1.2.4.5.8,1.1,1.2,1.6,1.1,1.4,1.9,2.9,2.6,4.5,0,0,0,.1,0,.2-.2,0-.3,0-.5,0,.6,1.4,1.1,2.8,1.8,4.3.8-4.5,3.5-7.4,7.4-9.4,0,.2.1.4.2.5.2.8.3,1.7.4,2.5.1,1.8-.2,3.6-.9,5.2-.7,1.6-1.6,2.9-2.8,4.1-.8.8-1.6,1.5-2.5,2.3,1,3.8,1.7,7.7,2,11.7,0-.4,0-.7.1-1.1.4-2.8,1.6-5.2,3.4-7.3,1.5-1.7,3.2-3,5.1-4,.1,0,.3-.1.4-.2.2.6.4,1.2.4,1.8,0,.8.2,1.6.2,2.4,0,2.8-.7,5.4-2.2,7.8-1.7,2.7-3.9,4.9-6.6,6.6,0,0,0,0-.2,0-.4-1-.5-2-.8-3.1,0,3.8-.3,7.5-.9,11.2,0,0,.2-.2.2-.3,1.7-2.3,4-3.9,6.7-4.9,1.8-.7,3.6-1,5.5-1.1.7,0,1.5,0,2.2,0v.3c0,.3-.2.6-.3.9-.8,2.3-2,4.3-3.8,5.9-1.7,1.6-3.6,2.7-5.8,3.5-1.9.7-3.8,1.2-5.8,1.4-.1,0-.2,0-.4,0-.2.5-.3,1-.5,1.5-.7,2.1-1.5,4.2-2.4,6.3-1.2,2.7-2.7,5.3-4.4,7.8-1.4,2.1-3,4.2-4.7,6.1-.8.9-1.7,1.9-2.6,2.8-2.5,2.5-5.3,4.8-8.2,6.8-1.3.9-2.7,1.7-4,2.5-.1,0-.2.2-.3.3h0Z"/>
    <path class="cls-1" d="M180,217.1c0,0,.1,0,.2,0,3.1.3,5.8,1.4,8.1,3.4,2.2,1.9,3.8,4.2,4.9,6.8,0,.1,0,.3.2.5-.3,0-.5,0-.7,0-1.8,0-3.5-.4-5.2-1.1-1.6-.6-2.9-1.5-4.2-2.7-2-1.9-3.3-4.1-4.1-6.8,0,0,0-.2,0-.2.3,0,.6,0,.8,0Z"/>
    <path class="cls-1" d="M40.9,217.1c-.6,2-1.5,3.8-2.8,5.5-2.2,2.8-5.2,4.5-8.7,5.1-.8.1-1.6.2-2.5.3,0,0-.1,0-.2,0,.4-1,.9-2,1.5-3,1.5-2.4,3.3-4.4,5.8-5.8,1.8-1.1,3.8-1.7,5.9-1.9,0,0,.2,0,.3,0,.3,0,.6,0,.8,0Z"/>
    <path class="cls-1" d="M44,316.4c0,0-.1-.1-.2-.2-3.4-2-6.6-4.2-9.5-6.8-3.6-3.2-6.8-6.7-9.5-10.7-1.6-2.4-3.1-4.8-4.3-7.4-1.3-2.7-2.4-5.5-3.2-8.3,0,0,0,0,0,0-.2-.5-.2-.5-.7-.6-3.2-.4-6.3-1.3-9.1-3.1-3.1-2-5.2-4.8-6.3-8.3,0-.1,0-.3,0-.4,0,0,.2,0,.2,0,2.9,0,5.7.4,8.3,1.5,2.3,1,4.3,2.5,5.8,4.5,0,.1.2.2.3.4-.1-.9-.3-1.7-.4-2.4-.1-1-.3-2-.3-3,0-1.3-.1-2.7-.2-4,0-.4,0-.9,0-1.3,0-.1,0-.2,0-.3,0-.1,0-.3,0-.4,0,0,0,0,0,0,0,.1,0,.3,0,.4-.2,0-.2.2-.2.3-.2.7-.3,1.4-.5,2.2,0,.1,0,.3-.1.4-.1,0-.2-.1-.3-.2-2.7-1.8-5-4-6.6-6.8-1-1.8-1.7-3.8-1.9-5.9-.2-1.9,0-3.7.5-5.5,0,0,0-.1,0-.2,0,0,0,0,0-.1.4.2.8.4,1.2.6,2.3,1.3,4.2,3.1,5.7,5.3,1.2,1.8,1.9,3.7,2.1,5.9,0,.3,0,.7.1,1.1.3-4.1.9-8.1,2-12-.6-.5-1.1-.9-1.6-1.4-2.2-2-3.8-4.4-4.4-7.4-.4-1.9-.3-3.7.2-5.6,0-.1,0-.2.1-.3,1.9.9,3.5,2.2,4.8,3.8,1.3,1.6,2.2,3.4,2.6,5.5.3-.7.6-1.4.8-2,.3-.7.6-1.4.9-2.1-.2,0-.3,0-.5,0,.2-.8.6-1.5,1-2.2.7-1.2,1.5-2.4,2.4-3.4,0,0,0,0,0,0,.3-.2.3-.7.8-.8.4-.1.6-.5.9-.8.3-.3.6-.5,1-.8.4-.2.7-.5,1.1-.7.4-.2.7-.4,1.1-.6.4-.2.8-.3,1.1-.5.4-.1.8-.3,1.2-.4.4-.1.8-.2,1.2-.3.7-.1,1.4-.2,2.1-.3,0,0,.1,0,.3,0,0,.2,0,.3-.1.5-.7,2.2-1.8,4.1-3.4,5.8-2.1,2.3-4.8,3.6-7.8,4.2-.5,0-1.1.2-1.6.2-.3,0-.4.1-.5.4-.4,1.1-.8,2.1-1.2,3.2,0,.2-.1.4-.2.6-.4.9-.4,1.9-.5,2.9,0,1-.3,2-.6,3,0,0,0,0,0,.1-.2,0-.3-.2-.5-.3-.4,1.7-.7,3.5-1,5.2-.6,4.6-.8,9.1-.2,13.7,0-.1.1-.3.1-.4.7-2.5,1.9-4.8,3.6-6.8,1.4-1.6,3-2.9,4.9-3.9.5-.3,1.1-.5,1.6-.8.2,0,.3-.1.5-.2.2,2.4,0,4.6-.8,6.8-.7,2.2-1.9,4.2-3.6,5.9-1.6,1.7-3.6,2.9-5.8,3.8,2,10.3,6.5,19.4,13.6,27.2,0-.1,0-.2,0-.3-.6-1.7-1.1-3.5-1.2-5.4,0-.9-.1-1.9,0-2.8.1-2.2.7-4.2,1.6-6.2.7-1.4,1.5-2.7,2.4-4,0-.1.2-.2.3-.4.8.9,1.4,1.8,1.9,2.8,1.2,2,2,4.1,2.3,6.4.1.9.2,1.9.2,2.8,0,3.3-1.1,6.4-2.9,9.1-.3.5-.7,1-1,1.5,3.9,3.6,8.2,6.6,12.9,8.9-.1-.2-.2-.3-.4-.5-1.7-1.9-3.1-4-4.1-6.4-.8-1.9-1.4-3.9-1.5-5.9-.3-3.4.3-6.5,1.6-9.6,0,0,0,0,0-.1.1,0,.2.1.3.2,1.5,1,2.8,2.2,4.1,3.5,1.3,1.4,2.4,3,3.2,4.7.8,1.7,1.4,3.5,1.6,5.3.2,1.1.2,2.3.1,3.4-.1,1.9-.5,3.7-1.1,5.5-.1.4-.3.8-.4,1.2,0,.1,0,.3-.1.4,7.9,3.5,16.2,5.3,24.8,5.5,8.6.2,16.9-1.2,25-4.2.3,1,.5,2.1.8,3.1-.9.3-1.8.6-2.7.9-1.7.5-3.4,1-5.1,1.4-3.1.8-6.3,1.3-9.4,1.6-1.5.1-2.9.2-4.4.3-1.4,0-2.9.1-4.3,0-1.9,0-3.9-.2-5.8-.4-4.9-.5-9.7-1.6-14.3-3.3-2.1-.7-4.1-1.5-6.1-2.5-1.4-.7-2.9-1.5-4.3-2.2,0,0-.2,0-.3,0h0Z"/>
    <path class="cls-1" d="M153.4,320.3c-.3-.6-.5-1.2-.7-1.8-.7-1.9-1.2-3.8-1.4-5.9-.3-3,.2-5.8,1.4-8.5.9-1.9,2-3.7,3.4-5.3,1.2-1.4,2.6-2.6,4.1-3.6,0,0,.2-.1.3-.2,0,.2.2.4.2.5.8,2,1.3,4.1,1.5,6.2.2,3.2-.4,6.2-1.6,9.1-1.1,2.5-2.6,4.7-4.5,6.7-.9,1-1.8,1.8-2.9,2.7Z"/>
    <path class="cls-1" d="M145.4,294.3c.3.7.5,1.4.8,2.1.5,1.5.8,3,.9,4.5.1,1.7,0,3.3-.3,5-.8,3.8-2.6,7.1-5,10.1-1,1.2-2.1,2.3-3.3,3.3-.1,0-.2.2-.4.3,0-.2-.2-.3-.2-.5-.8-1.8-1.4-3.7-1.7-5.7-.5-3.5-.1-6.8,1.3-10,1.2-2.6,2.8-4.8,4.9-6.7.9-.9,1.9-1.6,3-2.4Z"/>
    <path class="cls-1" d="M59.4,295c.9.5,1.6,1.1,2.3,1.7,1.8,1.6,3.4,3.4,4.6,5.5,1.3,2.2,2.1,4.5,2.3,7,.3,2.7,0,5.2-.8,7.8-.3,1-.7,1.9-1.1,2.9,0,0,0,.2-.1.3-.9-.7-1.6-1.4-2.4-2.1-.9-1-1.8-2-2.6-3.2-1.7-2.4-3-5.1-3.6-8-.3-1.6-.5-3.2-.4-4.8.1-2.4.7-4.7,1.7-6.9,0,0,0,0,.1-.2Z"/>
    <path class="cls-1" d="M81.9,319.6c-.6-.5-1.1-.9-1.6-1.4-1.8-1.8-3.4-3.7-4.7-5.9-1.4-2.4-2.3-5-2.6-7.8-.2-2-.1-3.9.2-5.8.3-1.4.7-2.8,1.3-4.1,0,0,0-.2.1-.3.3.2.6.4.8.5,2.6,1.9,4.7,4.1,6.3,6.9,1.2,2.1,1.9,4.3,2.2,6.6,0,.7.2,1.5.1,2.2,0,2.6-.6,5.1-1.6,7.5-.2.4-.4.9-.6,1.4Z"/>
    <path class="cls-1" d="M84,327.4c-.6.7-1,1.3-1.6,1.9-1.5,1.8-3.2,3.4-5.1,4.8-2.4,1.8-4.9,3.1-7.8,4-1.7.5-3.4.8-5.2.9-2,0-3.9-.2-5.7-.6,0,0-.2,0-.3-.1,0-.2.1-.3.2-.4,1-1.6,2.2-3.1,3.6-4.5,1.5-1.5,3.2-2.9,5-4,2.4-1.5,5.1-2.4,7.9-2.8,1.2-.2,2.4-.2,3.6-.1,1.7,0,3.3.3,4.9.8.1,0,.2,0,.4.1Z"/>
    <path class="cls-1" d="M161.8,338.2c-.5.1-1,.3-1.5.3-1,.2-2.1.3-3.2.3-2.9.1-5.7-.4-8.4-1.5-3-1.2-5.6-2.9-8-5-1.6-1.4-3.1-3-4.4-4.7,0-.1-.2-.2-.3-.4.2,0,.4-.1.5-.2,1.4-.3,2.8-.6,4.3-.7.9,0,1.8,0,2.6,0,2.6.1,5,.7,7.4,1.8,2.2,1,4.1,2.3,5.9,3.9,1.8,1.6,3.4,3.5,4.7,5.6,0,.1.2.3.3.5Z"/>
    <path class="cls-1" d="M44,316.4c0,0,.2.2.3.2,1.3.8,2.6,1.7,3.7,2.8,0,0,.1,0,.3.2-.2.1-.4.2-.5.3-1.9.9-3.8,1.7-5.9,2.2-1.9.5-3.9.9-5.9,1-3.6.2-7-.3-10.3-1.7-1.9-.8-3.5-1.9-5.1-3.2,0,0-.2,0-.3-.2.4-.2.7-.4,1-.6,2.9-1.7,6.1-2.8,9.4-3.3,1.5-.2,3.1-.3,4.6-.2,2.9.2,5.7,1,8.3,2.4.1,0,.2.1.4.2,0,0,0,0,0,0Z"/>
    <path class="cls-1" d="M62.4,326.4c-.5.6-.9,1.1-1.3,1.6-2.4,2.8-5.1,5.2-8.4,7-2.3,1.3-4.8,2.2-7.4,2.7-2.8.4-5.5.3-8.2-.4-.1,0-.2,0-.4-.1.3-.4.5-.8.8-1.2.8-1.1,1.7-2.2,2.6-3.3,1.8-1.9,3.8-3.5,6.1-4.8,2.1-1.2,4.4-2,6.9-2.3,1.5-.2,2.9-.3,4.4-.2,1.6.1,3.1.4,4.6.8,0,0,.1,0,.3.1Z"/>
    <path class="cls-1" d="M175.9,316.5c.2,0,.4-.2.6-.3,2.4-1.3,5-2.1,7.8-2.3,2.9-.3,5.8.1,8.6.9,2.2.7,4.4,1.6,6.3,2.8.1,0,.2.1.3.2,0,0,0,0,0,.1-1.1,1-2.3,1.8-3.6,2.5-2.2,1.2-4.5,2-7,2.4-1.5.2-2.9.3-4.4.2-2.8-.1-5.5-.7-8.2-1.5-1.5-.5-3-1.1-4.4-1.8,0,0-.2,0-.3-.2.3-.2.5-.4.7-.6,1-.8,2-1.6,3.1-2.2.1,0,.2-.2.3-.2,0,0,0,0,0,0Z"/>
    <path class="cls-1" d="M183.3,337.3c-1,.3-2,.5-3,.6-.8,0-1.6.1-2.3.1-2,0-4-.3-6-.9-3.2-1-6-2.6-8.6-4.7-1-.8-2-1.7-3-2.7-.9-.9-1.7-2-2.6-3,0,0-.1-.2-.2-.3.2,0,.3-.1.5-.2,2.2-.6,4.4-.9,6.6-.8,2.8.1,5.5.8,8,2,2,1,3.8,2.2,5.4,3.6,2,1.7,3.6,3.7,5,6,0,0,0,0,0,.2Z"/>
    <path class="cls-1" d="M72,269.6h3.3c0,.2,0,.4,0,.5,0,2.7,0,5.3,0,8,0,.5,0,.9.3,1.3.2.4.5.6.9.7.9.3,2.2,0,2.4-1.5,0-.2,0-.5,0-.7,0-2.6,0-5.2,0-7.8v-.6h3.3c0,.2,0,.3,0,.5,0,2.7,0,5.4,0,8.1,0,.4,0,.8.3,1.2.3.7,1,1,1.9.9.8-.1,1.2-.6,1.4-1.3,0-.3,0-.6,0-.9,0-2.6,0-5.2,0-7.8v-.5c.3-.1,2.6-.1,3.3,0,0,.1,0,.3,0,.4,0,2.7,0,5.4,0,8.2,0,.8-.1,1.6-.4,2.3-.5,1.4-1.5,2.3-3,2.7-1.3.3-2.5.3-3.7-.3-.5-.3-.9-.6-1.3-1,0,0-.1-.2-.2-.3-.1.2-.3.3-.4.5-.7.8-1.6,1.2-2.7,1.3-.9,0-1.7,0-2.5-.3-1.5-.5-2.4-1.7-2.8-3.2-.1-.5-.2-1.1-.2-1.6,0-2.7,0-5.5,0-8.2,0-.1,0-.3,0-.4Z"/>
    <path class="cls-1" d="M3.3,287.7c.4,0,.7-.1,1.1-.2,1.3-.1,2.6-.1,3.9,0,1.6.1,3.2.4,4.7.8,2.3.7,4.4,1.8,6.3,3.5,1.9,1.7,3.2,3.7,4.2,6,.2.3.3.7.5,1.1-.2,0-.3,0-.5,0-2.8,0-5.6-.2-8.3-.9-2.3-.6-4.4-1.6-6.3-3-2.5-1.8-4.3-4.2-5.5-7.1,0,0,0-.1,0-.2Z"/>
    <path class="cls-1" d="M216.7,287.8c-.4,1-.8,1.9-1.4,2.7-1.2,2-2.8,3.6-4.7,4.9-1.7,1.2-3.6,2-5.5,2.6-1.9.6-3.8.9-5.8,1-.9,0-1.8,0-2.7,0-.2,0-.3,0-.6,0,.2-.5.4-1,.6-1.5.9-1.8,2-3.5,3.4-5,2.2-2.2,4.8-3.6,7.8-4.4,1.3-.3,2.6-.5,3.9-.6.9,0,1.8,0,2.6,0,.7,0,1.4.1,2.1.2,0,0,.2,0,.3.1Z"/>
    <path class="cls-1" d="M32.8,309.7c-.4.2-.8.4-1.2.6-2.7,1.2-5.5,2-8.4,2.3-2.3.2-4.6.2-6.9-.4-2.5-.6-4.7-1.7-6.8-3.2-.3-.2-.5-.4-.8-.7,0,0,0,0-.1-.1.4-.3.8-.5,1.3-.8,2.5-1.3,5.1-2.2,7.8-2.6,3.3-.5,6.5,0,9.6,1.2,2,.8,3.8,2,5.4,3.5,0,0,0,0,.1.2Z"/>
    <path class="cls-1" d="M187.3,309.7c.2-.2.4-.4.5-.5,1.9-1.6,4.1-2.9,6.5-3.7,1.1-.4,2.2-.6,3.4-.7,1.1-.1,2.3-.1,3.5,0,1.6.1,3.2.4,4.7.9,1.8.6,3.5,1.3,5.2,2.3.1,0,.3.2.5.3-.4.3-.8.6-1.1.9-2.8,2.1-5.9,3.2-9.4,3.5-3.1.2-6.1-.2-9-1.1-1.6-.5-3.1-1.1-4.7-1.9Z"/>
    <path class="cls-1" d="M191.3,270c.5.5,1,.8,1.5,1.3,1.3,1.1,2.3,2.4,3.2,3.8,1.2,1.9,1.9,4,2.3,6.3.2,1.5.2,3,.2,4.5,0,1.5-.4,3.1-.8,4.6,0,0,0,.2-.1.3-.1,0-.2-.1-.3-.2-2.1-1.5-3.9-3.3-5.2-5.6-1.2-2-1.9-4.1-2.1-6.4-.3-2.7.2-5.3,1.1-7.8,0-.2.2-.4.3-.8Z"/>
    <path class="cls-1" d="M22.5,290.8c-.2-.7-.4-1.4-.5-2.1-.2-1-.3-2.1-.4-3.1-.2-2.7.2-5.3,1.1-7.8.7-1.8,1.7-3.5,3-4.9.8-.9,1.6-1.7,2.6-2.4.1-.1.3-.2.5-.3.4.9.7,1.8.9,2.7.3,1.1.4,2.2.5,3.4.2,2.9-.4,5.6-1.7,8.2-.7,1.4-1.6,2.6-2.7,3.7-.8.9-1.8,1.7-2.7,2.4-.1.1-.3.2-.5.4Z"/>
    <path class="cls-1" d="M145.7,278.4c1,1.6,2,3.1,3,4.6-.2,0-.3,0-.4,0-1,0-2.1,0-3.1,0-.3,0-.4-.1-.6-.3-.6-1.2-1.3-2.3-2-3.5-.2-.3-.4-.5-.7-.4-.3,0-.6,0-1,0v4.2h-3.3v-13.4c.1,0,.2,0,.4,0,1.8,0,3.6,0,5.4,0,.9,0,1.7.2,2.5.5,1.1.5,1.9,1.4,2.2,2.6.3,1.1.2,2.2-.1,3.3-.3,1-1,1.7-1.9,2.1,0,0-.1,0-.2,0,0,0-.1,0-.2.1ZM141,275.7c.9,0,1.7,0,2.5,0,.2,0,.4,0,.5-.1.5-.2.8-.5.8-1.1,0-.1,0-.2,0-.4,0-.9-.5-1.4-1.3-1.5-.8,0-1.6,0-2.4,0,0,0,0,0-.1,0v3Z"/>
    <path class="cls-1" d="M98.9,296.7c0-1.3,0-2.5.4-3.7.2-.8.5-1.6,1.1-2.3,1.1-1.5,2.6-2.2,4.5-2.1,2.1.2,3.5,1.3,4.3,3.2.5,1.1.7,2.2.8,3.3,0,.7,0,1.5,0,2.2,0,1.3-.2,2.5-.6,3.8-.4,1-.9,1.9-1.7,2.6-1.8,1.5-4.5,1.5-6.3,0-1.1-.9-1.6-2.1-2-3.4-.3-1.2-.4-2.4-.4-3.7ZM102.1,296.6c0,.7,0,1.5.2,2.2,0,.3,0,.6.2.9.1.6.3,1.1.7,1.6.7.8,1.9.8,2.5,0,.2-.2.3-.5.5-.7.5-1.1.6-2.2.6-3.3,0-1,0-2-.2-3-.1-.8-.3-1.5-.8-2.2-.8-1-2.1-1-2.8,0-.3.4-.5.9-.6,1.4-.2,1-.3,2.1-.3,3.1Z"/>
    <path class="cls-1" d="M111,304.4c.1-1.8.8-3.3,2-4.6,1-1,2.1-1.9,3.2-2.8.6-.5,1.2-1,1.7-1.6.5-.6.8-1.3.7-2.1,0-1.1-.8-1.9-1.9-1.9-1.2,0-2.1.5-2.4,1.8,0,.4-.1.8-.2,1.2h-3c-.1-.4,0-.8,0-1.2.2-2,1.2-3.5,3.1-4.2,1.8-.7,3.7-.6,5.4.4,1.7,1,2.4,2.6,2.3,4.5,0,1.6-.8,2.9-2,3.8-1.2,1-2.4,1.8-3.6,2.7-.4.3-.7.6-1,.9,0,0-.1.2-.2.3.6,0,1.2,0,1.7,0,.6,0,1.1,0,1.7,0h1.7c.6,0,1.1,0,1.7,0v2.7h-11.2Z"/>
    <path class="cls-1" d="M90.1,294.3h-3c0-.5,0-1.1,0-1.6.4-2.4,2.2-4,4.6-4.2,1.3-.1,2.6,0,3.7.7,1.5.8,2.3,2.1,2.5,3.8.2,2-.6,3.5-2,4.7-1.1,1-2.4,1.8-3.6,2.7-.4.3-.7.6-1,.9,0,0-.1.2-.3.4h6.8v2.8h-11.1c.1-1.5.6-2.9,1.6-4,1-1.2,2.1-2.1,3.3-3,.6-.5,1.3-1,1.8-1.6.5-.5.9-1.1,1-1.9.2-1.1-.4-2.1-1.4-2.4-1.2-.3-2.3.2-2.7,1.3-.1.4-.2.8-.2,1.2,0,.1,0,.2,0,.4Z"/>
    <path class="cls-1" d="M128.6,274.9h5.4v2.6c-.2,0-.4,0-.5,0-1.4,0-2.9,0-4.3,0h-.6v2.5c.6,0,1.1,0,1.6,0,.5,0,1.1,0,1.6,0h1.7c.5,0,1.1,0,1.6,0,.1.3.1,2.3,0,3-.3.1-9.4.1-9.9,0v-13.4c.3,0,9.2-.1,9.9,0v3c-1.1,0-2.2,0-3.3,0s-2.2,0-3.3,0v2.2Z"/>
    <path class="cls-1" d="M122.7,283h-3.3c0-.2,0-.4,0-.5,0-2.5,0-5,0-7.5,0-.4,0-.8-.2-1.2-.2-.7-.7-1.1-1.4-1.3-.6-.2-1.1-.2-1.7,0-.9.2-1.5.9-1.6,1.9,0,.2,0,.4,0,.6,0,2.5,0,5,0,7.5v.6c-1.1,0-2.2,0-3.4,0v-.5c0-2.5,0-5.1,0-7.6,0-1.2.2-2.4.9-3.4.8-1.3,2.1-1.9,3.5-2.2,1.3-.2,2.5-.2,3.8.3,1.6.6,2.6,1.7,3.1,3.3.2.6.3,1.3.3,2,0,2.6,0,5.2,0,7.8,0,.1,0,.2,0,.4Z"/>
    <path class="cls-1" d="M109.1,283h-3.3v-.6c0-2.5,0-5,0-7.5,0-.4,0-.8-.2-1.2-.1-.5-.5-.9-1-1.1-.9-.4-1.7-.4-2.6,0-.6.3-1,.8-1.1,1.5,0,.3,0,.6,0,.9,0,2.5,0,5,0,7.4v.5c-.4.1-2.7.1-3.3,0,0-.1,0-.3,0-.4,0-2.6,0-5.1,0-7.7,0-1,.2-2,.7-3,.7-1.3,1.9-2.1,3.3-2.4,1.4-.3,2.8-.3,4.2.2,1.6.5,2.6,1.7,3.1,3.3.2.7.3,1.4.3,2.1,0,2.5,0,5,0,7.5,0,.1,0,.3,0,.5Z"/>
    <path class="cls-1" d="M16.6,259c0-.2,0-.4,0-.6.7-3.2,1.9-6.1,4-8.7,1.9-2.3,4.3-4,7.1-5,.6-.2,1.1-.4,1.7-.5.1,0,.3,0,.5,0,0,1.9-.6,3.7-1.3,5.5-1.2,2.9-3.1,5.2-5.7,6.9-1.9,1.2-4,2-6.3,2.5Z"/>
    <path class="cls-1" d="M190.2,244.1c.6.2,1.3.3,1.9.6,2.5.9,4.7,2.3,6.5,4.2,1.3,1.4,2.4,3,3.2,4.8.7,1.6,1.3,3.2,1.6,4.9,0,.1,0,.2,0,.3-1.3.3-6.1-2-8.2-3.8-3.2-2.9-4.8-6.6-5.2-10.8,0,0,0,0,.1-.1Z"/>
    <path class="cls-1" d="M95.2,250.5h2.4c.5,2.5,1,4.9,1.5,7.5.3-.7.3-1.3.5-1.9.2-.6.3-1.2.4-1.8.1-.6.3-1.3.5-1.9.2-.6.3-1.2.5-1.9h2.4c0,.3-2.8,10.4-3,11h-2.3c-.5-2.4-1-4.8-1.6-7.2-.5,2.4-1.1,4.8-1.6,7.2h-2.4c-1-3.6-2-7.3-3-10.9h2.4c.6,2.5,1.2,4.9,1.8,7.5.5-2.5,1-5,1.5-7.5Z"/>
    <path class="cls-1" d="M125.6,250.5c1.8,0,3.5,0,5.3.2,1.8.1,3,1.2,3.7,2.8.8,2,.7,4-.4,5.9-.7,1.2-1.7,1.8-3,2-.6,0-1.2.1-1.7.1-1.1,0-2.2,0-3.3,0-.2,0-.3,0-.5,0v-11.1ZM128,252.6v6.8c.7,0,1.4,0,2.1,0,1.2,0,1.8-.8,2.1-1.9.2-.7.2-1.4.2-2.1,0-.5-.2-1-.4-1.5-.4-.8-1-1.2-1.8-1.3-.7,0-1.4,0-2.2,0Z"/>
    <path class="cls-1" d="M117,257.1v4.3c-.4.1-1.9.1-2.4,0v-10.9c.1,0,.2,0,.3,0,1.6,0,3.2,0,4.8,0,.7,0,1.3,0,2,.4.7.3,1.2.9,1.4,1.7.2.9.2,1.8-.4,2.6-.3.4-.7.7-1.2.9.1,0,.2.1.3.2.5.2.8.6,1,1.2.2.6.2,1.3.2,1.9,0,.7,0,1.4.4,2-.2,0-.2,0-.3,0-.6,0-1.1,0-1.7,0-.5,0-.7-.2-.7-.7,0-.5,0-1-.1-1.5,0-.4-.1-.8-.2-1.3-.1-.5-.5-.8-1-.9-.8-.2-1.6-.1-2.5-.1ZM117.1,255.2c.1,0,.2,0,.3,0,.7,0,1.4,0,2.1,0,.2,0,.4,0,.5,0,.4-.1.6-.3.8-.7.4-1-.2-1.8-1.2-1.8-.8,0-1.5,0-2.3,0,0,0-.2,0-.3,0v2.5Z"/>
    <path class="cls-1" d="M128.9,288.9h2.8c0,.3.1,14.8,0,15.5h-3.3v-10.8h-4.1v-2.1c.5,0,1,0,1.4-.1.4,0,.8-.1,1.2-.2.8-.2,1.3-.7,1.6-1.5.1-.3.2-.5.3-.8Z"/>
    <path class="cls-1" d="M106.9,250.5h3c1.2,3.6,2.3,7.3,3.5,10.9-.3.1-2.1.1-2.8,0-.2-.7-.4-1.4-.6-2.1h-3.7c-.2.7-.5,1.4-.7,2.1h-2.6c0-.4,3.4-10.2,3.8-11ZM107,257.3c.8,0,1.4,0,2.1,0,.1,0,.2,0,.4,0,0-.4-.8-3.6-1.1-4.2-.4,1.4-.9,2.8-1.3,4.3Z"/>
    <path class="cls-1" d="M83.1,250.5h3.1c1.2,3.6,2.3,7.3,3.5,11h-2.8c-.2-.6-.4-1.3-.5-1.9,0-.2-.1-.3-.3-.3-1.1,0-2.2,0-3.4,0-.2.7-.5,1.5-.7,2.2h-2.7c1.3-3.7,2.6-7.3,3.8-11ZM85.8,257.3c-.4-1.4-.8-2.8-1.1-4.3-.4.8-1.3,3.9-1.3,4.3h2.4Z"/>
    <path class="cls-1" d="M104.8,219.7c0,0,.1-.1.2-.2.7-.9,1.7-1.2,2.7-1.1.6,0,1.2.3,1.6.7.6.5.9,1.3,1,2.1,0,.7,0,1.3,0,2,0,1.2,0,2.5,0,3.7v.5h-1.7c0-.1,0-.3,0-.5,0-1.7,0-3.4,0-5.1,0-.3,0-.5,0-.8-.2-.7-.7-1-1.4-1-.7,0-1.2.4-1.4,1,0,.2,0,.5,0,.8,0,1.7,0,3.4,0,5.1v.5h-1.7c0-.2,0-.4,0-.5,0-1.7,0-3.4,0-5.2,0-.2,0-.4,0-.6-.1-.6-.4-1-1-1.1-.6-.1-1.2,0-1.6.5-.2.2-.2.5-.3.8,0,.2,0,.4,0,.6,0,1.6,0,3.3,0,4.9v.5c-.6,0-1.1,0-1.7,0,0-.2,0-.3,0-.4,0-1.8,0-3.7,0-5.5,0-1.1.4-2,1.3-2.6,1.2-.8,3.3-.7,4.2.7,0,0,0,0,.1.1Z"/>
    <path class="cls-1" d="M196.7,223.1c4,2.6,6,7.6,4.5,13.2-1.1-.3-3.5-2.9-4.3-4.7-1.3-2.8-1.2-6.1-.2-8.5Z"/>
    <path class="cls-1" d="M18.8,236.3c-1.4-5,0-10.4,4.4-13.2.7,1.1,1.1,4.1.6,6.2-.7,3.1-2.5,5.3-5.1,7Z"/>
    <path class="cls-1" d="M94.9,283h-3.3v-13.4h3.2c0,.3.1,12.4,0,13.4Z"/>
    <path class="cls-1" d="M63.5,237.2c.1,0,.2,0,.4,0,1.1,0,2.2,0,3.3,0,.6,0,1.3,0,1.9.4,1.1.6,1.5,2.4.2,3.3-.1,0-.2.2-.4.2.1,0,.2.2.4.2.8.5,1.1,1.3,1,2.2-.1.9-.6,1.6-1.6,1.9-.4.1-.8.2-1.1.2-1.3,0-2.7,0-4,0-.1-.3-.1-7.8,0-8.5ZM65.3,244c.8,0,1.6,0,2.3,0,.3,0,.6-.2.7-.6.2-.7,0-1.3-.8-1.4-.7,0-1.4,0-2.1,0v2.1ZM65.3,238.8v1.7c.7,0,1.4,0,2.1,0,0,0,.2,0,.3,0,.4-.1.5-.4.5-.8,0-.4-.2-.7-.6-.7-.7-.1-1.5,0-2.3,0Z"/>
    <path class="cls-1" d="M88.4,227.4h-1.7c0-.4,0-.9,0-1.3,0-.4,0-.9,0-1.3h-4.3v2.6h-1.7c0-.1,0-.2,0-.4,0-1.6,0-3.3,0-4.9,0-.6.1-1.1.3-1.7.3-.8.8-1.4,1.6-1.7,1.3-.6,2.7-.6,4,0,1,.4,1.5,1.3,1.8,2.3,0,.4.1.8.1,1.1,0,1.5,0,3.1,0,4.6s0,.3,0,.5ZM82.4,223.2h4.3c0-.5,0-1.1,0-1.6-.1-.8-.6-1.3-1.4-1.5-.5-.1-1.1-.1-1.6,0-.6.2-1,.6-1.2,1.3-.2.6,0,1.2,0,1.8Z"/>
    <path class="cls-1" d="M114.1,224.8v2.6h-1.6c0,0,0-.2,0-.3,0-1.7,0-3.4,0-5.2,0-.7.2-1.3.5-1.9.4-.7,1.1-1.2,1.9-1.4.9-.3,1.9-.3,2.9,0,1.5.4,2.3,1.5,2.4,3,0,1.3,0,2.7,0,4.1,0,.6,0,1.1,0,1.8-.6,0-1.1,0-1.7,0v-2.6c-.4-.1-3.7-.1-4.4,0ZM118.4,223.2c0-.5,0-.9,0-1.3,0-.9-.5-1.5-1.4-1.8-.5-.1-1-.1-1.5,0-.7.2-1.2.6-1.4,1.4-.2.6,0,1.2,0,1.8h4.3Z"/>
    <path class="cls-1" d="M138.1,227.4h-1.7v-2.6c-.4,0-3.6-.1-4.4,0,0,.9,0,1.7,0,2.6h-1.6c0-.2,0-.3,0-.4,0-1.7,0-3.4,0-5,0-.7.2-1.3.5-1.9.4-.8,1.1-1.3,2-1.5,1-.3,1.9-.3,2.9,0,1.3.4,2,1.3,2.3,2.6,0,.3,0,.6,0,.9,0,1.6,0,3.2,0,4.8s0,.3,0,.5ZM136.4,223.2c0-.6,0-1.2-.1-1.8-.2-.6-.6-1-1.2-1.2-.6-.2-1.2-.2-1.7,0-.6.2-1,.5-1.1,1.1-.2.6-.2,1.3-.2,2h4.3Z"/>
    <path class="cls-1" d="M116.8,237.2h2c1,1.9,2.1,3.8,3.1,5.7.1-.5,0-.9,0-1.4,0-.5,0-1,0-1.4v-2.9c.6,0,1.1,0,1.7,0,0,.4.1,7.6,0,8.4-.6,0-1.2,0-1.9,0-.5-1-1.1-1.9-1.6-2.9-.5-1-1.1-1.9-1.6-3-.1.7,0,1.3,0,2,0,.6,0,1.3,0,1.9v1.9h-1.7v-8.4Z"/>
    <path class="cls-1" d="M171.8,245.6h-1.7v-8.4c.3,0,.6,0,.9,0,.3,0,.6,0,1,0,1,1.9,2.1,3.8,3.2,5.8,0-1,0-1.9,0-2.9s0-1.9,0-2.9h1.7v8.4h-1.9c-1-1.9-2.1-3.8-3.2-5.8,0,0,0,0,0,0,0,1,0,1.9,0,2.9s0,1.9,0,2.9Z"/>
    <path class="cls-1" d="M108.1,237.2h1.9c1,1.9,2.1,3.8,3.2,5.8v-5.8h1.7v8.4h-1.9c-1.1-1.9-2.1-3.9-3.2-5.9-.1.7,0,1.4,0,2,0,.6,0,1.3,0,1.9v2h-1.7c0-.3-.1-7.8,0-8.4Z"/>
    <path class="cls-1" d="M160.1,241.4c0-.8.2-1.5.5-2.1.4-1,1.2-1.6,2.2-2,1.2-.4,2.4-.4,3.6.2.8.4,1.3,1,1.7,1.7.6,1.4.7,2.8,0,4.2-.5,1.1-1.3,1.8-2.4,2.2-1.4.4-2.7.3-3.9-.5-.9-.6-1.4-1.5-1.6-2.6,0-.4,0-.8-.1-1.1ZM166.6,241.5c0-.8-.1-1.4-.4-1.9-.7-1.3-2.6-1.4-3.5-.2-.4.5-.5,1.1-.5,1.6,0,.7,0,1.4.3,2.1.4.8,1.1,1.2,1.9,1.1.9,0,1.5-.5,1.9-1.3.2-.5.3-1,.3-1.5Z"/>
    <path class="cls-1" d="M133.5,241.3c0,1-.2,1.9-.7,2.6-.8,1.2-1.9,1.8-3.3,1.8-.9,0-1.7-.1-2.4-.6-.9-.6-1.5-1.4-1.8-2.4-.3-1.2-.3-2.3.2-3.5.5-1.2,1.4-1.9,2.6-2.2,1.1-.3,2.2-.2,3.2.3.9.4,1.4,1.1,1.8,2,.3.6.4,1.3.4,1.9ZM131.6,241.4c0-.5-.1-.9-.3-1.4-.3-1-1-1.5-2-1.5-.9,0-1.7.5-2,1.4-.4,1-.3,1.9,0,2.9.3.9,1.1,1.4,2,1.4,1,0,1.7-.5,2-1.4.2-.4.2-.9.3-1.4Z"/>
    <path class="cls-1" d="M90.7,241.4c0,1.2-.3,2.3-1.2,3.2-1,1-2.2,1.3-3.5,1.2-.6,0-1.2-.2-1.7-.5-1.1-.6-1.6-1.6-1.9-2.8-.2-1.3-.1-2.6.6-3.8.6-.9,1.5-1.5,2.7-1.7,1-.2,1.9,0,2.8.4.9.4,1.4,1.1,1.8,2,.3.6.4,1.3.4,2ZM88.7,241.4c0-.6,0-1.1-.3-1.6-.4-.9-1-1.3-2-1.3-.9,0-1.6.5-1.9,1.4-.4,1-.4,2,0,3,.3.9,1.1,1.3,2,1.3,1,0,1.6-.5,2-1.4.2-.5.3-.9.2-1.4Z"/>
    <path class="cls-1" d="M92.3,237.2c.1,0,.3,0,.4,0,1.2,0,2.3,0,3.5,0,.4,0,.9,0,1.3.2.9.2,1.4,1,1.5,1.9,0,1-.3,1.7-1.2,2.1,0,0,0,0-.1.1,0,0,.1,0,.2.1.6.2.8.7.9,1.3,0,.4,0,.7,0,1.1,0,.6,0,1.1.3,1.6-.6,0-1.1,0-1.6,0-.3,0-.4,0-.5-.4,0-.3,0-.7-.1-1,0-.3,0-.6,0-.9-.1-.7-.5-1.1-1.2-1.1-.5,0-1,0-1.5,0,0,1.1,0,2.2,0,3.4h-1.8v-8.4ZM94.1,240.8c.8,0,1.5,0,2.2,0,.5,0,.8-.5.7-1,0-.5-.3-.8-.8-.9-.6,0-1.2,0-1.8,0-.1,0-.2,0-.3,0v2Z"/>
    <path class="cls-1" d="M178.3,242.9h1.8c0,0,0,0,0,.1,0,.8.5,1.2,1.2,1.2.4,0,.9,0,1.3,0,.2,0,.3-.1.5-.2.5-.4.4-1,0-1.3-.2-.1-.4-.2-.6-.2-.7-.2-1.4-.3-2.1-.6-.4-.1-.7-.3-1.1-.5-.5-.3-.8-.9-.8-1.5,0-.3,0-.7,0-1,.2-.8.8-1.4,1.6-1.6,1.1-.4,2.3-.4,3.4,0,1,.4,1.7,1.4,1.6,2.5h-1.8c0,0,0-.1,0-.2-.1-.6-.4-.9-1.1-1-.4,0-.7,0-1.1,0-.2,0-.4.1-.6.3-.4.3-.4.9.1,1.1.3.1.6.2,1,.3.5.1,1.1.2,1.6.4.2,0,.4.1.6.2,2.1.8,1.8,3.3.6,4.2-.6.5-1.4.7-2.1.8-1.1,0-2.1,0-3-.7-.8-.5-1.1-1.3-1.1-2.3Z"/>
    <path class="cls-1" d="M72.9,222.1h4.2v-3.5c.6,0,1.1,0,1.7,0v8.8h-1.7v-3.6h-4.2v3.6c-.6,0-1.1,0-1.7,0v-8.8h1.7v3.5Z"/>
    <path class="cls-1" d="M51,237.2h1.8v3.1h3.2v-3.1h1.9v8.4h-1.8v-3.6h-3.2c0,1.2,0,2.4,0,3.6h-1.8c0-.3-.1-7.8,0-8.4Z"/>
    <path class="cls-1" d="M148.6,221.8c-.5,0-1,0-1.5,0-.2,0-.3-.1-.4-.3-.4-.7-1-1.1-1.7-1.4-1.3-.3-2.6,0-3.3,1.1-1,1.5-.5,3.8,1.2,4.5,1.5.6,3.3.1,4-1.5,0,0,0,0,0,0h1.8c0,.2,0,.3-.1.4-.6,1.7-2.3,2.8-4.1,2.9-.6,0-1.1,0-1.6-.1-1.8-.4-3.2-1.9-3.4-3.9,0-.9,0-1.8.4-2.6.6-1.4,1.7-2.2,3.2-2.5,1.2-.3,2.4,0,3.5.5,1,.5,1.6,1.4,2,2.4,0,0,0,.1,0,.3Z"/>
    <path class="cls-1" d="M41.3,245.6h-6.3c0-2.8,0-5.6,0-8.4h6.3v1.6h-4.4v1.7h3.8v1.4c-1.3,0-2.5,0-3.8,0v2.1c1.5,0,2.9,0,4.4,0v1.6Z"/>
    <path class="cls-1" d="M143.7,243.9c-.2.6-.4,1.1-.5,1.7h-2c1-2.8,2-5.6,2.9-8.4h2.4c.9,2.8,1.8,5.6,2.7,8.4h-2.1c-.2-.5-.3-1.1-.5-1.7h-2.8ZM146.1,242.3c-.3-1.1-.6-2.1-.9-3.2,0,0,0,0,0,0-.3,1-.6,2.1-1,3.2h1.9Z"/>
    <path class="cls-1" d="M90.5,220.2v-1.5c.1,0,.2,0,.4,0,1.2,0,2.4,0,3.6,0,.9,0,1.7.3,2.3,1,.3.4.5.8.5,1.3.1.6,0,1.2-.1,1.8-.2.6-.6,1.1-1.3,1.4-.1,0-.2.1-.4.2.7,1,1.4,2.1,2.1,3.2h-2c-.5-.8-1.1-1.7-1.6-2.5-.2-.3-.4-.5-.8-.5-.3,0-.7,0-1.1,0v3c-.6,0-1.1,0-1.6,0,0-.3-.1-3.6,0-4.6.1,0,.3,0,.4,0,1.1,0,2.1,0,3.2,0,.2,0,.4,0,.6,0,.5,0,.8-.4.9-.9.1-.5,0-1-.4-1.4-.3-.2-.6-.3-1-.3-1.1,0-2.2,0-3.2,0-.2,0-.3,0-.5,0Z"/>
    <path class="cls-1" d="M157.3,227.4c-.6,0-1.3,0-1.9,0-.2,0-.3-.1-.4-.3-.9-1.1-1.8-2.3-2.8-3.4,0,0-.1-.1-.2-.2-.1.3,0,.7,0,1,0,.3,0,.6,0,1v2h-1.7v-8.8c.5,0,1.1,0,1.6,0,0,.4,0,.8,0,1.2,0,.4,0,.8,0,1.2v1.2s0,0,0,0c.1-.1.3-.3.4-.4.8-1,1.7-2,2.5-3,.2-.2.4-.3.7-.3.5,0,1.1,0,1.7,0-.6.8-1.2,1.5-1.8,2.2-.6.7-1.2,1.4-1.9,2.2,1.3,1.5,2.5,3,3.8,4.4,0,0,0,0,0,0Z"/>
    <path class="cls-1" d="M42.2,245.6c1-1.5,1.9-3,2.8-4.5-.9-1.3-1.7-2.6-2.6-4,.2,0,.4,0,.5,0,.4,0,.8,0,1.2,0,.2,0,.4,0,.5.3.4.6.8,1.3,1.2,1.9,0,0,.1.2.2.3.5-.9.9-1.7,1.4-2.5h2.2c-.4.7-.8,1.3-1.2,2-.4.7-.8,1.3-1.3,2,.9,1.5,1.8,2.9,2.8,4.5-.8,0-1.5,0-2.2,0-.6-1-1.1-1.9-1.7-3-.6,1-1.1,2-1.7,3h-2.2Z"/>
    <path class="cls-1" d="M134,237.2h2c.6,2,1.1,4,1.7,6.1.6-2.1,1.2-4.1,1.7-6.1h2c-.9,2.8-1.9,5.6-2.8,8.4h-1.9c-.9-2.8-1.8-5.6-2.8-8.4Z"/>
    <path class="cls-1" d="M62.6,223c.2,0,.3,0,.5,0,1,0,1.9,0,2.9,0,0,0,.2,0,.3,0,1.4,0,1.6-1.1,1.3-2-.1-.4-.5-.6-.8-.7-.2,0-.4,0-.6,0-1,0-2,0-3,0-.2,0-.3,0-.5,0v-1.5c.1,0,.2,0,.4,0,1.2,0,2.3,0,3.5,0,.6,0,1.3.2,1.8.5.7.4,1.1,1.1,1.2,1.8,0,.5,0,1,0,1.4-.2,1-.8,1.7-1.8,2-.4.1-.9.2-1.3.2-.5,0-1,0-1.5,0-.1,0-.3,0-.5,0v2.8h-1.7v-4.4Z"/>
    <path class="cls-1" d="M122.3,220.2v-1.5c.1,0,.2,0,.3,0,1.2,0,2.3,0,3.5,0,.6,0,1.2.1,1.7.4.6.3,1,.8,1.2,1.4.2.8.2,1.5,0,2.3-.3,1-1.1,1.6-2.1,1.8-.3,0-.7,0-1.1,0-.6,0-1.2,0-1.9,0,0,.5,0,1,0,1.4,0,.5,0,.9,0,1.4h-1.6c0-.3-.1-3.6,0-4.4.2,0,.3,0,.5,0,1,0,2,0,3,0,0,0,.2,0,.3,0,.5,0,1-.1,1.2-.6.3-.5.3-1.1,0-1.6-.2-.3-.4-.4-.7-.5-.2,0-.4,0-.6,0-1,0-2,0-3,0-.2,0-.3,0-.5,0Z"/>
    <path class="cls-1" d="M155.7,237.2v1.5c-.8,0-1.7,0-2.5,0v6.8h-1.9v-6.8h-2.6c0-.6,0-1.1,0-1.6h7Z"/>
    <path class="cls-1" d="M77.3,238.8h-2.6v-1.6h7c0,.5,0,1,0,1.5-.9,0-1.7,0-2.6,0v6.8h-1.8c0-.5,0-1.1,0-1.7,0-.6,0-1.1,0-1.7v-3.5Z"/>
    <path class="cls-1" d="M156.9,237.2h1.7c0,.3.1,7.8,0,8.4h-1.7c0-.3-.1-7.8,0-8.4Z"/>
    <path class="cls-1" d="M104.4,245.6v-8.4h1.8v8.4h-1.8Z"/>
    <path class="cls-1" d="M71.8,245.6v-8.4h1.8c0,.3.1,7.7,0,8.4h-1.8Z"/>
    <path class="cls-1" d="M59.8,237.2h1.7c0,.3.1,7.9,0,8.4h-1.7c0-.3-.1-7.9,0-8.4Z"/>
  </g>
</svg>