<?xml version="1.0" encoding="utf-8"?>
<!-- Generator: Adobe Illustrator 25.1.0, SVG Export Plug-In . SVG Version: 6.00 Build 0)  -->
<svg version="1.1" id="Ebene_1" xmlns="http://www.w3.org/2000/svg" xmlns:xlink="http://www.w3.org/1999/xlink" x="0px" y="0px"
	 width="47.7px" height="75.3px" viewBox="0 0 47.7 75.3" style="enable-background:new 0 0 47.7 75.3;" xml:space="preserve">
<style type="text/css">
	.st0{fill:#1C284E;}
	.st1{fill:#FFFFFF;}
</style>
<path id="SVGID_5_" class="st0" d="M12.3,0c-6.6,0-12,5.4-12,12v47.2h35.4c6.6,0,12-5.4,12-12V0H12.3z"/>
<path class="st1" d="M26.3,21.7c0.5,0,0.9,0,1.4,0c0.3,0,0.3,0,0.4,0.3c0.2,0.6,0.5,1.2,0.6,1.9c0.1,0.4,0.1,0.9,0.2,1.3
	c0,0.2,0,0.2-0.2,0.2c-0.4,0-0.7,0-1.1,0c-0.8,0-1.7,0-2.5,0c-0.1,0-0.1,0-0.2,0c-0.1,0-0.2,0-0.2-0.2c0-0.6,0-1.2,0-1.8
	c0-0.6,0-1.1,0-1.7c0-0.1,0-0.1,0.1-0.1C25.4,21.7,25.8,21.7,26.3,21.7C26.3,21.7,26.3,21.7,26.3,21.7z"/>
<g>
	<path class="st0" d="M0,63.1h1.3l0.5,2.5l0.7-2.5h1.3l0.7,2.5L5,63.1h1.3l-1,4.5H4l-0.8-2.9l-0.8,2.9H1L0,63.1z"/>
	<path class="st0" d="M6.6,65.4c0-0.7,0.2-1.3,0.6-1.7c0.4-0.4,1-0.6,1.7-0.6c0.8,0,1.3,0.2,1.7,0.6s0.6,1,0.6,1.7
		c0,0.5-0.1,1-0.3,1.3c-0.2,0.3-0.4,0.6-0.8,0.8S9.5,67.8,9,67.8c-0.5,0-0.9-0.1-1.3-0.2c-0.3-0.2-0.6-0.4-0.8-0.8
		C6.7,66.4,6.6,65.9,6.6,65.4z M8,65.4c0,0.5,0.1,0.8,0.3,1s0.4,0.3,0.7,0.3c0.3,0,0.5-0.1,0.7-0.3s0.2-0.5,0.2-1.1
		c0-0.4-0.1-0.7-0.3-0.9S9.2,64.1,9,64.1c-0.3,0-0.5,0.1-0.7,0.3C8.1,64.6,8,65,8,65.4z"/>
	<path class="st0" d="M12.2,67.7v-4.5h2.3c0.4,0,0.8,0,1,0.1s0.4,0.2,0.6,0.4c0.1,0.2,0.2,0.4,0.2,0.7c0,0.3-0.1,0.5-0.2,0.7
		c-0.1,0.2-0.3,0.3-0.4,0.4c-0.1,0.1-0.3,0.1-0.5,0.2c0.2,0.1,0.3,0.1,0.4,0.2c0.1,0,0.1,0.1,0.2,0.2c0.1,0.1,0.2,0.2,0.2,0.3
		l0.7,1.3h-1.6l-0.7-1.4c-0.1-0.2-0.2-0.3-0.3-0.3c-0.1-0.1-0.2-0.1-0.3-0.1h-0.1v1.8H12.2z M13.6,65h0.6c0.1,0,0.2,0,0.4-0.1
		c0.1,0,0.2-0.1,0.2-0.1s0.1-0.2,0.1-0.3c0-0.1,0-0.3-0.1-0.3c-0.1-0.1-0.3-0.1-0.5-0.1h-0.6V65z"/>
	<path class="st0" d="M17.2,63.1h1.4v3.4h2.2v1.1h-3.6V63.1z"/>
	<path class="st0" d="M21.6,63.1h2.1c0.4,0,0.7,0.1,1,0.2c0.3,0.1,0.5,0.3,0.6,0.5s0.3,0.5,0.4,0.7s0.1,0.6,0.1,0.9
		c0,0.5-0.1,0.9-0.2,1.1c-0.1,0.3-0.3,0.5-0.5,0.7c-0.2,0.2-0.4,0.3-0.6,0.4c-0.3,0.1-0.6,0.1-0.8,0.1h-2.1V63.1z M23,64.2v2.5h0.3
		c0.3,0,0.5,0,0.6-0.1c0.1-0.1,0.2-0.2,0.3-0.3c0.1-0.2,0.1-0.4,0.1-0.8c0-0.5-0.1-0.8-0.2-1c-0.2-0.2-0.4-0.3-0.8-0.3H23z"/>
	<path class="st0" d="M29,66.2l1.3-0.1c0,0.2,0.1,0.4,0.2,0.5c0.1,0.2,0.3,0.3,0.6,0.3c0.2,0,0.4,0,0.5-0.1c0.1-0.1,0.2-0.2,0.2-0.3
		c0-0.1-0.1-0.2-0.2-0.3c-0.1-0.1-0.3-0.2-0.7-0.3c-0.6-0.1-1.1-0.3-1.3-0.6c-0.3-0.2-0.4-0.5-0.4-0.9c0-0.2,0.1-0.5,0.2-0.7
		s0.3-0.4,0.6-0.5c0.3-0.1,0.6-0.2,1.1-0.2c0.6,0,1,0.1,1.3,0.3c0.3,0.2,0.5,0.6,0.5,1l-1.3,0.1c0-0.2-0.1-0.4-0.2-0.4
		s-0.3-0.1-0.5-0.1c-0.2,0-0.3,0-0.4,0.1c-0.1,0.1-0.1,0.2-0.1,0.3c0,0.1,0,0.1,0.1,0.2c0.1,0.1,0.2,0.1,0.5,0.2
		c0.6,0.1,1,0.3,1.3,0.4s0.5,0.3,0.6,0.5c0.1,0.2,0.2,0.4,0.2,0.7c0,0.3-0.1,0.6-0.2,0.8c-0.2,0.2-0.4,0.4-0.7,0.6
		c-0.3,0.1-0.7,0.2-1.1,0.2c-0.8,0-1.3-0.1-1.6-0.4C29.2,67,29,66.6,29,66.2z"/>
	<path class="st0" d="M33.6,63.1h4.3v1.1h-1.4v3.4H35v-3.4h-1.4V63.1z"/>
	<path class="st0" d="M41,66.9h-1.6l-0.2,0.7h-1.4l1.7-4.5H41l1.7,4.5h-1.5L41,66.9z M40.7,66l-0.5-1.6L39.7,66H40.7z"/>
	<path class="st0" d="M43.2,67.7v-4.5h2.3c0.4,0,0.8,0,1,0.1s0.4,0.2,0.6,0.4c0.1,0.2,0.2,0.4,0.2,0.7c0,0.3-0.1,0.5-0.2,0.7
		c-0.1,0.2-0.3,0.3-0.4,0.4c-0.1,0.1-0.3,0.1-0.5,0.2c0.2,0.1,0.3,0.1,0.4,0.2c0.1,0,0.1,0.1,0.2,0.2c0.1,0.1,0.2,0.2,0.2,0.3
		l0.7,1.3h-1.6l-0.7-1.4c-0.1-0.2-0.2-0.3-0.3-0.3c-0.1-0.1-0.2-0.1-0.3-0.1h-0.1v1.8H43.2z M44.6,65h0.6c0.1,0,0.2,0,0.4-0.1
		c0.1,0,0.2-0.1,0.2-0.1s0.1-0.2,0.1-0.3c0-0.1,0-0.3-0.1-0.3c-0.1-0.1-0.3-0.1-0.5-0.1h-0.6V65z"/>
</g>
<g>
	<path class="st0" d="M0,70.7h1.3l0.5,2.5l0.7-2.5h1.3l0.7,2.5L5,70.7h1.3l-1,4.5H4l-0.8-2.9l-0.8,2.9H1L0,70.7z"/>
	<path class="st0" d="M6.9,70.7h1.4v4.5H6.9V70.7z"/>
	<path class="st0" d="M9.3,70.7h1.3l1.7,2.5v-2.5h1.3v4.5h-1.3l-1.7-2.5v2.5H9.3V70.7z"/>
	<path class="st0" d="M14.5,70.7h1.3l1.7,2.5v-2.5h1.3v4.5h-1.3l-1.7-2.5v2.5h-1.3V70.7z"/>
	<path class="st0" d="M19.8,70.7h3.8v1h-2.3v0.7h2.2v0.9h-2.2v0.9h2.4v1h-3.8V70.7z"/>
	<path class="st0" d="M24.4,75.3v-4.5h2.3c0.4,0,0.8,0,1,0.1s0.4,0.2,0.6,0.4c0.1,0.2,0.2,0.4,0.2,0.7c0,0.3-0.1,0.5-0.2,0.7
		c-0.1,0.2-0.3,0.3-0.4,0.4c-0.1,0.1-0.3,0.1-0.5,0.2c0.2,0.1,0.3,0.1,0.4,0.2c0.1,0,0.1,0.1,0.2,0.2c0.1,0.1,0.2,0.2,0.2,0.3
		l0.7,1.3h-1.6l-0.7-1.4c-0.1-0.2-0.2-0.3-0.3-0.3c-0.1-0.1-0.2-0.1-0.3-0.1h-0.1v1.8H24.4z M25.8,72.6h0.6c0.1,0,0.2,0,0.4-0.1
		c0.1,0,0.2-0.1,0.2-0.1s0.1-0.2,0.1-0.3c0-0.1,0-0.3-0.1-0.3c-0.1-0.1-0.3-0.1-0.5-0.1h-0.6V72.6z"/>
	<path class="st0" d="M34.8,75.3H31c0-0.4,0.2-0.7,0.4-1.1c0.2-0.3,0.6-0.7,1.2-1.2c0.4-0.3,0.6-0.5,0.7-0.6
		c0.1-0.1,0.2-0.3,0.2-0.4c0-0.1-0.1-0.3-0.2-0.4c-0.1-0.1-0.2-0.1-0.4-0.1c-0.2,0-0.3,0.1-0.4,0.2c-0.1,0.1-0.2,0.3-0.2,0.5
		l-1.3-0.1c0-0.4,0.1-0.6,0.3-0.8c0.1-0.2,0.3-0.4,0.6-0.5c0.2-0.1,0.6-0.2,1-0.2c0.4,0,0.8,0.1,1,0.2s0.4,0.3,0.6,0.5
		c0.1,0.2,0.2,0.4,0.2,0.7c0,0.3-0.1,0.5-0.2,0.8c-0.2,0.3-0.5,0.5-0.9,0.8c-0.3,0.2-0.4,0.3-0.5,0.4c-0.1,0.1-0.2,0.2-0.3,0.3h2
		V75.3z"/>
	<path class="st0" d="M35.3,73c0-0.9,0.2-1.5,0.5-1.8c0.3-0.3,0.8-0.5,1.4-0.5c0.3,0,0.6,0,0.8,0.1c0.2,0.1,0.4,0.2,0.5,0.3
		c0.1,0.1,0.2,0.2,0.3,0.4c0.1,0.1,0.1,0.3,0.2,0.5C39,72.3,39,72.6,39,73c0,0.8-0.1,1.4-0.4,1.8c-0.3,0.4-0.8,0.6-1.4,0.6
		c-0.4,0-0.7-0.1-0.9-0.2c-0.2-0.1-0.4-0.3-0.6-0.5c-0.1-0.2-0.2-0.4-0.3-0.7C35.3,73.7,35.3,73.3,35.3,73z M36.5,73
		c0,0.6,0.1,1,0.2,1.2c0.1,0.2,0.2,0.3,0.4,0.3c0.1,0,0.2,0,0.3-0.1c0.1-0.1,0.2-0.2,0.2-0.4c0-0.2,0.1-0.5,0.1-0.9
		c0-0.6-0.1-1-0.2-1.2c-0.1-0.2-0.3-0.3-0.5-0.3c-0.2,0-0.4,0.1-0.5,0.3C36.6,72,36.5,72.4,36.5,73z"/>
	<path class="st0" d="M43.2,75.3h-3.8c0-0.4,0.2-0.7,0.4-1.1c0.2-0.3,0.6-0.7,1.2-1.2c0.4-0.3,0.6-0.5,0.7-0.6
		c0.1-0.1,0.2-0.3,0.2-0.4c0-0.1-0.1-0.3-0.2-0.4c-0.1-0.1-0.2-0.1-0.4-0.1c-0.2,0-0.3,0.1-0.4,0.2c-0.1,0.1-0.2,0.3-0.2,0.5
		l-1.3-0.1c0-0.4,0.1-0.6,0.3-0.8c0.1-0.2,0.3-0.4,0.6-0.5c0.2-0.1,0.6-0.2,1-0.2c0.4,0,0.8,0.1,1,0.2s0.4,0.3,0.6,0.5
		c0.1,0.2,0.2,0.4,0.2,0.7c0,0.3-0.1,0.5-0.2,0.8c-0.2,0.3-0.5,0.5-0.9,0.8c-0.3,0.2-0.4,0.3-0.5,0.4c-0.1,0.1-0.2,0.2-0.3,0.3h2
		V75.3z"/>
	<path class="st0" d="M46.6,70.7v4.6h-1.3v-3c-0.2,0.2-0.4,0.3-0.6,0.4c-0.2,0.1-0.4,0.2-0.7,0.3v-1c0.4-0.1,0.8-0.3,1-0.5
		c0.2-0.2,0.4-0.4,0.6-0.7H46.6z"/>
</g>
<path class="st1" d="M5.7,24.7c0-0.6,0-1.2,0.1-1.7c0.1-0.7,0.1-1.3,0.2-2c0-0.4,0.1-0.8,0.2-1.1c0.1-0.5,0.2-1,0.4-1.5
	C6.7,18,6.8,17.6,7,17.2c0.2-0.6,0.5-1.2,0.7-1.7c0.4-0.8,0.8-1.6,1.4-2.4c0.5-0.8,1.1-1.5,1.7-2.1c0.4-0.5,0.9-1,1.4-1.4
	c0.3-0.3,0.6-0.6,1-0.9c0.6-0.5,1.2-0.9,1.9-1.4c0.7-0.5,1.4-0.9,2.1-1.3c0.7-0.4,1.4-0.7,2.2-1.1c0.4-0.2,0.9-0.4,1.4-0.6
	C21,4.3,21.4,4.2,21.7,4c0.4-0.1,0.6-0.1,0.8,0.3C22.8,4.7,23,5.1,23,5.5c0.1,0.4,0.2,0.8,0.2,1.2c0.1,0.3,0.1,0.6,0.2,0.9
	c0,0.1,0,0.2-0.1,0.2c-0.7,0.2-1.4,0.5-2.1,0.7c-0.9,0.4-1.7,0.8-2.5,1.2c-0.7,0.4-1.3,0.8-1.9,1.2c-0.7,0.4-1.3,1-1.9,1.5
	c-0.2,0.2-0.4,0.4-0.7,0.6c-0.7,0.7-1.2,1.4-1.7,2.1c-0.3,0.5-0.7,1.1-0.9,1.6c-0.2,0.5-0.5,0.9-0.6,1.4c-0.2,0.5-0.4,1.1-0.5,1.7
	c-0.2,0.7-0.3,1.4-0.4,2.1c-0.1,0.4-0.1,0.8-0.1,1.2c0,0.6-0.1,1.2-0.1,1.8c0,0.5,0,1,0.1,1.5c0.1,0.9,0.3,1.8,0.6,2.7
	c0.2,0.6,0.4,1.3,0.7,1.9c0.3,0.6,0.6,1.2,0.9,1.7c0.6,0.9,1.2,1.7,2,2.5c0.6,0.6,1.3,1.2,1.9,1.7c0.6,0.4,1.3,0.8,1.9,1.2
	c0.8,0.4,1.7,0.8,2.6,1c0.5,0.1,1,0.2,1.5,0.3c0.3,0.1,0.7,0.1,1,0.1c0.6,0,1.3,0.1,1.9,0.1c0.5,0,0.9-0.1,1.4-0.1
	c0.4-0.1,0.8-0.1,1.2-0.2c0.3-0.1,0.6-0.1,0.9-0.2c0.4-0.1,0.9-0.3,1.3-0.5c0.4-0.1,0.8-0.3,1.1-0.5c0.4-0.2,0.8-0.4,1.2-0.7
	c0.6-0.4,1.2-0.8,1.7-1.2c0.4-0.4,0.9-0.8,1.3-1.2c0.4-0.4,0.7-0.8,1-1.3c0.3-0.4,0.6-0.9,0.9-1.3c0.2-0.3,0.4-0.7,0.5-1
	c0.2-0.5,0.5-1,0.6-1.6c0.2-0.6,0.3-1.2,0.5-1.9c0.2-0.7,0.2-1.4,0.3-2.1c0.1-0.5,0-1.1,0-1.6c0-0.5-0.1-1-0.2-1.6
	c-0.1-0.7-0.3-1.4-0.5-2.1c-0.1-0.5-0.3-1-0.5-1.5c-0.2-0.5-0.5-1.1-0.8-1.6c-0.2-0.4-0.5-0.8-0.8-1.2c-0.7-0.9-1.5-1.8-2.4-2.5
	c-0.3-0.3-0.7-0.5-1-0.7c-0.5-0.3-0.9-0.6-1.4-0.8c-0.5-0.2-1-0.5-1.5-0.7c-0.7-0.2-1.4-0.5-2.1-0.6c-0.7-0.2-1.5-0.3-2.3-0.4
	c-0.4,0-0.7-0.1-1.1-0.1c-0.1,0-0.1,0-0.1-0.1c0-0.7,0-1.4,0-2.1c0-0.4,0-0.8,0-1.2c0-0.2,0.1-0.4,0.1-0.6c0-0.1,0.1-0.1,0.2-0.1
	c0.3,0,0.6,0,0.9,0.1c0.5,0.1,1,0.1,1.5,0.2C28,6.9,28.7,7,29.5,7.2c0.5,0.1,1.1,0.3,1.6,0.5C32,8.1,32.9,8.5,33.8,9
	c1,0.6,2,1.3,2.9,2.1c0.5,0.5,1.1,1,1.6,1.5c0.6,0.6,1.2,1.3,1.7,2c0.2,0.3,0.4,0.5,0.6,0.8c0.3,0.5,0.5,0.9,0.8,1.4
	c0.3,0.5,0.5,1,0.7,1.6c0.2,0.5,0.4,1.1,0.6,1.6c0.1,0.3,0.2,0.7,0.3,1c0.1,0.4,0.1,0.8,0.2,1.1c0.1,0.4,0.1,0.8,0.1,1.1
	c0,0.9,0,1.7,0,2.6c0,0.7-0.1,1.4-0.2,2.1c-0.1,0.6-0.2,1.2-0.4,1.8c-0.1,0.4-0.2,0.8-0.3,1.1c-0.2,0.5-0.4,1.1-0.6,1.6
	c-0.3,0.6-0.6,1.2-0.9,1.7c-0.4,0.6-0.8,1.1-1.2,1.7c-0.5,0.6-1,1.2-1.5,1.7c-0.3,0.3-0.6,0.6-1,0.9c-0.4,0.4-0.8,0.7-1.2,1.1
	c-0.5,0.4-1,0.8-1.6,1.1c-0.4,0.3-0.8,0.5-1.2,0.7c-0.5,0.2-0.9,0.5-1.4,0.7c-0.4,0.2-0.8,0.3-1.2,0.5c-0.4,0.1-0.9,0.3-1.3,0.4
	c-0.3,0.1-0.7,0.2-1,0.2c-0.2,0.1-0.5,0.1-0.7,0.1c-0.6,0.1-1.1,0.2-1.7,0.2c-0.7,0-1.5,0.1-2.2,0c-0.7,0-1.3-0.1-2-0.2
	c-0.5-0.1-1.1-0.2-1.6-0.3c-0.8-0.2-1.6-0.4-2.3-0.7c-0.9-0.3-1.8-0.8-2.7-1.3c-1-0.6-1.9-1.2-2.7-1.9c-0.5-0.5-1-1.1-1.5-1.6
	c-0.4-0.4-0.7-0.8-1-1.2c-0.5-0.7-1-1.4-1.5-2.2c-0.2-0.3-0.4-0.6-0.5-0.9c-0.3-0.7-0.6-1.3-0.8-2c-0.2-0.6-0.4-1.2-0.5-1.8
	c-0.1-0.5-0.2-1-0.3-1.5c-0.1-0.5-0.2-1-0.2-1.4C5.8,25.9,5.8,25.2,5.7,24.7z M11.9,14.4c-0.1,0-0.1,0-0.2-0.1
	c-0.3-0.1-0.5-0.1-0.8-0.2c-0.5-0.1-1-0.3-1.5-0.4c-0.1,0-0.2,0-0.2,0.1c-0.1,0.1-0.2,0.3-0.2,0.4c0,0,0,0.1,0,0.2
	c0.3,0.3,0.7,0.6,1,0.9c0,0,0.1,0.1,0.1,0.1c0,0,0,0,0,0c0,0-0.1,0-0.1,0c-0.2,0-0.4-0.1-0.5-0.1c-0.3-0.1-0.5-0.1-0.8-0.2
	c0,0-0.1,0-0.1,0.1c-0.1,0.1-0.1,0.2-0.2,0.4c-0.1,0.2-0.1,0.2,0.1,0.4c0.4,0.3,0.7,0.6,1.1,0.9c0.2,0.2,0.5,0.4,0.7,0.6
	c0.1,0.1,0.1,0.1,0.2,0c0.1-0.1,0.1-0.3,0.2-0.4c0-0.1,0-0.2,0-0.2c-0.2-0.2-0.5-0.3-0.7-0.5C9.7,16.1,9.6,16,9.5,16c0,0,0,0,0,0
	c0,0,0.1,0,0.1,0c0.4,0.1,0.8,0.2,1.1,0.3c0.1,0,0.2,0,0.2-0.1c0.1-0.1,0.1-0.3,0.2-0.4c0,0,0-0.1,0-0.2c-0.3-0.3-0.6-0.5-0.9-0.8
	c0,0-0.1-0.1-0.1-0.1c0.1,0,0.1,0,0.2,0c0.4,0.1,0.7,0.2,1.1,0.3c0.1,0,0.1,0,0.2,0C11.7,14.8,11.8,14.6,11.9,14.4z M40.9,25.7
	C40.9,25.7,40.9,25.7,40.9,25.7c0.1-0.1,0.1-0.1,0.2-0.2c0.4-0.2,0.7-0.5,1.1-0.7c0.1,0,0.1-0.1,0.1-0.2c0-0.1,0-0.3,0-0.4
	c0-0.2,0-0.2-0.2-0.2c-0.5,0-1.1,0-1.6,0c-0.2,0-0.5,0-0.7,0c-0.2,0-0.2,0-0.2,0.2c0,0.1,0,0.3,0,0.4c0,0.1,0,0.1,0.1,0.1
	c0.4,0,0.8,0,1.2,0c0,0,0.1,0,0.1,0c0,0,0,0,0,0C41,24.9,40.9,25,40.8,25c-0.3,0.2-0.7,0.4-1,0.6c-0.1,0-0.1,0.1-0.1,0.2
	c0,0.2,0,0.3,0,0.5c0,0.1,0,0.1,0.1,0.1c0.5,0,0.9,0,1.4,0c0.3,0,0.6,0,0.9,0c0.1,0,0.1,0,0.1-0.1c0-0.1,0-0.3,0-0.4
	c0-0.1,0-0.2-0.2-0.2c-0.4,0-0.7,0-1.1,0C41,25.7,40.9,25.7,40.9,25.7z M8.7,23c0.3,0,0.5-0.1,0.6-0.5c0.1-0.5,0.2-1.1,0.2-1.6
	c0,0-0.1-0.1-0.1-0.1c-0.1,0-0.3,0-0.5-0.1c-0.6-0.1-1.3-0.1-1.9-0.2c-0.1,0-0.1,0-0.1,0.1c0,0.2,0,0.3-0.1,0.5c0,0,0.1,0.1,0.1,0.1
	c0.2,0,0.5,0.1,0.7,0.1c0.1,0,0.1,0,0.2,0.1c0,0.1-0.1,0.2-0.1,0.2c0,0-0.1,0.1-0.1,0.1c-0.3,0.1-0.6,0.2-0.8,0.3
	c0,0-0.1,0.1-0.1,0.1c0,0.2-0.1,0.4-0.1,0.7c0,0,0.1,0.1,0.1,0.1c0.2-0.1,0.4-0.1,0.5-0.2c0.2-0.1,0.4-0.1,0.5-0.3
	c0-0.1,0.1,0,0.1,0c0,0.1,0.1,0.1,0.1,0.2C8.1,22.9,8.4,23,8.7,23z M13.5,39.7C13.5,39.6,13.5,39.6,13.5,39.7
	c0.2-0.4,0.4-0.8,0.3-1.2c0,0,0-0.1,0-0.1c0,0,0.1,0,0.1,0c0,0,0.1,0,0.1,0c0.2,0,0.4-0.1,0.6-0.2c0.3-0.3,0.3-0.7,0-1
	c-0.3-0.3-0.7-0.6-1-0.9c-0.1-0.1-0.2-0.1-0.2,0c-0.2,0.3-0.4,0.5-0.7,0.7c-0.3,0.3-0.6,0.7-0.9,1c0,0,0,0.1,0,0.2
	c0.1,0.1,0.3,0.3,0.4,0.4c0,0,0.1,0,0.1,0c0.2-0.2,0.4-0.4,0.6-0.6c0.1-0.1,0.2-0.1,0.2,0c0,0.1,0,0.2,0,0.3
	c-0.1,0.3-0.2,0.5-0.2,0.8c0,0.1,0,0.1,0,0.2C13.1,39.3,13.3,39.5,13.5,39.7z M24,42.6C24,42.6,24.1,42.6,24,42.6c0-0.1,0-0.2,0-0.3
	c0-0.1,0-0.1,0.1-0.1c0.2,0,0.2,0.1,0.3,0.2c0.1,0.2,0.2,0.5,0.3,0.7c0,0.1,0.1,0.1,0.2,0.1c0.2,0,0.4,0,0.6,0
	c0.1,0,0.1-0.1,0.1-0.2c-0.1-0.2-0.2-0.4-0.3-0.6c-0.1-0.2-0.2-0.3-0.3-0.4c-0.1,0,0-0.1,0-0.1c0.4-0.1,0.5-0.4,0.5-0.8
	c0-0.3-0.3-0.6-0.5-0.6c-0.5,0-1,0-1.6-0.1c-0.1,0-0.1,0-0.1,0.1c0,0.7,0,1.3,0,2c0,0.1,0,0.2,0,0.3c0,0.1,0,0.1,0.1,0.1
	c0.2,0,0.3,0,0.5,0c0.1,0,0.1,0,0.1-0.1C24,42.9,24,42.8,24,42.6z M36.7,35.9c-0.1,0-0.1,0-0.1-0.1c-0.2-0.1-0.3-0.3-0.5-0.4
	c-0.1-0.1-0.1-0.1-0.2,0c-0.1,0.1-0.2,0.2-0.3,0.3c-0.1,0.1-0.1,0.2,0,0.2c0.2,0.2,0.4,0.3,0.6,0.5c0.4,0.3,0.8,0.6,1.2,1
	c0.1,0.1,0.1,0,0.2,0c0.1-0.1,0.2-0.2,0.3-0.3c0.1-0.2,0.1-0.2-0.1-0.3c-0.2-0.1-0.4-0.3-0.4-0.6c0,0,0-0.1,0-0.1c0-0.1,0-0.1,0-0.2
	c0,0,0.1,0,0.2,0c0.2,0,0.4,0.1,0.5,0.1c0.1,0,0.3,0.1,0.4,0.1c0,0,0.1,0,0.1-0.1c0.1-0.2,0.2-0.3,0.4-0.5c0.1-0.1,0.1-0.2-0.1-0.2
	c-0.2,0-0.5-0.1-0.7-0.1c-0.2,0-0.5-0.1-0.7-0.1c-0.2,0-0.3-0.1-0.3-0.3c0-0.3-0.1-0.6-0.2-1c0,0,0,0-0.1-0.1
	c-0.2,0.2-0.3,0.4-0.5,0.6c-0.1,0.1-0.1,0.2-0.1,0.3c0.1,0.3,0.2,0.6,0.2,0.9C36.7,35.8,36.7,35.8,36.7,35.9z M8,28.7
	c0.4,0,0.7-0.1,1-0.2c0.3-0.2,0.5-0.5,0.5-0.9c0-0.4-0.1-0.8-0.2-1.2c0-0.1-0.1-0.1-0.2-0.1c-0.2,0-0.5,0.1-0.7,0.1
	c-0.5,0.1-1,0.2-1.5,0.2c-0.1,0-0.2,0.1-0.1,0.2c0.1,0.4,0.1,0.8,0.2,1.1c0,0.2,0.2,0.4,0.3,0.5C7.4,28.7,7.7,28.8,8,28.7z
	 M22.5,41.5c0-0.2,0-0.5-0.2-0.7c-0.3-0.4-0.7-0.5-1.2-0.5c-0.5,0-0.8,0.2-1,0.6c-0.2,0.4-0.3,0.7-0.2,1.1c0.1,0.3,0.2,0.6,0.5,0.7
	c0.2,0.1,0.4,0.2,0.6,0.2c0.5,0.1,0.9-0.1,1.1-0.5C22.4,42.1,22.5,41.8,22.5,41.5z M7.3,18.7c0,0.4,0.1,0.7,0.4,0.9
	C8.1,19.8,8.5,20,9,19.9c0.3,0,0.6-0.1,0.7-0.4c0.2-0.3,0.4-0.7,0.3-1.1c0-0.3-0.2-0.6-0.4-0.8c-0.3-0.2-0.7-0.4-1.2-0.3
	c-0.3,0-0.5,0.1-0.7,0.3C7.5,17.9,7.3,18.2,7.3,18.7z M40.3,31.5c0.4,0,0.7-0.1,1-0.5c0.2-0.3,0.3-0.7,0.3-1.1
	c0-0.2-0.1-0.4-0.1-0.6c0,0,0-0.1-0.1-0.1c-0.3-0.1-0.6-0.2-0.9-0.3c0,0-0.1,0-0.1,0.1c-0.1,0.3-0.2,0.6-0.3,0.9c0,0,0,0.1,0.1,0.1
	c0.1,0,0.2,0.1,0.3,0.1c0,0,0.1,0,0.1-0.1c0-0.1,0.1-0.1,0.1-0.2c0-0.1,0-0.2,0.1-0.1c0.1,0,0.2,0,0.2,0.2c0,0.1,0,0.1,0,0.2
	c0,0.4-0.2,0.6-0.6,0.6c-0.2,0-0.4-0.1-0.6-0.2c-0.2-0.1-0.3-0.2-0.3-0.5c0-0.2,0-0.4,0.3-0.5c0.1,0,0.1-0.1,0.2-0.1
	c0-0.1,0-0.2,0.1-0.3c0-0.3,0-0.3-0.3-0.3c-0.3,0.1-0.4,0.2-0.6,0.5c-0.1,0.2-0.2,0.4-0.2,0.6c-0.1,0.2-0.1,0.5,0.1,0.7
	C39.2,31.3,39.7,31.5,40.3,31.5z M42.1,22c0-0.5-0.2-0.9-0.6-1.3c0,0-0.1-0.1-0.2-0.1c-0.3,0-0.6,0.1-0.8,0.1
	c-0.1,0-0.1,0.1-0.1,0.2c0,0.3,0.1,0.5,0.1,0.8c0,0.2,0,0.2,0.3,0.2c0.3,0,0.3,0,0.3-0.4c0-0.1,0-0.1,0-0.2c0.1-0.1,0.2,0,0.2,0
	c0,0.1,0.1,0.1,0.1,0.2c0.2,0.3,0.1,0.6-0.2,0.8c-0.3,0.2-0.6,0.2-0.9,0.1c-0.4-0.1-0.5-0.6-0.2-0.8c0,0,0.1-0.1,0.1-0.1
	C40,21.4,40,21.2,39.9,21c0-0.1-0.1-0.1-0.2,0c0,0,0,0-0.1,0.1c-0.2,0.2-0.4,0.4-0.4,0.7c0,0.3,0.1,0.6,0.1,0.8
	c0.1,0.3,0.4,0.6,0.7,0.7c0.4,0.1,0.7,0.1,1.1,0C41.7,23,42.1,22.6,42.1,22z M9.2,30.5C9.2,30.5,9.2,30.5,9.2,30.5
	c0-0.1,0-0.3,0-0.4c0,0,0-0.1,0.1-0.1c0.1,0,0.2,0,0.2,0c0.2,0.2,0.2,0.4,0,0.6c-0.1,0-0.1,0.1,0,0.2c0.1,0.1,0.1,0.3,0.2,0.4
	c0,0.1,0.1,0.1,0.2,0.1c0.2-0.2,0.4-0.4,0.4-0.7c0-0.4-0.1-0.7-0.4-1c-0.3-0.3-0.8-0.3-1,0c-0.1,0.2-0.2,0.4-0.2,0.6
	c0,0.2,0,0.5,0,0.7c0,0.1-0.1,0.2-0.2,0.2c-0.1,0-0.2,0-0.3-0.1c-0.2-0.2-0.2-0.5,0.1-0.6c0.1-0.1,0.1-0.2,0.1-0.3
	c0-0.1-0.1-0.2-0.1-0.3c0-0.1-0.1-0.2-0.2-0.1c0,0-0.1,0-0.1,0.1c-0.3,0.2-0.4,0.5-0.3,0.9c0,0.2,0.1,0.3,0.2,0.5
	c0.1,0.3,0.3,0.6,0.7,0.6c0.4,0.1,0.8-0.2,0.9-0.6C9.2,30.9,9.2,30.7,9.2,30.5z M12.1,34.4c-0.1,0-0.1,0-0.1,0
	c-0.1,0-0.3,0.1-0.4,0.1c-0.6,0.2-1.3,0.4-1.9,0.6c-0.1,0-0.1,0.1,0,0.2c0.1,0.1,0.2,0.2,0.2,0.3c0.1,0.2,0.2,0.2,0.3,0.1
	c0.2-0.1,0.3-0.1,0.4,0.1c0.1,0.1,0.2,0.3,0.3,0.4c0.1,0.1,0.1,0.2,0,0.3c0,0-0.1,0.1-0.1,0.1c-0.1,0.1-0.1,0.2,0,0.2
	c0.1,0.1,0.2,0.2,0.3,0.3c0.1,0.2,0.1,0.2,0.2,0c0.2-0.3,0.4-0.6,0.6-0.8c0.3-0.4,0.5-0.8,0.8-1.2c0.1-0.1,0.1-0.2,0-0.2
	c-0.1-0.1-0.2-0.3-0.3-0.4C12.2,34.5,12.1,34.5,12.1,34.4z M38,32.1C38,32.2,38,32.2,38,32.1c-0.2,0.2-0.3,0.4-0.4,0.6
	c0,0.1,0,0.2,0,0.2c0.1,0.2,0.3,0.3,0.5,0.5c0.4,0.4,0.8,0.9,1.2,1.3c0.1,0.1,0.1,0.1,0.2,0c0.1-0.1,0.1-0.2,0.2-0.4
	c0.1-0.2,0.1-0.2-0.1-0.3c-0.1,0-0.1-0.1-0.1-0.2c0,0,0-0.1,0-0.1c0.1-0.2,0.2-0.3,0.3-0.5c0.1-0.1,0.1-0.1,0.3-0.1c0,0,0.1,0,0.1,0
	c0.1,0,0.2,0,0.2-0.1c0.1-0.1,0.1-0.3,0.2-0.4c0.1-0.1,0.1-0.1-0.1-0.2c-0.3,0-0.6-0.1-0.9-0.1C39.1,32.3,38.6,32.2,38,32.1z
	 M32.6,40.9c0,0,0.1-0.1,0.2-0.1c0.1-0.1,0.3-0.1,0.4-0.2c0.2-0.1,0.2-0.1,0.4,0.1c0.1,0.1,0.2,0.1,0.3,0.1c0.1-0.1,0.2-0.1,0.3-0.2
	c0.2-0.1,0.2-0.1,0-0.3c-0.2-0.2-0.5-0.4-0.7-0.6c-0.4-0.3-0.8-0.6-1.1-1c-0.1-0.1-0.1-0.1-0.2,0c-0.2,0.1-0.3,0.2-0.5,0.3
	c0,0-0.1,0.1-0.1,0.1c0,0.3,0.1,0.5,0.1,0.8c0.1,0.6,0.2,1.1,0.3,1.7c0,0.1,0.1,0.1,0.2,0.1c0.1,0,0.1-0.1,0.2-0.1
	c0.1,0,0.2-0.1,0.3-0.2c0,0,0-0.1,0-0.1C32.7,41.1,32.6,41,32.6,40.9z M35.6,36.9c0,0-0.1-0.1-0.1-0.1c-0.3-0.1-0.6-0.2-0.8-0.1
	c-0.2,0.1-0.4,0.2-0.6,0.4c-0.3,0.3-0.4,0.7-0.2,1.2c0.1,0.3,0.3,0.6,0.5,0.7c0.2,0.1,0.3,0.3,0.5,0.3c0.3,0.1,0.6,0,0.9-0.2
	c0.1-0.1,0.1-0.1,0.2-0.2c0.4-0.3,0.5-0.8,0.3-1.3c0-0.1-0.1-0.1-0.2,0c-0.1,0.1-0.2,0.1-0.3,0.2c-0.2,0.1-0.2,0.1-0.1,0.2
	c0.1,0.2,0,0.4-0.1,0.5c-0.2,0.1-0.4,0.2-0.5,0.1c-0.3-0.2-0.5-0.4-0.6-0.7c-0.1-0.2-0.1-0.4,0.1-0.5c0.1-0.1,0.3-0.2,0.5-0.1
	c0.1,0,0.1,0,0.2,0C35.3,37.2,35.4,37.1,35.6,36.9z M30.4,39.6c-0.1,0-0.2,0-0.2,0c-0.4,0.1-0.9,0.3-1.3,0.5c0,0-0.1,0.1-0.1,0.1
	c0.1,0.2,0.2,0.4,0.2,0.7c0.1,0.3,0.2,0.5,0.3,0.8c0.1,0.3,0.2,0.5,0.3,0.8c0,0,0.1,0.1,0.1,0.1c0.2-0.1,0.4-0.1,0.5-0.2
	c0,0,0.1-0.1,0-0.1c-0.1-0.2-0.2-0.5-0.3-0.7c0-0.1,0-0.2,0.1-0.2c0.1,0,0.2-0.1,0.4-0.1c0.2-0.1,0.4-0.2,0.5-0.4
	c0.2-0.3,0.1-0.6-0.1-0.9C30.9,39.7,30.7,39.6,30.4,39.6z M19.8,40c0,0-0.1-0.1-0.1-0.1c-0.5-0.2-1-0.4-1.5-0.6
	c-0.1,0-0.2,0-0.2,0.1c-0.2,0.4-0.3,0.9-0.5,1.3c-0.1,0.3-0.2,0.6-0.3,0.8c-0.1,0.1,0,0.2,0.1,0.2c0.1,0.1,0.3,0.1,0.4,0.2
	c0.1,0,0.1,0,0.2-0.1c0.1-0.2,0.2-0.5,0.3-0.7c0-0.2,0.1-0.2,0.2-0.1c0.1,0.1,0.3,0.1,0.4,0.2c0.3,0.1,0.3,0.1,0.5-0.2
	c0-0.1,0-0.2-0.1-0.2c-0.2-0.1-0.4-0.1-0.6-0.2c-0.1,0-0.1-0.1-0.1-0.2c0-0.1,0.1-0.2,0.1-0.3c0,0,0.1,0,0.1,0
	c0.1,0,0.2,0.1,0.3,0.1c0.2,0.1,0.4,0.1,0.6,0.2c0,0,0.1,0,0.1,0C19.7,40.3,19.7,40.1,19.8,40z M11.5,33.6
	C11.5,33.5,11.5,33.5,11.5,33.6c-0.1-0.2-0.2-0.4-0.3-0.5c-0.2-0.5-0.5-0.9-0.7-1.4c0-0.1-0.1-0.1-0.2-0.1c-0.1,0.1-0.2,0.1-0.3,0.2
	c-0.1,0-0.1,0.1-0.1,0.1c0.1,0.2,0.2,0.3,0.2,0.5c0.1,0.1,0.1,0.2-0.1,0.2c-0.5,0.2-1,0.5-1.5,0.7c-0.1,0-0.1,0.1-0.1,0.2
	c0.1,0.2,0.2,0.3,0.2,0.5C8.8,34,8.9,34,9,34c0.5-0.3,1-0.5,1.6-0.8c0.1,0,0.1,0,0.2,0.1c0.1,0.2,0.2,0.3,0.2,0.5
	c0,0,0.1,0.1,0.1,0.1C11.2,33.8,11.3,33.7,11.5,33.6C11.5,33.6,11.5,33.6,11.5,33.6z M6.6,24.7C6.6,24.7,6.6,24.7,6.6,24.7
	c0,0.3,0,0.6,0,0.8c0,0.1,0,0.2,0.1,0.1c0.1,0,0.2,0,0.3,0c0.2,0,0.2-0.1,0.2-0.2c0-0.3,0-0.6,0-0.9c0-0.1,0-0.2,0.1-0.2
	c0.6,0,1.2,0,1.7,0c0.1,0,0.1-0.1,0.1-0.1c0-0.2,0-0.3,0-0.5c0-0.1,0-0.1-0.1-0.1c-0.1,0-0.2,0-0.3,0c-0.7,0-1.4,0-2.1,0
	c-0.1,0-0.1,0-0.1,0.1C6.6,24.2,6.6,24.4,6.6,24.7z M41.9,28.4c0,0,0.1-0.1,0.1-0.1c0-0.2,0.1-0.3,0.1-0.5c0-0.1,0-0.1-0.1-0.1
	c-0.3,0-0.5-0.1-0.8-0.1c-0.5-0.1-1-0.2-1.6-0.3c-0.1,0-0.1,0-0.1,0.1c0,0.2-0.1,0.3-0.1,0.5c0,0.1,0,0.2,0.1,0.2
	c0.3,0,0.6,0.1,0.9,0.1C40.9,28.2,41.4,28.3,41.9,28.4z"/>
<path class="st1" d="M14.6,50.8c0.1-0.2,0.1-0.4,0.2-0.6c0.1-0.4,0.2-0.9,0.4-1.3c0.1-0.5,0.3-1,0.4-1.4c0-0.2,0.1-0.3,0.1-0.5
	c0,0,0.1-0.1,0.1-0.1c0.6,0,1.3,0,1.9,0c0,0,0.1,0.1,0.1,0.1c0.2,0.8,0.5,1.6,0.7,2.5c0.1,0.3,0.2,0.6,0.3,0.9
	c0,0.1,0.1,0.2,0.1,0.4c0,0,0,0,0,0c0,0,0,0,0-0.1c0.1-0.3,0.1-0.7,0.2-1c0.1-0.7,0.3-1.5,0.4-2.2c0-0.2,0.1-0.3,0.1-0.5
	c0,0,0.1-0.1,0.1-0.1c0.5,0,1.1,0,1.6,0c0.1,0,0.1,0,0.2,0c0.2,0,0.2,0,0.1,0.2c-0.1,0.3-0.2,0.7-0.2,1c-0.1,0.6-0.3,1.2-0.4,1.8
	c-0.1,0.4-0.2,0.7-0.3,1.1c-0.1,0.4-0.2,0.8-0.2,1.1c-0.1,0.4-0.2,0.8-0.3,1.1c0,0.2-0.1,0.4-0.1,0.7c0,0.1-0.1,0.1-0.2,0.1
	c-0.6,0-1.3,0-1.9,0c-0.1,0-0.2,0-0.2-0.1c-0.1-0.3-0.2-0.6-0.2-0.9c-0.1-0.4-0.2-0.7-0.3-1.1c-0.2-0.6-0.3-1.1-0.5-1.7
	c0-0.1-0.1-0.3-0.1-0.4c0-0.1,0-0.1-0.1-0.1c0,0.1-0.1,0.2-0.1,0.4c-0.1,0.3-0.2,0.6-0.2,0.9c-0.2,0.6-0.3,1.2-0.5,1.8
	c-0.1,0.4-0.2,0.8-0.3,1.2c0,0.1-0.1,0.1-0.2,0.1c-0.6,0-1.3,0-1.9,0c-0.1,0-0.2,0-0.2-0.2c-0.1-0.6-0.3-1.2-0.4-1.8
	c-0.1-0.4-0.2-0.9-0.3-1.3c-0.1-0.3-0.1-0.5-0.2-0.8c-0.1-0.3-0.1-0.7-0.2-1c-0.1-0.3-0.1-0.6-0.2-0.9c-0.1-0.3-0.1-0.7-0.2-1
	c0-0.1,0.1-0.1,0.1-0.1c0.2,0,0.5,0,0.7,0c0.3,0,0.7,0,1,0c0.1,0,0.2,0,0.2,0.2c0.1,0.4,0.2,0.8,0.2,1.3c0.1,0.5,0.2,1,0.3,1.5
	c0.1,0.3,0.1,0.5,0.1,0.8C14.6,50.7,14.6,50.7,14.6,50.8z"/>
<path class="st1" d="M33.1,46.7c0.6,0,1.2,0.1,1.7,0.3c0.6,0.2,1,0.6,1.3,1.1c0.3,0.5,0.5,1.1,0.5,1.6c0.1,0.7,0,1.3-0.1,2
	c-0.2,0.6-0.5,1.1-0.9,1.5c-0.5,0.4-1.1,0.6-1.7,0.7c-0.6,0.1-1.2,0.1-1.8,0c-0.4-0.1-0.7-0.2-1-0.3c-0.4-0.2-0.7-0.5-1-0.9
	c-0.2-0.3-0.4-0.6-0.5-0.9c-0.1-0.2-0.2-0.5-0.2-0.7c0-0.4,0-0.9,0-1.3c0.1-0.8,0.4-1.6,1-2.2c0.4-0.4,0.9-0.7,1.5-0.8
	C32.2,46.8,32.6,46.7,33.1,46.7z M31.5,50.3c0,0.2,0,0.3,0,0.5c0,0.4,0.1,0.7,0.3,1c0.3,0.4,0.6,0.6,1.1,0.6c0.5,0,0.9-0.1,1.2-0.5
	c0.2-0.2,0.3-0.5,0.3-0.8c0.1-0.6,0.1-1.2-0.1-1.8c-0.1-0.3-0.3-0.6-0.5-0.7c-0.4-0.2-0.8-0.3-1.3-0.2c-0.4,0.1-0.6,0.3-0.8,0.7
	C31.5,49.5,31.5,50,31.5,50.3z"/>
<path class="st1" d="M22.4,50.4c0-1.1,0-2.3,0-3.4c0-0.1,0-0.1,0.1-0.1c1.1,0,2.3,0,3.4,0c0.4,0,0.8,0,1.2,0.2
	c0.5,0.2,0.8,0.5,1.1,0.9c0.1,0.1,0.1,0.2,0.1,0.4c0.2,0.6,0.2,1.2-0.1,1.8c-0.3,0.7-0.8,1-1.4,1.2c-0.6,0.2-1.2,0.1-1.8,0.1
	c-0.5,0-0.4-0.1-0.4,0.4c0,0.7,0,1.4,0,2.1c0,0.1,0,0.1-0.1,0.1c-0.7,0-1.3,0-2,0c-0.1,0-0.1-0.1-0.1-0.1
	C22.4,52.7,22.4,51.5,22.4,50.4z M25.1,48.3C25.1,48.3,25.1,48.3,25.1,48.3c-0.1,0-0.2,0-0.3,0c0,0-0.1,0.1-0.1,0.1
	c0,0.5,0,0.9,0,1.4c0,0,0.1,0.1,0.1,0.1c0.3,0,0.6,0,0.9-0.1c0.5-0.1,0.7-0.4,0.6-0.8c0-0.3-0.3-0.6-0.6-0.7
	C25.5,48.3,25.3,48.3,25.1,48.3z"/>
<path class="st1" d="M22.3,25.8c0.6,0,1.3,0,1.9,0c0.1,0,0.1,0.1,0.1,0.2c0,0.7,0,1.4,0,2.1c0,0.4,0,0.8,0,1.3
	c0,0.1-0.1,0.1-0.2,0.1c-0.3,0-0.7,0-1,0c-0.7,0-1.3,0-2,0c-0.1,0-0.2,0-0.2-0.2c-0.2-0.6-0.4-1.2-0.6-1.9c-0.1-0.5-0.1-1-0.1-1.5
	c0-0.1,0-0.1,0.2-0.1C21,25.8,21.7,25.8,22.3,25.8C22.3,25.8,22.3,25.8,22.3,25.8z"/>
<path class="st1" d="M26.8,25.8c0.6,0,1.2,0,1.9,0c0.1,0,0.2,0.1,0.2,0.2c0,0.6-0.1,1.2-0.2,1.8c-0.1,0.5-0.3,1.1-0.5,1.6
	c0,0.1-0.1,0.1-0.2,0.1c-0.9,0-1.7,0-2.6,0c-0.1,0-0.3,0-0.4,0c-0.1,0-0.2,0-0.2-0.2c0-0.2,0-0.4,0-0.6c0-0.6,0-1.2,0-1.8
	c0-0.3,0-0.6,0-1c0-0.1,0-0.1,0.1-0.1C25.5,25.8,26.1,25.8,26.8,25.8C26.8,25.8,26.8,25.8,26.8,25.8z"/>
<path class="st1" d="M24.3,23.5c0,0.5,0,1.1,0,1.6c0,0.2,0,0.2-0.2,0.2c-0.7,0-1.5,0-2.2,0c-0.5,0-1,0-1.5,0c0,0-0.1-0.1-0.1-0.1
	c0-0.4,0.1-0.8,0.1-1.2c0.1-0.4,0.1-0.8,0.3-1.2c0.1-0.4,0.3-0.8,0.5-1.2c0,0,0.1-0.1,0.1-0.1c1,0,2,0,3,0c0.1,0,0.1,0.1,0.1,0.2
	C24.3,22.4,24.3,23,24.3,23.5C24.3,23.5,24.3,23.5,24.3,23.5z"/>
<path class="st1" d="M30.2,21.7c0.4,0,0.7,0,1.1,0c0.1,0,0.2,0,0.3,0.2c0.2,0.4,0.4,0.8,0.5,1.2c0.1,0.4,0.2,0.9,0.3,1.3
	c0,0.1,0.1,0.3,0.1,0.4c0,0.3,0,0.4-0.3,0.5c-0.5,0.2-1,0.1-1.5,0.1c-0.4,0-0.8,0-1.3,0c-0.1,0-0.1-0.1-0.1-0.1c0-0.2,0-0.4,0-0.5
	c-0.1-0.8-0.2-1.6-0.5-2.3c-0.1-0.2-0.2-0.4-0.2-0.6c0-0.1,0-0.1,0.1-0.1C29,21.7,29.6,21.7,30.2,21.7
	C30.2,21.7,30.2,21.7,30.2,21.7z"/>
<path class="st1" d="M19.4,19c-0.1,0.1-0.1,0.2-0.2,0.2c-0.4,0.3-0.7,0.7-1.1,1c-0.3,0.4-0.5,0.7-0.8,1.1c-0.4,0.5-0.6,1.1-0.8,1.7
	c0,0,0,0.1-0.1,0.1c0,0-0.1,0-0.1,0c-0.2-0.3-0.5-0.6-0.7-0.8c-0.6-0.7-1.3-1.3-2-1.9c-0.2-0.1-0.3-0.3-0.5-0.4c0,0-0.1-0.1-0.1-0.1
	c0,0,0-0.1,0.1-0.1c0.5-0.1,0.9-0.3,1.4-0.4c0.5-0.1,1-0.2,1.4-0.2c0.4-0.1,0.9-0.1,1.3-0.1c0.4,0,0.9-0.1,1.3-0.1
	c0.2,0,0.4,0,0.6-0.1C19.3,18.9,19.3,19,19.4,19z"/>
<path class="st1" d="M27.6,17.7c0,0-0.1,0-0.1,0c-0.2,0-0.4-0.1-0.7-0.2c-0.5-0.1-1-0.2-1.5-0.2c-0.4,0-0.8-0.1-1.2,0
	c-0.4,0-0.8,0.1-1.1,0.2c0,0-0.1,0-0.1,0c0,0,0-0.1,0-0.1c0.1-0.4,0.4-0.7,0.6-1c0.2-0.4,0.5-0.7,0.7-1.1c0.3-0.6,0.6-1.2,0.9-1.9
	c0.1-0.1,0.1-0.3,0.2-0.5c0,0,0.1-0.1,0.1-0.1c0,0,0.1,0,0.1,0.1c0.5,0.7,0.9,1.4,1.2,2.2c0.2,0.4,0.3,0.9,0.5,1.3
	c0.2,0.4,0.3,0.8,0.5,1.3C27.5,17.6,27.6,17.6,27.6,17.7z"/>
<path class="st1" d="M19.1,21.7c0.5,0,1,0,1.4,0c0.1,0,0.1,0,0.1,0.1c0,0.1-0.1,0.2-0.1,0.3c-0.1,0.5-0.3,0.9-0.4,1.4
	c-0.1,0.5-0.1,0.9-0.2,1.4c0,0.1,0,0.3,0,0.4c0,0.1,0,0.1-0.1,0.1c-0.6,0-1.2,0-1.8,0c-0.1,0-0.2-0.1-0.2-0.1
	c-0.2-0.5-0.5-1-0.8-1.4c-0.1-0.1-0.1-0.2,0-0.4c0.1-0.4,0.3-0.8,0.4-1.2c0.1-0.2,0.2-0.4,0.3-0.5c0,0,0.1-0.1,0.2-0.1
	C18.2,21.7,18.6,21.7,19.1,21.7C19.1,21.7,19.1,21.7,19.1,21.7z"/>
<path class="st1" d="M18.8,25.8c0.3,0,0.6,0,0.9,0c0.1,0,0.2,0,0.2,0.2c0,0.4,0.1,0.9,0.1,1.3c0.1,0.7,0.3,1.3,0.6,2c0,0,0,0,0,0
	c0.1,0.1,0.1,0.2-0.1,0.2c-0.6,0-1.3,0-1.9,0c-0.2,0-0.4,0-0.7,0c-0.2,0.1-0.4,0-0.5-0.2c-0.1-0.2-0.2-0.5-0.2-0.7
	c0-0.3,0-0.6,0-0.9c0.1-0.6,0.3-1.2,0.6-1.8c0-0.1,0.1-0.1,0.2-0.1C18.3,25.8,18.5,25.8,18.8,25.8C18.8,25.8,18.8,25.8,18.8,25.8z"
	/>
<path class="st1" d="M19.4,21.3c-0.4,0-0.9,0-1.3,0c0,0-0.1,0-0.1,0c0,0,0-0.1,0-0.1c0.3-0.5,0.7-0.8,1-1.2c0.2-0.2,0.5-0.5,0.7-0.7
	c0.3-0.3,0.6-0.4,1-0.4c0.4,0,0.7,0,1.1-0.2c0.2-0.1,0.4-0.3,0.4-0.5c0-0.2,0-0.2,0.2-0.2c0.4-0.1,0.7-0.1,1.1-0.2
	c0.1,0,0.1,0,0.2,0c0,0.1,0,0.1-0.1,0.2c-0.6,0.4-1.1,0.9-1.5,1.5c-0.3,0.4-0.6,0.9-0.9,1.3c-0.1,0.1-0.2,0.3-0.2,0.5
	c0,0.1-0.1,0.1-0.2,0.1C20.3,21.3,19.8,21.3,19.4,21.3C19.4,21.3,19.4,21.3,19.4,21.3z"/>
<path class="st1" d="M16.9,29c0.1,0.1,0.1,0.2,0.2,0.3c0.4,0.6,0.8,1.3,1.2,1.8c0.2,0.3,0.5,0.5,0.8,0.7c0.1,0.1,0.1,0.1,0,0.2
	c-0.4,0.2-0.8,0.5-1.1,0.7c-0.4,0.3-0.8,0.6-1.3,0.9c-0.1,0.1-0.1,0.1-0.2,0.2c0,0-0.1,0-0.1,0c0,0,0-0.1,0-0.1c0-0.4,0-0.7,0-1.1
	c0-0.5,0.1-1,0.1-1.5c0.1-0.5,0.2-1.1,0.2-1.6C16.8,29.4,16.8,29.2,16.9,29C16.9,29,16.9,29,16.9,29z"/>
<path class="st1" d="M29.3,30.1c0.1,0.3,0.1,0.5,0.2,0.8c0,0.2,0.1,0.4,0.1,0.6c0,0.2-0.1,0.3-0.2,0.4c-0.5,0.5-1.1,0.8-1.8,1
	c-0.4,0.2-0.8,0.2-1.1,0.1c-0.1-0.1-0.2-0.1-0.3-0.2c0,0,0-0.1,0-0.1c0.2-0.2,0.4-0.4,0.6-0.6c0.4-0.4,0.7-0.9,1-1.4
	c0.1-0.2,0.2-0.4,0.3-0.6c0-0.1,0.1-0.1,0.2-0.1c0.3,0,0.6,0,0.8,0C29.3,29.8,29.4,29.8,29.3,30.1z"/>
<path class="st1" d="M24.3,19.8c0,0.5,0,0.9,0,1.4c0,0.1,0,0.1-0.1,0.1c-0.8,0-1.6,0-2.4,0c-0.1,0-0.2,0-0.3,0c-0.1,0-0.1,0-0.1-0.1
	c0.3-0.5,0.6-1,0.9-1.5c0.2-0.3,0.5-0.5,0.8-0.8c0.3-0.3,0.7-0.6,1-0.9c0,0,0.1-0.1,0.1-0.1c0,0,0,0.1,0,0.2
	C24.3,18.6,24.3,19.2,24.3,19.8C24.3,19.8,24.3,19.8,24.3,19.8z"/>
<path class="st1" d="M24.7,19.6c0-0.5,0-1,0-1.5c0-0.1,0-0.1,0-0.2c0,0,0-0.1,0-0.1c0,0,0.1,0,0.1,0c0.5,0.4,1,0.8,1.5,1.3
	c0.4,0.5,0.9,1,1.2,1.6c0.1,0.1,0.1,0.2,0.2,0.3c0.1,0.1,0,0.2-0.1,0.2c-0.2,0-0.4,0-0.6,0c-0.7,0-1.4,0-2.1,0c-0.1,0-0.2,0-0.2-0.1
	C24.7,20.6,24.7,20.1,24.7,19.6C24.7,19.6,24.7,19.6,24.7,19.6z"/>
<path class="st1" d="M31.8,21.6c0.3,0,0.5,0,0.7,0.1c0.9,0.1,1.7,0.3,2.6,0.3c0.1,0,0.2,0,0.3,0c0,0,0.1,0,0.1,0c0,0,0,0.1,0,0.1
	c-0.2,0.4-0.5,0.7-0.9,0.9c-0.1,0.1-0.2,0.3-0.3,0.4c-0.3,0.5-0.8,0.8-1.2,1.1c0,0,0,0-0.1,0c-0.2,0.1-0.2,0.1-0.2-0.1
	c-0.2-1-0.4-1.9-0.9-2.7C31.9,21.7,31.9,21.6,31.8,21.6z"/>
<path class="st1" d="M27.8,29.9c-0.2,0.4-0.4,0.7-0.7,1.1c-0.3,0.5-0.7,1-1.2,1.4c-0.1,0.1-0.2,0.1-0.3,0c-0.3-0.1-0.5-0.3-0.8-0.4
	c-0.1-0.1-0.2-0.1-0.2-0.2c0-0.6,0-1.1,0-1.7c0-0.1,0-0.2,0.2-0.2c0.9,0,1.9,0,2.8,0C27.7,29.8,27.7,29.8,27.8,29.9z"/>
<path class="st1" d="M30.4,21.2c-0.1,0-0.1,0-0.2,0c-0.7,0-1.3,0-2,0c0,0-0.1,0-0.1-0.1c-0.4-0.9-1-1.6-1.6-2.3
	c-0.3-0.3-0.5-0.5-0.8-0.8c-0.1-0.1-0.3-0.3-0.4-0.4c0,0,0,0-0.1-0.1c0.1,0,0.2,0,0.3,0c0.5,0.1,1,0.2,1.5,0.3
	c0.2,0.1,0.4,0.2,0.7,0.3c0.1,0,0.1,0.1,0.1,0.1c0.2,0.7,0.4,1.3,0.5,2c0,0,0,0.1,0,0.1c0,0.2,0.1,0.2,0.3,0.3
	c0.5,0.1,0.9,0.2,1.4,0.4c0.1,0,0.2,0,0.3,0.1C30.4,21.2,30.4,21.2,30.4,21.2C30.4,21.2,30.4,21.2,30.4,21.2z"/>
<path class="st1" d="M19.6,29.8c0.4,0,0.7,0,1.1,0c0.1,0,0.1,0,0.2,0.1c0.2,0.3,0.3,0.5,0.4,0.8c0,0,0,0,0,0
	c0.1,0.2,0.1,0.2-0.1,0.3c-0.5,0.2-0.9,0.4-1.4,0.7c-0.1,0.1-0.2,0-0.3,0c-0.5-0.4-1-0.9-1.3-1.4c-0.1-0.1-0.1-0.2-0.2-0.3
	c-0.1-0.1-0.1-0.1,0-0.2c0.2,0,0.4,0,0.7,0C19,29.8,19.3,29.8,19.6,29.8C19.6,29.8,19.6,29.8,19.6,29.8z"/>
<path class="st1" d="M27.5,33.3c0.1,0,0.2-0.1,0.2-0.1c0.6-0.2,1.2-0.5,1.7-1c0,0,0,0,0,0c0.2-0.1,0.2-0.1,0.3,0.1
	c0.1,0.3,0.2,0.6,0.3,0.9c0.1,0.4,0.2,0.7,0.4,1.1c0,0,0,0.1,0.1,0.1c0,0,0,0.1,0,0.1c0,0-0.1,0-0.1,0c-0.3-0.1-0.6-0.3-0.9-0.4
	C28.8,34,28.2,33.8,27.5,33.3C27.6,33.4,27.6,33.4,27.5,33.3z"/>
<path class="st1" d="M30.3,25.8c0.3,0,0.6,0,0.9,0c0.1,0,0.1,0,0.2,0.1c0,0-0.1,0.1-0.1,0.1c-0.5,0.4-1,0.7-1.5,1.1
	c-0.2,0.1-0.4,0.3-0.5,0.4c-0.2,0.1-0.3,0.3-0.2,0.5c0,0.1,0,0.2,0,0.2c0,0.4,0.1,0.8,0.1,1.1c0,0.1,0,0.1-0.1,0.1
	c-0.2,0-0.4,0-0.6,0c-0.1,0-0.1,0-0.1-0.2c0.1-0.2,0.2-0.5,0.3-0.7c0.1-0.5,0.2-0.9,0.3-1.4c0.1-0.4,0.1-0.8,0.1-1.3
	c0-0.1,0.1-0.2,0.2-0.2C29.7,25.8,30,25.8,30.3,25.8z"/>
<path class="st1" d="M21.3,29.8c0.1,0,0.2,0,0.2,0c0.9,0,1.8,0,2.6,0c0.1,0,0.2,0,0.2,0.2c0,0.4,0,0.8,0,1.2c0,0,0,0,0,0
	c0,0.1,0,0.1,0,0.2c-0.1,0-0.2,0-0.2-0.1c-0.4-0.3-0.8-0.6-1.1-0.9c-0.1-0.1-0.2-0.1-0.2,0c-0.2,0.1-0.5,0.2-0.7,0.3
	c-0.1,0-0.1,0-0.2-0.1C21.6,30.4,21.4,30.2,21.3,29.8C21.3,29.9,21.3,29.9,21.3,29.8z"/>
<path class="st1" d="M8.3,21.8c0-0.5,0.1-0.4,0.4-0.3c0.1,0,0.2,0.1,0.2,0.2c0,0.1,0,0.1,0,0.2c-0.1,0.2-0.1,0.3-0.3,0.3
	C8.4,22.2,8.3,22.1,8.3,21.8C8.3,21.9,8.3,21.9,8.3,21.8z"/>
<path class="st1" d="M14.1,37.5c0,0.2-0.1,0.3-0.3,0.3c-0.2,0-0.3-0.2-0.4-0.3c0,0,0-0.1,0-0.2c0.1-0.1,0.1-0.2,0.2-0.2
	c0,0,0.1,0,0.1,0C13.8,37.2,14,37.3,14.1,37.5C14.1,37.4,14.1,37.5,14.1,37.5z"/>
<path class="st1" d="M24.3,41.7c-0.2,0-0.2,0-0.2-0.3c0,0,0-0.1,0-0.1c0-0.2,0-0.2,0.2-0.2c0.1,0,0.2,0,0.3,0c0.1,0,0.2,0.1,0.2,0.2
	c0,0.1,0,0.2-0.2,0.3C24.5,41.7,24.4,41.7,24.3,41.7z"/>
<path class="st1" d="M8.8,27.4c0,0.3-0.1,0.5-0.4,0.5C8.3,27.9,8,28,7.8,28c-0.2,0-0.4-0.1-0.4-0.3c-0.1-0.3-0.1-0.3,0.3-0.4
	c0.3,0,0.6-0.1,0.9-0.1C8.8,27.1,8.8,27.1,8.8,27.4C8.8,27.3,8.8,27.3,8.8,27.4z"/>
<path class="st1" d="M21.8,41.4c-0.1,0.2-0.1,0.5-0.2,0.7c-0.1,0.2-0.4,0.3-0.6,0.2c-0.2-0.1-0.3-0.3-0.3-0.5c0-0.2,0-0.4,0.1-0.6
	c0.1-0.4,0.4-0.4,0.7-0.3c0.1,0,0.2,0.2,0.2,0.3C21.8,41.3,21.7,41.4,21.8,41.4C21.8,41.4,21.8,41.4,21.8,41.4z"/>
<path class="st1" d="M8.9,19.2c-0.3,0-0.5-0.1-0.8-0.2c-0.2-0.1-0.2-0.3-0.2-0.5c0-0.2,0.2-0.3,0.4-0.4c0.3,0,0.7,0.1,0.9,0.3
	c0.1,0.1,0.2,0.3,0.1,0.5C9.3,19,9.2,19.2,8.9,19.2C8.9,19.2,8.9,19.2,8.9,19.2z"/>
<path class="st1" d="M11.8,35.2c-0.1,0.1-0.1,0.1-0.2,0.2c-0.1,0.1-0.2,0.3-0.3,0.4c-0.1,0.1-0.1,0.1-0.2,0
	c-0.1-0.1-0.1-0.2-0.2-0.2c0-0.1,0-0.1,0.1-0.2c0.2-0.1,0.4-0.2,0.6-0.2C11.7,35.2,11.7,35.2,11.8,35.2
	C11.8,35.2,11.8,35.2,11.8,35.2z"/>
<path class="st1" d="M38.4,32.8c0.1,0,0.1,0,0.1,0c0.2,0,0.5,0.1,0.7,0.1c0.1,0,0.1,0.1,0.1,0.1c0,0.1-0.1,0.2-0.2,0.3
	c0,0.1-0.1,0.1-0.2,0C38.8,33.2,38.6,33.1,38.4,32.8C38.4,32.9,38.4,32.9,38.4,32.8z"/>
<path class="st1" d="M32.3,39.4c0.2,0.1,0.3,0.3,0.5,0.4c0,0,0.1,0.1,0.1,0.1c0.1,0.1,0.1,0.2,0,0.2c-0.1,0-0.1,0.1-0.2,0.1
	c-0.1,0-0.1,0-0.2-0.1c-0.1-0.2-0.1-0.4-0.2-0.6C32.2,39.5,32.2,39.4,32.3,39.4C32.2,39.4,32.3,39.4,32.3,39.4z"/>
<path class="st1" d="M30.4,40.6c0,0-0.1,0.1-0.2,0.2c0,0,0,0,0,0c-0.3,0.1-0.3,0.1-0.4-0.2c0,0,0,0,0,0c0-0.1-0.2-0.2-0.1-0.3
	c0.1-0.1,0.3-0.1,0.4-0.1C30.3,40.2,30.4,40.3,30.4,40.6z"/>
</svg>
