<svg fill="none" height="120" viewBox="0 0 120 120" width="120" xmlns="http://www.w3.org/2000/svg"><path d="m0 0h120v120h-120z" fill="#1880b6"/><g stroke="#324249" stroke-linecap="round" stroke-linejoin="round" stroke-width="2"><path d="m86.5 37s-15 0-26.25-10c-11.25 10-26.25 10-26.25 10v25c0 20 26.25 30 26.25 30s26.25-10 26.25-30z" fill="#daecf2"/><path d="m60.25 74.5v17.5"/><path d="m60.25 27v17.5"/><path d="m60.25 74.5c8.9746 0 16.25-7.2754 16.25-16.25s-7.2754-16.25-16.25-16.25-16.25 7.2754-16.25 16.25 7.2754 16.25 16.25 16.25z" fill="#ff6673"/></g><path d="m66.5 55.75c0 3.4517-2.7983 6.25-6.25 6.25-3.4518 0-6.25-2.7983-6.25-6.25 0-3.4518 2.7982-6.25 6.25-6.25 3.4517 0 6.25 2.7982 6.25 6.25z" fill="#daecf2"/><path d="m69.3892 71.6884c-2.604 1.7744-5.7505 2.8116-9.1392 2.8116-3.3888 0-6.5353-1.0373-9.1393-2.8118 2.0422-2.8392 5.3748-4.6882 9.1393-4.6882s7.0971 1.849 9.1392 4.6884z" fill="#daecf2"/><path d="m66.5 55.75c0 3.4517-2.7983 6.25-6.25 6.25-3.4518 0-6.25-2.7983-6.25-6.25 0-3.4518 2.7982-6.25 6.25-6.25 3.4517 0 6.25 2.7982 6.25 6.25z" stroke="#324249" stroke-linecap="round" stroke-linejoin="round" stroke-width="2"/><path d="m69.3892 71.6884c-2.604 1.7744-5.7505 2.8116-9.1392 2.8116-3.3888 0-6.5353-1.0373-9.1393-2.8118 2.0422-2.8392 5.3748-4.6882 9.1393-4.6882s7.0971 1.849 9.1392 4.6884z" stroke="#324249" stroke-linecap="round" stroke-linejoin="round" stroke-width="2"/></svg>