<svg fill="none" height="120" viewBox="0 0 120 120" width="120" xmlns="http://www.w3.org/2000/svg" xmlns:xlink="http://www.w3.org/1999/xlink"><clipPath id="a"><path d="m28 27h65v65h-65z"/></clipPath><mask id="b" height="65" maskUnits="userSpaceOnUse" width="65" x="28" y="27"><path d="m93 27h-65v65h65z" fill="#fff"/></mask><path d="m0 0h120v120h-120z" fill="#1880b6"/><g clip-path="url(#a)"><g mask="url(#b)"><path d="m43.381 76.619c-8.092-1.4986-14.2203-8.5931-14.2203-17.119s6.1283-15.6204 14.2203-17.119c1.4986-8.092 8.5931-14.2203 17.119-14.2203s15.6204 6.1283 17.119 14.2203c8.0919 1.4986 14.2203 8.5931 14.2203 17.119s-6.1284 15.6204-14.2203 17.119c-1.4986 8.0919-8.5931 14.2203-17.119 14.2203s-15.6204-6.1284-17.119-14.2203z" fill="#daecf2" stroke="#324249" stroke-linecap="round" stroke-linejoin="round" stroke-width="2"/><path d="m63.9821 53.6964c0-2.5641 2.0788-4.6428 4.6429-4.6428s4.6429 2.0787 4.6429 4.6428v5.8036c0 2.5641-2.0788 4.6428-4.6429 4.6428s-4.6429-2.0787-4.6429-4.6428z" fill="#ff6673"/><path d="m67.4643 68.2054c0 .641.5196 1.1607 1.1607 1.1607s1.1607-.5197 1.1607-1.1607zm2.3214 0v-4.0625h-2.3214v4.0625zm2.3214-14.509v5.8036h2.3215v-5.8036zm-6.9642 5.8036v-5.8036h-2.3215v5.8036zm3.4821 3.4821c-1.9232 0-3.4821-1.5589-3.4821-3.4821h-2.3215c0 3.2052 2.5984 5.8036 5.8036 5.8036zm3.4821-3.4821c0 1.9232-1.5589 3.4821-3.4821 3.4821v2.3215c3.2052 0 5.8036-2.5984 5.8036-5.8036zm-3.4821-9.2857c1.9232 0 3.4821 1.5589 3.4821 3.4821h2.3215c0-3.2052-2.5984-5.8035-5.8036-5.8035zm0-2.3214c-3.2052 0-5.8036 2.5983-5.8036 5.8035h2.3215c0-1.9232 1.5589-3.4821 3.4821-3.4821z" fill="#324249"/><path d="m47.7321 49.0536c0-2.5642 2.0788-4.6429 4.6429-4.6429s4.6429 2.0787 4.6429 4.6429v8.125c0 2.5641-2.0788 4.6428-4.6429 4.6428s-4.6429-2.0787-4.6429-4.6428z" fill="#ff6673"/><path d="m51.2143 68.2053c0 .6411.5196 1.1608 1.1607 1.1608s1.1607-.5197 1.1607-1.1608zm2.3214 0v-6.3839h-2.3214v6.3839zm2.3214-19.1517v8.125h2.3215v-8.125zm-6.9642 8.125v-8.125h-2.3215v8.125zm3.4821 3.4821c-1.9232 0-3.4821-1.559-3.4821-3.4821h-2.3215c0 3.2052 2.5984 5.8035 5.8036 5.8035zm3.4821-3.4821c0 1.9231-1.5589 3.4821-3.4821 3.4821v2.3214c3.2052 0 5.8036-2.5983 5.8036-5.8035zm-3.4821-11.6072c1.9232 0 3.4821 1.559 3.4821 3.4822h2.3215c0-3.2052-2.5984-5.8036-5.8036-5.8036zm0-2.3214c-3.2052 0-5.8036 2.5984-5.8036 5.8036h2.3215c0-1.9232 1.5589-3.4822 3.4821-3.4822z" fill="#324249"/><path d="m37.8085 74.5481c1.696.9897 3.5744 1.7009 5.5725 2.0709 1.4986 8.0919 8.5931 14.2203 17.119 14.2203s15.6204-6.1284 17.119-14.2203c1.9982-.37 3.8766-1.0812 5.5725-2.0709-6.4793-4.3713-14.2875-6.9231-22.6915-6.9231s-16.212 2.5518-22.6915 6.9231z" fill="#ff6673" stroke="#324249" stroke-linecap="round" stroke-linejoin="round" stroke-width="2"/></g></g></svg>