<svg fill="none" height="120" viewBox="0 0 120 120" width="120" xmlns="http://www.w3.org/2000/svg"><path d="m0 0h120v120h-120z" fill="#1880b6"/><path d="m84.875 28.1607h-48.75v62.6786h48.75z" fill="#daecf2" stroke="#324249" stroke-linecap="round" stroke-linejoin="round" stroke-width="2"/><path d="m60.5 65.3036c8.3336 0 15.0893-6.7557 15.0893-15.0893s-6.7557-15.0893-15.0893-15.0893-15.0893 6.7557-15.0893 15.0893 6.7557 15.0893 15.0893 15.0893z" fill="#ff6673" stroke="#324249" stroke-linecap="round" stroke-linejoin="round" stroke-width="2"/><path d="m66.3036 47.8929c0 3.2051-2.5984 5.8035-5.8036 5.8035s-5.8036-2.5984-5.8036-5.8035c0-3.2052 2.5984-5.8036 5.8036-5.8036s5.8036 2.5984 5.8036 5.8036z" fill="#daecf2"/><path d="m68.9864 62.6928c-2.418 1.6476-5.3397 2.6108-8.4864 2.6108s-6.0685-.9632-8.4865-2.6109c1.8963-2.6365 4.9909-4.3534 8.4865-4.3534s6.5902 1.7169 8.4864 4.3535z" fill="#daecf2"/><path d="m66.3036 47.8929c0 3.2051-2.5984 5.8035-5.8036 5.8035s-5.8036-2.5984-5.8036-5.8035c0-3.2052 2.5984-5.8036 5.8036-5.8036s5.8036 2.5984 5.8036 5.8036z" stroke="#324249" stroke-linecap="round" stroke-linejoin="round" stroke-width="2"/><path d="m68.9864 62.6928c-2.418 1.6476-5.3397 2.6108-8.4864 2.6108s-6.0685-.9632-8.4865-2.6109c1.8963-2.6365 4.9909-4.3534 8.4865-4.3534s6.5902 1.7169 8.4864 4.3535z" stroke="#324249" stroke-linecap="round" stroke-linejoin="round" stroke-width="2"/><path d="m53.5357 81.5536c0 1.2821-1.0393 2.3214-2.3214 2.3214s-2.3214-1.0393-2.3214-2.3214 1.0393-2.3215 2.3214-2.3215 2.3214 1.0394 2.3214 2.3215z" fill="#ff6673"/><path d="m62.8214 81.5536c0 1.2821-1.0393 2.3214-2.3214 2.3214s-2.3214-1.0393-2.3214-2.3214 1.0393-2.3215 2.3214-2.3215 2.3214 1.0394 2.3214 2.3215z" fill="#ff6673"/><path d="m72.1072 81.5536c0 1.2821-1.0394 2.3214-2.3215 2.3214s-2.3214-1.0393-2.3214-2.3214 1.0393-2.3215 2.3214-2.3215 2.3215 1.0394 2.3215 2.3215z" fill="#ff6673"/><g stroke="#324249" stroke-linecap="round" stroke-width="2"><path d="m53.5357 81.5536c0 1.2821-1.0393 2.3214-2.3214 2.3214s-2.3214-1.0393-2.3214-2.3214 1.0393-2.3215 2.3214-2.3215 2.3214 1.0394 2.3214 2.3215z" stroke-linejoin="round"/><path d="m62.8214 81.5536c0 1.2821-1.0393 2.3214-2.3214 2.3214s-2.3214-1.0393-2.3214-2.3214 1.0393-2.3215 2.3214-2.3215 2.3214 1.0394 2.3214 2.3215z" stroke-linejoin="round"/><path d="m72.1072 81.5536c0 1.2821-1.0394 2.3214-2.3215 2.3214s-2.3214-1.0393-2.3214-2.3214 1.0393-2.3215 2.3214-2.3215 2.3215 1.0394 2.3215 2.3215z" stroke-linejoin="round"/><path d="m45.4107 72.2679h30.1786"/></g></svg>