<?xml version="1.0" standalone="no"?>
<!DOCTYPE svg PUBLIC "-//W3C//DTD SVG 20010904//EN"
 "http://www.w3.org/TR/2001/REC-SVG-20010904/DTD/svg10.dtd">
<svg version="1.0" xmlns="http://www.w3.org/2000/svg"
 width="700.000000pt" height="700.000000pt" viewBox="0 0 700.000000 700.000000"
 preserveAspectRatio="xMidYMid meet">
<metadata>
Created by potrace 1.11, written by Peter Selinger 2001-2013
</metadata>
<g transform="translate(0.000000,700.000000) scale(0.100000,-0.100000)"
fill="#000000" stroke="none">
<path d="M2 4008 l3 -2743 27 -97 c113 -408 398 -693 806 -806 l97 -27 3033
-3 3032 -2 -3 2742 c-3 3035 3 2768 -66 2958 -123 335 -403 590 -756 687
l-100 28 -3038 3 -3037 2 2 -2742z m906 354 l2 -2142 533 2 532 3 5 610 c6
673 1 624 72 758 38 72 134 172 203 212 292 172 655 65 804 -236 74 -151 71
-64 71 -1607 l0 -1383 -1093 4 -1092 3 -80 23 c-269 77 -463 238 -557 463 -61
146 -58 -23 -58 2829 l0 2609 328 -2 327 -3 3 -2143z m2222 1611 c0 -352 -4
-559 -11 -601 -40 -231 -210 -419 -429 -477 -72 -19 -200 -19 -275 0 -200 51
-367 217 -420 415 -12 45 -15 159 -15 628 l0 572 575 0 575 0 0 -537z m2920
515 c227 -55 427 -190 546 -367 46 -68 106 -196 130 -276 18 -57 19 -182 21
-2662 l3 -2603 -1275 0 -1275 0 0 574 0 574 338 4 c297 4 350 7 445 27 702
143 1217 695 1298 1391 16 138 6 365 -21 492 -143 674 -707 1192 -1398 1283
-77 10 -201 15 -388 15 l-274 0 0 785 0 786 893 -4 c773 -3 901 -5 957 -19z
m-1275 -2633 c215 -55 376 -233 407 -451 23 -162 -33 -327 -151 -444 -78 -77
-142 -113 -247 -140 -67 -17 -111 -20 -331 -20 l-253 0 0 535 0 535 258 0
c198 0 272 -4 317 -15z"/>
</g>
</svg>
