<svg fill="none" height="120" viewBox="0 0 120 120" width="120" xmlns="http://www.w3.org/2000/svg"><path d="m0 0h120v120h-120z" fill="#1880b6"/><path d="m43.0645 34h33.871c9.9355 0 18.0645 8.129 18.0645 18.0645s-8.129 18.0645-18.0645 18.0645h-33.871c-9.9355 0-18.0645-8.129-18.0645-18.0645s8.129-18.0645 18.0645-18.0645z" fill="#daecf2" stroke="#324249" stroke-linecap="round" stroke-linejoin="round" stroke-width="2"/><path d="m66.7742 64.8226 12.4194-5.0807c2.1451-.9032 4.629 0 5.758 1.9194l3.7258 6.5484c2.5968 4.4032 1.0162 10.0484-3.3871 12.6451l-6.8871 3.9517c-3.8387 2.258-8.8064.9032-11.0645-2.9355l-12.4193-21.4516c-1.1291-1.9194-.4517-4.4033 1.4677-5.5323 1.9193-1.129 4.4032-.4516 5.5323 1.4677z" fill="#ff6673" stroke="#324249" stroke-linecap="round" stroke-linejoin="round" stroke-width="2"/><path d="m57.7419 39.6452v6.7742zm14.1129 6.7742-5.3064 4.2903zm-31.7258 15.3548 6.5484-1.4677zm3.5-15.3548 5.3065 4.2903z" fill="#daecf2"/><path d="m57.7419 39.6452v6.7742m14.1129 0-5.3064 4.2903m-26.4194 11.0645 6.5484-1.4677m-3.0484-13.8871 5.3065 4.2903" stroke="#324249" stroke-linecap="round" stroke-linejoin="round" stroke-width="2"/></svg>