<svg fill="none" height="120" viewBox="0 0 120 120" width="120" xmlns="http://www.w3.org/2000/svg"><path d="m0 0h120v120h-120z" fill="#1880b6"/><g stroke="#324249" stroke-linecap="round" stroke-linejoin="round" stroke-width="2"><path d="m30 30h60v60h-60z" fill="#daecf2"/><path d="m36.6667 38.8889c1.2273 0 2.2222-.9949 2.2222-2.2222s-.9949-2.2223-2.2222-2.2223-2.2223.995-2.2223 2.2223.995 2.2222 2.2223 2.2222z" fill="#ff6673"/><path d="m45.5556 38.8889c1.2273 0 2.2222-.9949 2.2222-2.2222s-.9949-2.2223-2.2222-2.2223-2.2223.995-2.2223 2.2223.995 2.2222 2.2223 2.2222z" fill="#ff6673"/><path d="m35.5556 64.4444c6.6666-9.6296 14.8148-14.4444 24.4444-14.4444s17.7778 4.8148 24.4444 14.4444c-6.5925 9.6297-14.7407 14.4445-24.4444 14.4445s-17.8519-4.8148-24.4444-14.4445z" fill="#ff6673"/><path d="m60 73.3333c4.9092 0 8.8889-3.9797 8.8889-8.8889s-3.9797-8.8889-8.8889-8.8889-8.8889 3.9797-8.8889 8.8889 3.9797 8.8889 8.8889 8.8889z" fill="#daecf2"/></g><path d="m60 58.8889v5.5555h5.5556c-.0174-1.468-.6082-2.8711-1.6464-3.9092-1.0381-1.0381-2.4411-1.629-3.9092-1.6463z" fill="#324249"/></svg>