<svg fill="none" height="120" viewBox="0 0 120 120" width="120" xmlns="http://www.w3.org/2000/svg" xmlns:xlink="http://www.w3.org/1999/xlink"><clipPath id="a"><path d="m0 0h120v120h-120z"/></clipPath><g clip-path="url(#a)"><path d="m0 0h120v120h-120z" fill="#1880b6"/><path d="m88.9894 27.9789h-46.2244v54.3299h46.2244z" fill="#daecf2"/><g fill="#324249"><path d="m88.9894 83.2877h-46.2244c-.2597 0-.5087-.1031-.6922-.2867-.1836-.1836-.2868-.4325-.2868-.6922v-54.3299c0-.2596.1032-.5086.2868-.6922.1835-.1836.4325-.2867.6922-.2867h46.2244c.2597 0 .5087.1031.6922.2867.1836.1836.2868.4326.2868.6922v54.3299c0 .2597-.1032.5086-.2868.6922-.1835.1836-.4325.2867-.6922.2867zm-45.2455-1.9578h44.2666v-52.3721h-44.2666z"/><path d="m80.561 66.4014h-27.8013c-.2596 0-.5086-.1031-.6922-.2867s-.2867-.4326-.2867-.6922.1031-.5086.2867-.6922.4326-.2867.6922-.2867h27.8013c.2596 0 .5086.1031.6922.2867.1835.1836.2867.4326.2867.6922s-.1032.5086-.2867.6922c-.1836.1836-.4326.2867-.6922.2867z"/><path d="m80.561 59.8231h-27.8013c-.2596 0-.5086-.1031-.6922-.2867s-.2867-.4326-.2867-.6922.1031-.5086.2867-.6922.4326-.2867.6922-.2867h27.8013c.2596 0 .5086.1031.6922.2867.1835.1836.2867.4326.2867.6922s-.1032.5086-.2867.6922c-.1836.1836-.4326.2867-.6922.2867z"/><path d="m62.7055 73.0287h-9.9458c-.2596 0-.5086-.1031-.6922-.2867s-.2867-.4326-.2867-.6922c0-.2597.1031-.5086.2867-.6922s.4326-.2867.6922-.2867h9.9458c.2596 0 .5086.1031.6922.2867s.2867.4325.2867.6922c0 .2596-.1031.5086-.2867.6922s-.4326.2867-.6922.2867z"/></g><path d="m55.1091 41.7719c-.7731-.0021-1.5387.151-2.2515.4503-.335-1.9665-1.2722-3.7805-2.6822-5.1915-1.4101-1.411-3.2234-2.3494-5.1896-2.6857-1.9663-.3363-3.9884-.0539-5.7872.8083-1.7989.8621-3.2857 2.2615-4.2552 4.0048-.6549-.1926-1.3339-.2915-2.0166-.2936-1.8816.0972-3.6541.9131-4.9515 2.2793-1.2975 1.3662-2.0209 3.1784-2.0209 5.0626 0 1.8841.7234 3.6963 2.0209 5.0625 1.2974 1.3662 3.0699 2.1821 4.9515 2.2793h22.1823c1.5578 0 3.0517-.6188 4.1532-1.7203s1.7203-2.5954 1.7203-4.1532c0-1.5577-.6188-3.0517-1.7203-4.1532s-2.5954-1.7203-4.1532-1.7203z" fill="#ff6673"/><path d="m55.1091 54.5467h-22.1822c-2.137-.1037-4.1522-1.0256-5.628-2.5747-1.4757-1.5491-2.2989-3.6066-2.2989-5.7461s.8232-4.197 2.2989-5.7461c1.4758-1.5491 3.491-2.471 5.628-2.5747.5196-.0017 1.0379.0508 1.5466.1567 1.1202-1.6933 2.7023-3.0301 4.5587-3.8519 1.8565-.8219 3.9097-1.0945 5.9163-.7855 2.0066.3091 3.8826 1.1867 5.4058 2.5291s2.6297 3.0932 3.1886 5.045c.5123-.1292 1.0379-.1982 1.5662-.2056 1.8174 0 3.5603.722 4.8454 2.0071 1.2851 1.285 2.007 3.028 2.007 4.8454 0 1.8173-.7219 3.5603-2.007 4.8454-1.2851 1.285-3.028 2.007-4.8454 2.007zm-22.1529-14.6837c-1.6265.0902-3.1567.8-4.2763 1.9833-1.1195 1.1834-1.7433 2.7506-1.7433 4.3796 0 1.6291.6238 3.1963 1.7433 4.3796 1.1196 1.1834 2.6498 1.8931 4.2763 1.9834h22.1529c.7124-.0182 1.4122-.1918 2.0505-.5086.6384-.3167 1.1999-.7691 1.6452-1.3254.4454-.5563.7639-1.2031.9333-1.8953.1695-.6922.1857-1.413.0476-2.1121s-.4272-1.3597-.847-1.9355c-.4199-.5757-.9604-1.0529-1.5839-1.3981-.6234-.3452-1.3147-.5501-2.0255-.6004s-1.4241.0553-2.0899.3093c-.1349.062-.2821.0926-.4306.0893-.1484-.0032-.2942-.0402-.4262-.1081-.1321-.0679-.2469-.165-.3359-.2838-.089-.1189-.1498-.2564-.1778-.4023-.3111-1.757-1.1571-3.3751-2.4224-4.6331-1.2653-1.2581-2.8882-2.0948-4.647-2.3958s-3.5676-.0516-5.1792.7142c-1.6117.7657-2.9476 2.0104-3.8252 3.564-.1083.1924-.2784.3425-.4828.4261-.2043.0835-.4309.0955-.643.034-.5646-.1759-1.1512-.2715-1.7424-.2839z" fill="#324249"/><path d="m80.512 35.5459h-15.4179v4.1115h5.2666v12.6182h4.8848v-12.6182h5.2665z" fill="#daecf2"/><path d="m75.2455 53.2546h-4.8946c-.2596 0-.5086-.1032-.6922-.2868-.1836-.1835-.2867-.4325-.2867-.6922v-11.6393h-4.2779c-.2596 0-.5086-.1031-.6922-.2867s-.2867-.4326-.2867-.6922v-4.0919c0-.2596.1031-.5086.2867-.6922s.4326-.2867.6922-.2867h15.4669c.2596 0 .5086.1031.6922.2867s.2867.4326.2867.6922v4.1115c0 .2596-.1031.5086-.2867.6922s-.4326.2867-.6922.2867h-4.3366v11.6197c0 .2597-.1032.5087-.2867.6922-.1836.1836-.4326.2868-.6922.2868zm-3.9157-1.9579h2.9367v-11.6393c0-.2596.1032-.5086.2868-.6922.1835-.1836.4325-.2867.6922-.2867h4.3366v-2.1341h-13.5091v2.1537h4.2877c.2596 0 .5086.1031.6922.2867.1835.1836.2867.4326.2867.6922z" fill="#324249"/><path d="m93.9722 73.8314c-3.0851-.1112-6.0474-1.2363-8.4285-3.2011-2.3811 1.9648-5.3435 3.0899-8.4285 3.2011v8.0271c0 6.4217 8.4285 9.6326 8.4285 9.6326s8.4285-3.2109 8.4285-9.6326z" fill="#ff6673"/><path d="m85.5436 92.47c-.1198-.0004-.2388-.0202-.3524-.0587-.3719-.1469-9.0549-3.5339-9.0549-10.5528v-8.0271c0-.2596.1031-.5086.2867-.6922s.4326-.2867.6922-.2867c2.8408-.1101 5.5687-1.1409 7.7726-2.9368.1792-.1596.4109-.2478.651-.2478.24 0 .4717.0882.6509.2478 2.2164 1.8136 4.969 2.8458 7.8314 2.9368.2596 0 .5086.1031.6922.2867s.2867.4326.2867.6922v8.0271c0 7.0189-8.6928 10.4059-9.0648 10.5528-.1251.046-.2584.066-.3916.0587zm-7.4495-17.7478v7.107c0 4.9631 5.9322 7.8998 7.4495 8.5753 1.5174-.6755 7.4496-3.6122 7.4496-8.5753v-7.107c-2.6965-.2592-5.2717-1.2473-7.4496-2.8584-2.1785 1.6098-4.7533 2.5977-7.4495 2.8584z" fill="#324249"/></g></svg>