<svg enable-background="new 0 0 120 120" viewBox="0 0 120 120" xmlns="http://www.w3.org/2000/svg"><path d="m0 0h120v120h-120z" fill="#1880b6"/><path d="m35.6 56.1h48.9l10.2 30.9h-69.4z" fill="#daecf2" stroke="#324249" stroke-linecap="round" stroke-linejoin="round" stroke-width="2"/><path d="m45.8 87c-2.1-6-3.6-18 7.7-18 14.2 0 18-5.8 18-12.9m-26.3 16.8h-14.8m52.8 14.1-11.6-11.6m-7.7-7.7 7.7 7.7m0 0-11.6 11.6" fill="none" stroke="#324249" stroke-linecap="round" stroke-linejoin="round" stroke-width="2"/><path clip-rule="evenodd" d="m84.4 54.9c1.7-3.2 2.6-5.9 2.6-7.7 0-5-4-9-9-9s-9 4-9 9c0 1.8.8 4.5 2.6 7.7l6.4 11.5zm-6.4-5.2c1.4 0 2.6-1.2 2.6-2.6s-1.2-2.6-2.6-2.6-2.6 1.2-2.6 2.6 1.2 2.6 2.6 2.6z" fill="#ff6673" fill-rule="evenodd"/><path d="m84.4 54.9 1.1.6zm-12.8 0-1.1.6zm6.4 11.5-1.1.6c.2.4.7.7 1.1.7.5 0 .9-.3 1.1-.7zm7.7-19.3c0 1.5-.7 4-2.4 7.1l2.3 1.2c1.8-3.3 2.7-6.2 2.7-8.3zm-7.7-7.7c4.3 0 7.7 3.5 7.7 7.7h2.6c0-5.7-4.6-10.3-10.3-10.3zm-7.7 7.7c0-4.3 3.5-7.7 7.7-7.7v-2.6c-5.7 0-10.3 4.6-10.3 10.3zm2.4 7.1c-1.7-3.1-2.4-5.6-2.4-7.1h-2.6c0 2.1.9 5 2.7 8.3zm6.4 11.6-6.4-11.6-2.2 1.2 6.4 11.6zm4.2-11.6-6.4 11.6 2.2 1.2 6.4-11.6zm-4-7.1c0 .7-.6 1.3-1.3 1.3v2.6c2.1 0 3.9-1.7 3.9-3.9zm-1.3-1.3c.7 0 1.3.6 1.3 1.3h2.6c0-2.1-1.7-3.9-3.9-3.9zm-1.3 1.3c0-.7.6-1.3 1.3-1.3v-2.6c-2.1 0-3.9 1.7-3.9 3.9zm1.3 1.3c-.7 0-1.3-.6-1.3-1.3h-2.6c0 2.1 1.7 3.9 3.9 3.9z" fill="#324249"/><path d="m51 49.7c1.7-3.2 2.6-5.9 2.6-7.7 0-5-4-9-9-9s-9 4-9 9c0 1.8.8 4.5 2.6 7.7l6.4 11.6zm-6.4-5.1c1.4 0 2.6-1.2 2.6-2.6s-1.2-2.6-2.6-2.6-2.6 1.2-2.6 2.6 1.1 2.6 2.6 2.6z" style="fill-rule:evenodd;clip-rule:evenodd;fill:#ff6673;stroke:#324249;stroke-width:2;stroke-linejoin:round"/></svg>